<svg width="546" height="815" viewBox="0 0 546 815" fill="none" xmlns="http://www.w3.org/2000/svg">
<mask id="mask0" mask-type="alpha" maskUnits="userSpaceOnUse" x="0" y="-846" width="546" height="1661">
<path opacity="0.2" d="M462.559 814.599C461.87 814.23 461.308 813.645 460.95 812.925C460.592 812.205 460.457 811.385 460.563 810.58L378.003 787.582C377.979 787.693 377.936 787.799 377.875 787.894C377.426 788.819 376.646 789.519 375.707 789.841C374.768 790.163 373.746 790.081 372.864 789.614C372.267 789.31 371.757 788.847 371.385 788.271C371.012 787.695 370.79 787.026 370.74 786.331L279.156 779.476C279.095 779.825 278.987 780.164 278.837 780.481C278.381 781.395 277.601 782.084 276.666 782.398C275.731 782.712 274.716 782.627 273.84 782.16C272.964 781.694 272.298 780.884 271.985 779.906C271.673 778.927 271.739 777.859 272.169 776.931C272.406 776.414 272.755 775.963 273.189 775.614L239.744 716.622C239.037 716.948 238.25 717.036 237.494 716.873C236.737 716.709 236.047 716.304 235.518 715.711C234.99 715.119 234.649 714.369 234.542 713.564C234.436 712.76 234.569 711.94 234.924 711.219C235.115 710.829 235.366 710.474 235.667 710.169L209.018 672.3C208.48 672.609 207.878 672.771 207.266 672.771C206.654 672.771 206.051 672.609 205.514 672.3C204.7 671.869 204.065 671.138 203.73 670.246L142.723 686.412C142.8 687.179 142.667 687.954 142.341 688.645C141.929 689.492 141.239 690.153 140.398 690.505C139.558 690.858 138.624 690.878 137.771 690.561C136.918 690.245 136.202 689.614 135.758 688.785C135.314 687.956 135.17 686.986 135.355 686.055L90.762 669.8C90.5447 670.268 90.2411 670.686 89.8688 671.03C89.4965 671.373 89.0629 671.636 88.5932 671.802C88.1236 671.967 87.6273 672.033 87.1331 671.996C86.639 671.958 86.1569 671.818 85.7149 671.582C85.2729 671.347 84.8798 671.021 84.5585 670.625C84.2372 670.228 83.9941 669.769 83.8433 669.272C83.6925 668.776 83.637 668.253 83.6801 667.735C83.7232 667.215 83.864 666.711 84.0943 666.249C84.3307 665.755 84.6654 665.319 85.0757 664.973C85.486 664.626 85.9624 664.376 86.4726 664.24L78.998 603.15C78.4338 603.148 77.8772 603.012 77.3701 602.752C76.8629 602.492 76.4183 602.115 76.0696 601.648C75.7209 601.182 75.4772 600.639 75.3567 600.059C75.2362 599.479 75.2421 598.879 75.3739 598.302C75.5057 597.725 75.76 597.187 76.1177 596.728C76.4755 596.269 76.9273 595.902 77.4395 595.653C77.9516 595.404 78.5107 595.28 79.0748 595.291C79.639 595.301 80.1935 595.446 80.6968 595.714L80.8879 595.848L154.041 497.38L153.808 497.068L154.381 496.911L155.57 495.326L155.294 496.666L222.99 478.401C222.891 477.635 223.017 476.856 223.351 476.168C223.692 475.459 224.23 474.877 224.894 474.498C225.558 474.119 226.316 473.962 227.067 474.047L239.68 417.221L239.298 417.043C238.443 416.601 237.78 415.832 237.446 414.894C237.112 413.956 237.131 412.918 237.5 411.994C237.868 411.07 238.559 410.329 239.43 409.923C240.301 409.517 241.287 409.476 242.186 409.808L229.445 251.835C228.912 251.813 228.39 251.668 227.916 251.411C227.032 250.937 226.363 250.114 226.057 249.121C225.75 248.129 225.831 247.049 226.281 246.119C226.732 245.19 227.515 244.486 228.459 244.164C229.403 243.841 230.43 243.926 231.314 244.4C231.985 244.768 232.539 245.334 232.907 246.03L349.336 198.939C349.131 198.065 349.22 197.142 349.588 196.329C349.955 195.515 350.579 194.86 351.353 194.474L334.812 141.734C333.996 141.894 333.153 141.768 332.412 141.377C331.974 141.143 331.584 140.82 331.264 140.427C330.945 140.034 330.702 139.579 330.55 139.088C330.399 138.596 330.34 138.078 330.379 137.563C330.418 137.047 330.553 136.545 330.777 136.085C331.071 135.426 331.536 134.867 332.118 134.472C332.7 134.078 333.376 133.863 334.068 133.852L339.78 83.6806C339.508 83.6174 339.245 83.5199 338.995 83.3903C338.557 83.1557 338.167 82.8327 337.848 82.4398C337.529 82.047 337.287 81.5918 337.135 81.1005C336.983 80.6091 336.925 80.091 336.963 79.5759C337.002 79.0609 337.137 78.5588 337.36 78.0985C337.583 77.6381 337.89 77.2285 338.264 76.8929C338.637 76.5573 339.07 76.3024 339.537 76.1428C340.005 75.9832 340.497 75.9219 340.987 75.9624C341.477 76.003 341.954 76.1445 342.392 76.3791C342.534 76.4476 342.669 76.5299 342.796 76.6248L400.129 8.45632C399.74 7.98812 399.463 7.42958 399.319 6.82668C399.175 6.22377 399.17 5.59358 399.303 4.98793C399.436 4.38234 399.703 3.81844 400.084 3.34273C400.464 2.86696 400.947 2.49294 401.491 2.25124C402.036 2.00954 402.627 1.90706 403.217 1.95235C403.806 1.99764 404.377 2.18929 404.883 2.51161C405.388 2.83394 405.813 3.27773 406.124 3.80654C406.435 4.33534 406.622 4.93416 406.669 5.55367L456.252 8.00972C456.308 7.56527 456.437 7.1346 456.635 6.73708C457.046 5.8854 457.739 5.22066 458.583 4.86721C459.428 4.51381 460.365 4.49587 461.221 4.81679L472.582 -24.8129C472.511 -25.4002 472.567 -25.9967 472.747 -26.5577C472.928 -27.1185 473.227 -27.629 473.622 -28.0505L434.784 -80.1649C434.455 -79.9573 434.097 -79.8065 433.722 -79.7183C432.76 -79.4971 431.754 -79.6821 430.92 -80.2333C430.086 -80.7845 429.491 -81.6579 429.263 -82.6656C429.101 -83.403 429.147 -84.1741 429.396 -84.8841C429.645 -85.594 430.086 -86.2121 430.665 -86.6625L426.29 -96.8665L401.998 -153.603C401.52 -153.496 401.026 -153.489 400.545 -153.582C400.064 -153.676 399.606 -153.868 399.196 -154.148C398.786 -154.428 398.432 -154.79 398.155 -155.214C397.878 -155.637 397.683 -156.114 397.581 -156.617C397.479 -157.12 397.473 -157.639 397.562 -158.145C397.651 -158.65 397.833 -159.132 398.1 -159.564C398.366 -159.995 398.71 -160.367 399.113 -160.658C399.516 -160.949 399.969 -161.154 400.448 -161.261C401.007 -161.395 401.587 -161.395 402.146 -161.261L422.468 -219.851C421.999 -220.112 421.589 -220.476 421.266 -220.919C420.943 -221.363 420.716 -221.874 420.599 -222.419L386.497 -219.114L378.64 -305.525C378.014 -305.542 377.402 -305.726 376.862 -306.06C376.322 -306.393 375.872 -306.866 375.554 -307.433C375.235 -308 375.059 -308.643 375.042 -309.301C375.024 -309.96 375.166 -310.612 375.455 -311.196L336.489 -339.174C336.035 -338.646 335.452 -338.259 334.804 -338.054C334.155 -337.849 333.466 -337.834 332.81 -338.011C332.155 -338.188 331.557 -338.55 331.083 -339.058C330.609 -339.566 330.275 -340.2 330.119 -340.893C329.909 -341.841 330.046 -342.837 330.501 -343.684L268.729 -391.913C268.217 -391.371 267.569 -390.992 266.861 -390.819C265.898 -390.591 264.888 -390.775 264.054 -391.33C263.219 -391.884 262.629 -392.765 262.412 -393.778C262.195 -394.79 262.37 -395.852 262.898 -396.729C263.425 -397.607 264.263 -398.227 265.226 -398.455C265.98 -398.632 266.767 -398.554 267.477 -398.232L293.064 -444.519C292.366 -445.063 291.883 -445.857 291.705 -446.752C291.512 -447.639 291.619 -448.57 292.006 -449.385C292.393 -450.199 293.038 -450.847 293.829 -451.217L258.282 -573.621L258.728 -573.755C258.132 -573.615 257.512 -573.631 256.923 -573.802C256.334 -573.973 255.794 -574.295 255.352 -574.738L218.191 -542.92C218.406 -542.546 218.564 -542.139 218.658 -541.714C218.766 -541.213 218.778 -540.694 218.695 -540.188C218.611 -539.681 218.434 -539.197 218.173 -538.763C217.911 -538.328 217.571 -537.952 217.172 -537.656C216.772 -537.36 216.321 -537.149 215.845 -537.036C215.368 -536.923 214.874 -536.91 214.393 -536.998C213.911 -537.086 213.451 -537.272 213.038 -537.547C212.624 -537.822 212.267 -538.179 211.985 -538.599C211.704 -539.019 211.503 -539.493 211.396 -539.995C211.269 -540.582 211.274 -541.193 211.411 -541.778C211.547 -542.363 211.811 -542.907 212.182 -543.366L142.107 -623.57C141.742 -623.304 141.331 -623.114 140.897 -623.012C140.191 -622.845 139.453 -622.898 138.775 -623.163C138.096 -623.429 137.506 -623.896 137.075 -624.508L99.3196 -601.085C99.3718 -600.932 99.4144 -600.775 99.447 -600.616C99.5558 -600.115 99.5695 -599.596 99.4875 -599.089C99.4055 -598.582 99.2294 -598.097 98.9691 -597.661C98.7088 -597.226 98.3695 -596.849 97.9706 -596.551C97.5717 -596.254 97.1209 -596.042 96.6441 -595.927C96.1672 -595.813 95.6736 -595.799 95.1914 -595.885C94.7093 -595.971 94.248 -596.156 93.8339 -596.43C93.4198 -596.704 93.0611 -597.06 92.7781 -597.48C92.4952 -597.899 92.2935 -598.373 92.1848 -598.875C92.0746 -599.411 92.0706 -599.965 92.1728 -600.503C92.2751 -601.041 92.4816 -601.55 92.7794 -602.001L5.97223 -696.115C5.55889 -695.779 5.08046 -695.543 4.57074 -695.423C3.59926 -695.195 2.58144 -695.382 1.74118 -695.943C0.900924 -696.504 0.307062 -697.393 0.0902389 -698.415C-0.017121 -698.92 -0.0286841 -699.443 0.0562098 -699.954C0.141104 -700.464 0.320792 -700.952 0.585016 -701.39C1.11864 -702.273 1.9642 -702.898 2.93568 -703.126C3.68231 -703.308 4.46455 -703.241 5.17281 -702.932C5.88107 -702.624 6.47987 -702.091 6.88532 -701.407L84.0732 -739.074L84.0732 -739.387C83.8818 -740.231 83.9629 -741.118 84.3039 -741.908C84.6448 -742.698 85.2261 -743.346 85.9562 -743.751C86.6863 -744.155 87.5236 -744.292 88.336 -744.141C89.1485 -743.99 89.89 -743.558 90.4436 -742.915L164.765 -798.981C164.61 -799.301 164.489 -799.638 164.404 -799.986C164.187 -800.999 164.362 -802.061 164.889 -802.938C165.417 -803.815 166.254 -804.436 167.217 -804.664C168.18 -804.892 169.19 -804.708 170.024 -804.154C170.859 -803.599 171.449 -802.718 171.666 -801.705C171.794 -801.155 171.794 -800.581 171.666 -800.031L233.013 -777.256C233.362 -777.972 233.911 -778.558 234.587 -778.936C235.263 -779.313 236.032 -779.463 236.792 -779.366C237.551 -779.268 238.264 -778.928 238.834 -778.391C239.404 -777.854 239.803 -777.146 239.978 -776.363C240.041 -775.934 240.041 -775.497 239.978 -775.068L283.318 -763.904C283.541 -764.499 283.9 -765.028 284.363 -765.444C284.825 -765.861 285.378 -766.152 285.972 -766.293C286.857 -766.51 287.788 -766.375 288.584 -765.913L325.405 -819.233C325.015 -819.627 324.712 -820.104 324.517 -820.633C324.321 -821.163 324.237 -821.73 324.271 -822.297C324.305 -822.863 324.456 -823.415 324.714 -823.914C324.971 -824.413 325.329 -824.847 325.762 -825.186C326.195 -825.525 326.694 -825.76 327.222 -825.876C327.751 -825.991 328.297 -825.985 328.823 -825.856C329.348 -825.727 329.841 -825.479 330.267 -825.13C330.692 -824.781 331.04 -824.338 331.287 -823.833L375.179 -841.227C375.071 -841.728 375.059 -842.247 375.142 -842.753C375.225 -843.26 375.403 -843.744 375.664 -844.178C375.925 -844.613 376.265 -844.989 376.665 -845.285C377.064 -845.581 377.515 -845.792 377.992 -845.904C378.469 -846.017 378.962 -846.03 379.444 -845.943C379.926 -845.855 380.386 -845.669 380.799 -845.394C381.212 -845.119 381.57 -844.762 381.852 -844.342C382.133 -843.922 382.333 -843.447 382.441 -842.946C382.56 -842.41 382.569 -841.854 382.467 -841.315C382.364 -840.776 382.152 -840.266 381.846 -839.82L424.57 -798.066C425.065 -798.496 425.657 -798.784 426.289 -798.902C426.921 -799.02 427.571 -798.963 428.176 -798.739C428.781 -798.514 429.321 -798.128 429.742 -797.619C430.163 -797.11 430.452 -796.494 430.58 -795.833C430.795 -794.824 430.621 -793.765 430.096 -792.89C429.57 -792.016 428.736 -791.396 427.777 -791.166C427.699 -791.156 427.621 -791.156 427.543 -791.166L431.259 -666.798L431.62 -666.798L431.28 -666.284L431.28 -664.274L430.665 -665.503L389.894 -606.131C390.424 -605.591 390.793 -604.901 390.956 -604.144C391.125 -603.375 391.067 -602.57 390.791 -601.836C390.514 -601.102 390.031 -600.474 389.406 -600.036L414.165 -548.1C414.298 -548.145 414.432 -548.182 414.569 -548.212C415.479 -548.409 416.426 -548.24 417.224 -547.739C418.021 -547.238 418.611 -546.441 418.878 -545.505C419.144 -544.569 419.068 -543.562 418.663 -542.683C418.259 -541.804 417.555 -541.115 416.692 -540.754L522.398 -428.487C522.824 -428.814 523.308 -429.05 523.821 -429.179C524.784 -429.41 525.795 -429.229 526.631 -428.677C527.467 -428.124 528.061 -427.245 528.28 -426.232C528.5 -425.219 528.328 -424.156 527.802 -423.277C527.277 -422.398 526.44 -421.774 525.477 -421.543C524.767 -421.393 524.032 -421.455 523.354 -421.722L462.729 -307.646C463.435 -307.102 463.933 -306.31 464.13 -305.413C464.312 -304.575 464.23 -303.698 463.897 -302.912L508.489 -273.595C509.025 -274.291 509.777 -274.766 510.613 -274.935C511.09 -275.051 511.584 -275.066 512.066 -274.98C512.549 -274.895 513.011 -274.709 513.425 -274.436C513.839 -274.162 514.198 -273.804 514.481 -273.384C514.763 -272.964 514.964 -272.49 515.072 -271.988C515.216 -271.29 515.177 -270.565 514.96 -269.889C514.743 -269.213 514.356 -268.611 513.841 -268.147L539.853 -225.857C540.099 -225.977 540.355 -226.074 540.617 -226.148C541.58 -226.379 542.591 -226.198 543.428 -225.645C544.264 -225.092 544.857 -224.213 545.077 -223.2C545.296 -222.188 545.124 -221.125 544.599 -220.245C544.073 -219.366 543.237 -218.742 542.274 -218.511C542.125 -218.501 541.976 -218.501 541.828 -218.511L539.216 -127.925C540.075 -127.788 540.86 -127.339 541.437 -126.656C542.014 -125.973 542.344 -125.1 542.372 -124.187C542.4 -123.274 542.123 -122.38 541.589 -121.66C541.055 -120.94 540.298 -120.439 539.45 -120.244C538.833 -120.101 538.193 -120.124 537.588 -120.312C536.983 -120.499 536.432 -120.845 535.988 -121.316L496.534 -90.0563C496.753 -89.6741 496.917 -89.2604 497.023 -88.8283C497.196 -87.9111 497.054 -86.959 496.622 -86.1413C496.191 -85.3236 495.498 -84.6935 494.666 -84.3626L510.507 -32.4939L510.719 -32.4939C511.713 -32.636 512.72 -32.357 513.519 -31.7185C514.317 -31.0799 514.841 -30.134 514.977 -29.0888C515.112 -28.0436 514.847 -26.9848 514.239 -26.1452C513.632 -25.3056 512.732 -24.7541 511.738 -24.612L509.848 41.9265C510.231 42.0021 510.602 42.1297 510.953 42.3061C511.721 42.7117 512.333 43.3834 512.685 44.2079C513.037 45.0325 513.108 45.9594 512.886 46.8327C512.664 47.706 512.163 48.4721 511.466 49.0019C510.77 49.5317 509.921 49.7929 509.063 49.7414L506.217 60.5707L490.355 120.701C491.16 121.223 491.746 122.047 491.996 123.006C492.246 123.965 492.141 124.988 491.702 125.869C491.263 126.75 490.522 127.423 489.63 127.752C488.738 128.082 487.76 128.044 486.894 127.645C486.371 127.378 485.918 126.979 485.577 126.484L434.126 157.989C434.321 158.509 434.409 159.067 434.384 159.625C434.358 160.183 434.219 160.729 433.977 161.227L462.347 181.747L415.63 253.756C416.247 254.332 416.664 255.107 416.818 255.959C416.971 256.811 416.853 257.693 416.48 258.467C416.09 259.283 415.434 259.924 414.632 260.275L427.394 308.348C428.164 308.231 428.949 308.364 429.645 308.728C430.084 308.962 430.474 309.285 430.793 309.678C431.112 310.07 431.355 310.526 431.507 311.017C431.659 311.509 431.717 312.027 431.678 312.542C431.639 313.057 431.504 313.559 431.28 314.02C430.865 314.888 430.151 315.558 429.284 315.895L447.504 394.871C448.234 394.768 448.977 394.909 449.627 395.273C450.101 395.482 450.528 395.791 450.883 396.182C451.238 396.572 451.513 397.035 451.689 397.542C451.866 398.049 451.942 398.589 451.912 399.129C451.881 399.668 451.746 400.195 451.513 400.676C451.28 401.158 450.956 401.584 450.56 401.927C450.163 402.271 449.704 402.525 449.21 402.674C448.717 402.823 448.199 402.863 447.69 402.792C447.18 402.721 446.691 402.54 446.251 402.261C445.556 401.891 444.986 401.307 444.616 400.587L396.562 419.03C396.743 419.921 396.63 420.85 396.243 421.665C395.856 422.456 395.225 423.085 394.454 423.45C393.682 423.815 392.816 423.894 391.996 423.674L344.579 542.238L344.133 542.059C344.676 542.341 345.145 542.76 345.497 543.278C345.849 543.796 346.073 544.397 346.151 545.029L394.29 545.565C394.341 545.136 394.463 544.721 394.651 544.337C394.874 543.876 395.181 543.467 395.555 543.131C395.928 542.796 396.361 542.541 396.828 542.381C397.296 542.221 397.788 542.16 398.278 542.201C398.768 542.241 399.245 542.383 399.683 542.617C400.121 542.852 400.511 543.175 400.83 543.568C401.149 543.961 401.391 544.416 401.543 544.907C401.695 545.399 401.753 545.917 401.715 546.432C401.676 546.947 401.541 547.449 401.318 547.909C401.052 548.447 400.673 548.914 400.209 549.273C399.746 549.633 399.21 549.877 398.643 549.986L403.782 659.261C404.224 659.308 404.655 659.436 405.056 659.64C405.721 659.971 406.278 660.502 406.656 661.166C407.034 661.829 407.216 662.596 407.179 663.369L450.625 670.804C450.676 670.65 450.74 670.5 450.816 670.358C451.273 669.444 452.053 668.756 452.988 668.441C453.923 668.127 454.938 668.212 455.813 668.679C456.689 669.145 457.355 669.955 457.668 670.933C457.98 671.912 457.914 672.98 457.484 673.908C457.247 674.403 456.913 674.838 456.503 675.185C456.092 675.531 455.616 675.781 455.106 675.918L464.64 807.074C465.166 807.096 465.681 807.241 466.148 807.499C467.032 807.972 467.701 808.796 468.007 809.788C468.314 810.781 468.233 811.861 467.783 812.79C467.332 813.72 466.549 814.424 465.605 814.746C464.661 815.068 463.634 814.983 462.75 814.51L462.559 814.599ZM278.964 777.244C279.112 777.628 279.198 778.035 279.219 778.449L370.804 785.349C370.87 784.998 370.984 784.66 371.144 784.344C371.395 783.817 371.758 783.359 372.206 783.004L347.17 737.544L278.964 777.244ZM208.89 665.312C209.402 665.587 209.846 665.985 210.186 666.473L242.441 647.337L202.796 662.722L205.132 665.557C205.681 665.171 206.317 664.943 206.977 664.896C207.636 664.849 208.296 664.985 208.89 665.289L208.89 665.312ZM282.935 678.709L283.275 678.15L250.34 647.739C249.643 648.383 248.741 648.726 247.813 648.699L244.225 673.707L282.659 679.334C282.728 679.115 282.821 678.905 282.935 678.709ZM289.688 682.08L322.368 704.989L289.624 678.753C289.866 679.269 289.996 679.834 290.007 680.409C290.018 680.984 289.909 681.555 289.688 682.08ZM286.97 676.632L258.303 653.656L283.933 677.414C284.355 677.059 284.845 676.806 285.37 676.671C285.894 676.536 286.44 676.523 286.97 676.632ZM246.858 648.454C246.621 648.386 246.393 648.289 246.178 648.163C245.666 647.898 245.222 647.507 244.883 647.025L210.674 667.321C210.849 667.807 210.943 668.32 210.95 668.84L243.312 673.573L246.858 648.454ZM244.225 645.506C244.054 644.765 244.099 643.988 244.352 643.274L140.302 585.957L139.963 585.957L139.793 586.18L202.116 661.739L244.225 645.506ZM244.798 642.38C244.984 642.084 245.214 641.821 245.477 641.599L203.433 571.443L140.727 583.434C140.749 583.955 140.685 584.476 140.536 584.974L244.798 642.38ZM252.931 565.124C252.388 565.534 251.749 565.781 251.083 565.839L248.493 640.862C248.871 640.924 249.238 641.052 249.576 641.242C249.654 641.273 249.725 641.318 249.788 641.376L282.213 598.036L252.931 565.124ZM307.716 625.255C308.074 624.979 308.477 624.775 308.905 624.652L302.344 575.954C301.737 575.96 301.138 575.807 300.603 575.507C300.532 575.519 300.46 575.519 300.39 575.507L283.402 598.103L307.716 625.255ZM225.496 481.683L193.644 547.485C194.247 547.92 194.712 548.534 194.982 549.249L242.951 535.852L227.343 481.75C226.726 481.868 226.091 481.822 225.496 481.616L225.496 481.683ZM195.258 550.231C195.29 550.461 195.29 550.694 195.258 550.924L247.155 560.748L247.389 560.167C247.808 559.297 248.519 558.621 249.385 558.27L243.227 536.924L195.258 550.231ZM195.109 551.906L194.897 552.509C194.656 552.985 194.332 553.41 193.941 553.759L203.879 570.327L246.985 562.065L246.985 561.708L195.109 551.906ZM204.452 571.309L246.348 641.041C246.739 640.857 247.154 640.737 247.58 640.684L250.17 565.683C249.792 565.617 249.427 565.489 249.087 565.303C248.213 564.841 247.543 564.041 247.219 563.07L204.452 571.309ZM202.881 570.595L193.113 554.295C192.608 554.559 192.052 554.696 191.488 554.696C190.925 554.696 190.369 554.559 189.864 554.295C189.36 554.036 188.923 553.653 188.59 553.179L175.127 561.306L140.43 582.295L140.43 582.585L202.881 570.595ZM188.017 552.241C187.757 551.578 187.675 550.854 187.779 550.146C187.883 549.438 188.169 548.773 188.606 548.223C189.044 547.674 189.616 547.26 190.26 547.028C190.905 546.796 191.598 546.753 192.263 546.904L181.073 532.458L139.708 581.201L139.835 581.357L188.017 552.241ZM193.262 546.235L224.646 481.17L181.837 531.632L193.262 546.235ZM228.405 481.482L244.012 535.606L300.709 519.976C300.627 519.368 300.685 518.748 300.879 518.168L229.955 480.21C229.522 480.788 228.95 481.235 228.299 481.505L228.405 481.482ZM244.225 536.589L250.383 557.957C251.112 557.876 251.849 558.016 252.506 558.359C252.865 558.561 253.194 558.817 253.483 559.118L301.048 521.361L300.836 520.892L244.225 536.589ZM254.12 560.123C254.225 560.311 254.304 560.514 254.354 560.726L302.853 552.263L303.745 523.236C303.362 523.164 302.991 523.036 302.641 522.857C302.288 522.655 301.966 522.399 301.685 522.098L254.12 560.123ZM303.682 553.112L303.214 568.161C303.458 568.228 303.693 568.326 303.915 568.451C304.398 568.716 304.818 569.089 305.147 569.545L338.931 547.373L338.761 546.994L303.682 553.112ZM302.259 568.027L302.705 553.29L254.396 561.73C254.417 561.998 254.417 562.267 254.396 562.534L298.755 570.573L298.925 570.171C299.241 569.507 299.731 568.953 300.336 568.573C300.942 568.193 301.639 568.004 302.344 568.027L302.259 568.027ZM254.056 563.561L254.056 563.695C253.938 563.953 253.788 564.193 253.61 564.41L282.787 597.21L299.604 574.748C299.227 574.332 298.939 573.836 298.759 573.292C298.58 572.749 298.513 572.172 298.564 571.6L254.056 563.561ZM303.214 575.775L309.776 624.495C310.382 624.471 310.983 624.617 311.517 624.92C311.797 625.056 312.054 625.237 312.282 625.456L336.043 603.127L304.701 574.815C304.307 575.229 303.827 575.542 303.299 575.73L303.214 575.775ZM282.787 598.773L250.595 641.912C250.941 642.293 251.215 642.74 251.402 643.229L306.23 628.827C306.147 628.06 306.28 627.283 306.612 626.594C306.735 626.333 306.885 626.086 307.058 625.857L282.787 598.773ZM251.508 644.256C251.591 645.024 251.458 645.8 251.126 646.489L251.126 646.667L332.157 711.598C332.464 711.246 332.832 710.959 333.24 710.75L310.519 632.288C309.729 632.429 308.916 632.296 308.204 631.908C307.391 631.483 306.761 630.749 306.442 629.854L251.508 644.256ZM311.368 631.998L334.068 710.415C334.895 710.237 335.755 710.355 336.51 710.75C336.919 710.957 337.281 711.254 337.572 711.621L361.057 694.16L311.814 631.641C311.699 631.751 311.579 631.855 311.453 631.953L311.368 631.998ZM379.51 721.423C379.209 721.345 378.917 721.233 378.64 721.088C378.112 720.819 377.658 720.411 377.323 719.904L348.019 736.963L373.034 782.424C373.445 782.241 373.883 782.136 374.329 782.111L379.51 721.423ZM375.518 779.476L401.616 668.661L382.25 714.3C382.934 714.74 383.465 715.4 383.765 716.182C384.065 716.965 384.118 717.828 383.916 718.644C383.713 719.46 383.267 720.186 382.641 720.714C382.016 721.243 381.246 721.546 380.445 721.579L375.518 779.476ZM376.856 718.967C376.706 718.583 376.62 718.175 376.601 717.761L338.549 714.992C338.48 715.303 338.373 715.604 338.23 715.885C337.979 716.412 337.616 716.871 337.169 717.225L347.531 736.048L376.856 718.967ZM376.665 716.734C376.733 716.387 376.84 716.05 376.983 715.729C377.152 715.411 377.351 715.111 377.578 714.836L361.758 694.74L338.209 712.491C338.485 713.002 338.631 713.579 338.634 714.166L376.665 716.734ZM362.544 694.182L378.321 714.278C378.778 713.986 379.287 713.796 379.817 713.719C380.346 713.642 380.885 713.68 381.4 713.831L401.361 666.674C401.063 666.491 400.785 666.274 400.533 666.026L362.544 694.182ZM402.89 667.031L375.879 782.446C375.998 782.485 376.112 782.537 376.219 782.603L376.346 782.603L423.976 714.389L404.419 666.919C403.957 667.1 403.467 667.184 402.975 667.165L402.89 667.031ZM278.327 776.083L278.327 776.194L346.533 736.517L336.17 717.694C335.683 717.937 335.149 718.062 334.61 718.062C334.07 718.062 333.537 717.937 333.049 717.694C332.858 717.588 332.673 717.469 332.497 717.337L278.327 776.083ZM277.648 775.368L331.902 716.533C331.55 715.997 331.338 715.373 331.287 714.724L283.148 714.099L276.48 774.899C276.756 774.96 277.021 775.065 277.266 775.212C277.428 775.295 277.585 775.392 277.733 775.502L277.648 775.368ZM241.549 714.613C241.298 715.12 240.942 715.562 240.509 715.908L273.953 775.011C274.404 774.81 274.886 774.697 275.376 774.676L282.043 713.987L241.889 713.474C241.853 713.905 241.753 714.327 241.592 714.724L241.549 714.613ZM331.159 713.519C331.217 713.157 331.317 712.805 331.456 712.469L289.157 682.817C288.804 683.266 288.364 683.63 287.865 683.884C287.367 684.138 286.823 684.277 286.269 684.291L283.148 712.893L331.159 713.519ZM241.592 711.152C241.762 711.54 241.869 711.955 241.91 712.38L282.256 712.893L285.42 684.157C285.141 684.094 284.87 683.996 284.613 683.866C284.171 683.614 283.776 683.282 283.445 682.884L241.592 711.152ZM241.061 710.303L282.85 682.036C282.595 681.464 282.471 680.836 282.489 680.205L244.225 674.712L239.362 709.187C239.588 709.257 239.808 709.346 240.02 709.455C240.443 709.698 240.813 710.033 241.103 710.437L241.061 710.303ZM210.547 670.581C210.346 670.965 210.096 671.318 209.803 671.631L236.431 709.589C237.012 709.259 237.662 709.09 238.321 709.098L243.184 674.533L210.823 669.844L210.547 670.581ZM203.497 669.264C203.407 668.496 203.54 667.718 203.879 667.031C204.023 666.734 204.202 666.457 204.41 666.205L201.755 663.056L147.586 684.068L203.497 669.264ZM201.161 662.253L139.071 586.984C138.613 587.291 138.1 587.496 137.563 587.587L139.411 682.973C140.021 683.04 140.606 683.265 141.113 683.627C141.621 683.989 142.035 684.478 142.32 685.05L201.161 662.253ZM135.461 587.274L105.902 637.647L137.245 683.465C137.619 683.244 138.03 683.1 138.455 683.04L136.586 587.654C136.194 587.594 135.813 587.465 135.461 587.274ZM91.1442 668.862L135.737 685.117C135.932 684.711 136.199 684.347 136.523 684.045L105.371 638.562L89.8489 665.021C90.3781 665.476 90.7786 666.074 91.0069 666.751C91.2353 667.428 91.2828 668.158 91.1442 668.862ZM80.0173 603.083L87.4919 664.173C88.0179 664.174 88.5381 664.288 89.0208 664.508L104.756 637.714L80.8242 602.725C80.5651 602.868 80.2952 602.987 80.0173 603.083ZM82.3956 601.073C82.2001 601.479 81.9336 601.843 81.6099 602.145L105.308 636.776L134.293 587.453L82.8415 598.952C82.8836 599.682 82.7291 600.409 82.3956 601.051L82.3956 601.073ZM81.7161 596.607C82.1028 597.019 82.3998 597.514 82.5867 598.059L134.229 586.336C133.707 585.745 133.371 584.999 133.269 584.199C133.166 583.4 133.301 582.586 133.656 581.871C134 581.179 134.529 580.609 135.179 580.232C135.828 579.855 136.569 579.687 137.308 579.749L153.744 499.367L81.7161 596.607ZM138.243 580.107L138.689 580.308L139.092 580.576L180.521 531.632L154.912 498.496L138.243 580.107ZM155.506 497.782L181.221 530.94L223.924 480.5C223.653 480.169 223.437 479.791 223.287 479.383L155.506 497.782ZM230.273 476.704C230.56 477.557 230.56 478.486 230.273 479.339L301.218 517.297C301.412 516.994 301.648 516.723 301.919 516.493L266.542 457.234L230.273 476.704ZM304.743 515.622L316.528 467.282L319.968 453.103L326.19 427.559C325.554 427.227 325.023 426.707 324.661 426.063L267.328 456.809L302.684 515.98C303.31 515.61 304.028 515.447 304.743 515.511L304.743 515.622ZM240.678 417.534L228.065 474.36C228.196 474.41 228.324 474.469 228.447 474.538C229.006 474.837 229.487 475.274 229.849 475.811L265.948 456.385L242.59 417.199C241.982 417.448 241.323 417.524 240.678 417.422L240.678 417.534ZM244.394 415.301C244.154 415.778 243.83 416.202 243.439 416.552L266.797 455.805L324.13 424.992C324.028 424.63 323.978 424.253 323.982 423.875L309.457 422.156L244.543 414.453C244.515 414.739 244.465 415.023 244.394 415.301ZM244.798 413.448L309.054 421.062L324.258 422.87C324.328 422.623 324.42 422.384 324.534 422.156C324.841 421.5 325.32 420.95 325.914 420.571L314.299 388.284L244.671 412.845C244.729 413.042 244.772 413.244 244.798 413.448ZM296.547 277.245C296.568 277.438 296.568 277.633 296.547 277.825L332.815 287.226L357.83 293.723L358 293.366C358.245 292.848 358.597 292.395 359.03 292.039C359.464 291.684 359.968 291.435 360.505 291.312L358.382 266.751L296.547 277.245ZM358.276 265.634L352.818 201.976C352.279 201.951 351.751 201.807 351.268 201.552L351.035 201.396L295.506 274.655C295.926 275.104 296.233 275.657 296.398 276.263L358.276 265.634ZM332.072 288.074L296.292 278.808L296.143 279.165C295.909 279.659 295.576 280.093 295.166 280.438L325.362 332.039L358.339 297.541C357.752 296.733 357.486 295.717 357.596 294.706L332.072 288.074ZM303.193 351.956C303.77 351.955 304.338 352.101 304.849 352.38C305.088 352.494 305.31 352.645 305.508 352.826L324.619 332.731L294.36 280.885C294.183 280.971 293.998 281.039 293.807 281.085L303.193 351.956ZM291.896 281.175L277.988 318.084L301.346 352.424C301.616 352.274 301.901 352.154 302.195 352.067L292.809 281.309C292.498 281.283 292.191 281.215 291.896 281.108L291.896 281.175ZM306.166 353.541C306.494 354.01 306.719 354.55 306.825 355.121C306.932 355.692 306.917 356.281 306.782 356.845L347.128 373.502C347.441 373.278 347.784 373.105 348.147 372.989L325.15 333.669L306.166 353.541ZM325.872 332.91L349.23 372.788C349.463 372.766 349.697 372.766 349.931 372.788L360.314 298.836C360.08 298.771 359.852 298.681 359.635 298.568C359.421 298.461 359.222 298.326 359.04 298.167L325.872 332.91ZM361.249 299.06L354.347 348.182L350.844 373.101L350.971 373.101C351.315 373.287 351.631 373.528 351.905 373.815L396.201 337.576L363.393 298.278C362.763 298.74 362.017 298.997 361.249 299.015L361.249 299.06ZM306.421 357.761C306.08 358.41 305.572 358.944 304.956 359.302L314.915 387.056L345.556 376.293C345.611 375.82 345.741 375.36 345.938 374.932C346.068 374.693 346.209 374.461 346.363 374.239L306.421 357.761ZM315.254 388.016L326.806 420.213C327.439 420.034 328.106 420.034 328.738 420.213L347.297 380.022C346.846 379.727 346.461 379.333 346.168 378.866C345.874 378.4 345.68 377.873 345.599 377.321L315.254 388.016ZM348.274 380.424L329.736 420.481C330.571 420.959 331.196 421.76 331.478 422.714L383.97 411.729L351.651 379.799C351.175 380.177 350.621 380.431 350.034 380.54C349.447 380.649 348.844 380.609 348.274 380.424ZM244.225 411.327L244.479 411.796L314.065 387.234L304.064 359.704C303.188 359.942 302.26 359.839 301.452 359.413C301.202 359.268 300.967 359.096 300.751 358.9L244.225 411.327ZM243.227 410.277C243.356 410.361 243.477 410.459 243.588 410.568L300.157 358.074C299.77 357.488 299.541 356.804 299.492 356.093C299.443 355.382 299.578 354.67 299.881 354.032C300.087 353.627 300.352 353.258 300.666 352.938L277.563 319.133L243.227 410.277ZM230.486 251.746L243.227 407.844L277.053 318.173L231.505 251.366C231.143 251.548 230.756 251.668 230.358 251.724L230.486 251.746ZM232.248 250.764L277.436 317.056L290.941 280.751C290.216 280.319 289.648 279.646 289.329 278.836C289.01 278.027 288.957 277.129 289.178 276.285L232.694 250.004C232.536 250.276 232.343 250.524 232.121 250.741L232.248 250.764ZM233.331 246.968C233.501 247.641 233.501 248.349 233.331 249.022L289.794 275.302C290.282 274.455 291.056 273.832 291.961 273.559C292.867 273.285 293.837 273.382 294.678 273.829L294.912 273.963L350.398 200.703C350.158 200.45 349.951 200.165 349.782 199.855L233.331 246.968ZM354.645 194.474C355.233 194.794 355.731 195.272 356.089 195.858L376.177 185.967L353.732 142.203C353.466 142.314 353.187 142.389 352.903 142.426L353.392 194.072C353.828 194.13 354.252 194.266 354.645 194.474ZM337.423 139.613C337.043 140.373 336.44 140.983 335.703 141.355L352.245 194.116C352.245 194.116 352.373 194.116 352.436 194.116L351.948 142.449C351.513 142.398 351.089 142.27 350.695 142.069C350.113 141.781 349.612 141.34 349.24 140.788C348.868 140.237 348.638 139.593 348.572 138.921L337.657 138.497C337.641 138.878 337.569 139.254 337.445 139.613L337.423 139.613ZM337.041 135.438C337.481 136.021 337.747 136.728 337.806 137.469L348.699 137.894C348.764 137.497 348.886 137.113 349.06 136.755C349.506 135.851 350.267 135.163 351.183 134.835L348.869 123.135L337.041 135.438ZM354.029 135.036C354.097 135.064 354.161 135.102 354.22 135.147L410.704 58.6505L349.676 122.286L352.118 134.634C352.806 134.567 353.498 134.706 354.114 135.036L354.029 135.036ZM393.249 83.8591L355.027 135.773C355.517 136.286 355.856 136.937 356.004 137.648L425.866 130.213L415.63 56.7525C415.02 56.7555 414.417 56.6104 413.868 56.3283L413.677 56.1944L393.249 83.8591ZM340.693 83.8591L334.939 134.053C335.211 134.128 335.474 134.233 335.725 134.366C335.935 134.479 336.134 134.613 336.319 134.768L348.55 122.018L340.948 83.8369C340.948 83.8369 340.863 83.8145 340.778 83.8145L340.693 83.8591ZM344.325 79.1255C344.487 79.9973 344.368 80.9013 343.985 81.6933C343.771 82.1486 343.473 82.5549 343.108 82.8883C342.744 83.2218 342.32 83.4758 341.861 83.6358L349.336 121.17L412.53 55.2342C412.383 55.0398 412.255 54.8302 412.148 54.609L344.325 79.1255ZM411.978 53.6043C411.789 52.7166 411.897 51.7877 412.284 50.9741C412.671 50.1606 413.313 49.5123 414.102 49.1386L411.235 38.4657L345.514 77.5402L411.978 53.6043ZM458.355 12.0066C458.231 11.9617 458.116 11.8936 458.015 11.8056L418.667 50.5229C418.985 50.9723 419.203 51.4912 419.304 52.0412L469.694 48.2901L460.818 12.3638C459.969 12.5622 459.08 12.4355 458.312 12.0066L458.355 12.0066ZM417.308 49.3395C417.547 49.4747 417.774 49.6316 417.988 49.8084L457.123 11.2697L412.127 38.0637L415.057 48.9823C415.825 48.8582 416.61 48.9828 417.308 49.3395ZM343.56 77.3169L343.73 77.5402L411.001 37.5501L403.484 9.75136C402.715 9.86849 401.929 9.7361 401.233 9.37178C401.092 9.3033 400.957 9.22103 400.83 9.12612L343.56 77.3169ZM406.669 6.55843C406.608 6.93868 406.493 7.30727 406.33 7.65248C405.926 8.47115 405.266 9.118 404.461 9.48342L411.851 37.0143L456.698 10.2203C456.491 9.81734 456.355 9.37874 456.295 8.92519L406.669 6.55843ZM461.688 5.01772C462.102 5.238 462.476 5.53274 462.793 5.88857L491.481 -14.7428L488.317 -25.907L480.014 -25.0809C479.989 -24.2346 479.702 -23.42 479.197 -22.761C478.692 -22.1019 477.996 -21.6344 477.214 -21.4297C476.433 -21.225 475.61 -21.2942 474.869 -21.6267C474.129 -21.9594 473.512 -22.5371 473.113 -23.2723L462.134 5.28566L461.688 5.01772ZM488.041 -27.0011L482.817 -45.6453C482.64 -45.6343 482.463 -45.6343 482.286 -45.6453L477.805 -28.8097C478.339 -28.5652 478.81 -28.1907 479.18 -27.717C479.549 -27.2433 479.806 -26.6842 479.929 -26.0856L488.041 -27.0011ZM475.47 -29.1223C475.926 -29.2109 476.394 -29.2109 476.85 -29.1223L480.46 -42.5193L475.3 -29.1223C475.356 -29.1097 475.414 -29.1097 475.47 -29.1223ZM484.664 -46.6723C484.389 -46.4037 484.073 -46.1849 483.73 -46.0248L489.017 -27.1797L507.534 -28.8097C507.598 -29.2035 507.712 -29.5866 507.874 -29.9485L492.394 -41.1126L484.664 -46.6723ZM507.534 -27.9165L489.378 -26.108L492.394 -15.3457L507.916 -26.5099C507.699 -26.9465 507.569 -27.4252 507.534 -27.9165ZM435.549 -80.8794L474.217 -28.9436L480.736 -45.9132L480.502 -45.9132C479.704 -46.341 479.079 -47.058 478.743 -47.932C478.408 -48.806 478.384 -49.7781 478.676 -50.6692L435.697 -81.058L435.549 -80.8794ZM402.911 -153.848L409.621 -138.219L431.493 -87.2207C431.681 -87.2904 431.872 -87.35 432.066 -87.3993C432.643 -87.5383 433.242 -87.5298 433.815 -87.3743C434.388 -87.2189 434.917 -86.9212 435.357 -86.5061L460.202 -111.559L403.59 -154.34C403.384 -154.147 403.156 -153.982 402.911 -153.848ZM404.249 -155.01L460.818 -112.318L497.341 -149.048C497.028 -149.484 496.811 -149.987 496.704 -150.522L496.704 -151.08L404.78 -156.081C404.65 -155.728 404.471 -155.397 404.249 -155.099L404.249 -155.01ZM498.573 -189.976L496.449 -255.331C495.76 -255.391 495.103 -255.662 494.56 -256.112L445.571 -203.641L497.915 -154.25C498.376 -154.671 498.931 -154.963 499.528 -155.099C499.599 -155.109 499.67 -155.109 499.741 -155.099L498.573 -189.976ZM500.548 -159.051L508.702 -248.632L499.359 -256.425C498.874 -255.921 498.262 -255.572 497.596 -255.42C497.526 -255.41 497.454 -255.41 497.384 -255.42L500.548 -159.051ZM503.967 -152.151C504.154 -151.261 504.042 -150.33 503.648 -149.517L512.312 -143.265L538.961 -217.306L502.65 -154.429C503.31 -153.876 503.774 -153.105 503.967 -152.241L503.967 -152.151ZM503.096 -148.691C502.585 -148.074 501.901 -147.644 501.142 -147.463C500.874 -147.439 500.604 -147.439 500.335 -147.463L493.731 -91.7533L511.951 -142.372L503.096 -148.691ZM404.376 -159.498C404.623 -159.112 404.796 -158.68 404.886 -158.225C404.958 -157.834 404.958 -157.432 404.886 -157.041L496.577 -151.995C496.676 -152.538 496.879 -153.054 497.171 -153.514L444.892 -202.971L404.376 -159.498ZM425.059 -219.36C424.501 -219.214 423.918 -219.214 423.36 -219.36L403.038 -160.793C403.289 -160.64 403.523 -160.46 403.739 -160.257L444.085 -203.596L426.524 -220.164C426.092 -219.814 425.591 -219.57 425.059 -219.449L425.059 -219.36ZM427.182 -220.9L444.764 -204.311L493.753 -256.804L493.562 -257.117L470.756 -245.797L427.671 -224.384L427.671 -224.026C427.923 -222.998 427.778 -221.906 427.267 -220.99L427.182 -220.9ZM459.034 -300.635L449.67 -279.602L493.349 -261.136C493.489 -261.391 493.653 -261.63 493.838 -261.851L462.347 -301.215C461.985 -300.962 461.582 -300.78 461.158 -300.68C460.514 -300.514 459.84 -300.53 459.204 -300.724L459.034 -300.635ZM449.266 -278.686L425.908 -226.505C426.383 -226.199 426.789 -225.787 427.097 -225.299L470.437 -246.824L492.967 -257.988L492.967 -258.323C492.84 -258.926 492.84 -259.551 492.967 -260.154L449.266 -278.686ZM379.383 -305.48L387.155 -220.074L420.472 -223.401C420.491 -223.974 420.63 -224.535 420.88 -225.045C421.13 -225.555 421.483 -226 421.916 -226.349L380.126 -305.681C379.935 -305.668 379.744 -305.668 379.553 -305.681L379.383 -305.48ZM380.721 -306.105L422.617 -226.728C422.814 -226.818 423.021 -226.886 423.232 -226.929C423.851 -227.109 424.504 -227.109 425.122 -226.929L448.374 -279.088L381.698 -307.267C381.485 -306.879 381.212 -306.532 380.891 -306.239L380.721 -306.105ZM337.232 -342.97L337.232 -342.59C337.42 -341.699 337.307 -340.768 336.914 -339.955L375.879 -312.045C376.298 -312.534 376.826 -312.904 377.416 -313.123C378.006 -313.341 378.638 -313.4 379.256 -313.295L393.631 -369.585C392.946 -369.88 392.361 -370.386 391.954 -371.036L337.232 -342.97ZM357.363 -446.662L374.117 -475.131L345.769 -492.056C345.405 -491.486 344.907 -491.025 344.325 -490.716L354.411 -447.578C354.937 -447.653 355.471 -447.61 355.98 -447.452C356.489 -447.295 356.96 -447.025 357.363 -446.662ZM358.021 -445.859C358.274 -445.474 358.454 -445.042 358.552 -444.586C358.583 -444.311 358.583 -444.034 358.552 -443.76L399.237 -457.894C399.087 -458.639 399.146 -459.415 399.407 -460.126L374.966 -474.707L358.021 -445.859ZM354.602 -439.808L342.647 -382.401L391.487 -374.296C391.697 -375.062 392.127 -375.74 392.718 -376.239L368.214 -418.506L355.791 -439.942C355.749 -439.932 355.706 -439.932 355.664 -439.942C355.331 -439.854 354.988 -439.809 354.645 -439.808L354.602 -439.808ZM393.631 -376.775C393.853 -376.87 394.08 -376.952 394.311 -377.02C394.544 -377.042 394.779 -377.042 395.012 -377.02L399.365 -425.763L357.363 -440.656C357.178 -440.495 356.979 -440.352 356.768 -440.232L393.631 -376.775ZM399.471 -426.879L401.977 -454.835C401.442 -454.967 400.944 -455.225 400.517 -455.588C400.091 -455.952 399.748 -456.411 399.513 -456.933L358.509 -442.666C358.407 -442.278 358.249 -441.91 358.042 -441.572L399.471 -426.879ZM405.841 -456.331L455.913 -408.392C456.16 -408.611 456.43 -408.798 456.719 -408.95L445.019 -446.506L406.308 -457.112C406.194 -456.836 406.051 -456.574 405.884 -456.331L405.841 -456.331ZM405.162 -455.594C404.717 -455.211 404.194 -454.943 403.633 -454.812C403.379 -454.779 403.122 -454.779 402.868 -454.812L400.363 -426.634L454.936 -407.275L455.233 -407.789L405.162 -455.594ZM400.257 -425.517L396.01 -377.02C396.947 -376.798 397.763 -376.196 398.282 -375.346L421.831 -387.358L454.83 -404.216L454.83 -404.596C454.713 -405.132 454.713 -405.689 454.83 -406.226L400.257 -425.517ZM421.725 -386.242L398.622 -374.43L398.728 -374.073C398.852 -373.511 398.855 -372.926 398.738 -372.362C398.62 -371.798 398.385 -371.269 398.048 -370.813L414.59 -353.352L455.509 -402.854L455.169 -403.323L421.725 -386.242ZM397.369 -370.098C396.939 -369.759 396.447 -369.516 395.925 -369.384C395.49 -369.295 395.043 -369.295 394.608 -369.384L380.211 -313.072C380.459 -312.957 380.693 -312.815 380.912 -312.648L414.102 -352.571L397.369 -370.098ZM336.765 -343.885L391.572 -371.952L391.572 -372.331C391.54 -372.658 391.54 -372.987 391.572 -373.314L342.605 -381.419L335.109 -345.403C335.804 -345.083 336.395 -344.555 336.808 -343.885L336.765 -343.885ZM269.239 -392.762L331.032 -344.51C331.53 -345.06 332.174 -345.441 332.879 -345.604C333.26 -345.659 333.645 -345.659 334.026 -345.604L341.5 -381.598L269.579 -393.521C269.497 -393.253 269.383 -392.998 269.239 -392.762ZM269.642 -395.53C269.674 -395.204 269.674 -394.875 269.642 -394.548L341.628 -382.625L353.583 -440.098C352.857 -440.359 352.231 -440.86 351.799 -441.527L269.409 -396.022L269.642 -395.53ZM268.687 -397.361L269.048 -396.915L351.438 -442.42L351.29 -442.911L351.29 -443.514L306.485 -446.35L268.687 -397.361ZM296.143 -443.871C295.392 -443.688 294.604 -443.758 293.892 -444.072L269.536 -400.063L305.295 -446.35L298.925 -446.752C298.769 -446.036 298.426 -445.381 297.935 -444.86C297.443 -444.339 296.822 -443.973 296.143 -443.804L296.143 -443.871ZM351.353 -444.519C351.463 -445.14 351.713 -445.723 352.083 -446.221C352.452 -446.718 352.93 -447.115 353.477 -447.377L343.412 -490.448C342.49 -490.26 341.535 -490.443 340.736 -490.962L307.207 -447.399L351.353 -444.519ZM298.437 -449.967C298.724 -449.545 298.926 -449.067 299.031 -448.56C299.062 -448.353 299.062 -448.142 299.031 -447.935L306.039 -447.489L337.891 -488.952L298.437 -449.967ZM259.28 -574.068L294.784 -451.53C295.31 -451.625 295.85 -451.601 296.366 -451.458C296.883 -451.316 297.364 -451.058 297.778 -450.704L339.738 -492.011C339.263 -492.716 339.022 -493.567 339.052 -494.431C339.083 -495.295 339.384 -496.124 339.908 -496.79L260.49 -574.939C260.127 -574.533 259.686 -574.213 259.195 -574.001L259.28 -574.068ZM340.609 -497.482L341.012 -497.75L313.938 -557.701L304.106 -579.449C304 -579.439 303.894 -579.439 303.788 -579.449C302.836 -579.214 301.835 -579.385 301.003 -579.925C300.171 -580.465 299.577 -581.33 299.35 -582.329L261.701 -578.065C261.755 -577.229 261.546 -576.397 261.106 -575.698L340.609 -497.482ZM344.027 -497.973L369.148 -559.778L306.23 -581.414C305.934 -580.758 305.471 -580.201 304.892 -579.806L325.171 -534.926L331.117 -521.753L341.904 -498.04C342.609 -498.219 343.348 -498.172 344.027 -497.906L344.027 -497.973ZM389.257 -675.483L391.381 -740.503C391.381 -740.503 391.253 -740.503 391.189 -740.503L371.972 -685.955C372.578 -685.626 373.086 -685.128 373.441 -684.516C373.796 -683.904 373.983 -683.2 373.983 -682.483C373.983 -681.766 373.796 -681.063 373.441 -680.45C373.086 -679.838 372.578 -679.34 371.972 -679.011L389.257 -675.483ZM371.632 -678.073L387.027 -607.114L389.151 -674.412L371.632 -678.073ZM274.845 -621.627L283.339 -610.039L315.191 -648.868C315.019 -649.065 314.869 -649.282 314.745 -649.515L276.077 -625.937L276.204 -625.535C276.36 -624.823 276.323 -624.08 276.098 -623.39C275.873 -622.699 275.468 -622.088 274.93 -621.627L274.845 -621.627ZM227.619 -624.977L216.046 -544.595C216.303 -544.506 216.552 -544.394 216.79 -544.26L270.046 -621.694C269.502 -622.226 269.125 -622.919 268.963 -623.682C268.943 -623.822 268.943 -623.965 268.963 -624.106L227.619 -624.977ZM271.787 -620.89L259.365 -581.302C259.491 -581.256 259.612 -581.196 259.726 -581.124L282.872 -609.347L274.123 -621.181C273.9 -621.069 273.665 -620.986 273.422 -620.935C272.905 -620.779 272.36 -620.748 271.83 -620.846L271.787 -620.89ZM215.388 -718.398C215.379 -718.977 215.491 -719.55 215.714 -720.078C215.938 -720.607 216.269 -721.077 216.683 -721.457L201.755 -745.55L164.616 -713.776C164.794 -713.462 164.929 -713.124 165.02 -712.772L215.388 -718.398ZM176.635 -713.062L217.596 -714.893C217.091 -715.122 216.638 -715.464 216.272 -715.896C215.905 -716.328 215.632 -716.839 215.473 -717.394L176.635 -713.062ZM222.735 -719.336C222.757 -719.121 222.757 -718.904 222.735 -718.689L266.436 -717.371C266.582 -718.334 267.058 -719.208 267.774 -719.827L255.288 -741.419L222.459 -719.984C222.574 -719.78 222.667 -719.562 222.735 -719.336ZM222.735 -717.684C222.627 -717.13 222.406 -716.608 222.087 -716.153C221.768 -715.698 221.359 -715.322 220.888 -715.049L256.732 -716.657L222.735 -717.684ZM165.147 -711.521C165.13 -711.042 165.021 -710.571 164.828 -710.137L229.743 -665.302C230.267 -665.932 230.965 -666.377 231.739 -666.574C232.627 -666.775 233.554 -666.632 234.351 -666.172L267.583 -713.933C267.053 -714.464 266.684 -715.147 266.521 -715.898L266.521 -716.099L165.147 -711.521ZM140.302 -630.804L152.342 -677.984L128.135 -682.718C127.969 -682.18 127.692 -681.688 127.326 -681.275C126.959 -680.862 126.51 -680.539 126.012 -680.329L139.262 -630.76C139.611 -630.834 139.97 -630.85 140.324 -630.804L140.302 -630.804ZM152.597 -678.944L160.008 -708.105C159.498 -708.333 159.041 -708.676 158.67 -709.11L127.88 -685.777C128.038 -685.466 128.16 -685.136 128.241 -684.794C128.273 -684.43 128.273 -684.064 128.241 -683.7L152.597 -678.944ZM162.28 -707.971C161.837 -707.894 161.385 -707.894 160.942 -707.971L153.532 -678.944L229.042 -664.14L229.233 -664.632L164.361 -709.266C163.835 -708.576 163.101 -708.096 162.28 -707.904L162.28 -707.971ZM271.235 -658.223L269.812 -712.95C269.317 -712.99 268.837 -713.151 268.411 -713.419L235.157 -665.659C235.691 -665.122 236.061 -664.43 236.219 -663.672C236.251 -663.397 236.251 -663.12 236.219 -662.845L271.235 -658.223ZM236.198 -661.841C236.08 -661.395 235.893 -660.973 235.646 -660.59L270.173 -627.701C270.632 -628.113 271.178 -628.404 271.766 -628.549C271.766 -628.549 271.936 -628.549 272.021 -628.549L271.256 -657.174L236.198 -661.841ZM272.828 -714L316.274 -654.852C316.607 -655.05 316.964 -655.201 317.335 -655.298C317.817 -655.409 318.314 -655.419 318.798 -655.327C319.283 -655.235 319.746 -655.043 320.16 -654.763L347.913 -689.729L273.592 -715.183C273.413 -714.74 273.153 -714.338 272.828 -714ZM320.882 -654.003L321.115 -653.735L366.812 -681.065C366.723 -681.256 366.659 -681.459 366.621 -681.668C366.526 -682.192 366.526 -682.73 366.621 -683.254L348.911 -689.305L320.882 -654.003ZM315.531 -654.003L272.063 -713.397C271.742 -713.189 271.39 -713.039 271.023 -712.95C271.023 -712.95 270.853 -712.95 270.768 -712.95L272.212 -658.09L314.554 -652.507C314.733 -653.16 315.069 -653.752 315.531 -654.227L315.531 -654.003ZM272.233 -656.794L272.976 -628.326C273.516 -628.267 274.038 -628.085 274.504 -627.792C274.97 -627.499 275.369 -627.102 275.673 -626.629L314.575 -650.453L314.575 -650.61C314.508 -650.887 314.473 -651.172 314.469 -651.458L272.233 -656.794ZM269.536 -626.674L235.009 -659.764C234.551 -659.354 234.004 -659.071 233.416 -658.938C233.113 -658.894 232.806 -658.894 232.503 -658.938L227.768 -626.026L268.921 -625.311C269.019 -625.879 269.229 -626.419 269.536 -626.897L269.536 -626.674ZM231.484 -658.983C230.997 -659.129 230.545 -659.379 230.154 -659.717C229.763 -660.055 229.442 -660.474 229.212 -660.948L143.615 -627.857L143.615 -627.433L226.706 -626.004L231.484 -658.983ZM228.872 -661.885C228.819 -662.24 228.819 -662.602 228.872 -662.957L153.298 -677.783L141.258 -630.603C142.114 -630.273 142.83 -629.631 143.275 -628.795L228.872 -661.885ZM137.839 -630.112L88.7872 -736.618C88.6742 -736.609 88.5606 -736.609 88.4475 -736.618C88.4056 -736.608 88.362 -736.608 88.3201 -736.618L93.1616 -652.485L136.884 -629.264C137.157 -629.599 137.479 -629.885 137.839 -630.112ZM137.839 -632.345L125.098 -680.15C124.323 -680.047 123.536 -680.203 122.85 -680.598C122.164 -680.992 121.614 -681.603 121.278 -682.345C120.941 -683.087 120.836 -683.922 120.977 -684.73C121.118 -685.539 121.497 -686.28 122.062 -686.848L90.7621 -734.564L137.839 -632.345ZM127.222 -686.692L158.14 -709.958C157.99 -710.237 157.882 -710.538 157.821 -710.851C157.693 -711.424 157.693 -712.02 157.821 -712.593L138.497 -720.051L126.394 -687.362C126.738 -687.167 127.047 -686.91 127.307 -686.603L127.222 -686.692ZM158.161 -713.531C158.408 -714.033 158.757 -714.473 159.182 -714.82C159.608 -715.167 160.099 -715.413 160.624 -715.54C160.836 -715.54 161.049 -715.54 161.24 -715.54L167.122 -796.905L166.994 -796.905L138.837 -720.988L158.161 -713.531ZM168.714 -796.905C168.502 -796.905 168.29 -796.905 168.077 -796.905L162.195 -715.518C162.88 -715.38 163.514 -715.039 164.022 -714.536L201.225 -746.309L169.5 -797.329C169.258 -797.15 168.994 -797.007 168.714 -796.905ZM202.499 -745.996L217.49 -721.882C217.74 -722.011 218.004 -722.109 218.276 -722.172C218.766 -722.283 219.273 -722.283 219.762 -722.172L234.627 -771.785C234.261 -771.968 233.924 -772.209 233.629 -772.5L202.499 -745.996ZM237.026 -771.674C236.535 -771.573 236.031 -771.573 235.54 -771.674L220.675 -722.038C221.219 -721.775 221.692 -721.376 222.056 -720.877L254.842 -742.29L237.684 -771.919C237.469 -771.825 237.25 -771.743 237.026 -771.674ZM256.137 -741.955L268.644 -720.341C268.863 -720.446 269.09 -720.528 269.324 -720.587C269.876 -720.721 270.45 -720.721 271.002 -720.587L284.953 -758.947C284.523 -759.198 284.141 -759.531 283.827 -759.929L256.137 -741.955ZM287.543 -758.679C286.985 -758.534 286.402 -758.534 285.845 -758.679L272.764 -722.44L293.786 -760.755L290.283 -761.358C290.09 -760.698 289.736 -760.102 289.255 -759.632C288.774 -759.162 288.183 -758.833 287.543 -758.679ZM272.445 -719.872C273.018 -719.416 273.454 -718.796 273.698 -718.086L388.068 -743.92L388.28 -744.21L388.28 -744.5L294.848 -760.577L272.445 -719.872ZM273.889 -717.081C273.942 -716.741 273.942 -716.394 273.889 -716.054L348.614 -690.488L389.321 -741.665C388.977 -742.043 388.709 -742.491 388.535 -742.982L273.889 -717.081ZM349.548 -690.153L366.897 -684.214C367.128 -684.764 367.475 -685.252 367.913 -685.639C368.351 -686.026 368.868 -686.303 369.424 -686.447C369.969 -686.581 370.536 -686.581 371.08 -686.447L376.474 -701.697L390.319 -740.995C390.227 -741.033 390.141 -741.086 390.064 -741.151L349.548 -690.153ZM367.385 -680.172L321.71 -652.954L321.901 -652.329C322.105 -651.385 321.961 -650.396 321.497 -649.56L339.143 -637.346L367.725 -679.659C367.602 -679.822 367.489 -679.994 367.385 -680.172ZM320.924 -648.756C320.535 -648.332 320.06 -648.006 319.534 -647.801C319.008 -647.596 318.446 -647.518 317.888 -647.573L304.297 -586.75C304.453 -586.702 304.602 -586.634 304.743 -586.549L338.485 -636.52L320.924 -648.756ZM302.153 -586.907C302.553 -586.984 302.963 -586.984 303.363 -586.907L316.762 -647.796C316.571 -647.796 316.401 -647.997 316.21 -648.109L284.231 -609.146L301.091 -586.371C301.382 -586.599 301.704 -586.78 302.046 -586.907L302.153 -586.907ZM283.572 -608.454L260.618 -580.476C261.032 -580.032 261.351 -579.499 261.552 -578.913L299.265 -583.178C299.288 -584.183 299.676 -585.142 300.348 -585.857L283.572 -608.454ZM217.745 -543.701L254.842 -575.609C254.63 -575.976 254.473 -576.375 254.375 -576.792C254.159 -577.804 254.332 -578.865 254.857 -579.744C255.382 -580.622 256.217 -581.247 257.178 -581.481C257.634 -581.57 258.102 -581.57 258.558 -581.481L271.002 -621.114L217.766 -543.679L217.745 -543.701ZM142.766 -624.307L212.84 -544.148C213.234 -544.442 213.683 -544.648 214.156 -544.751C214.451 -544.806 214.753 -544.806 215.048 -544.751L226.642 -624.977L143.679 -626.406C143.582 -625.625 143.264 -624.894 142.766 -624.307ZM98.81 -601.978L136.544 -625.468L136.374 -626.048C136.216 -626.744 136.253 -627.473 136.48 -628.147L93.2253 -651.123L95.9645 -603.742C96.5291 -603.711 97.0792 -603.543 97.5725 -603.253C98.0658 -602.963 98.4891 -602.557 98.81 -602.068L98.81 -601.978ZM6.67297 -696.807L93.4589 -602.849C93.9046 -603.247 94.4371 -603.524 95.009 -603.653L92.2272 -651.659L6.82161 -697.03L6.67297 -696.807ZM7.28878 -700.424L7.28878 -700.111C7.49409 -699.383 7.49409 -698.607 7.28878 -697.879L92.2272 -652.753L87.3645 -736.35C86.7823 -736.394 86.2178 -736.58 85.7163 -736.894C85.2148 -737.208 84.7902 -737.641 84.4766 -738.159L7.28878 -700.424ZM90.1038 -737.355L122.89 -687.496C123.17 -687.654 123.47 -687.767 123.782 -687.831C124.347 -687.976 124.937 -687.976 125.502 -687.831L137.584 -720.408L90.8682 -738.449C90.6797 -738.038 90.4205 -737.667 90.1038 -737.355ZM90.8895 -742.111C91.0728 -741.787 91.2223 -741.442 91.3354 -741.084C91.4525 -740.51 91.4525 -739.916 91.3354 -739.342L138.052 -721.301L166.103 -797.418C165.755 -797.619 165.44 -797.875 165.168 -798.178L90.8895 -742.111ZM232.567 -776.318L171.22 -799.138C170.99 -798.679 170.68 -798.27 170.307 -797.932L201.968 -746.956L233.034 -773.438C232.814 -773.801 232.656 -774.201 232.567 -774.621C232.44 -775.179 232.44 -775.76 232.567 -776.318ZM239.659 -774.085C239.432 -773.439 239.034 -772.873 238.513 -772.455L255.67 -742.803L283.275 -760.867C283.175 -761.112 283.097 -761.366 283.042 -761.626C282.967 -762.054 282.967 -762.493 283.042 -762.921L239.659 -774.085ZM289.263 -765.333C289.807 -764.801 290.185 -764.108 290.346 -763.345C290.377 -763.019 290.377 -762.69 290.346 -762.363L294.211 -761.693L323.048 -814.053L289.263 -765.333ZM326.53 -818.385L295.315 -761.514L388.45 -745.55C388.605 -746.103 388.873 -746.613 389.236 -747.046L330.013 -818.742C329.641 -818.472 329.223 -818.282 328.781 -818.184C328.029 -818.002 327.242 -818.072 326.53 -818.385ZM330.777 -819.389L390 -747.626C390.326 -747.855 390.685 -748.029 391.062 -748.14L383.163 -806.484L331.456 -820.551C331.292 -820.117 331.047 -819.722 330.734 -819.389L330.777 -819.389ZM375.518 -840.266L331.584 -822.895C331.668 -822.445 331.668 -821.983 331.584 -821.533L382.929 -807.578L378.682 -838.212C378.031 -838.237 377.396 -838.439 376.842 -838.799C376.287 -839.159 375.831 -839.665 375.518 -840.266ZM423.891 -797.351L381.167 -839.105C380.768 -838.745 380.296 -838.485 379.786 -838.346L384.033 -807.288L423.509 -796.548C423.611 -796.828 423.739 -797.097 423.891 -797.351ZM423.296 -794.225C423.222 -794.669 423.222 -795.122 423.296 -795.565L384.203 -806.193L391.933 -748.988L424.273 -792.439C423.796 -792.928 423.458 -793.546 423.296 -794.225ZM426.566 -791.189C426.02 -791.251 425.492 -791.434 425.016 -791.725L392.527 -748.251C393.268 -748.144 393.96 -747.804 394.514 -747.276C395.068 -746.748 395.458 -746.056 395.632 -745.292C395.807 -744.527 395.758 -743.725 395.491 -742.99C395.225 -742.256 394.755 -741.622 394.141 -741.173L430.24 -668.628L426.566 -791.189ZM393.292 -740.704C393.14 -740.639 392.984 -740.587 392.825 -740.548C392.669 -740.537 392.513 -740.537 392.357 -740.548L390.234 -675.372L429.921 -667.199L393.292 -740.704ZM429.943 -666.105L390.191 -674.278L388.068 -607.136C388.477 -607.062 388.871 -606.919 389.236 -606.712L429.943 -666.105ZM386.093 -606.958L370.613 -678.565C369.879 -678.488 369.14 -678.644 368.49 -679.011L339.78 -636.788L384.501 -605.841C384.93 -606.352 385.479 -606.737 386.093 -606.958ZM383.97 -604.993L339.292 -635.962L305.317 -585.969C305.75 -585.55 306.085 -585.03 306.293 -584.451L383.587 -602.916C383.567 -603.601 383.721 -604.28 384.033 -604.881L383.97 -604.993ZM383.821 -601.934L306.527 -583.468C306.58 -583.106 306.58 -582.737 306.527 -582.374L369.509 -560.716L385.477 -599.902C384.738 -600.364 384.175 -601.082 383.885 -601.934L383.821 -601.934ZM413.295 -547.631L388.62 -599.589L388.217 -599.455C387.616 -599.31 386.991 -599.31 386.39 -599.455L370.464 -560.358L412.106 -546.046C412.379 -546.684 412.812 -547.232 413.358 -547.631L413.295 -547.631ZM411.745 -543.523C411.649 -544.054 411.649 -544.599 411.745 -545.13L370.019 -559.465L344.749 -497.437C345.045 -497.234 345.31 -496.986 345.535 -496.7L357.681 -505.096L412.042 -542.674C411.942 -542.95 411.864 -543.234 411.808 -543.523L411.745 -543.523ZM412.551 -541.848L358.892 -504.649L346.151 -495.718C346.261 -495.483 346.346 -495.236 346.406 -494.981C346.579 -494.24 346.534 -493.462 346.278 -492.748L374.711 -475.779L413.189 -541.134C412.978 -541.354 412.786 -541.593 412.615 -541.848L412.551 -541.848ZM413.847 -540.843L375.455 -475.377L399.853 -460.819C400.369 -461.571 401.121 -462.109 401.977 -462.337C402.252 -462.37 402.53 -462.37 402.805 -462.337L414.335 -540.486C414.178 -540.584 414.036 -540.704 413.911 -540.843L413.847 -540.843ZM415.291 -540.486L403.76 -462.337C404.414 -462.157 405.007 -461.79 405.476 -461.278C405.944 -460.766 406.269 -460.128 406.415 -459.434C406.499 -458.984 406.499 -458.522 406.415 -458.072L444.637 -447.623L415.737 -540.441C415.608 -540.447 415.481 -540.462 415.354 -540.486L415.291 -540.486ZM521.464 -427.706L417.181 -538.7L445.614 -447.399L520.954 -426.768C521.135 -427.115 521.364 -427.431 521.634 -427.706L521.464 -427.706ZM520.721 -425.785L446.123 -446.35L457.633 -409.396C458.458 -409.562 459.312 -409.432 460.059 -409.027C460.805 -408.622 461.402 -407.966 461.752 -407.164L520.89 -424.87C520.86 -425.174 520.86 -425.481 520.89 -425.785L520.721 -425.785ZM522.186 -422.168C521.65 -422.569 521.231 -423.117 520.975 -423.753L461.837 -406.047C461.995 -405.058 461.786 -404.043 461.253 -403.212C460.719 -402.38 459.902 -401.797 458.97 -401.581C458.886 -401.571 458.8 -401.571 458.716 -401.581L460.563 -308.316C460.899 -308.274 461.227 -308.184 461.54 -308.048L522.186 -422.168ZM459.331 -308.294C459.438 -308.294 459.522 -308.294 459.607 -308.294L457.76 -401.559C457.169 -401.628 456.602 -401.843 456.104 -402.184L415.312 -352.571L458.078 -307.49C458.493 -307.857 458.978 -308.124 459.501 -308.271L459.331 -308.294ZM457.208 -306.865L414.505 -351.901L381.443 -311.888C381.795 -311.433 382.042 -310.898 382.165 -310.325C382.185 -310.051 382.185 -309.774 382.165 -309.499L456.486 -305.19C456.656 -305.811 456.97 -306.379 457.399 -306.842L457.208 -306.865ZM456.507 -303.605C456.486 -303.798 456.486 -303.992 456.507 -304.185L382.186 -308.495L382.186 -308.271L448.863 -280.093L458.333 -301.215C457.522 -301.757 456.937 -302.603 456.698 -303.582L456.507 -303.605ZM507.81 -269.085C507.623 -269.426 507.487 -269.795 507.406 -270.179C507.224 -271.017 507.306 -271.895 507.64 -272.68L463.047 -301.997L462.92 -301.841L494.793 -262.61C495.16 -262.849 495.562 -263.022 495.982 -263.123C496.597 -263.271 497.236 -263.253 497.842 -263.069C498.447 -262.886 498.999 -262.543 499.444 -262.074L507.81 -269.085ZM508.405 -268.281L499.805 -261.315C499.986 -260.963 500.122 -260.588 500.208 -260.198C500.421 -259.214 500.261 -258.181 499.762 -257.318L508.617 -249.95L510.188 -267.254C509.583 -267.437 509.034 -267.784 508.596 -268.259L508.405 -268.281ZM538.834 -225.299L512.821 -267.5C512.568 -267.38 512.305 -267.283 512.036 -267.209C511.802 -267.209 511.568 -267.209 511.356 -267.209L509.7 -249.347L538.643 -225.21L538.834 -225.299ZM537.602 -221.459C537.4 -222.444 537.559 -223.472 538.048 -224.339L509.657 -247.985L501.164 -155.188C501.39 -155.137 501.61 -155.063 501.822 -154.965L538.919 -219.181C538.263 -219.739 537.801 -220.508 537.602 -221.369L537.602 -221.459ZM537.602 -127.791C537.75 -127.813 537.9 -127.813 538.048 -127.791L540.66 -218.377C540.568 -218.365 540.475 -218.365 540.384 -218.377L513.119 -142.684L535.649 -126.429C536.153 -127.063 536.838 -127.51 537.602 -127.702L537.602 -127.791ZM535.181 -122.031C535.003 -122.368 534.868 -122.728 534.778 -123.102C534.589 -124 534.701 -124.939 535.096 -125.759L512.779 -141.88L494.602 -91.3291C495.008 -91.1532 495.382 -90.9038 495.706 -90.5923L535.181 -122.031ZM492.351 -91.6417L492.733 -91.6417L499.401 -147.619C498.887 -147.749 498.407 -148.001 498 -148.356L461.688 -111.737L490.249 -90.168C490.773 -90.8746 491.518 -91.3647 492.351 -91.5523L492.351 -91.6417ZM489.463 -87.9798C489.487 -88.4557 489.587 -88.9239 489.761 -89.3642L460.988 -111.09L435.994 -85.881C436.239 -85.4836 436.419 -85.0459 436.525 -84.5859L436.525 -84.0724L489.463 -87.9798ZM491.714 -84.2287C491.18 -84.4732 490.709 -84.8478 490.34 -85.3214C489.971 -85.795 489.714 -86.3542 489.591 -86.9527L436.61 -83.0229C436.539 -82.6524 436.425 -82.2925 436.271 -81.9512L479.164 -51.7632C479.615 -52.4734 480.273 -53.0101 481.039 -53.2921C481.805 -53.5741 482.638 -53.5861 483.411 -53.3263L491.714 -84.2287ZM493.54 -83.849L494.007 -84.0053C493.551 -83.9163 493.083 -83.9163 492.627 -84.0053L484.176 -52.7903C484.946 -52.2658 485.505 -51.4602 485.744 -50.5285C485.983 -49.5968 485.886 -48.605 485.471 -47.7442L485.301 -47.4092L493.158 -41.7601L508.426 -31.0202C508.572 -31.1661 508.728 -31.3005 508.893 -31.4222C509.028 -31.5587 509.178 -31.6785 509.339 -31.7793L493.54 -83.849ZM508.659 42.0604L510.57 -24.478C510.187 -24.5469 509.815 -24.6748 509.466 -24.8576C509.047 -25.078 508.672 -25.3813 508.362 -25.7507L492.606 -14.4079L508.447 42.1052C508.447 42.1052 508.596 42.1721 508.659 42.1498L508.659 42.0604ZM507.534 42.3731L491.778 -13.805L463.323 6.64773C463.595 7.19979 463.737 7.81234 463.737 8.43398C463.737 9.05562 463.595 9.66823 463.323 10.2203L506.621 42.9759C506.901 42.7603 507.208 42.5874 507.534 42.4624L507.534 42.3731ZM505.41 45.5437C505.456 45.0756 505.586 44.6211 505.793 44.2041L506.047 43.7351L462.771 11.158C462.472 11.5093 462.112 11.7973 461.71 12.0066L470.628 48.2231L505.41 45.5437ZM493.71 103.865L507.98 49.7191C507.789 49.6563 507.604 49.5741 507.428 49.4735C506.895 49.1914 506.436 48.7781 506.088 48.2688C505.74 47.7594 505.515 47.1692 505.432 46.5485L470.968 49.1162L488.423 120.478C488.689 120.472 488.954 120.51 489.208 120.589L493.71 103.865ZM487.573 120.5L469.906 49.3395L419.325 53.0907C419.302 53.6337 419.171 54.1659 418.943 54.6537L418.646 55.1449L486.448 121.058C486.769 120.846 487.121 120.688 487.488 120.589L487.573 120.5ZM484.749 123.872C484.794 123.406 484.916 122.953 485.11 122.532C485.282 122.179 485.504 121.855 485.768 121.572L418.072 55.7478C417.668 56.0999 417.198 56.3586 416.692 56.5069L426.842 130.101L484.749 123.872ZM484.983 125.769C484.873 125.482 484.794 125.182 484.749 124.876L427.097 131.017L430.537 155.578C431.123 155.575 431.7 155.729 432.215 156.024C432.733 156.289 433.184 156.68 433.531 157.163L484.983 125.769ZM427.203 157.811C427.443 157.319 427.779 156.885 428.189 156.539C428.598 156.193 429.073 155.941 429.582 155.801L426.142 131.128L356.152 138.653L356.152 139.01L380.657 145.709L426.991 158.28L427.203 157.811ZM426.842 160.981C426.658 160.422 426.6 159.826 426.672 159.24L380.126 146.579L355.876 139.993L355.749 140.328C355.48 140.887 355.087 141.369 354.602 141.734L377.068 185.542L426.842 160.981ZM377.472 186.458L411.723 253.22C412.181 253.059 412.665 252.998 413.146 253.041L429.284 163.482C429.077 163.416 428.878 163.326 428.69 163.214C428.105 162.917 427.612 162.452 427.267 161.874L377.472 186.458ZM460.818 182.26L433.213 162.321C432.847 162.747 432.397 163.084 431.895 163.308C431.392 163.531 430.849 163.637 430.304 163.616L414.102 253.242C414.264 253.289 414.421 253.357 414.569 253.443L460.818 182.26ZM410.938 253.711L376.686 186.927L356.556 196.841C356.851 197.832 356.767 198.905 356.322 199.833C356.236 200.004 356.136 200.169 356.025 200.324L410.747 253.912C410.788 253.813 410.845 253.722 410.916 253.644L410.938 253.711ZM409.6 255.229C409.723 254.975 409.873 254.735 410.046 254.515L355.388 201.061C354.933 201.462 354.395 201.745 353.816 201.887L359.253 265.478L409.196 256.926C409.198 256.316 409.329 255.713 409.579 255.162L409.6 255.229ZM409.6 258.735C409.48 258.478 409.387 258.209 409.324 257.931L359.38 266.483L361.503 291.222C362.036 291.245 362.558 291.39 363.032 291.647C363.432 291.86 363.792 292.147 364.094 292.495L409.6 258.735ZM424.719 310.581C425.121 309.77 425.772 309.124 426.566 308.75L413.571 260.923C412.801 261.04 412.016 260.908 411.32 260.543C410.889 260.313 410.506 259.994 410.194 259.606L364.71 293.344C365.051 294.03 365.191 294.807 365.113 295.577L424.57 310.916L424.719 310.581ZM424.337 311.921L364.88 296.581L364.731 296.961C364.571 297.241 364.394 297.51 364.2 297.765L397.029 337.107L424.719 314.265C424.313 313.53 424.141 312.677 424.23 311.832L424.337 311.921ZM446.675 395.228L428.456 316.275C427.726 316.356 426.99 316.216 426.333 315.873C425.995 315.686 425.687 315.445 425.42 315.158L397.666 337.866L445.911 395.63C446.117 395.447 446.337 395.283 446.569 395.139L446.675 395.228ZM444.701 397.126C444.833 396.827 445.004 396.549 445.21 396.3L396.944 338.492L352.521 374.686C352.897 375.361 353.075 376.138 353.031 376.919L444.34 397.438C444.406 397.293 444.492 397.157 444.594 397.037L444.701 397.126ZM444.297 399.158L444.297 398.577L352.988 378.08C352.942 378.243 352.878 378.401 352.797 378.549L352.5 379.062L385.222 411.55L444.297 399.158ZM441.983 400.676L386.008 412.398L390.637 416.976C391.2 416.496 391.882 416.199 392.602 416.12C393.322 416.04 394.049 416.183 394.693 416.529C395.386 416.893 395.952 417.48 396.307 418.204L441.983 400.676ZM389.257 419.745C389.296 419.223 389.433 418.714 389.661 418.248C389.746 418.057 389.853 417.877 389.979 417.713L384.84 412.644L334.875 423.094L389.257 419.745ZM391.126 423.406C390.66 423.127 390.258 422.744 389.947 422.286C389.635 421.827 389.422 421.303 389.321 420.749L331.69 424.299C331.668 424.822 331.538 425.332 331.308 425.795C331.049 426.335 330.675 426.803 330.214 427.164C329.753 427.524 329.219 427.767 328.653 427.872L342.286 541.747C342.763 541.722 343.239 541.798 343.688 541.97L391.126 423.406ZM341.331 541.925L327.698 427.939C327.535 427.95 327.372 427.95 327.21 427.939L311.496 492.513L305.784 515.913C305.894 515.955 306 516.008 306.102 516.069C306.978 516.534 307.644 517.344 307.955 518.322C308.265 519.301 308.194 520.369 307.759 521.294L339.419 543.421C339.847 542.705 340.478 542.15 341.224 541.836L341.331 541.925ZM338.952 544.158L307.228 521.986C306.598 522.745 305.717 523.224 304.764 523.326L303.894 552.084L338.719 546.011C338.624 545.391 338.668 544.757 338.846 544.158L338.952 544.158ZM394.268 546.681L346.151 546.145C346.085 546.573 345.956 546.987 345.769 547.373C345.546 547.834 345.239 548.244 344.865 548.58C344.492 548.916 344.059 549.171 343.591 549.331C343.124 549.49 342.631 549.552 342.141 549.511C341.651 549.47 341.174 549.328 340.736 549.093C340.331 548.868 339.965 548.574 339.653 548.222L305.805 570.416L394.205 546.614L394.268 546.681ZM394.884 548.423C394.736 548.182 394.608 547.928 394.502 547.664L306.102 571.466C306.201 572.231 306.075 573.01 305.741 573.698L305.529 574.078L336.956 602.502L394.884 548.423ZM402.826 659.35L397.687 550.12C397.199 550.086 396.722 549.95 396.286 549.718C396.015 549.565 395.759 549.386 395.521 549.182L337.657 603.194L400.83 660.332C401.354 659.817 402.012 659.475 402.72 659.35L402.826 659.35ZM400.044 661.449L400.235 661.092L336.977 603.864L313.11 626.192C313.67 627.095 313.869 628.195 313.662 629.251L400.023 661.561L400.044 661.449ZM399.704 662.476L313.237 630.145C313.081 630.471 312.881 630.772 312.643 631.038L361.928 693.557L400.044 665.245C399.574 664.412 399.416 663.425 399.598 662.476L399.704 662.476ZM450.2 671.876L406.797 664.463C406.737 664.657 406.659 664.844 406.563 665.021C406.258 665.665 405.787 666.207 405.204 666.584L424.549 713.474L451.39 675.069C450.981 674.661 450.662 674.164 450.457 673.612C450.251 673.06 450.164 672.468 450.2 671.876ZM463.472 807.253L453.938 676.141C453.345 676.163 452.759 676.016 452.239 675.717L425.059 714.613L463.281 807.342C463.347 807.301 463.419 807.271 463.493 807.253L463.472 807.253ZM460.903 809.307C461.219 808.644 461.714 808.093 462.325 807.722L424.337 715.528L377.026 783.272C377.453 783.696 377.778 784.221 377.974 784.804C378.17 785.386 378.23 786.009 378.151 786.622L460.818 809.597L460.903 809.307Z" fill="#91AAD6"/>
</mask>
<g mask="url(#mask0)">
<rect x="0.00012207" y="245" width="553" height="652" fill="#C4C4C4"/>
</g>
<g filter="url(#filter0_d)">
<circle cx="154" cy="498" r="8" fill="#4884FA"/>
</g>
<defs>
<filter id="filter0_d" x="126" y="470" width="56" height="56" filterUnits="userSpaceOnUse" color-interpolation-filters="sRGB">
<feFlood flood-opacity="0" result="BackgroundImageFix"/>
<feColorMatrix in="SourceAlpha" type="matrix" values="0 0 0 0 0 0 0 0 0 0 0 0 0 0 0 0 0 0 127 0"/>
<feOffset/>
<feGaussianBlur stdDeviation="10"/>
<feColorMatrix type="matrix" values="0 0 0 0 0.282353 0 0 0 0 0.517647 0 0 0 0 0.980392 0 0 0 0.5 0"/>
<feBlend mode="normal" in2="BackgroundImageFix" result="effect1_dropShadow"/>
<feBlend mode="normal" in="SourceGraphic" in2="effect1_dropShadow" result="shape"/>
</filter>
</defs>
</svg>
