<svg width="1920" height="919" viewBox="0 0 1920 919" fill="none" xmlns="http://www.w3.org/2000/svg">
<path opacity="0.2" d="M1906.17 558.241C1905.64 557.467 1904.87 556.881 1903.98 556.562C1903.1 556.244 1902.13 556.209 1901.22 556.464L1861.16 460.45C1861.29 460.404 1861.4 460.335 1861.5 460.248C1862.49 459.559 1863.17 458.509 1863.38 457.325C1863.6 456.141 1863.33 454.92 1862.65 453.93C1862.2 453.258 1861.59 452.715 1860.86 452.356C1860.14 451.996 1859.33 451.834 1858.53 451.883L1835.53 342.442C1835.93 342.313 1836.3 342.131 1836.64 341.9C1837.61 341.205 1838.27 340.156 1838.48 338.978C1838.69 337.8 1838.42 336.589 1837.74 335.605C1837.06 334.622 1836.02 333.945 1834.84 333.722C1833.67 333.498 1832.45 333.746 1831.46 334.412C1830.9 334.779 1830.44 335.271 1830.11 335.849L1756.78 304.763C1757.04 303.858 1757.01 302.895 1756.7 302.008C1756.38 301.12 1755.8 300.351 1755.04 299.807C1754.27 299.262 1753.35 298.968 1752.41 298.967C1751.46 298.965 1750.54 299.254 1749.77 299.796C1749.36 300.088 1748.99 300.447 1748.69 300.857L1700.76 274.651C1701.03 273.954 1701.12 273.202 1701.01 272.463C1700.91 271.724 1700.63 271.023 1700.18 270.423C1699.55 269.509 1698.61 268.858 1697.53 268.594L1706.04 192.433C1706.94 192.405 1707.81 192.123 1708.55 191.621C1709.45 190.99 1710.1 190.053 1710.36 188.984C1710.63 187.914 1710.5 186.785 1710 185.805C1709.49 184.825 1708.65 184.061 1707.62 183.655C1706.6 183.249 1705.46 183.229 1704.42 183.597L1678.37 132.341C1678.88 132.005 1679.31 131.573 1679.64 131.07C1679.97 130.566 1680.2 130.002 1680.32 129.409C1680.43 128.816 1680.42 128.207 1680.3 127.617C1680.17 127.026 1679.93 126.467 1679.59 125.97C1679.25 125.474 1678.81 125.051 1678.3 124.725C1677.79 124.4 1677.22 124.179 1676.62 124.075C1676.03 123.971 1675.42 123.986 1674.83 124.12C1674.24 124.253 1673.68 124.502 1673.19 124.853C1672.66 125.216 1672.22 125.688 1671.89 126.238C1671.56 126.787 1671.35 127.402 1671.27 128.039L1599.82 128.622C1599.72 127.941 1599.47 127.291 1599.09 126.72C1598.71 126.149 1598.2 125.671 1597.61 125.324C1597.02 124.977 1596.35 124.768 1595.66 124.714C1594.98 124.659 1594.29 124.761 1593.65 125.01C1593.01 125.26 1592.43 125.652 1591.96 126.155C1591.49 126.659 1591.14 127.262 1590.94 127.92C1590.74 128.577 1590.69 129.271 1590.8 129.95C1590.9 130.629 1591.16 131.275 1591.55 131.841L1591.74 132.05L1490.62 235.806L1490.22 235.573L1490.14 236.289L1488.51 237.973L1490.01 237.43L1480.18 321.992C1479.29 321.994 1478.41 322.268 1477.68 322.779C1476.92 323.302 1476.34 324.043 1476.01 324.903C1475.68 325.764 1475.63 326.704 1475.85 327.596L1412.61 351.75L1412.34 351.317C1411.69 350.354 1410.7 349.675 1409.57 349.419C1408.43 349.164 1407.24 349.35 1406.24 349.94C1405.24 350.53 1404.5 351.48 1404.18 352.595C1403.86 353.71 1403.97 354.907 1404.5 355.939L1220.81 365.397C1220.7 364.757 1220.45 364.15 1220.07 363.618C1219.38 362.626 1218.33 361.948 1217.13 361.734C1215.94 361.52 1214.71 361.787 1213.72 362.477C1212.73 363.167 1212.05 364.223 1211.83 365.413C1211.62 366.602 1211.88 367.828 1212.57 368.821C1213.11 369.573 1213.85 370.152 1214.71 370.486L1179.79 518.388C1178.76 518.279 1177.71 518.531 1176.84 519.102C1175.96 519.674 1175.31 520.53 1174.99 521.525L1111.64 509.853C1111.69 508.844 1111.41 507.847 1110.83 507.014C1110.49 506.522 1110.06 506.102 1109.55 505.778C1109.05 505.455 1108.49 505.233 1107.9 505.127C1107.31 505.021 1106.7 505.033 1106.11 505.161C1105.53 505.288 1104.97 505.53 1104.48 505.873C1103.77 506.332 1103.21 506.98 1102.85 507.745C1102.49 508.509 1102.36 509.358 1102.46 510.195L1045.73 524.975C1045.61 524.657 1045.46 524.354 1045.27 524.073C1044.92 523.581 1044.49 523.162 1043.98 522.839C1043.48 522.515 1042.92 522.294 1042.33 522.188C1041.74 522.082 1041.13 522.093 1040.55 522.221C1039.96 522.348 1039.41 522.59 1038.91 522.931C1038.42 523.273 1038 523.708 1037.68 524.212C1037.35 524.715 1037.13 525.278 1037.02 525.867C1036.92 526.456 1036.93 527.06 1037.06 527.645C1037.18 528.229 1037.43 528.783 1037.77 529.275C1037.87 529.435 1037.99 529.585 1038.12 529.723L969.219 609.625C968.616 609.23 967.928 608.982 967.212 608.904C966.495 608.825 965.77 608.918 965.095 609.173C964.421 609.429 963.817 609.84 963.333 610.374C962.849 610.908 962.499 611.549 962.311 612.244C962.123 612.939 962.102 613.669 962.252 614.373C962.401 615.078 962.716 615.736 963.17 616.296C963.623 616.855 964.204 617.299 964.863 617.59C965.522 617.882 966.241 618.013 966.961 617.974L977.967 677.421C977.465 677.558 976.991 677.782 976.567 678.082C975.656 678.713 975.006 679.654 974.739 680.728C974.472 681.803 974.606 682.937 975.117 683.919L942.932 702.286C942.245 702.293 941.569 702.455 940.954 702.76C940.339 703.066 939.802 703.507 939.382 704.051L873.068 665.375C873.253 664.946 873.367 664.489 873.406 664.024C873.502 662.828 873.123 661.642 872.352 660.723C871.581 659.803 870.479 659.222 869.283 659.106C868.408 659.026 867.53 659.204 866.755 659.616C865.98 660.028 865.342 660.657 864.92 661.425L852.468 657.751L783.242 637.355C783.286 636.761 783.212 636.164 783.025 635.599C782.839 635.033 782.542 634.51 782.153 634.059C781.763 633.608 781.288 633.238 780.756 632.971C780.223 632.703 779.643 632.543 779.048 632.499C778.453 632.455 777.855 632.529 777.289 632.715C776.723 632.902 776.198 633.199 775.747 633.588C775.295 633.977 774.924 634.451 774.656 634.983C774.387 635.515 774.226 636.094 774.182 636.688C774.121 637.384 774.216 638.085 774.463 638.738L710.468 672.471C710.091 671.945 709.604 671.508 709.042 671.188C708.479 670.869 707.853 670.675 707.208 670.62L705.379 628.947L604.754 633.049C604.632 632.296 604.319 631.587 603.846 630.988C603.373 630.389 602.756 629.92 602.052 629.625C601.347 629.33 600.579 629.218 599.82 629.301C599.06 629.383 598.334 629.657 597.71 630.097L559.12 587.474C559.651 586.842 560 586.078 560.129 585.264C560.257 584.449 560.16 583.615 559.849 582.852C559.537 582.088 559.022 581.424 558.36 580.932C557.698 580.439 556.914 580.136 556.092 580.056C554.968 579.953 553.846 580.274 552.947 580.956L487.314 513.996C487.853 513.292 488.182 512.451 488.263 511.569C488.367 510.371 487.989 509.181 487.213 508.262C486.438 507.342 485.328 506.768 484.129 506.666C482.929 506.563 481.737 506.941 480.816 507.715C479.894 508.49 479.319 509.598 479.216 510.796C479.138 511.734 479.357 512.672 479.844 513.477L430.86 551.631C430.12 550.874 429.127 550.416 428.07 550.342C427.017 550.249 425.965 550.523 425.093 551.119C424.22 551.714 423.582 552.593 423.287 553.606L276.719 529.952L276.638 530.511C276.702 529.77 276.581 529.024 276.287 528.34C275.993 527.656 275.534 527.056 274.952 526.591L305.394 476.747C305.859 476.947 306.352 477.074 306.857 477.121C307.451 477.172 308.049 477.105 308.618 476.925C309.186 476.745 309.713 476.455 310.17 476.071C310.626 475.687 311.002 475.218 311.276 474.689C311.551 474.161 311.718 473.583 311.77 472.99C311.821 472.397 311.754 471.8 311.574 471.232C311.394 470.665 311.104 470.138 310.72 469.683C310.336 469.228 309.866 468.852 309.336 468.579C308.807 468.305 308.229 468.138 307.635 468.087C306.938 468.027 306.237 468.129 305.587 468.385C304.937 468.642 304.356 469.046 303.889 469.565L200.132 397.611C200.377 397.128 200.527 396.603 200.574 396.063C200.649 395.184 200.467 394.303 200.05 393.526C199.632 392.749 198.998 392.109 198.223 391.686L218.917 342.443C219.102 342.482 219.289 342.509 219.477 342.523C220.071 342.576 220.67 342.511 221.239 342.332C221.809 342.153 222.337 341.865 222.795 341.482C223.252 341.1 223.63 340.631 223.906 340.103C224.182 339.574 224.351 338.997 224.404 338.404C224.457 337.81 224.392 337.212 224.213 336.644C224.035 336.076 223.746 335.548 223.363 335.092C222.98 334.635 222.511 334.258 221.982 333.983C221.453 333.707 220.875 333.538 220.28 333.486C219.646 333.437 219.008 333.519 218.407 333.727C217.806 333.935 217.254 334.265 216.785 334.695L94.277 244.736C94.5949 244.184 94.7875 243.569 94.8414 242.935C94.9432 241.727 94.5601 240.529 93.7764 239.603C92.9928 238.677 91.8728 238.1 90.6628 237.999C90.0636 237.949 89.4604 238.017 88.8876 238.2C88.3148 238.383 87.7836 238.676 87.3243 239.064C86.3968 239.847 85.8185 240.965 85.7168 242.173C85.6301 243.103 85.8369 244.036 86.3082 244.843C86.7795 245.649 87.4916 246.287 88.3448 246.669L57.7837 345.736L57.4244 345.785C56.4227 345.687 55.4165 345.924 54.5646 346.46C53.7127 346.995 53.0634 347.799 52.7191 348.743C52.3748 349.688 52.3552 350.72 52.6632 351.676C52.9712 352.633 53.5895 353.46 54.4204 354.027L2.2373 452.526C1.84385 452.39 1.43658 452.297 1.02276 452.249C-0.177038 452.146 -1.36867 452.524 -2.28999 453.299C-3.21131 454.073 -3.78686 455.181 -3.89001 456.379C-3.99316 457.577 -3.61547 458.767 -2.84003 459.686C-2.06458 460.606 -0.954898 461.18 0.244896 461.283C0.898345 461.35 1.5586 461.26 2.16986 461.019L38.473 531.469C37.7073 532.002 37.124 532.757 36.8019 533.632C36.4797 534.507 36.4342 535.459 36.6715 536.361C36.9088 537.262 37.4174 538.069 38.1288 538.672C38.8401 539.275 39.7198 539.645 40.649 539.733C41.1527 539.742 41.6548 539.673 42.1377 539.53L62.1228 590.075C61.4753 590.438 60.9265 590.955 60.5242 591.578C60.1219 592.202 59.8783 592.914 59.8146 593.653C59.7104 594.756 60.0195 595.858 60.6819 596.745L5.46734 649.56C4.95091 649.152 4.35163 648.862 3.71118 648.709C3.07073 648.556 2.4045 648.544 1.75886 648.674C1.11322 648.804 0.503673 649.073 -0.027374 649.462C-0.558415 649.851 -0.998202 650.351 -1.31612 650.927C-1.63404 651.503 -1.82247 652.142 -1.86828 652.798C-1.91409 653.454 -1.81619 654.112 -1.58139 654.726C-1.3466 655.34 -0.980548 655.896 -0.508711 656.354C-0.0368676 656.813 0.529424 657.163 1.15077 657.381L-11.6 713.081C-12.1941 713.031 -12.7924 713.097 -13.3608 713.277C-13.9292 713.458 -14.4566 713.748 -14.9128 714.131C-15.369 714.515 -15.745 714.984 -16.0196 715.513C-16.2941 716.041 -16.4617 716.619 -16.5128 717.212C-16.5638 717.805 -16.4974 718.403 -16.3172 718.97C-16.1371 719.537 -15.8468 720.064 -15.4628 720.519C-15.0788 720.974 -14.6088 721.35 -14.0795 721.624C-13.5501 721.897 -12.9719 722.065 -12.3779 722.115C-11.7427 722.175 -11.1019 722.099 -10.4989 721.89C-9.8959 721.681 -9.34475 721.346 -8.88272 720.906L46.1635 765.9C45.7508 766.564 45.5175 767.324 45.4863 768.105C45.455 768.886 45.6269 769.662 45.9853 770.357C46.3436 771.052 46.8761 771.642 47.5309 772.07C48.1857 772.499 48.9405 772.75 49.7218 772.8C50.9179 772.902 52.1057 772.526 53.0246 771.754C53.9435 770.982 54.5185 769.878 54.6235 768.684C54.6228 768.589 54.6098 768.495 54.5849 768.403L198.159 753.337L198.218 753.772L198.753 753.282L201.063 752.966L199.549 752.416L261.068 693.884C261.776 694.438 262.63 694.775 263.527 694.853C264.439 694.936 265.356 694.74 266.154 694.29C266.952 693.841 267.594 693.159 267.994 692.336L331.779 714.05C331.75 714.217 331.729 714.386 331.718 714.555C331.641 715.684 331.992 716.8 332.699 717.684C333.407 718.568 334.42 719.155 335.54 719.329C336.66 719.504 337.804 719.253 338.749 718.627C339.693 718 340.368 717.044 340.641 715.945L487.134 825.857C486.828 826.422 486.638 827.043 486.573 827.682C486.467 828.881 486.841 830.072 487.615 830.994C488.388 831.917 489.497 832.494 490.697 832.6C491.897 832.706 493.091 832.331 494.015 831.559C494.939 830.786 495.518 829.679 495.624 828.481C495.679 827.601 495.487 826.723 495.069 825.946L616.193 734.856C616.934 735.623 617.927 736.099 618.991 736.196C619.984 736.283 620.979 736.046 621.827 735.521L662.885 784.724C662.174 785.48 661.752 786.462 661.696 787.497C661.642 788.091 661.705 788.69 661.884 789.258C662.062 789.827 662.351 790.355 662.734 790.812C663.117 791.269 663.587 791.646 664.116 791.921C664.646 792.196 665.225 792.364 665.819 792.415C666.645 792.479 667.472 792.318 668.214 791.95C668.955 791.582 669.583 791.021 670.031 790.325L722.935 815.068C722.838 815.384 722.769 815.708 722.728 816.036C722.621 817.234 722.996 818.426 723.769 819.348C724.542 820.27 725.651 820.848 726.852 820.954C728.052 821.06 729.245 820.685 730.169 819.913C731.093 819.14 731.672 818.033 731.779 816.834C731.767 816.654 731.742 816.474 731.705 816.296L835.402 798.905C835.701 799.919 836.347 800.797 837.227 801.385C838.107 801.974 839.166 802.236 840.22 802.126C841.274 802.016 842.256 801.541 842.996 800.783C843.735 800.026 844.186 799.034 844.27 797.979C844.332 797.213 844.2 796.444 843.885 795.743C843.569 795.042 843.082 794.433 842.467 793.971L871.888 741.447C872.364 741.65 872.867 741.784 873.381 741.843C874.464 741.908 875.535 741.587 876.403 740.937C877.272 740.288 877.882 739.352 878.125 738.297L940.362 749.259L940.397 749.515C940.397 750.737 940.884 751.908 941.75 752.772C942.616 753.635 943.79 754.119 945.013 754.118C946.237 754.117 947.41 753.63 948.275 752.765C949.14 751.9 949.626 750.728 949.625 749.506L1025.8 736.766C1025.95 737.216 1026.16 737.643 1026.42 738.039C1027.01 738.902 1027.88 739.535 1028.89 739.83C1029.89 740.126 1030.97 740.066 1031.94 739.661C1032.91 739.256 1033.7 738.53 1034.2 737.606C1034.69 736.683 1034.85 735.617 1034.65 734.59L1046.63 729.454L1113.13 700.86C1113.87 701.749 1114.91 702.327 1116.05 702.478C1117.2 702.628 1118.35 702.341 1119.29 701.673C1120.23 701.004 1120.89 700.005 1121.12 698.877C1121.35 697.748 1121.14 696.574 1120.54 695.592C1120.15 695.002 1119.62 694.519 1118.99 694.185L1146.72 627.144C1147.35 627.299 1148 627.317 1148.64 627.199C1149.28 627.08 1149.88 626.827 1150.41 626.456L1178.68 657.465L1253.75 589.772C1254.51 590.424 1255.47 590.806 1256.47 590.858C1257.48 590.909 1258.47 590.627 1259.3 590.056C1260.17 589.457 1260.8 588.565 1261.08 587.542L1318.44 595.386C1318.43 596.333 1318.71 597.26 1319.25 598.042C1319.59 598.535 1320.03 598.954 1320.53 599.278C1321.03 599.602 1321.6 599.823 1322.19 599.929C1322.78 600.035 1323.38 600.024 1323.97 599.896C1324.55 599.768 1325.11 599.526 1325.6 599.184C1326.53 598.546 1327.18 597.579 1327.43 596.48L1421.22 606.052C1421.22 606.949 1421.5 607.823 1422.03 608.551C1422.35 609.09 1422.77 609.557 1423.28 609.924C1423.79 610.291 1424.37 610.549 1424.98 610.683C1425.59 610.817 1426.22 610.823 1426.84 610.702C1427.45 610.58 1428.04 610.334 1428.55 609.977C1429.07 609.621 1429.5 609.162 1429.83 608.63C1430.16 608.098 1430.38 607.504 1430.47 606.885C1430.56 606.265 1430.52 605.634 1430.35 605.031C1430.19 604.428 1429.9 603.865 1429.5 603.378C1428.96 602.598 1428.2 602.001 1427.31 601.668L1440.58 540.78C1441.63 540.859 1442.68 540.577 1443.56 539.982C1444.4 539.39 1445.02 538.53 1445.31 537.542C1445.61 536.554 1445.55 535.496 1445.17 534.541L1573.63 458.684L1573.35 458.174C1573.76 458.785 1574.32 459.284 1574.97 459.627C1575.63 459.971 1576.36 460.147 1577.1 460.141L1585.66 518.148C1585.17 518.277 1584.71 518.49 1584.3 518.777C1583.81 519.118 1583.39 519.553 1583.07 520.057C1582.74 520.561 1582.52 521.123 1582.41 521.712C1582.31 522.301 1582.32 522.905 1582.45 523.49C1582.57 524.075 1582.82 524.629 1583.16 525.12C1583.5 525.612 1583.93 526.031 1584.44 526.354C1584.94 526.678 1585.51 526.898 1586.1 527.004C1586.69 527.11 1587.29 527.099 1587.88 526.972C1588.46 526.844 1589.02 526.603 1589.51 526.261C1590.08 525.856 1590.56 525.325 1590.9 524.709C1591.23 524.092 1591.42 523.408 1591.46 522.706L1717.91 511.73C1718.04 512.257 1718.26 512.757 1718.56 513.208C1719.05 513.959 1719.75 514.547 1720.58 514.899C1721.4 515.251 1722.31 515.35 1723.2 515.184L1738.91 566.443C1738.74 566.529 1738.58 566.629 1738.43 566.744C1737.46 567.438 1736.79 568.488 1736.59 569.666C1736.38 570.843 1736.65 572.055 1737.33 573.038C1738.01 574.022 1739.05 574.698 1740.22 574.922C1741.4 575.145 1742.62 574.897 1743.61 574.232C1744.14 573.869 1744.59 573.397 1744.92 572.847C1745.25 572.298 1745.46 571.683 1745.53 571.046L1897.87 561.935C1897.98 562.566 1898.23 563.165 1898.6 563.687C1899.29 564.68 1900.35 565.358 1901.54 565.572C1902.73 565.786 1903.96 565.518 1904.96 564.829C1905.95 564.139 1906.63 563.083 1906.84 561.893C1907.06 560.704 1906.79 559.478 1906.1 558.485L1906.17 558.241ZM1832.94 342.562C1833.4 342.68 1833.88 342.719 1834.36 342.68L1857.41 452.115C1857.02 452.249 1856.65 452.44 1856.31 452.683C1855.75 453.068 1855.28 453.579 1854.94 454.174L1798.56 431.109L1832.94 342.562ZM1692.71 275.596C1693.11 276.171 1693.64 276.644 1694.26 276.977L1677.58 318.908L1688.72 268.649L1692.37 271.022C1692.02 271.746 1691.86 272.549 1691.91 273.353C1691.97 274.156 1692.23 274.931 1692.68 275.6L1692.71 275.596ZM1720.33 362.843L1719.74 363.341L1679.35 328.378C1679.97 327.436 1680.22 326.292 1680.04 325.177L1708.19 316.916L1721 362.412C1720.76 362.53 1720.53 362.674 1720.33 362.843ZM1725.32 370.462L1757.04 406.297L1721.48 370.908C1722.11 371.118 1722.79 371.187 1723.45 371.11C1724.11 371.033 1724.75 370.812 1725.32 370.462ZM1718.61 368.038L1687.46 337.057L1719 364.251C1718.66 364.816 1718.45 365.447 1718.39 366.101C1718.32 366.755 1718.39 367.416 1718.61 368.038ZM1679.6 324.063C1679.48 323.788 1679.33 323.528 1679.15 323.289C1678.76 322.713 1678.24 322.238 1677.63 321.904L1695.31 277.433C1695.9 277.568 1696.5 277.6 1697.1 277.527L1707.88 315.835L1679.6 324.063ZM1675.77 321.349C1674.89 321.259 1674.01 321.435 1673.23 321.853L1590.17 205.303L1590.12 204.893L1590.34 204.653L1687.48 267.983L1675.77 321.349ZM1672.27 322.532C1671.96 322.804 1671.7 323.122 1671.49 323.475L1583.91 283.766L1587.34 206.212C1587.94 206.157 1588.53 205.997 1589.08 205.739L1672.27 322.532ZM1584.81 344.49C1585.19 343.771 1585.37 342.962 1585.33 342.149L1671.14 327.229C1671.27 327.677 1671.48 328.098 1671.75 328.477C1671.8 328.565 1671.87 328.645 1671.94 328.712L1627.48 374.653L1584.81 344.49ZM1662.97 401.15C1662.71 401.625 1662.54 402.144 1662.47 402.68L1605.41 402.417C1605.32 401.683 1605.05 400.985 1604.61 400.386C1604.62 400.299 1604.6 400.212 1604.58 400.129L1627.75 376.078L1662.97 401.15ZM1484.37 324.5L1554.75 275.719C1555.35 276.379 1556.13 276.844 1557 277.056L1549.52 337.048L1484.75 326.719C1484.78 325.956 1484.63 325.197 1484.29 324.51L1484.37 324.5ZM1558.17 277.235C1558.44 277.238 1558.71 277.201 1558.97 277.126L1578.83 338.208L1578.2 338.582C1577.27 339.225 1576.61 340.189 1576.35 341.289L1550.79 337.213L1558.17 277.235ZM1560.07 276.792L1560.73 276.441C1561.24 276.076 1561.68 275.618 1562.01 275.092L1582.7 284.48L1580.31 337.796L1579.9 337.853L1560.07 276.792ZM1583.92 285.017L1670.99 324.613C1670.84 325.114 1670.77 325.634 1670.78 326.156L1585 341.071C1584.86 340.626 1584.65 340.205 1584.38 339.824C1583.71 338.842 1582.68 338.159 1581.51 337.92L1583.92 285.017ZM1582.84 283.233L1562.49 274.008C1562.71 273.358 1562.78 272.665 1562.68 271.985C1562.59 271.305 1562.34 270.655 1561.96 270.088C1561.57 269.52 1561.06 269.053 1560.46 268.726L1567.58 251.202L1585.98 206.032L1586.32 205.986L1582.84 283.233ZM1559.29 268.181C1558.48 267.972 1557.64 267.987 1556.84 268.224C1556.04 268.461 1555.33 268.91 1554.77 269.525C1554.21 270.139 1553.83 270.894 1553.67 271.708C1553.51 272.522 1553.57 273.365 1553.86 274.145L1535.4 262.912L1584.61 205.333L1584.81 205.462L1559.29 268.181ZM1553.25 275.455L1483.64 323.556L1534.58 263.964L1553.25 275.455ZM1484.62 328.042L1549.41 338.368L1540.8 409.243C1540.09 409.24 1539.38 409.408 1538.75 409.732L1483.41 330.113C1484 329.499 1484.42 328.739 1484.63 327.91L1484.62 328.042ZM1550.57 338.47L1576.15 342.542C1576.18 343.435 1576.46 344.302 1576.96 345.041C1577.26 345.442 1577.6 345.799 1578 346.101L1542.45 409.435L1541.87 409.253L1550.57 338.47ZM1579.26 346.712C1579.49 346.809 1579.74 346.872 1579.99 346.899L1578.27 406.756L1545.05 412.395C1544.9 411.944 1544.69 411.516 1544.43 411.122C1544.14 410.728 1543.79 410.38 1543.4 410.088L1579.26 346.712ZM1579.38 407.622L1596.6 404.692C1596.72 404.976 1596.87 405.244 1597.05 405.492C1597.43 406.033 1597.93 406.482 1598.51 406.806L1578.6 451.06L1578.13 450.915L1579.38 407.622ZM1596.29 403.56L1579.42 406.415L1581.15 346.792C1581.46 346.776 1581.77 346.733 1582.08 346.666L1598.64 398.932L1598.2 399.2C1597.49 399.685 1596.94 400.364 1596.6 401.154C1596.26 401.945 1596.16 402.815 1596.3 403.663L1596.29 403.56ZM1583.2 346.094L1583.35 346.073C1583.63 345.89 1583.88 345.671 1584.1 345.423L1626.62 375.475L1603.58 399.301C1603.04 398.91 1602.42 398.641 1601.76 398.509C1601.11 398.378 1600.43 398.388 1599.78 398.54L1583.2 346.094ZM1605.35 403.495L1662.44 403.755C1662.51 404.49 1662.78 405.192 1663.21 405.789C1663.42 406.105 1663.67 406.388 1663.96 406.627L1642.21 438.811L1604.49 405.44C1604.9 404.899 1605.19 404.271 1605.31 403.605L1605.35 403.495ZM1628.42 375.229L1672.69 329.601C1673.19 329.959 1673.75 330.219 1674.34 330.368L1666.83 398.794C1665.94 398.815 1665.07 399.098 1664.33 399.607C1664.05 399.797 1663.79 400.016 1663.56 400.261L1628.42 375.229ZM1675.54 330.335C1676.43 330.314 1677.3 330.032 1678.04 329.522L1678.25 329.494L1766.26 417.071C1765.9 417.497 1765.63 417.985 1765.46 418.511L1671.52 403.427C1671.55 402.451 1671.26 401.492 1670.7 400.693C1670.08 399.778 1669.13 399.134 1668.05 398.889L1675.54 330.335ZM1671.33 404.497L1765.21 419.563C1765.14 420.589 1765.42 421.608 1766 422.457C1766.3 422.918 1766.71 423.308 1767.17 423.602L1750.98 454.687L1670.99 405.092C1671.1 404.935 1671.2 404.773 1671.29 404.607L1671.33 404.497ZM1785.36 472.67C1785.22 472.319 1785.05 471.984 1784.83 471.672C1784.44 471.076 1783.89 470.593 1783.26 470.269L1798.03 432.225L1854.41 455.265C1854.27 455.79 1854.22 456.336 1854.27 456.877L1785.36 472.67ZM1851.44 458.726L1728.36 507.639L1777.63 477.095C1778.25 477.851 1779.09 478.389 1780.04 478.628C1780.99 478.867 1781.99 478.795 1782.9 478.422C1783.8 478.05 1784.56 477.397 1785.07 476.559C1785.57 475.722 1785.79 474.745 1785.7 473.772L1851.44 458.726ZM1782.1 469.853C1781.64 469.732 1781.15 469.692 1780.67 469.735L1771.21 424.25C1771.56 424.119 1771.89 423.943 1772.19 423.726C1772.75 423.34 1773.22 422.83 1773.55 422.234L1796.9 431.78L1782.1 469.853ZM1779.5 469.973C1779.12 470.109 1778.75 470.291 1778.4 470.515C1778.06 470.769 1777.75 471.056 1777.47 471.373L1751.76 455.442L1768.28 424.234C1768.91 424.487 1769.6 424.572 1770.28 424.483L1779.5 469.973ZM1751.25 456.478L1776.95 472.358C1776.69 472.955 1776.56 473.599 1776.56 474.25C1776.56 474.901 1776.69 475.546 1776.95 476.143L1726.04 507.644C1725.78 507.313 1725.48 507.012 1725.15 506.746L1751.25 456.478ZM1726.7 509.432L1854.91 458.695C1854.97 458.832 1855.05 458.962 1855.15 459.081L1855.17 459.234L1784.62 527.433L1726.82 511.295C1726.95 510.71 1726.97 510.104 1726.87 509.514L1726.7 509.432ZM1831.5 341.976L1831.62 341.958L1797.27 430.502L1773.92 420.956C1774.12 420.329 1774.18 419.666 1774.09 419.015C1774 418.363 1773.77 417.74 1773.41 417.189C1773.26 416.975 1773.09 416.771 1772.91 416.579L1831.5 341.976ZM1830.56 341.268L1771.89 415.988C1771.21 415.647 1770.46 415.489 1769.71 415.529L1761.04 357.536L1829.83 339.933C1829.95 340.256 1830.11 340.559 1830.32 340.832C1830.44 341.015 1830.58 341.188 1830.73 341.35L1830.56 341.268ZM1754.77 307.257C1755.31 306.874 1755.76 306.375 1756.09 305.798L1829.54 336.866C1829.39 337.442 1829.34 338.041 1829.39 338.635L1760.73 356.221L1753.52 307.846C1754 307.735 1754.47 307.548 1754.9 307.291L1754.77 307.257ZM1768.3 415.565C1767.89 415.691 1767.5 415.867 1767.14 416.088L1726.08 369.705C1726.53 369.209 1726.88 368.62 1727.09 367.979C1727.3 367.338 1727.37 366.659 1727.29 365.989L1759.66 357.726L1768.3 415.565ZM1750.8 307.852C1751.27 307.996 1751.77 308.061 1752.26 308.044L1759.51 356.65L1727 364.985C1726.88 364.658 1726.72 364.347 1726.53 364.057C1726.17 363.564 1725.72 363.139 1725.21 362.802L1750.8 307.852ZM1749.73 307.345L1724.14 362.218C1723.44 361.999 1722.7 361.949 1721.97 362.07L1709.34 316.758L1748.17 305.47C1748.29 305.732 1748.43 305.984 1748.59 306.223C1748.94 306.695 1749.38 307.088 1749.89 307.375L1749.73 307.345ZM1699.04 276.767C1699.45 276.464 1699.81 276.107 1700.12 275.705L1748.15 301.871C1747.87 302.623 1747.78 303.434 1747.9 304.229L1708.97 315.53L1698.24 277.215L1699.04 276.767ZM1696.36 268.466C1695.46 268.479 1694.59 268.762 1693.86 269.278C1693.54 269.5 1693.25 269.758 1692.99 270.049L1688.94 267.341L1704.15 198.67L1696.36 268.466ZM1687.92 266.75L1591.15 203.655C1591.43 203.054 1591.58 202.403 1591.59 201.741L1701.54 188.976C1701.72 189.702 1702.08 190.373 1702.58 190.928C1703.08 191.484 1703.71 191.907 1704.41 192.16L1687.92 266.75ZM1590.89 199.253L1643.91 155.665L1701.75 186.285C1701.56 186.772 1701.46 187.29 1701.46 187.812L1591.51 200.552C1591.38 200.087 1591.17 199.648 1590.89 199.253ZM1677.36 132.95L1703.4 184.206C1702.97 184.506 1702.59 184.885 1702.3 185.323L1644.88 154.881L1672.73 131.99C1673.34 132.557 1674.09 132.947 1674.91 133.116C1675.73 133.285 1676.57 133.227 1677.36 132.95ZM1599.91 129.862L1671.37 129.279C1671.45 129.914 1671.67 130.524 1672 131.072L1643.8 154.271L1599.63 130.892C1599.75 130.557 1599.85 130.213 1599.91 129.862ZM1597.99 133.048C1598.43 132.749 1598.8 132.37 1599.09 131.932L1642.81 155.085L1590.9 197.816L1595.63 133.92C1596.47 133.856 1597.28 133.555 1597.97 133.052L1597.99 133.048ZM1592.75 132.93C1593.28 133.332 1593.9 133.613 1594.56 133.753L1589.61 197.914C1588.84 197.377 1587.93 197.089 1586.99 197.091C1586.05 197.093 1585.14 197.384 1584.38 197.925C1583.64 198.448 1583.07 199.176 1582.75 200.019C1582.42 200.863 1582.35 201.783 1582.54 202.665L1492.86 235.134L1592.75 132.93ZM1583.11 203.737L1583.41 204.243L1583.79 204.688L1534.36 262.375L1492.05 236.681L1583.11 203.737ZM1491.32 237.51L1533.68 263.33L1482.75 322.79C1482.32 322.514 1481.85 322.313 1481.36 322.196L1491.32 237.51ZM1479.43 331.048C1480.46 331.26 1481.53 331.114 1482.46 330.634L1537.8 410.279C1537.49 410.561 1537.21 410.888 1536.99 411.251L1463.04 377.876L1479.43 331.048ZM1536.46 414.796L1482.84 436.616L1467.11 442.996L1438.77 454.52C1438.28 453.804 1437.6 453.245 1436.8 452.91L1462.68 378.89L1536.53 412.254C1536.21 413.068 1536.14 413.96 1536.33 414.813L1536.46 414.796ZM1413.14 352.905L1476.37 328.752C1476.45 328.902 1476.54 329.047 1476.64 329.185C1477.08 329.812 1477.66 330.323 1478.34 330.676L1461.96 377.291L1413.07 355.264C1413.25 354.492 1413.23 353.685 1413.01 352.923L1413.14 352.905ZM1411.18 357.741C1411.69 357.376 1412.12 356.918 1412.46 356.391L1461.44 378.408L1435.48 452.438C1435.05 452.371 1434.61 452.369 1434.17 452.434L1429.8 435.177L1410.23 358.053C1410.56 357.974 1410.87 357.87 1411.18 357.741ZM1409.12 358.519L1428.47 434.862L1433.06 452.925C1432.79 453.048 1432.53 453.197 1432.29 453.37C1431.58 453.844 1431.03 454.508 1430.69 455.285L1391.66 446.344L1408.4 358.46C1408.64 358.499 1408.88 358.519 1409.12 358.519ZM1261.09 442.376C1261.32 442.372 1261.54 442.341 1261.76 442.285L1278.55 484.574L1290.15 513.739L1289.77 514C1289.21 514.377 1288.75 514.873 1288.41 515.452C1288.07 516.031 1287.87 516.679 1287.82 517.346L1259.24 518.645L1261.09 442.376ZM1257.93 518.692L1183.86 522.113C1183.74 521.466 1183.49 520.852 1183.12 520.309L1182.9 520.052L1257.95 441.528C1258.53 441.964 1259.22 442.248 1259.94 442.351L1257.93 518.692ZM1279.41 483.544L1262.85 441.823L1263.24 441.588C1263.76 441.228 1264.21 440.757 1264.54 440.209L1328.83 468.536L1294.62 513.753C1293.6 513.172 1292.38 513.01 1291.24 513.302L1279.41 483.544ZM1348.07 438.653C1348.17 439.349 1348.43 440.011 1348.83 440.585C1349 440.855 1349.21 441.099 1349.45 441.309L1329.51 467.53L1264.92 439.165C1264.99 438.938 1265.03 438.704 1265.06 438.467L1348.07 438.653ZM1264.84 436.147L1304.98 413.561L1348.3 436.35C1348.18 436.699 1348.09 437.062 1348.03 437.431L1265.15 437.228C1265.07 436.856 1264.94 436.497 1264.77 436.157L1264.84 436.147ZM1350.38 441.991C1350.98 442.313 1351.63 442.5 1352.31 442.538C1352.98 442.577 1353.66 442.466 1354.28 442.215L1380.09 488.283C1379.88 488.696 1379.74 489.138 1379.67 489.594L1330.67 468.023L1350.38 441.991ZM1329.92 469.014L1379.61 490.932C1379.63 491.217 1379.67 491.5 1379.73 491.778L1296.44 515.933C1296.32 515.661 1296.18 515.4 1296.02 515.155C1295.86 514.915 1295.67 514.695 1295.46 514.501L1329.92 469.014ZM1296.85 517.025L1352.17 500.976L1380.24 492.831L1380.26 492.984C1380.53 493.371 1380.86 493.713 1381.24 493.999L1346.89 553.149L1296.3 519.736C1296.73 518.903 1296.9 517.962 1296.8 517.032L1296.85 517.025ZM1355.28 441.635C1355.97 441.122 1356.5 440.425 1356.81 439.625L1390.35 447.28L1383.04 485.948C1382.5 486.089 1382 486.317 1381.53 486.623C1381.28 486.817 1381.04 487.024 1380.81 487.245L1355.28 441.635ZM1391.51 447.539L1430.43 456.418C1430.33 457.209 1430.44 458.014 1430.75 458.749L1387.61 487.463C1387.2 486.965 1386.68 486.562 1386.1 486.281C1385.51 486.001 1384.87 485.85 1384.23 485.838L1391.51 447.539ZM1388.23 488.579L1431.22 459.912C1431.91 460.844 1432.93 461.471 1434.07 461.662L1430.11 526.733L1388.07 492.751C1388.43 492.118 1388.63 491.41 1388.66 490.684C1388.69 489.959 1388.54 489.237 1388.23 488.579ZM1406.59 358.16L1407.17 358.394L1390.42 446.227L1357.12 438.485C1357.25 437.392 1356.98 436.288 1356.36 435.379C1356.15 435.101 1355.91 434.844 1355.65 434.614L1406.59 358.16ZM1405.21 357.121C1405.33 357.264 1405.46 357.394 1405.61 357.511L1354.6 434.027C1353.86 433.652 1353.04 433.483 1352.22 433.536C1351.39 433.589 1350.59 433.863 1349.91 434.329C1349.48 434.642 1349.1 435.02 1348.78 435.449L1306.11 412.883L1405.21 357.121ZM1220.88 366.666L1402.42 357.504L1304.92 412.419L1220.61 367.956C1220.76 367.491 1220.84 367.005 1220.84 366.516L1220.88 366.666ZM1220.04 368.948L1303.7 413.056L1264.2 435.06C1263.58 434.253 1262.72 433.675 1261.73 433.416C1260.75 433.158 1259.71 433.235 1258.78 433.635L1219.24 369.605C1219.53 369.371 1219.78 369.1 1220 368.797L1220.04 368.948ZM1215.86 370.851C1216.66 370.951 1217.48 370.84 1218.22 370.528L1257.75 434.533C1256.85 435.255 1256.27 436.287 1256.1 437.422C1255.94 438.558 1256.21 439.714 1256.86 440.658L1257.05 440.919L1182 519.392C1181.67 519.143 1181.31 518.938 1180.92 518.782L1215.86 370.851ZM1175.54 525.496C1176 526.156 1176.63 526.682 1177.37 527.021L1169.31 552.817L1115.3 532.611C1115.39 532.273 1115.43 531.925 1115.42 531.577L1174.87 524.048C1175.01 524.565 1175.23 525.055 1175.54 525.496ZM1109.63 513.339C1110.44 512.76 1111.05 511.936 1111.35 510.989L1174.73 522.657C1174.73 522.657 1174.75 522.811 1174.76 522.888L1115.29 530.42C1115.16 529.903 1114.94 529.412 1114.65 528.968C1114.22 528.311 1113.63 527.776 1112.93 527.414C1112.24 527.052 1111.46 526.875 1110.68 526.9L1108.39 513.796C1108.82 513.717 1109.25 513.571 1109.64 513.364L1109.63 513.339ZM1104.77 513.534C1105.51 513.973 1106.37 514.183 1107.23 514.137L1109.52 527.216C1109.07 527.357 1108.65 527.564 1108.27 527.83C1107.3 528.511 1106.64 529.537 1106.41 530.694L1092.58 529.741L1104.77 513.534ZM1107.11 534.097C1107.16 534.174 1107.21 534.246 1107.27 534.31L1028.66 614.496L1091.74 530.848L1106.34 531.854C1106.37 532.695 1106.65 533.508 1107.13 534.199L1107.11 534.097ZM1054.76 589.47L1108.12 535.185C1108.8 535.695 1109.6 536.002 1110.44 536.069L1113.42 621.543L1027.29 620.739C1027.2 620.002 1026.93 619.297 1026.51 618.679L1026.33 618.47L1054.76 589.47ZM1046.08 526.049L1102.83 511.215C1102.96 511.531 1103.13 511.832 1103.32 512.113C1103.49 512.35 1103.67 512.569 1103.88 512.768L1091.25 529.532L1046.1 526.36C1046.1 526.36 1046.06 526.261 1046.05 526.159L1046.08 526.049ZM1041.24 531.175C1042.27 531.234 1043.29 530.948 1044.14 530.361C1044.63 530.031 1045.04 529.608 1045.37 529.116C1045.69 528.623 1045.91 528.072 1046.02 527.493L1090.4 530.613L1025.04 617.237C1024.79 617.09 1024.53 616.968 1024.25 616.874L1041.24 531.175ZM1023.07 616.827C1022.02 616.738 1020.97 617.015 1020.1 617.61C1019.23 618.204 1018.59 619.081 1018.29 620.091L1005.55 618.31L1039.62 532.859L1023.07 616.827ZM982.908 679.33C982.836 679.187 982.739 679.059 982.621 678.951L1020.63 625.383C1021.2 625.696 1021.83 625.877 1022.48 625.913L1026.49 687.31L983.725 682.246C983.813 681.19 983.521 680.138 982.901 679.279L982.908 679.33ZM1019.05 623.929C1019.24 624.196 1019.46 624.446 1019.7 624.675L981.858 677.959L1005.23 619.449L1018.27 621.269C1018.25 622.214 1018.52 623.142 1019.05 623.929ZM1039.04 530.537L1039.32 530.707L1004.46 618.172L971.261 613.47C971.269 612.523 970.987 611.597 970.453 610.814C970.351 610.654 970.234 610.504 970.104 610.366L1039.04 530.537ZM968.116 617.816C968.543 617.682 968.948 617.486 969.318 617.234C970.192 616.618 970.827 615.72 971.114 614.691L1003.98 619.281L980.581 677.612C980.084 677.426 979.557 677.33 979.026 677.329L968.116 617.816ZM975.425 684.451C975.746 684.916 976.147 685.321 976.608 685.647L957.626 723.509L944.271 721.446L943.851 711.297C944.819 711.134 945.708 710.66 946.383 709.947C947.057 709.233 947.479 708.319 947.586 707.345C947.692 706.37 947.477 705.387 946.972 704.546C946.468 703.704 945.702 703.051 944.791 702.684L975.806 684.947L975.425 684.451ZM942.968 721.285L920.675 717.912C920.658 717.697 920.629 717.483 920.587 717.271L939.2 709.218C939.569 709.824 940.077 710.333 940.683 710.704C941.288 711.076 941.973 711.298 942.682 711.352L942.968 721.285ZM938.455 706.448C938.429 707.013 938.506 707.577 938.683 708.114L923.879 714.576L938.427 706.243C938.451 706.309 938.461 706.379 938.455 706.448ZM919.799 720.303C920.062 719.928 920.262 719.513 920.389 719.073L942.924 722.492L944.106 745.092C943.664 745.232 943.242 745.43 942.853 745.681L927.465 728.756L919.799 720.303ZM945.133 744.952L944.215 722.759L957.084 724.706L946.813 745.192C946.275 744.999 945.703 744.917 945.133 744.952ZM872.373 666.41L938.454 704.909L920.023 715.443L919.985 715.161C919.361 714.264 918.434 713.623 917.374 713.356C916.314 713.088 915.192 713.212 914.217 713.705L872.192 666.618L872.373 666.41ZM783.11 638.495L802.184 644.136L864.415 662.513C864.365 662.751 864.329 662.991 864.304 663.233C864.239 663.95 864.348 664.673 864.621 665.339C864.894 666.006 865.324 666.598 865.874 667.064L841.176 700.983L782.658 639.393C782.845 639.114 782.998 638.812 783.11 638.495ZM781.996 640.292L840.405 701.845L804.211 751.693C803.659 751.384 803.044 751.201 802.412 751.156L801.771 751.244L780.852 641.101C781.236 640.889 781.587 640.621 781.894 640.306L781.996 640.292ZM757.369 759.613L681.893 767.324C681.711 766.502 681.29 765.752 680.683 765.166L732.914 697.802L798.326 753.203C797.918 753.826 797.674 754.542 797.617 755.284C797.617 755.371 797.628 755.457 797.652 755.54L757.369 759.613ZM793.242 757.135L691.615 781.057L681.116 771.007C681.615 770.343 681.915 769.55 681.98 768.722C681.98 768.635 681.968 768.549 681.945 768.466L793.242 757.135ZM801.737 760.176C802.792 760.263 803.844 759.981 804.713 759.378L813.329 768.85L732.618 812.647L798.902 758.945C799.647 759.655 800.609 760.093 801.635 760.19L801.737 760.176ZM805.572 758.582C806.196 757.868 806.577 756.975 806.661 756.031C806.643 755.703 806.599 755.378 806.528 755.057L869.475 738.331L814.297 768.274L805.572 758.582ZM776.858 641.151C777.342 641.388 777.868 641.529 778.405 641.566C778.867 641.593 779.329 641.53 779.766 641.38L800.697 751.234C800.09 751.44 799.53 751.765 799.05 752.19L733.572 696.877L776.858 641.151ZM711.46 675.52C711.536 674.824 711.439 674.12 711.18 673.47L775.149 639.741C775.366 640.019 775.611 640.274 775.881 640.502L732.72 696.001L710.778 677.414C711.109 676.838 711.307 676.196 711.358 675.534L711.46 675.52ZM710.04 678.325L732.011 696.934L679.754 764.302L679.363 764.12L688.613 734.82L706.117 679.461L706.527 679.405C707.751 679.548 708.982 679.201 709.951 678.441L710.04 678.325ZM623.642 729.295L646.274 714.688L674.708 764.496C674.439 764.705 674.191 764.94 673.968 765.197L623.522 733.384C623.754 732.907 623.896 732.392 623.941 731.865C624.025 731.062 623.896 730.251 623.568 729.514L623.642 729.295ZM647.26 714.058L703.387 677.668C703.817 678.193 704.357 678.618 704.97 678.913L687.379 734.597L678.264 763.539L677.879 763.592C677.165 763.533 676.447 763.631 675.775 763.88L647.26 714.058ZM604.928 633.939L704.384 629.892L706.058 670.62C705.403 670.733 704.78 670.99 704.236 671.371C703.691 671.752 703.238 672.249 702.908 672.826L604.82 634.867C604.804 634.635 604.773 634.404 604.725 634.175L604.928 633.939ZM604.43 635.652L702.588 673.731C702.516 673.984 702.473 674.244 702.458 674.506C702.354 675.28 702.461 676.069 702.77 676.787L646.651 713.045L603.257 637.013C603.667 636.696 604.021 636.312 604.305 635.878L604.43 635.652ZM554.879 588.967L555.315 588.908C556.37 588.994 557.422 588.712 558.291 588.109L596.804 630.743C596.311 631.324 595.973 632.02 595.819 632.766C595.665 633.513 595.701 634.285 595.924 635.014L533.592 661.21C533.14 660.429 532.462 659.803 531.647 659.414L554.879 588.967ZM439.007 629.559L409.048 654.252L384.915 622.704C385.509 622.175 385.957 621.502 386.216 620.751L437.468 626.141C437.468 626.787 437.606 627.426 437.871 628.015C438.136 628.604 438.524 629.13 439.007 629.559ZM440.04 630.227C440.524 630.472 441.05 630.622 441.59 630.668C441.911 630.662 442.23 630.619 442.54 630.538L433.007 681.856C432.125 681.792 431.243 681.985 430.469 682.412L409.675 655.21L440.04 630.227ZM446.431 625.15L510.446 601.7L527.823 659.362C526.977 659.736 526.268 660.362 525.793 661.154L473.163 638.227L446.473 626.606C446.478 626.554 446.47 626.502 446.452 626.453C446.498 626.037 446.494 625.617 446.438 625.202L446.431 625.15ZM525.328 662.34C525.255 662.623 525.198 662.91 525.157 663.199C525.171 663.483 525.209 663.766 525.273 664.044L469.962 676.959L445.911 628.615C446.067 628.367 446.197 628.104 446.301 627.831L525.328 662.34ZM468.696 677.263L436.976 684.681C436.735 684.057 436.357 683.496 435.868 683.038C435.38 682.581 434.795 682.239 434.157 682.039L443.791 630.315C444.219 630.13 444.617 629.882 444.971 629.579L468.696 677.263ZM435.894 689.58L499.262 742.467C499.051 742.8 498.88 743.156 498.754 743.529L453.652 735.313L435.073 690.267C435.37 690.085 435.648 689.872 435.901 689.631L435.894 689.58ZM436.629 688.644C436.995 688.048 437.216 687.374 437.275 686.676C437.271 686.365 437.228 686.055 437.149 685.754L469.126 678.301L500.384 741.113L499.843 741.552L436.629 688.644ZM470.392 677.997L525.438 665.249C525.848 666.345 526.674 667.235 527.738 667.727L517.815 698.033L503.883 740.504L503.447 740.564C502.811 740.507 502.17 740.595 501.573 740.82L470.392 677.997ZM519.081 697.73L528.846 667.993L529.274 668.065C529.941 668.127 530.613 668.039 531.242 667.809C531.871 667.578 532.44 667.211 532.909 666.733L555.71 683.95L505.561 741.11L504.966 740.773L519.081 697.73ZM533.618 665.801C533.938 665.229 534.136 664.597 534.202 663.946C534.232 663.407 534.158 662.868 533.984 662.357L596.339 636.132C596.511 636.412 596.713 636.673 596.942 636.911L556.528 683.238L533.618 665.801ZM553.75 588.547L530.532 659.096L530.095 659.156C529.715 659.169 529.336 659.221 528.966 659.31L511.568 601.494L551.731 586.787C552.214 587.576 552.919 588.205 553.757 588.599L553.75 588.547ZM486.423 514.744L552.085 581.727C551.535 582.415 551.203 583.251 551.132 584.128C551.132 584.596 551.196 585.061 551.321 585.512L511.181 600.19L485.606 515.274C485.9 515.133 486.175 514.955 486.423 514.744ZM483.307 515.666C483.688 515.653 484.066 515.601 484.436 515.512L510.021 600.505L445.929 623.966C445.51 623.131 444.83 622.455 443.992 622.038L482.704 515.462L483.307 515.666ZM481.045 514.801L481.618 515.166L442.906 621.743L442.317 621.641L441.624 621.736L430.97 568.114L481.045 514.801ZM432.113 555.245C432.199 554.309 431.989 553.369 431.51 552.56L478.079 516.251L430.774 566.678L429.261 559.054C430.058 558.754 430.754 558.237 431.272 557.562C431.79 556.887 432.107 556.08 432.19 555.234L432.113 555.245ZM440.479 621.97C439.784 622.2 439.154 622.594 438.643 623.118C438.133 623.642 437.756 624.282 437.545 624.982L386.374 619.607C386.438 618.465 386.069 617.341 385.342 616.459L429.883 569.15L440.479 621.97ZM425.484 558.97C426.016 559.25 426.6 559.419 427.2 559.467C427.443 559.472 427.685 559.438 427.918 559.368L429.588 567.754L387.182 612.709L425.484 558.97ZM276.37 531.227L423.085 554.809C423.063 555.459 423.18 556.106 423.429 556.707C423.678 557.307 424.053 557.848 424.529 558.292L383.971 615.419C383.082 614.956 382.064 614.799 381.076 614.972C380.089 615.145 379.185 615.638 378.506 616.375L275.569 532.824C275.976 532.322 276.27 531.739 276.433 531.114L276.37 531.227ZM377.826 617.33L377.585 617.859L304.203 594.612L277.582 586.166C277.576 586.036 277.558 585.908 277.529 585.782C277.642 584.596 277.28 583.415 276.522 582.496C275.764 581.577 274.673 580.996 273.486 580.879L272.175 534.776C273.145 534.71 274.067 534.327 274.798 533.686L377.826 617.33ZM377.826 621.533L310.927 661.562L275.674 589.037C276.379 588.578 276.943 587.931 277.301 587.17L332.236 604.587L348.361 609.691L377.398 618.981C377.309 619.859 377.484 620.744 377.903 621.522L377.826 621.533ZM181.243 704.017L106.854 716.8C106.854 716.8 106.833 716.646 106.822 716.569L166.354 684.804C166.832 685.484 167.488 686.019 168.25 686.351C169.013 686.683 169.852 686.798 170.677 686.686C171.501 686.573 172.278 686.236 172.924 685.712C173.569 685.187 174.058 684.496 174.336 683.713L181.243 704.017ZM175.358 683.155L259.465 690.579L182.458 703.72L175.358 683.155ZM224.27 557.485L238.992 565.914L199.615 610.454C199.36 610.278 199.086 610.131 198.797 610.018L219.519 559.649L220.002 559.74C220.846 559.816 221.694 559.655 222.451 559.275C223.207 558.894 223.842 558.31 224.284 557.588L224.27 557.485ZM212.626 501.023L303.115 474.422C303.259 474.718 303.429 475 303.622 475.266L223.401 551.705C222.699 551.132 221.841 550.786 220.938 550.71C220.773 550.708 220.608 550.73 220.45 550.777L212.626 501.023ZM224.612 553.68L268.068 532.466C268.142 532.611 268.231 532.748 268.333 532.874L239.711 565.241L224.664 556.544C224.755 556.257 224.811 555.96 224.83 555.66C224.925 555.011 224.87 554.349 224.67 553.724L224.612 553.68ZM103.221 500.948C102.554 501.029 101.914 501.253 101.343 501.606C100.773 501.959 100.287 502.432 99.9181 502.992L69.7608 488.765L100.155 438.953C100.545 439.118 100.956 439.229 101.377 439.282L103.221 500.948ZM102.96 453.345L107.615 503.062C107.268 502.488 106.8 501.996 106.243 501.621C105.685 501.247 105.053 500.998 104.39 500.893L102.96 453.345ZM103.355 509.962C103.606 509.955 103.856 509.921 104.099 509.86L112.825 562.388C111.743 562.716 110.817 563.428 110.223 564.389L83.3431 552.716L102.565 509.731C102.819 509.837 103.084 509.915 103.355 509.962ZM105.254 509.702C105.873 509.484 106.436 509.135 106.907 508.679C107.377 508.222 107.742 507.67 107.978 507.059L112.045 550.566L105.254 509.702ZM102.835 439.239C103.383 439.143 103.906 438.939 104.374 438.637L166.624 509.924C165.986 510.656 165.59 511.567 165.49 512.533C165.406 513.636 165.723 514.733 166.383 515.621L116.967 563.232C116.269 562.677 115.423 562.338 114.533 562.259L114.302 562.291L102.835 439.239ZM191.518 396.57L139.272 418.516L129.836 390.048C130.427 389.763 130.947 389.352 131.361 388.844C131.775 388.337 132.072 387.745 132.232 387.11L191.398 395.308C191.369 395.741 191.411 396.176 191.522 396.596L191.518 396.57ZM138.211 418.974L105.914 432.501C105.568 431.921 105.098 431.424 104.538 431.045L126.278 390.221C126.661 390.364 127.061 390.458 127.467 390.503C127.891 390.483 128.311 390.426 128.725 390.331L138.211 418.974ZM106.443 435.222C106.458 434.675 106.384 434.13 106.222 433.608L138.365 420.102L167.843 508.896L167.31 509.204L105.297 437.937C106.004 437.194 106.435 436.232 106.52 435.212L106.443 435.222ZM181.607 558.882L118.464 565.768C118.337 565.176 118.073 564.623 117.694 564.15L167.107 516.515C167.812 517.074 168.668 517.412 169.566 517.483C169.887 517.478 170.205 517.434 170.516 517.354L181.607 558.882ZM171.667 517.17C172.16 516.957 172.614 516.666 173.013 516.307L216.518 552.803C216.119 553.421 215.875 554.126 215.805 554.858C215.805 554.858 215.833 555.063 215.847 555.165L182.817 558.743L171.667 517.17ZM117.756 569.571L192.915 612.702C192.742 613.135 192.628 613.59 192.577 614.053C192.529 614.651 192.6 615.253 192.786 615.823C192.971 616.393 193.268 616.922 193.659 617.377L158.046 656.365L116.522 570.68C117.001 570.394 117.42 570.017 117.756 569.571ZM194.651 618.129L194.997 618.369L171.123 677.809C170.889 677.732 170.645 677.686 170.398 677.673C169.781 677.64 169.162 677.725 168.576 677.922L158.698 657.503L194.651 618.129ZM193.768 611.672L118.323 568.554C118.508 568.134 118.623 567.686 118.664 567.228C118.664 567.228 118.636 567.023 118.622 566.921L181.922 560.04L195.326 610.258C194.606 610.576 193.981 611.075 193.511 611.707L193.768 611.672ZM183.414 559.862L216.261 556.283C216.418 556.926 216.713 557.526 217.127 558.043C217.541 558.559 218.063 558.978 218.657 559.271L197.691 609.96L197.511 609.985C197.181 609.948 196.848 609.95 196.518 609.99L183.414 559.862ZM217.593 551.872L173.858 515.409C174.253 514.792 174.489 514.087 174.545 513.357C174.545 512.984 174.495 512.614 174.394 512.255L211.445 501.367L219.057 550.915C218.421 551.123 217.835 551.461 217.336 551.908L217.593 551.872ZM174.175 511.032C173.926 510.468 173.564 509.961 173.111 509.542C172.658 509.124 172.123 508.803 171.541 508.599L195.453 400.105L195.94 400.038L211.295 500.082L174.175 511.032ZM170.407 508.336C169.99 508.329 169.574 508.386 169.175 508.505L139.661 419.637L191.907 397.692C192.428 398.673 193.284 399.436 194.319 399.842L170.407 508.336ZM191.907 393.489L61.3849 351.038C61.3773 350.901 61.3585 350.763 61.3289 350.628C61.334 350.576 61.3268 350.524 61.3078 350.475L158.817 343.092L192.725 392.203C192.385 392.585 192.109 393.019 191.907 393.489ZM189.341 393.84L132.287 385.98C132.277 385.028 131.968 384.103 131.401 383.338C130.835 382.572 130.041 382.004 129.133 381.715C128.225 381.425 127.248 381.43 126.342 381.727C125.436 382.023 124.646 382.598 124.086 383.369L64.0721 353.099L189.341 393.84ZM125.117 389.571L103.475 430.538C103.13 430.401 102.766 430.319 102.396 430.294C101.716 430.23 101.031 430.323 100.394 430.567L88.6326 408.421L124.21 388.677C124.492 389.061 124.838 389.394 125.234 389.659L125.117 389.571ZM99.372 431.125C98.8352 431.503 98.3869 431.992 98.0583 432.56C97.7296 433.128 97.5284 433.76 97.4685 434.413C97.5036 434.669 97.5386 434.926 97.5702 435.156L5.01322 455.044L4.9922 454.891L87.6107 408.979L99.372 431.125ZM5.27604 456.966C5.241 456.71 5.20596 456.454 5.17091 456.197L97.7535 436.306C98.0258 437.111 98.522 437.822 99.1842 438.355L68.8006 488.244L4.91803 457.981C5.0843 457.661 5.2048 457.319 5.27604 456.966ZM69.3701 489.732L99.5636 504.033C99.4558 504.355 99.3873 504.688 99.3596 505.026C99.3127 505.635 99.3963 506.247 99.6049 506.82L45.0275 532.556C44.7569 532.144 44.4243 531.776 44.0415 531.464L69.3701 489.732ZM45.5518 535.434C45.5864 534.826 45.5032 534.217 45.3066 533.641L99.9095 507.901C100.302 508.515 100.838 509.024 101.472 509.384L82.2686 552.314L45.3781 536.267C45.4513 535.993 45.5092 535.715 45.5518 535.434ZM82.8673 553.825L109.776 565.52C109.691 565.8 109.634 566.088 109.606 566.379C109.542 567.066 109.637 567.758 109.883 568.403L68.0905 591.268C67.7311 590.789 67.2851 590.381 66.7755 590.065L82.8673 553.825ZM68.826 594.353C68.9003 593.657 68.8041 592.953 68.5457 592.303L108.043 570.821L67.4693 602.213L66.1981 598.079C66.9254 597.743 67.5513 597.222 68.0126 596.568C68.474 595.913 68.7545 595.149 68.826 594.353ZM110.942 570.033C111.561 570.653 112.346 571.081 113.202 571.264L102.38 713.339L102.082 713.641L101.748 713.687L67.8499 603.466L110.942 570.033ZM114.389 571.337C114.789 571.348 115.187 571.293 115.57 571.176L157.289 657.33L105.179 714.497C104.687 714.141 104.128 713.889 103.535 713.756L114.389 571.337ZM157.828 658.405L167.518 678.406C166.923 678.771 166.42 679.267 166.047 679.857C165.674 680.446 165.442 681.113 165.368 681.807C165.304 682.485 165.398 683.169 165.642 683.805L149.002 692.711L106.114 715.596C106.055 715.491 105.98 715.396 105.892 715.313L157.828 658.405ZM172.244 678.36L195.994 618.963L196.744 619.096C197.862 619.193 198.976 618.864 199.86 618.174L216.811 637.548L172.891 678.69C172.682 678.567 172.466 678.457 172.244 678.36ZM200.689 617.355C201.113 616.819 201.41 616.194 201.558 615.528C201.707 614.861 201.704 614.17 201.549 613.505L269.221 587.544C269.302 587.724 269.405 587.894 269.525 588.051L217.652 636.623L200.689 617.355ZM268.687 584.981C268.664 585.476 268.731 585.971 268.887 586.441L201.106 612.182C201.075 611.951 200.816 611.778 200.656 611.565L240.166 566.849L269.128 583.615C268.913 584.002 268.759 584.419 268.669 584.853L268.687 584.981ZM240.853 565.946L269.225 533.848C269.804 534.279 270.469 534.579 271.175 534.73L272.497 580.91C271.345 581.096 270.307 581.714 269.595 582.638L240.853 565.946ZM304.422 476.331L273.867 526.113C273.409 525.916 272.925 525.788 272.429 525.735C271.23 525.634 270.039 526.01 269.116 526.782C268.193 527.553 267.613 528.658 267.502 529.855C267.475 530.419 267.553 530.984 267.73 531.521L224.226 552.767L304.451 476.353L304.422 476.331ZM199.394 398.522L303.099 470.482C302.826 471.005 302.664 471.578 302.623 472.166C302.609 472.53 302.658 472.895 302.77 473.242L212.465 499.844L197.132 399.953C198.013 399.714 198.801 399.215 199.394 398.522ZM217.806 341.969L197.032 391.196L196.337 391.082C195.511 391.001 194.679 391.16 193.942 391.54L160.393 342.955L215.309 338.812C215.438 339.489 215.722 340.126 216.137 340.676C216.552 341.225 217.088 341.672 217.703 341.983L217.806 341.969ZM93.597 245.69L215.922 335.648C215.538 336.249 215.308 336.935 215.254 337.645L159.612 341.835L93.3649 245.904L93.597 245.69ZM89.5407 247.002L89.9 246.953C90.7715 247.086 91.663 246.964 92.4667 246.602L158.355 342.007L61.4582 349.279C61.3122 348.584 61.005 347.932 60.5613 347.376C60.1175 346.82 59.5494 346.376 58.9026 346.079L89.5407 247.002ZM60.7552 352.743L123.478 384.47C123.343 384.832 123.263 385.213 123.24 385.599C123.167 386.303 123.265 387.015 123.524 387.674L88.0712 407.376L59.6237 353.837C60.0651 353.545 60.4487 353.174 60.7552 352.743ZM55.418 354.439C55.8212 354.609 56.2418 354.735 56.6722 354.815C57.3514 354.866 58.0337 354.773 58.6742 354.542L87.1217 408.08L4.2547 453.895C3.96713 453.508 3.62068 453.168 3.22786 452.887L55.418 354.439ZM39.4774 530.783L3.12292 460.341C3.61175 459.991 4.03072 459.553 4.35821 459.05L68.1789 489.243L42.8654 530.894C42.4121 530.685 41.9256 530.558 41.428 530.517C40.7659 530.451 40.0975 530.542 39.4774 530.783ZM43.2144 538.991C43.9201 538.615 44.5042 538.046 44.8988 537.351L81.8149 553.395L65.6064 589.546C65.3084 589.464 65.0033 589.409 64.6952 589.383C64.1908 589.361 63.6865 589.43 63.2066 589.587L43.2144 538.991ZM61.4614 597.474C62.1627 598.047 63.0215 598.393 63.9244 598.469C64.3049 598.454 64.6832 598.402 65.0537 598.314L66.4614 602.873L11.0329 645.901L61.4614 597.474ZM6.62838 650.785L66.849 604.177L100.57 714.057C99.9597 714.331 99.417 714.735 98.9798 715.24L6.79241 655.043C7.04183 654.553 7.19087 654.018 7.23082 653.469C7.31567 652.534 7.105 651.595 6.62838 650.785ZM6.17424 656.068L98.4386 716.254C98.2291 716.683 98.089 717.143 98.0235 717.616L29.6542 717.255L4.95173 657.07C5.42353 656.804 5.8369 656.446 6.16723 656.016L6.17424 656.068ZM-10.4403 713.341L2.27781 657.592C2.80862 657.623 3.34041 657.551 3.84345 657.378L28.358 717.145L-7.55688 716.836C-7.69251 716.053 -8.02965 715.32 -8.53518 714.707C-9.04071 714.094 -9.69724 713.623 -10.4403 713.341ZM46.8727 764.967L-8.17353 719.974C-7.82473 719.436 -7.60412 718.826 -7.52866 718.189L28.8738 718.432L47.7336 764.38C47.4283 764.547 47.14 764.744 46.8727 764.967ZM50.3678 763.758C49.8462 763.739 49.325 763.81 48.8279 763.969L30.1595 718.465L97.1918 718.8L52.5823 764.656C51.942 764.158 51.1752 763.847 50.3678 763.758ZM54.3981 767.227C54.2359 766.577 53.9389 765.969 53.5263 765.441L98.1369 719.402C98.3828 720.278 98.888 721.061 99.5864 721.646C100.285 722.232 101.144 722.593 102.051 722.683C102.959 722.773 103.873 722.588 104.674 722.152C105.474 721.715 106.125 721.048 106.539 720.236L195.886 752.395L54.3981 767.227ZM106.938 719.138C106.988 718.945 107.023 718.748 107.041 718.549C107.028 718.36 107.002 718.172 106.964 717.986L181.533 705.178L197.476 751.786L106.938 719.138ZM198.737 751.639L182.784 704.955L259.611 691.838C259.764 692.319 259.994 692.773 260.292 693.181L198.737 751.639ZM259.491 689.427L174.625 682.003C174.591 681.105 174.29 680.237 173.761 679.51L217.558 638.229L260.511 687.329C259.995 687.928 259.643 688.651 259.491 689.427ZM261.399 686.555L218.427 637.509L270.287 588.651C270.84 589.109 271.493 589.431 272.194 589.591L263.723 685.768C262.932 685.85 262.178 686.143 261.538 686.615L261.399 686.555ZM264.891 685.895L273.361 589.719C273.787 589.726 274.211 589.668 274.619 589.547L309.909 662.145L267.5 687.575C266.847 686.755 265.928 686.188 264.901 685.972L264.891 685.895ZM332.175 712.926L268.378 691.318L268.465 690.81C268.533 690.062 268.43 689.308 268.164 688.606L310.477 663.242L333.801 711.242C333.113 711.672 332.554 712.281 332.185 713.003L332.175 712.926ZM336.642 710.41C336.015 710.378 335.388 710.464 334.794 710.662L311.43 662.563L378.561 622.32C378.842 622.645 379.172 622.925 379.537 623.152L371.891 639.129L337.666 710.635C337.333 710.558 336.993 710.508 336.652 710.487L336.642 710.41ZM338.7 711.12L372.604 640.519L380.768 623.741C381.057 623.837 381.355 623.901 381.657 623.932C382.537 624.025 383.425 623.849 384.203 623.428L408.401 655.071L339.626 711.777C339.338 711.557 339.032 711.363 338.71 711.197L338.7 711.12ZM340.068 712.525L408.986 655.905L429.747 683.059C428.967 683.801 428.473 684.792 428.352 685.86C428.359 686.198 428.405 686.533 428.489 686.86L340.56 713.059C340.421 712.885 340.26 712.731 340.079 712.602L340.068 712.525ZM340.717 714.212L428.646 688.013C428.961 688.773 429.48 689.432 430.146 689.916C430.812 690.401 431.599 690.693 432.421 690.76C432.952 690.791 433.483 690.718 433.986 690.546L452.306 735.027L340.842 714.743C340.814 714.589 340.776 714.437 340.728 714.289L340.717 714.212ZM487.878 824.606L343.082 716.211L452.724 736.171L488.872 823.844C488.503 824.116 488.178 824.442 487.906 824.811L487.878 824.606ZM489.963 823.408L454.014 736.621L498.391 744.701C498.337 745.722 498.627 746.733 499.216 747.57C499.804 748.408 500.657 749.024 501.637 749.321L491.043 823.469C490.688 823.479 490.336 823.527 489.991 823.613L489.963 823.408ZM494.363 824.607C493.814 824.024 493.114 823.605 492.341 823.396L502.935 749.248C504.098 749.284 505.23 748.872 506.098 748.097C506.965 747.322 507.501 746.245 507.595 745.087C507.593 744.983 507.579 744.879 507.553 744.779L615.065 732.348C615.169 732.746 615.326 733.129 615.535 733.484L494.363 824.607ZM614.888 730.858C614.905 730.986 614.919 731.088 614.933 731.191L507.421 743.622C507.244 742.92 506.904 742.269 506.429 741.722L556.727 684.698L615.605 729.22C615.251 729.777 615.025 730.405 614.941 731.059L614.888 730.858ZM616.18 728.071L557.364 683.619L597.902 637.432C598.484 637.785 599.139 638 599.818 638.057C600.137 638.039 600.455 637.996 600.767 637.928L617.986 726.936C617.3 727.24 616.699 727.707 616.237 728.298L616.18 728.071ZM619.812 726.713C619.586 726.718 619.363 726.748 619.144 726.804L601.926 637.795L602.183 637.76L645.577 713.792L622.859 728.541C622.103 727.647 621.033 727.074 619.869 726.94L619.812 726.713ZM667.958 783.195C667.535 783.023 667.088 782.917 666.633 782.881C665.64 782.792 664.644 783.029 663.797 783.556L622.739 734.352L622.897 734.174L673.253 766.47C673.038 766.95 672.905 767.462 672.859 767.985C672.79 768.75 672.917 769.519 673.228 770.221C673.539 770.923 674.023 771.534 674.636 771.997L667.958 783.195ZM668.98 783.787L675.568 772.314C676.002 772.477 676.456 772.582 676.918 772.625C678.085 772.727 679.246 772.372 680.156 771.634L690.087 781.161L670.455 785.778C670.144 785.076 669.656 784.468 669.037 784.014L668.98 783.787ZM723.409 813.75L670.607 788.994C670.703 788.669 670.771 788.336 670.811 788C670.772 787.718 670.734 787.436 670.699 787.18L690.958 782.373L723.48 813.505L723.409 813.75ZM727.62 811.66C726.455 811.571 725.298 811.925 724.383 812.651L692.517 782.108L797.784 757.271C797.88 757.536 798.002 757.79 798.149 758.03L730.455 812.891C729.706 812.188 728.746 811.751 727.723 811.646L727.62 811.66ZM835.29 796.936C835.289 797.118 835.314 797.299 835.363 797.474L731.667 814.866C731.666 814.753 731.65 814.641 731.621 814.533L814.13 769.732L836.533 794.365C835.887 795.073 835.487 795.969 835.392 796.922L835.29 796.936ZM841.512 793.109C841.095 792.948 840.658 792.841 840.213 792.791C839.15 792.704 838.089 792.987 837.212 793.593L814.998 769.196L870.107 739.315C870.376 739.777 870.724 740.189 871.136 740.531L841.512 793.109ZM869.376 736.648L869.439 737.109L806.194 753.954C805.959 753.354 805.59 752.815 805.116 752.379L841.216 702.805L870.723 733.879C869.997 734.623 869.557 735.598 869.478 736.634L869.376 736.648ZM873.108 732.587C872.565 732.69 872.044 732.885 871.566 733.163L841.845 701.857L866.697 667.734C867.195 667.967 867.727 668.115 868.274 668.171L868.864 668.091L873.108 732.587ZM877.792 734.714C877.423 734.108 876.914 733.598 876.309 733.227C875.704 732.856 875.018 732.634 874.31 732.579L870.084 668.028C870.498 667.884 870.893 667.69 871.26 667.45L913.039 714.466C912.297 715.121 911.789 716 911.591 716.969C911.394 717.938 911.517 718.944 911.944 719.837L877.792 734.714ZM878.53 736.858L878.427 737.446C878.454 736.882 878.377 736.317 878.199 735.78L912.686 720.675C913.416 721.522 914.434 722.07 915.545 722.212C916.655 722.354 917.779 722.081 918.7 721.445L919.057 721.187L926.847 729.78L941.712 746.516C941.569 746.715 941.44 746.925 941.327 747.143C941.193 747.328 941.08 747.527 940.99 747.737L878.53 736.858ZM1025.76 735.31L949.586 748.076C949.444 747.624 949.235 747.195 948.968 746.803C948.645 746.332 948.235 745.927 947.759 745.611L958.197 724.814L1025.77 735.047C1025.77 735.047 1025.87 735.216 1025.86 735.296L1025.76 735.31ZM1025.93 733.903L958.753 723.72L977.568 686.168C978.248 686.41 978.975 686.484 979.69 686.387C980.404 686.289 981.085 686.022 981.675 685.607L1026.47 732.706C1026.27 733.078 1026.12 733.476 1026.03 733.889L1025.93 733.903ZM1029.22 730.842C1028.69 730.97 1028.19 731.198 1027.75 731.514L1027.25 731.895L982.662 684.793C983.016 684.377 983.287 683.897 983.462 683.379L1026.56 688.448L1029.22 730.842ZM1094.33 707.555L1034.45 733.286C1034.34 733.066 1034.22 732.855 1034.07 732.659C1033.66 732.06 1033.11 731.571 1032.47 731.231C1031.83 730.892 1031.11 730.713 1030.38 730.71L1027.65 688.717L1112.56 698.563C1112.59 698.885 1112.68 699.199 1112.81 699.494L1094.33 707.555ZM1112.44 697.535L1027.73 687.401L1023.69 625.774C1024.31 625.659 1024.9 625.419 1025.43 625.067L1025.94 624.631L1112.9 696.089C1112.71 696.51 1112.58 696.959 1112.53 697.418L1112.44 697.535ZM1115.85 693.597C1115.32 693.724 1114.82 693.943 1114.37 694.243C1113.99 694.506 1113.66 694.825 1113.38 695.188L1026.54 623.844C1026.88 623.301 1027.1 622.693 1027.19 622.059L1113.46 622.739L1115.85 693.597ZM1118.07 693.58C1117.72 693.493 1117.37 693.445 1117.01 693.439L1114.55 622.903L1143.35 623.193C1143.44 623.901 1143.72 624.573 1144.14 625.147C1144.53 625.731 1145.05 626.214 1145.67 626.557L1118.07 693.58ZM1145.37 618.819C1144.84 619.185 1144.4 619.659 1144.07 620.208C1143.74 620.757 1143.53 621.369 1143.45 622.005L1114.52 621.732L1111.62 536.09L1112.03 536.034L1123.78 564.552L1145.87 618.489L1145.37 618.819ZM1148.95 617.885C1148.28 617.751 1147.58 617.774 1146.92 617.954L1124.69 563.775L1113.12 535.547L1113.48 535.34C1114.08 534.928 1114.57 534.377 1114.91 533.735L1168.97 553.96L1148.95 617.885ZM1170.09 554.303L1252.48 585.141C1252.38 585.719 1252.39 586.312 1252.51 586.886L1152.23 620.439C1152.12 620.199 1151.98 619.973 1151.82 619.763C1151.39 619.105 1150.77 618.583 1150.05 618.257L1170.09 554.303ZM1179.02 655.539L1151.54 625.362C1151.97 624.854 1152.29 624.258 1152.46 623.616C1152.63 622.974 1152.67 622.303 1152.55 621.648L1252.9 588.007C1252.98 588.196 1253.09 588.375 1253.21 588.539L1179.02 655.539ZM1252.92 584.116L1170.5 553.281L1178.57 527.431C1179.76 527.631 1180.98 527.361 1181.97 526.678C1182.16 526.547 1182.33 526.401 1182.49 526.242L1253.12 583.853C1253.01 583.919 1252.92 584.002 1252.84 584.1L1252.92 584.116ZM1254.44 582.263C1254.17 582.452 1253.92 582.67 1253.7 582.913L1183.23 525.358C1183.62 524.746 1183.85 524.052 1183.92 523.332L1257.92 519.896L1256.33 581.509C1255.63 581.607 1254.96 581.859 1254.36 582.247L1254.44 582.263ZM1258.47 581.711C1258.16 581.607 1257.83 581.538 1257.5 581.505L1259.09 519.891L1287.88 518.565C1287.99 519.204 1288.25 519.811 1288.62 520.343C1288.93 520.792 1289.32 521.181 1289.77 521.491L1258.47 581.711ZM1320.57 591.806C1319.7 592.419 1319.06 593.306 1318.77 594.323L1261.64 586.159C1261.65 585.212 1261.37 584.285 1260.84 583.503C1260.5 583.019 1260.07 582.607 1259.57 582.292L1290.85 522.101C1291.69 522.404 1292.61 522.451 1293.48 522.237L1320.93 591.574L1320.57 591.806ZM1322.04 591.134L1294.6 521.797L1295.01 521.558C1295.31 521.321 1295.59 521.065 1295.85 520.791L1346.49 554.222L1324.8 591.227C1323.89 590.852 1322.88 590.78 1321.92 591.02L1322.04 591.134ZM1421.49 604.996L1327.73 595.421C1327.7 594.528 1327.42 593.661 1326.91 592.922C1326.64 592.543 1326.32 592.209 1325.94 591.932L1347.47 554.871L1421.83 604.01C1421.65 604.288 1421.5 604.579 1421.37 604.882L1421.49 604.996ZM1423.35 602.315C1423.02 602.521 1422.73 602.772 1422.48 603.06L1348.06 553.902L1382.34 494.606C1383.18 494.954 1384.1 495.046 1384.99 494.87L1423.65 601.83C1423.49 601.933 1423.35 602.058 1423.22 602.201L1423.35 602.315ZM1425.61 601.508L1424.95 601.6L1386.32 494.636C1386.5 494.554 1386.67 494.452 1386.82 494.332L1387.37 493.892L1430.11 528.273L1425.61 601.508ZM1426.98 598.477L1431.22 529.087L1437.24 533.954C1436.78 534.708 1436.55 535.578 1436.58 536.46C1436.61 537.341 1436.89 538.195 1437.4 538.919C1437.93 539.698 1438.7 540.288 1439.59 540.603L1426.98 598.477ZM1440.2 531.853C1439.6 531.982 1439.04 532.228 1438.54 532.575C1438.34 532.709 1438.15 532.866 1437.98 533.044L1431.3 527.64L1435.07 465.702L1440.2 531.853ZM1444.71 533.533C1444.31 533.015 1443.81 532.59 1443.23 532.286C1442.65 531.982 1442.01 531.807 1441.36 531.772L1435.93 461.669C1436.53 461.561 1437.09 461.323 1437.59 460.973C1438.17 460.576 1438.64 460.05 1438.98 459.438C1439.32 458.825 1439.51 458.142 1439.54 457.443L1572.68 455.994C1572.74 456.573 1572.9 457.136 1573.17 457.65L1444.71 533.533ZM1572.73 454.812L1439.46 456.279C1439.44 456.081 1439.42 455.885 1439.38 455.69L1511.01 426.577L1536.96 416.006C1537.03 416.132 1537.11 416.252 1537.2 416.366C1537.88 417.35 1538.92 418.026 1540.09 418.247C1541.27 418.467 1542.49 418.214 1543.48 417.543L1574.14 452.271C1573.38 452.899 1572.85 453.749 1572.61 454.698L1572.73 454.812ZM1574.91 451.591L1544.18 416.794C1544.95 415.914 1545.36 414.776 1545.32 413.611L1578.23 408.039L1577 451.018C1576.27 451.002 1575.55 451.154 1574.89 451.463L1574.91 451.591ZM1586.93 517.947L1578.38 459.966C1578.86 459.819 1579.31 459.598 1579.73 459.312C1580.22 458.97 1580.64 458.536 1580.97 458.032C1581.29 457.528 1581.51 456.966 1581.62 456.377C1581.72 455.787 1581.71 455.183 1581.59 454.598C1581.46 454.013 1581.22 453.459 1580.87 452.968C1580.55 452.515 1580.15 452.119 1579.69 451.798L1599.62 407.464L1586.85 517.881L1586.93 517.947ZM1589.04 518.416C1588.74 518.275 1588.42 518.161 1588.1 518.074L1600.87 407.658C1601.77 407.656 1602.65 407.382 1603.38 406.871L1603.78 406.555L1641.64 440.011L1589.04 518.416ZM1717.86 510.563L1591.45 521.532C1591.33 520.948 1591.1 520.394 1590.76 519.904C1590.54 519.601 1590.29 519.321 1590.02 519.066L1642.55 440.748L1718.66 508C1718.15 508.714 1717.87 509.561 1717.84 510.435L1717.86 510.563ZM1719.81 506.876L1719.43 507.163L1643.21 439.823L1664.94 407.511C1666.07 408.046 1667.37 408.112 1668.55 407.696L1719.94 506.833L1719.81 506.876ZM1720.94 506.305L1669.5 407.044C1669.85 406.804 1670.17 406.515 1670.43 406.186L1750.43 455.833L1724.18 506.279C1723.14 505.843 1721.98 505.807 1720.92 506.177L1720.94 506.305ZM1740.08 565.762L1724.39 514.551C1724.6 514.448 1724.81 514.324 1724.99 514.181C1725.68 513.711 1726.23 513.058 1726.57 512.296L1783.66 528.269L1743.94 566.695C1743.41 566.266 1742.78 565.96 1742.11 565.799C1741.44 565.638 1740.75 565.625 1740.08 565.762ZM1897.88 560.497L1745.59 569.602C1745.52 568.884 1745.26 568.198 1744.83 567.619L1785.05 528.705L1897.95 560.253C1897.91 560.339 1897.89 560.43 1897.88 560.523L1897.88 560.497ZM1899.82 557.074C1899.11 557.56 1898.55 558.244 1898.23 559.04L1785.98 527.69L1856.05 459.949C1856.61 460.398 1857.26 460.708 1857.97 460.852C1858.67 460.997 1859.39 460.972 1860.08 460.781L1900.14 556.926L1899.82 557.074Z" fill="#C4C4C4"/>
<circle cx="1587" cy="203" r="7" fill="#26C296"/>
<circle cx="1407" cy="358" r="7" fill="#26C296"/>
<g filter="url(#filter0_d)">
<circle cx="1694.5" cy="272.5" r="16.5" fill="#4884FA"/>
</g>
<defs>
<filter id="filter0_d" x="1658" y="236" width="73" height="73" filterUnits="userSpaceOnUse" color-interpolation-filters="sRGB">
<feFlood flood-opacity="0" result="BackgroundImageFix"/>
<feColorMatrix in="SourceAlpha" type="matrix" values="0 0 0 0 0 0 0 0 0 0 0 0 0 0 0 0 0 0 127 0"/>
<feOffset/>
<feGaussianBlur stdDeviation="10"/>
<feColorMatrix type="matrix" values="0 0 0 0 0.282353 0 0 0 0 0.517647 0 0 0 0 0.980392 0 0 0 0.5 0"/>
<feBlend mode="normal" in2="BackgroundImageFix" result="effect1_dropShadow"/>
<feBlend mode="normal" in="SourceGraphic" in2="effect1_dropShadow" result="shape"/>
</filter>
</defs>
</svg>
