<svg width="546" height="818" viewBox="0 0 546 818" fill="none" xmlns="http://www.w3.org/2000/svg">
<mask id="mask0" mask-type="alpha" maskUnits="userSpaceOnUse" x="0" y="-843" width="546" height="1661">
<path opacity="0.2" d="M462.559 817.599C461.87 817.23 461.307 816.645 460.95 815.925C460.592 815.205 460.457 814.385 460.563 813.58L378.003 790.582C377.979 790.693 377.935 790.799 377.875 790.894C377.425 791.819 376.646 792.519 375.707 792.841C374.768 793.163 373.746 793.081 372.864 792.614C372.267 792.31 371.757 791.847 371.384 791.271C371.012 790.695 370.79 790.026 370.74 789.331L279.155 782.476C279.094 782.825 278.987 783.164 278.837 783.481C278.381 784.395 277.601 785.084 276.666 785.398C275.73 785.712 274.715 785.627 273.84 785.16C272.964 784.694 272.298 783.884 271.985 782.906C271.673 781.927 271.739 780.859 272.169 779.931C272.406 779.414 272.755 778.963 273.188 778.614L239.744 719.622C239.036 719.948 238.25 720.036 237.493 719.873C236.737 719.709 236.047 719.304 235.518 718.711C234.99 718.119 234.649 717.369 234.542 716.564C234.436 715.76 234.569 714.94 234.924 714.219C235.115 713.829 235.366 713.474 235.667 713.169L209.017 675.3C208.48 675.609 207.878 675.771 207.266 675.771C206.653 675.771 206.051 675.609 205.514 675.3C204.7 674.869 204.065 674.138 203.73 673.246L142.723 689.412C142.8 690.179 142.667 690.954 142.341 691.645C141.929 692.492 141.238 693.153 140.398 693.505C139.558 693.858 138.624 693.878 137.771 693.561C136.918 693.245 136.202 692.614 135.758 691.785C135.314 690.956 135.17 689.986 135.355 689.055L90.7619 672.8C90.5446 673.268 90.241 673.686 89.8687 674.03C89.4963 674.373 89.0628 674.636 88.5931 674.802C88.1235 674.967 87.6271 675.033 87.133 674.996C86.6389 674.958 86.1568 674.818 85.7148 674.582C85.2728 674.347 84.8797 674.021 84.5584 673.625C84.2371 673.228 83.994 672.769 83.8432 672.272C83.6924 671.776 83.6369 671.253 83.68 670.735C83.7231 670.215 83.8639 669.711 84.0942 669.249C84.3306 668.755 84.6652 668.319 85.0756 667.973C85.4859 667.626 85.9623 667.376 86.4725 667.24L78.9979 606.15C78.4337 606.148 77.8771 606.012 77.37 605.752C76.8628 605.492 76.4182 605.115 76.0695 604.648C75.7208 604.182 75.4771 603.639 75.3566 603.059C75.2361 602.479 75.242 601.879 75.3738 601.302C75.5056 600.725 75.7599 600.187 76.1176 599.728C76.4753 599.269 76.9272 598.902 77.4394 598.653C77.9515 598.404 78.5106 598.28 79.0747 598.291C79.6389 598.301 80.1934 598.446 80.6967 598.714L80.8878 598.848L154.041 500.38L153.807 500.068L154.381 499.911L155.57 498.326L155.294 499.666L222.99 481.401C222.891 480.635 223.017 479.856 223.351 479.168C223.692 478.459 224.23 477.877 224.894 477.498C225.558 477.119 226.316 476.962 227.067 477.047L239.68 420.221L239.298 420.043C238.443 419.601 237.78 418.832 237.446 417.894C237.111 416.956 237.131 415.918 237.499 414.994C237.868 414.07 238.559 413.329 239.43 412.923C240.301 412.517 241.287 412.476 242.186 412.808L229.445 254.835C228.912 254.813 228.39 254.668 227.916 254.411C227.032 253.937 226.363 253.114 226.057 252.121C225.75 251.129 225.831 250.049 226.281 249.119C226.732 248.19 227.515 247.486 228.459 247.164C229.403 246.841 230.43 246.926 231.314 247.4C231.985 247.768 232.539 248.334 232.906 249.03L349.336 201.939C349.131 201.065 349.22 200.142 349.587 199.329C349.955 198.515 350.579 197.86 351.353 197.474L334.811 144.734C333.996 144.894 333.153 144.768 332.412 144.377C331.974 144.143 331.584 143.82 331.264 143.427C330.945 143.034 330.702 142.579 330.55 142.088C330.398 141.596 330.34 141.078 330.379 140.563C330.418 140.047 330.553 139.545 330.777 139.085C331.071 138.426 331.536 137.867 332.118 137.472C332.7 137.078 333.376 136.863 334.068 136.852L339.78 86.6806C339.508 86.6174 339.244 86.5199 338.995 86.3903C338.557 86.1557 338.167 85.8327 337.848 85.4398C337.529 85.047 337.287 84.5918 337.135 84.1005C336.983 83.6091 336.925 83.091 336.963 82.5759C337.002 82.0609 337.136 81.5588 337.36 81.0985C337.583 80.6381 337.89 80.2285 338.263 79.8929C338.637 79.5573 339.07 79.3024 339.537 79.1428C340.005 78.9832 340.497 78.9219 340.987 78.9624C341.477 79.003 341.954 79.1445 342.392 79.3791C342.534 79.4476 342.669 79.5299 342.796 79.6248L400.129 11.4563C399.74 10.9881 399.463 10.4296 399.319 9.82668C399.175 9.22377 399.17 8.59358 399.303 7.98793C399.436 7.38234 399.703 6.81844 400.084 6.34273C400.464 5.86696 400.946 5.49294 401.491 5.25124C402.036 5.00954 402.627 4.90706 403.217 4.95235C403.806 4.99764 404.377 5.18929 404.882 5.51161C405.388 5.83394 405.813 6.27773 406.124 6.80654C406.435 7.33534 406.621 7.93416 406.669 8.55367L456.252 11.0097C456.308 10.5653 456.437 10.1346 456.634 9.73708C457.046 8.8854 457.739 8.22066 458.583 7.86721C459.427 7.51381 460.365 7.49587 461.221 7.81679L472.582 -21.8129C472.51 -22.4002 472.567 -22.9967 472.747 -23.5577C472.928 -24.1185 473.227 -24.629 473.622 -25.0505L434.784 -77.1649C434.455 -76.9573 434.097 -76.8065 433.722 -76.7183C432.76 -76.4971 431.753 -76.6821 430.919 -77.2333C430.086 -77.7845 429.491 -78.6579 429.263 -79.6656C429.101 -80.403 429.147 -81.1741 429.396 -81.8841C429.645 -82.594 430.086 -83.2121 430.664 -83.6625L426.29 -93.8665L401.998 -150.603C401.52 -150.496 401.026 -150.489 400.545 -150.582C400.064 -150.676 399.606 -150.868 399.196 -151.148C398.785 -151.428 398.432 -151.79 398.155 -152.214C397.878 -152.637 397.683 -153.114 397.581 -153.617C397.479 -154.12 397.473 -154.639 397.562 -155.145C397.651 -155.65 397.833 -156.132 398.1 -156.564C398.366 -156.995 398.71 -157.367 399.113 -157.658C399.516 -157.949 399.969 -158.154 400.448 -158.261C401.007 -158.395 401.587 -158.395 402.146 -158.261L422.468 -216.851C421.999 -217.112 421.588 -217.476 421.266 -217.919C420.943 -218.363 420.716 -218.874 420.599 -219.419L386.496 -216.114L378.64 -302.525C378.014 -302.542 377.402 -302.726 376.862 -303.06C376.322 -303.393 375.872 -303.866 375.553 -304.433C375.235 -305 375.059 -305.643 375.042 -306.301C375.024 -306.96 375.166 -307.612 375.454 -308.196L336.489 -336.174C336.035 -335.646 335.452 -335.259 334.803 -335.054C334.155 -334.849 333.466 -334.834 332.81 -335.011C332.154 -335.188 331.557 -335.55 331.083 -336.058C330.608 -336.566 330.275 -337.2 330.119 -337.893C329.909 -338.841 330.045 -339.837 330.501 -340.684L268.729 -388.913C268.217 -388.371 267.569 -387.992 266.861 -387.819C265.898 -387.591 264.888 -387.775 264.054 -388.33C263.219 -388.884 262.629 -389.765 262.412 -390.778C262.195 -391.79 262.37 -392.852 262.897 -393.729C263.425 -394.607 264.263 -395.227 265.226 -395.455C265.98 -395.632 266.767 -395.554 267.476 -395.232L293.064 -441.519C292.366 -442.063 291.883 -442.857 291.705 -443.752C291.512 -444.639 291.618 -445.57 292.006 -446.385C292.393 -447.199 293.037 -447.847 293.829 -448.217L258.282 -570.621L258.728 -570.755C258.132 -570.615 257.512 -570.631 256.923 -570.802C256.334 -570.973 255.794 -571.295 255.351 -571.738L218.191 -539.92C218.406 -539.546 218.564 -539.139 218.658 -538.714C218.765 -538.213 218.778 -537.694 218.695 -537.188C218.611 -536.681 218.434 -536.197 218.173 -535.763C217.911 -535.328 217.571 -534.952 217.172 -534.656C216.772 -534.36 216.321 -534.149 215.844 -534.036C215.368 -533.923 214.874 -533.91 214.393 -533.998C213.911 -534.086 213.451 -534.272 213.037 -534.547C212.624 -534.822 212.267 -535.179 211.985 -535.599C211.703 -536.019 211.503 -536.493 211.396 -536.995C211.269 -537.582 211.274 -538.193 211.411 -538.778C211.547 -539.363 211.811 -539.907 212.182 -540.366L142.107 -620.57C141.742 -620.304 141.331 -620.114 140.897 -620.012C140.19 -619.845 139.453 -619.898 138.775 -620.163C138.096 -620.429 137.505 -620.896 137.075 -621.508L99.3195 -598.085C99.3717 -597.932 99.4143 -597.775 99.4469 -597.616C99.5557 -597.115 99.5694 -596.596 99.4874 -596.089C99.4054 -595.582 99.2292 -595.097 98.969 -594.661C98.7087 -594.226 98.3694 -593.849 97.9705 -593.551C97.5715 -593.254 97.1208 -593.042 96.6439 -592.927C96.1671 -592.813 95.6735 -592.799 95.1913 -592.885C94.7092 -592.971 94.2479 -593.156 93.8338 -593.43C93.4197 -593.704 93.0609 -594.06 92.778 -594.48C92.495 -594.899 92.2934 -595.373 92.1847 -595.875C92.0745 -596.411 92.0704 -596.965 92.1727 -597.503C92.275 -598.041 92.4815 -598.55 92.7792 -599.001L5.97211 -693.115C5.55877 -692.779 5.08034 -692.543 4.57062 -692.423C3.59914 -692.195 2.58132 -692.382 1.74106 -692.943C0.900802 -693.504 0.30694 -694.393 0.0901168 -695.415C-0.0172431 -695.92 -0.0288062 -696.443 0.0560877 -696.954C0.140982 -697.464 0.32067 -697.952 0.584894 -698.39C1.11852 -699.273 1.96408 -699.898 2.93556 -700.126C3.68219 -700.308 4.46443 -700.241 5.17269 -699.932C5.88095 -699.624 6.47974 -699.091 6.8852 -698.407L84.073 -736.074L84.073 -736.387C83.8816 -737.231 83.9628 -738.118 84.3037 -738.908C84.6447 -739.698 85.226 -740.346 85.9561 -740.751C86.6862 -741.155 87.5234 -741.292 88.3359 -741.141C89.1484 -740.99 89.8899 -740.558 90.4434 -739.915L164.765 -795.981C164.61 -796.301 164.489 -796.638 164.404 -796.986C164.187 -797.999 164.361 -799.061 164.889 -799.938C165.417 -800.815 166.254 -801.436 167.217 -801.664C168.18 -801.892 169.19 -801.708 170.024 -801.154C170.859 -800.599 171.449 -799.718 171.666 -798.705C171.794 -798.155 171.794 -797.581 171.666 -797.031L233.013 -774.256C233.361 -774.972 233.911 -775.558 234.587 -775.936C235.262 -776.313 236.032 -776.463 236.792 -776.366C237.551 -776.268 238.264 -775.928 238.834 -775.391C239.404 -774.854 239.803 -774.146 239.978 -773.363C240.041 -772.934 240.041 -772.497 239.978 -772.068L283.317 -760.904C283.541 -761.499 283.9 -762.028 284.363 -762.444C284.825 -762.861 285.378 -763.152 285.972 -763.293C286.857 -763.51 287.788 -763.375 288.584 -762.913L325.404 -816.233C325.015 -816.627 324.712 -817.104 324.516 -817.633C324.321 -818.163 324.237 -818.73 324.271 -819.297C324.305 -819.863 324.456 -820.415 324.713 -820.914C324.971 -821.413 325.329 -821.847 325.762 -822.186C326.195 -822.525 326.693 -822.76 327.222 -822.876C327.751 -822.991 328.297 -822.985 328.823 -822.856C329.348 -822.727 329.841 -822.479 330.267 -822.13C330.692 -821.781 331.04 -821.338 331.286 -820.833L375.178 -838.227C375.071 -838.728 375.059 -839.247 375.142 -839.753C375.225 -840.26 375.403 -840.744 375.664 -841.178C375.925 -841.613 376.265 -841.989 376.665 -842.285C377.064 -842.581 377.515 -842.792 377.992 -842.904C378.469 -843.017 378.962 -843.03 379.444 -842.943C379.925 -842.855 380.386 -842.669 380.799 -842.394C381.212 -842.119 381.57 -841.762 381.851 -841.342C382.133 -840.922 382.333 -840.447 382.441 -839.946C382.56 -839.41 382.569 -838.854 382.466 -838.315C382.364 -837.776 382.152 -837.266 381.846 -836.82L424.57 -795.066C425.065 -795.496 425.657 -795.784 426.289 -795.902C426.921 -796.02 427.571 -795.963 428.176 -795.739C428.781 -795.514 429.321 -795.128 429.742 -794.619C430.163 -794.11 430.452 -793.494 430.58 -792.833C430.795 -791.824 430.621 -790.765 430.096 -789.89C429.57 -789.016 428.736 -788.396 427.777 -788.166C427.699 -788.156 427.621 -788.156 427.543 -788.166L431.259 -663.798L431.62 -663.798L431.28 -663.284L431.28 -661.274L430.664 -662.503L389.894 -603.131C390.424 -602.591 390.793 -601.901 390.956 -601.144C391.125 -600.375 391.067 -599.57 390.79 -598.836C390.514 -598.102 390.03 -597.474 389.406 -597.036L414.165 -545.1C414.298 -545.145 414.432 -545.182 414.569 -545.212C415.479 -545.409 416.426 -545.24 417.223 -544.739C418.021 -544.238 418.611 -543.441 418.878 -542.505C419.144 -541.569 419.068 -540.562 418.663 -539.683C418.259 -538.804 417.555 -538.115 416.692 -537.754L522.398 -425.487C522.824 -425.814 523.308 -426.05 523.821 -426.179C524.784 -426.41 525.795 -426.229 526.631 -425.677C527.467 -425.124 528.06 -424.245 528.28 -423.232C528.5 -422.219 528.328 -421.156 527.802 -420.277C527.276 -419.398 526.44 -418.774 525.477 -418.543C524.767 -418.393 524.032 -418.455 523.354 -418.722L462.729 -304.646C463.435 -304.102 463.933 -303.31 464.13 -302.413C464.312 -301.575 464.23 -300.698 463.897 -299.912L508.489 -270.595C509.025 -271.291 509.777 -271.766 510.613 -271.935C511.09 -272.051 511.584 -272.066 512.066 -271.98C512.549 -271.895 513.01 -271.709 513.425 -271.436C513.839 -271.162 514.198 -270.804 514.481 -270.384C514.763 -269.964 514.964 -269.49 515.072 -268.988C515.216 -268.29 515.177 -267.565 514.96 -266.889C514.743 -266.213 514.356 -265.611 513.84 -265.147L539.853 -222.857C540.099 -222.977 540.355 -223.074 540.617 -223.148C541.58 -223.379 542.591 -223.198 543.427 -222.645C544.264 -222.092 544.857 -221.213 545.077 -220.2C545.296 -219.188 545.124 -218.125 544.599 -217.245C544.073 -216.366 543.237 -215.742 542.274 -215.511C542.125 -215.501 541.976 -215.501 541.828 -215.511L539.216 -124.925C540.074 -124.788 540.86 -124.339 541.437 -123.656C542.013 -122.973 542.344 -122.1 542.372 -121.187C542.4 -120.274 542.123 -119.38 541.589 -118.66C541.055 -117.94 540.298 -117.439 539.449 -117.244C538.833 -117.101 538.193 -117.124 537.588 -117.312C536.982 -117.499 536.432 -117.845 535.988 -118.316L496.534 -87.0563C496.753 -86.6741 496.917 -86.2604 497.023 -85.8283C497.196 -84.9111 497.054 -83.959 496.622 -83.1413C496.191 -82.3236 495.497 -81.6935 494.666 -81.3626L510.507 -29.4939L510.719 -29.4939C511.713 -29.636 512.72 -29.357 513.518 -28.7185C514.317 -28.0799 514.841 -27.134 514.977 -26.0888C515.112 -25.0436 514.846 -23.9848 514.239 -23.1452C513.632 -22.3056 512.732 -21.7541 511.738 -21.612L509.848 44.9265C510.231 45.0021 510.602 45.1297 510.953 45.3061C511.721 45.7117 512.333 46.3834 512.685 47.2079C513.037 48.0325 513.108 48.9594 512.886 49.8327C512.664 50.706 512.163 51.4721 511.466 52.0019C510.77 52.5317 509.921 52.7929 509.063 52.7414L506.217 63.5707L490.355 123.701C491.16 124.223 491.746 125.047 491.996 126.006C492.246 126.965 492.14 127.988 491.702 128.869C491.263 129.75 490.522 130.423 489.63 130.752C488.738 131.082 487.76 131.044 486.894 130.645C486.371 130.378 485.918 129.979 485.577 129.484L434.126 160.989C434.321 161.509 434.409 162.067 434.384 162.625C434.358 163.183 434.219 163.729 433.977 164.227L462.347 184.747L415.63 256.756C416.247 257.332 416.664 258.107 416.818 258.959C416.971 259.811 416.852 260.693 416.48 261.467C416.089 262.283 415.434 262.924 414.632 263.275L427.394 311.348C428.164 311.231 428.949 311.364 429.645 311.728C430.083 311.962 430.473 312.285 430.793 312.678C431.112 313.07 431.355 313.526 431.507 314.017C431.659 314.509 431.717 315.027 431.678 315.542C431.639 316.057 431.504 316.559 431.28 317.02C430.865 317.888 430.151 318.558 429.284 318.895L447.503 397.871C448.234 397.768 448.976 397.909 449.627 398.273C450.101 398.482 450.528 398.791 450.883 399.182C451.238 399.572 451.512 400.035 451.689 400.542C451.866 401.049 451.942 401.589 451.912 402.129C451.881 402.668 451.746 403.195 451.513 403.676C451.28 404.158 450.956 404.584 450.56 404.927C450.163 405.271 449.704 405.525 449.21 405.674C448.716 405.823 448.199 405.863 447.69 405.792C447.18 405.721 446.69 405.54 446.251 405.261C445.556 404.891 444.986 404.307 444.616 403.587L396.562 422.03C396.742 422.921 396.63 423.85 396.243 424.665C395.856 425.456 395.225 426.085 394.454 426.45C393.682 426.815 392.816 426.894 391.996 426.674L344.579 545.238L344.133 545.059C344.676 545.341 345.145 545.76 345.497 546.278C345.849 546.796 346.073 547.397 346.151 548.029L394.29 548.565C394.341 548.136 394.463 547.721 394.651 547.337C394.874 546.876 395.181 546.467 395.554 546.131C395.928 545.796 396.361 545.541 396.828 545.381C397.296 545.221 397.788 545.16 398.278 545.201C398.768 545.241 399.245 545.383 399.683 545.617C400.121 545.852 400.511 546.175 400.83 546.568C401.149 546.961 401.391 547.416 401.543 547.907C401.695 548.399 401.753 548.917 401.715 549.432C401.676 549.947 401.541 550.449 401.318 550.909C401.052 551.447 400.673 551.914 400.209 552.273C399.746 552.633 399.21 552.877 398.643 552.986L403.781 662.261C404.224 662.308 404.655 662.436 405.055 662.64C405.721 662.971 406.278 663.502 406.656 664.166C407.034 664.829 407.216 665.596 407.179 666.369L450.625 673.804C450.676 673.65 450.74 673.5 450.816 673.358C451.272 672.444 452.052 671.756 452.987 671.441C453.923 671.127 454.938 671.212 455.813 671.679C456.689 672.145 457.355 672.955 457.668 673.933C457.98 674.912 457.914 675.98 457.484 676.908C457.247 677.403 456.913 677.838 456.502 678.185C456.092 678.531 455.616 678.781 455.105 678.918L464.64 810.074C465.166 810.096 465.681 810.241 466.147 810.499C467.032 810.972 467.701 811.796 468.007 812.788C468.314 813.781 468.233 814.861 467.783 815.79C467.332 816.72 466.549 817.424 465.605 817.746C464.661 818.068 463.634 817.983 462.75 817.51L462.559 817.599ZM278.964 780.244C279.112 780.628 279.198 781.035 279.219 781.449L370.804 788.349C370.869 787.998 370.984 787.66 371.144 787.344C371.395 786.817 371.758 786.359 372.206 786.004L347.17 740.544L278.964 780.244ZM208.89 668.312C209.402 668.587 209.846 668.985 210.185 669.473L242.441 650.337L202.796 665.722L205.132 668.557C205.681 668.171 206.317 667.943 206.977 667.896C207.636 667.849 208.296 667.985 208.89 668.289L208.89 668.312ZM282.935 681.709L283.275 681.15L250.34 650.739C249.643 651.383 248.741 651.726 247.813 651.699L244.224 676.707L282.659 682.334C282.728 682.115 282.821 681.905 282.935 681.709ZM289.688 685.08L322.368 707.989L289.624 681.753C289.866 682.269 289.996 682.834 290.007 683.409C290.018 683.984 289.909 684.555 289.688 685.08ZM286.97 679.632L258.303 656.656L283.933 680.414C284.355 680.059 284.845 679.806 285.37 679.671C285.894 679.536 286.44 679.523 286.97 679.632ZM246.858 651.454C246.621 651.386 246.393 651.289 246.178 651.163C245.666 650.898 245.222 650.507 244.883 650.025L210.674 670.321C210.849 670.807 210.942 671.32 210.95 671.84L243.311 676.573L246.858 651.454ZM244.224 648.506C244.054 647.765 244.098 646.988 244.352 646.274L140.302 588.957L139.963 588.957L139.793 589.18L202.116 664.739L244.224 648.506ZM244.798 645.38C244.984 645.084 245.214 644.821 245.477 644.599L203.433 574.443L140.727 586.434C140.749 586.955 140.685 587.476 140.536 587.974L244.798 645.38ZM252.931 568.124C252.388 568.534 251.749 568.781 251.083 568.839L248.493 643.862C248.871 643.924 249.237 644.052 249.576 644.242C249.653 644.273 249.725 644.318 249.788 644.376L282.213 601.036L252.931 568.124ZM307.716 628.255C308.074 627.979 308.477 627.775 308.905 627.652L302.344 578.954C301.737 578.96 301.138 578.807 300.602 578.507C300.532 578.519 300.46 578.519 300.39 578.507L283.402 601.103L307.716 628.255ZM225.496 484.683L193.644 550.485C194.247 550.92 194.712 551.534 194.981 552.249L242.95 538.852L227.343 484.75C226.726 484.868 226.091 484.822 225.496 484.616L225.496 484.683ZM195.257 553.231C195.29 553.461 195.29 553.694 195.257 553.924L247.155 563.748L247.388 563.167C247.808 562.297 248.519 561.621 249.385 561.27L243.226 539.924L195.257 553.231ZM195.109 554.906L194.896 555.509C194.656 555.985 194.332 556.41 193.941 556.759L203.879 573.327L246.985 565.065L246.985 564.708L195.109 554.906ZM204.452 574.309L246.348 644.041C246.739 643.857 247.154 643.737 247.58 643.684L250.17 568.683C249.792 568.617 249.427 568.489 249.087 568.303C248.213 567.841 247.543 567.041 247.219 566.07L204.452 574.309ZM202.881 573.595L193.113 557.295C192.608 557.559 192.052 557.696 191.488 557.696C190.925 557.696 190.369 557.559 189.864 557.295C189.36 557.036 188.923 556.653 188.59 556.179L175.127 564.306L140.43 585.295L140.43 585.585L202.881 573.595ZM188.016 555.241C187.757 554.578 187.675 553.854 187.779 553.146C187.883 552.438 188.169 551.773 188.606 551.223C189.044 550.674 189.615 550.26 190.26 550.028C190.905 549.796 191.597 549.753 192.263 549.904L181.073 535.458L139.708 584.201L139.835 584.357L188.016 555.241ZM193.261 549.235L224.646 484.17L181.837 534.632L193.261 549.235ZM228.405 484.482L244.012 538.606L300.709 522.976C300.627 522.368 300.685 521.748 300.878 521.168L229.955 483.21C229.522 483.788 228.95 484.235 228.299 484.505L228.405 484.482ZM244.224 539.589L250.383 560.957C251.112 560.876 251.849 561.016 252.506 561.359C252.865 561.561 253.193 561.817 253.483 562.118L301.048 524.361L300.836 523.892L244.224 539.589ZM254.12 563.123C254.225 563.311 254.304 563.514 254.353 563.726L302.853 555.263L303.745 526.236C303.362 526.164 302.991 526.036 302.641 525.857C302.288 525.655 301.966 525.399 301.685 525.098L254.12 563.123ZM303.681 556.112L303.214 571.161C303.458 571.228 303.693 571.326 303.915 571.451C304.398 571.716 304.818 572.089 305.147 572.545L338.931 550.373L338.761 549.994L303.681 556.112ZM302.259 571.027L302.705 556.29L254.396 564.73C254.417 564.998 254.417 565.267 254.396 565.534L298.755 573.573L298.925 573.171C299.241 572.507 299.73 571.953 300.336 571.573C300.942 571.193 301.639 571.004 302.344 571.027L302.259 571.027ZM254.056 566.561L254.056 566.695C253.937 566.953 253.788 567.193 253.61 567.41L282.787 600.21L299.604 577.748C299.227 577.332 298.939 576.836 298.759 576.292C298.58 575.749 298.513 575.172 298.564 574.6L254.056 566.561ZM303.214 578.775L309.776 627.495C310.382 627.471 310.983 627.617 311.517 627.92C311.797 628.056 312.054 628.237 312.281 628.456L336.043 606.127L304.701 577.815C304.306 578.229 303.827 578.542 303.299 578.73L303.214 578.775ZM282.787 601.773L250.595 644.912C250.941 645.293 251.215 645.74 251.402 646.229L306.23 631.827C306.147 631.06 306.28 630.283 306.612 629.594C306.735 629.333 306.885 629.086 307.058 628.857L282.787 601.773ZM251.508 647.256C251.591 648.024 251.458 648.8 251.126 649.489L251.126 649.667L332.157 714.598C332.464 714.246 332.831 713.959 333.24 713.75L310.519 635.288C309.729 635.429 308.916 635.296 308.204 634.908C307.391 634.483 306.761 633.749 306.442 632.854L251.508 647.256ZM311.368 634.998L334.068 713.415C334.895 713.237 335.755 713.355 336.51 713.75C336.919 713.957 337.281 714.254 337.572 714.621L361.057 697.16L311.814 634.641C311.699 634.751 311.578 634.855 311.453 634.953L311.368 634.998ZM379.51 724.423C379.209 724.345 378.917 724.233 378.64 724.088C378.111 723.819 377.658 723.411 377.323 722.904L348.019 739.963L373.034 785.424C373.445 785.241 373.883 785.136 374.329 785.111L379.51 724.423ZM375.518 782.476L401.615 671.661L382.25 717.3C382.934 717.74 383.465 718.4 383.765 719.182C384.065 719.965 384.118 720.828 383.916 721.644C383.713 722.46 383.266 723.186 382.641 723.714C382.016 724.243 381.246 724.546 380.445 724.579L375.518 782.476ZM376.856 721.967C376.706 721.583 376.62 721.175 376.601 720.761L338.549 717.992C338.48 718.303 338.373 718.604 338.23 718.885C337.979 719.412 337.616 719.871 337.168 720.225L347.531 739.048L376.856 721.967ZM376.665 719.734C376.733 719.387 376.84 719.05 376.983 718.729C377.152 718.411 377.351 718.111 377.578 717.836L361.758 697.74L338.209 715.491C338.485 716.002 338.631 716.579 338.634 717.166L376.665 719.734ZM362.544 697.182L378.321 717.278C378.778 716.986 379.287 716.796 379.817 716.719C380.346 716.642 380.885 716.68 381.4 716.831L401.361 669.674C401.063 669.491 400.785 669.274 400.532 669.026L362.544 697.182ZM402.89 670.031L375.879 785.446C375.998 785.485 376.112 785.537 376.219 785.603L376.346 785.603L423.976 717.389L404.418 669.919C403.957 670.1 403.466 670.184 402.974 670.165L402.89 670.031ZM278.327 779.083L278.327 779.194L346.533 739.517L336.17 720.694C335.682 720.937 335.149 721.062 334.61 721.062C334.07 721.062 333.537 720.937 333.049 720.694C332.857 720.588 332.673 720.469 332.497 720.337L278.327 779.083ZM277.648 778.368L331.902 719.533C331.55 718.997 331.338 718.373 331.286 717.724L283.148 717.099L276.48 777.899C276.756 777.96 277.021 778.065 277.266 778.212C277.428 778.295 277.585 778.392 277.733 778.502L277.648 778.368ZM241.549 717.613C241.298 718.12 240.942 718.562 240.508 718.908L273.953 778.011C274.404 777.81 274.886 777.697 275.376 777.676L282.043 716.987L241.889 716.474C241.853 716.905 241.752 717.327 241.591 717.724L241.549 717.613ZM331.159 716.519C331.217 716.157 331.317 715.805 331.456 715.469L289.157 685.817C288.804 686.266 288.364 686.63 287.865 686.884C287.367 687.138 286.823 687.277 286.269 687.291L283.148 715.893L331.159 716.519ZM241.591 714.152C241.761 714.54 241.869 714.955 241.91 715.38L282.256 715.893L285.42 687.157C285.141 687.094 284.87 686.996 284.613 686.866C284.171 686.614 283.776 686.282 283.445 685.884L241.591 714.152ZM241.061 713.303L282.85 685.036C282.595 684.464 282.471 683.836 282.489 683.205L244.224 677.712L239.362 712.187C239.588 712.257 239.808 712.346 240.02 712.455C240.443 712.698 240.812 713.033 241.103 713.437L241.061 713.303ZM210.546 673.581C210.346 673.965 210.096 674.318 209.803 674.631L236.431 712.589C237.011 712.259 237.662 712.09 238.321 712.098L243.184 677.533L210.822 672.844L210.546 673.581ZM203.496 672.264C203.407 671.496 203.54 670.718 203.879 670.031C204.023 669.734 204.202 669.457 204.41 669.205L201.755 666.056L147.586 687.068L203.496 672.264ZM201.161 665.253L139.071 589.984C138.613 590.291 138.099 590.496 137.563 590.587L139.41 685.973C140.021 686.04 140.606 686.265 141.113 686.627C141.621 686.989 142.035 687.478 142.32 688.05L201.161 665.253ZM135.461 590.274L105.902 640.647L137.244 686.465C137.619 686.244 138.03 686.1 138.455 686.04L136.586 590.654C136.194 590.594 135.813 590.465 135.461 590.274ZM91.1441 671.862L135.737 688.117C135.932 687.711 136.199 687.347 136.522 687.045L105.371 641.562L89.8488 668.021C90.3779 668.476 90.7785 669.074 91.0068 669.751C91.2352 670.428 91.2827 671.158 91.1441 671.862ZM80.0172 606.083L87.4918 667.173C88.0177 667.174 88.538 667.288 89.0206 667.508L104.756 640.714L80.8241 605.725C80.5649 605.868 80.295 605.987 80.0172 606.083ZM82.3955 604.073C82.2 604.479 81.9334 604.843 81.6098 605.145L105.308 639.776L134.293 590.453L82.8414 601.952C82.8835 602.682 82.729 603.409 82.3955 604.051L82.3955 604.073ZM81.7159 599.607C82.1027 600.019 82.3997 600.514 82.5866 601.059L134.229 589.336C133.707 588.745 133.371 587.999 133.269 587.199C133.166 586.4 133.301 585.586 133.656 584.871C133.999 584.179 134.529 583.609 135.178 583.232C135.828 582.855 136.569 582.687 137.308 582.749L153.744 502.367L81.7159 599.607ZM138.242 583.107L138.688 583.308L139.092 583.576L180.521 534.632L154.912 501.496L138.242 583.107ZM155.506 500.782L181.221 533.94L223.924 483.5C223.653 483.169 223.437 482.791 223.287 482.383L155.506 500.782ZM230.273 479.704C230.56 480.557 230.56 481.486 230.273 482.339L301.218 520.297C301.412 519.994 301.648 519.723 301.919 519.493L266.542 460.234L230.273 479.704ZM304.743 518.622L316.528 470.282L319.968 456.103L326.19 430.559C325.554 430.227 325.022 429.707 324.661 429.063L267.328 459.809L302.683 518.98C303.31 518.61 304.027 518.447 304.743 518.511L304.743 518.622ZM240.678 420.534L228.065 477.36C228.196 477.41 228.324 477.469 228.447 477.538C229.006 477.837 229.486 478.274 229.849 478.811L265.948 459.385L242.589 420.199C241.982 420.448 241.323 420.524 240.678 420.422L240.678 420.534ZM244.394 418.301C244.154 418.778 243.83 419.202 243.439 419.552L266.797 458.805L324.13 427.992C324.028 427.63 323.977 427.253 323.982 426.875L309.457 425.156L244.543 417.453C244.515 417.739 244.465 418.023 244.394 418.301ZM244.798 416.448L309.054 424.062L324.258 425.87C324.328 425.623 324.42 425.384 324.534 425.156C324.841 424.5 325.32 423.95 325.914 423.571L314.299 391.284L244.67 415.845C244.729 416.042 244.771 416.244 244.798 416.448ZM296.547 280.245C296.568 280.438 296.568 280.633 296.547 280.825L332.815 290.226L357.83 296.723L358 296.366C358.244 295.848 358.597 295.395 359.03 295.039C359.464 294.684 359.968 294.435 360.505 294.312L358.382 269.751L296.547 280.245ZM358.276 268.634L352.818 204.976C352.279 204.951 351.751 204.807 351.268 204.552L351.035 204.396L295.506 277.655C295.926 278.104 296.233 278.657 296.398 279.263L358.276 268.634ZM332.072 291.074L296.292 281.808L296.143 282.165C295.909 282.659 295.576 283.093 295.166 283.438L325.362 335.039L358.339 300.541C357.752 299.733 357.485 298.717 357.596 297.706L332.072 291.074ZM303.193 354.956C303.77 354.955 304.338 355.101 304.849 355.38C305.088 355.494 305.31 355.645 305.508 355.826L324.619 335.731L294.359 283.885C294.182 283.971 293.997 284.039 293.807 284.085L303.193 354.956ZM291.896 284.175L277.988 321.084L301.346 355.424C301.616 355.274 301.9 355.154 302.195 355.067L292.809 284.309C292.498 284.283 292.191 284.215 291.896 284.108L291.896 284.175ZM306.166 356.541C306.494 357.01 306.719 357.55 306.825 358.121C306.932 358.692 306.917 359.281 306.782 359.845L347.127 376.502C347.441 376.278 347.784 376.105 348.147 375.989L325.15 336.669L306.166 356.541ZM325.872 335.91L349.23 375.788C349.463 375.766 349.697 375.766 349.93 375.788L360.314 301.836C360.08 301.771 359.852 301.681 359.635 301.568C359.421 301.461 359.222 301.326 359.04 301.167L325.872 335.91ZM361.248 302.06L354.347 351.182L350.844 376.101L350.971 376.101C351.315 376.287 351.63 376.528 351.905 376.815L396.201 340.576L363.393 301.278C362.763 301.74 362.017 301.997 361.248 302.015L361.248 302.06ZM306.421 360.761C306.08 361.41 305.572 361.944 304.956 362.302L314.915 390.056L345.556 379.293C345.611 378.82 345.74 378.36 345.938 377.932C346.067 377.693 346.209 377.461 346.363 377.239L306.421 360.761ZM315.254 391.016L326.806 423.213C327.439 423.034 328.105 423.034 328.738 423.213L347.297 383.022C346.846 382.727 346.461 382.333 346.167 381.866C345.874 381.4 345.68 380.873 345.599 380.321L315.254 391.016ZM348.274 383.424L329.736 423.481C330.571 423.959 331.195 424.76 331.478 425.714L383.97 414.729L351.65 382.799C351.175 383.177 350.621 383.431 350.034 383.54C349.447 383.649 348.844 383.609 348.274 383.424ZM244.224 414.327L244.479 414.796L314.065 390.234L304.064 362.704C303.188 362.942 302.26 362.839 301.452 362.413C301.202 362.268 300.967 362.096 300.751 361.9L244.224 414.327ZM243.226 413.277C243.356 413.361 243.476 413.459 243.587 413.568L300.156 361.074C299.77 360.488 299.54 359.804 299.492 359.093C299.443 358.382 299.578 357.67 299.88 357.032C300.087 356.627 300.352 356.258 300.666 355.938L277.563 322.133L243.226 413.277ZM230.486 254.746L243.226 410.844L277.053 321.173L231.505 254.366C231.143 254.548 230.756 254.668 230.358 254.724L230.486 254.746ZM232.248 253.764L277.435 320.056L290.941 283.751C290.216 283.319 289.648 282.646 289.329 281.836C289.01 281.027 288.957 280.129 289.178 279.285L232.694 253.004C232.536 253.276 232.343 253.524 232.121 253.741L232.248 253.764ZM233.331 249.968C233.501 250.641 233.501 251.349 233.331 252.022L289.794 278.302C290.282 277.455 291.056 276.832 291.961 276.559C292.867 276.285 293.837 276.382 294.678 276.829L294.912 276.963L350.398 203.703C350.158 203.45 349.951 203.165 349.782 202.855L233.331 249.968ZM354.645 197.474C355.233 197.794 355.731 198.272 356.088 198.858L376.176 188.967L353.731 145.203C353.466 145.314 353.187 145.389 352.903 145.426L353.392 197.072C353.828 197.13 354.252 197.266 354.645 197.474ZM337.423 142.613C337.043 143.373 336.44 143.983 335.703 144.355L352.245 197.116C352.245 197.116 352.372 197.116 352.436 197.116L351.948 145.449C351.513 145.398 351.089 145.27 350.695 145.069C350.113 144.781 349.612 144.34 349.24 143.788C348.868 143.237 348.638 142.593 348.571 141.921L337.657 141.497C337.641 141.878 337.569 142.254 337.444 142.613L337.423 142.613ZM337.041 138.438C337.481 139.021 337.747 139.728 337.805 140.469L348.699 140.894C348.764 140.497 348.886 140.113 349.06 139.755C349.506 138.851 350.267 138.163 351.183 137.835L348.869 126.135L337.041 138.438ZM354.029 138.036C354.097 138.064 354.161 138.102 354.22 138.147L410.704 61.6505L349.676 125.286L352.118 137.634C352.806 137.567 353.498 137.706 354.114 138.036L354.029 138.036ZM393.249 86.8591L355.027 138.773C355.517 139.286 355.856 139.937 356.004 140.648L425.865 133.213L415.63 59.7525C415.02 59.7555 414.417 59.6104 413.868 59.3283L413.677 59.1944L393.249 86.8591ZM340.693 86.8591L334.939 137.053C335.21 137.128 335.474 137.233 335.724 137.366C335.935 137.479 336.134 137.613 336.319 137.768L348.55 125.018L340.948 86.8369C340.948 86.8369 340.863 86.8145 340.778 86.8145L340.693 86.8591ZM344.324 82.1255C344.487 82.9973 344.368 83.9013 343.985 84.6933C343.771 85.1486 343.473 85.5549 343.108 85.8883C342.744 86.2218 342.32 86.4758 341.861 86.6358L349.336 124.17L412.53 58.2342C412.383 58.0398 412.255 57.8302 412.148 57.609L344.324 82.1255ZM411.978 56.6043C411.789 55.7166 411.897 54.7877 412.284 53.9741C412.671 53.1606 413.313 52.5123 414.101 52.1386L411.235 41.4657L345.514 80.5402L411.978 56.6043ZM458.354 15.0066C458.231 14.9617 458.115 14.8936 458.015 14.8056L418.667 53.5229C418.985 53.9723 419.203 54.4912 419.304 55.0412L469.694 51.2901L460.818 15.3638C459.969 15.5622 459.08 15.4355 458.312 15.0066L458.354 15.0066ZM417.308 52.3395C417.547 52.4747 417.774 52.6316 417.987 52.8084L457.123 14.2697L412.127 41.0637L415.057 51.9823C415.824 51.8582 416.609 51.9828 417.308 52.3395ZM343.56 80.3169L343.73 80.5402L411.001 40.5501L403.484 12.7514C402.715 12.8685 401.929 12.7361 401.233 12.3718C401.092 12.3033 400.957 12.221 400.83 12.1261L343.56 80.3169ZM406.669 9.55843C406.608 9.93868 406.493 10.3073 406.33 10.6525C405.926 11.4711 405.266 12.118 404.461 12.4834L411.851 40.0143L456.698 13.2203C456.491 12.8173 456.355 12.3787 456.295 11.9252L406.669 9.55843ZM461.688 8.01772C462.102 8.238 462.476 8.53274 462.792 8.88857L491.48 -11.7428L488.316 -22.907L480.014 -22.0809C479.989 -21.2346 479.702 -20.42 479.197 -19.761C478.692 -19.1019 477.995 -18.6344 477.214 -18.4297C476.433 -18.225 475.609 -18.2942 474.869 -18.6267C474.129 -18.9594 473.512 -19.5371 473.112 -20.2723L462.134 8.28566L461.688 8.01772ZM488.04 -24.0011L482.817 -42.6453C482.64 -42.6343 482.463 -42.6343 482.286 -42.6453L477.805 -25.8097C478.339 -25.5652 478.81 -25.1907 479.179 -24.717C479.549 -24.2433 479.806 -23.6842 479.929 -23.0856L488.04 -24.0011ZM475.469 -26.1223C475.926 -26.2109 476.394 -26.2109 476.85 -26.1223L480.46 -39.5193L475.3 -26.1223C475.356 -26.1097 475.414 -26.1097 475.469 -26.1223ZM484.664 -43.6723C484.389 -43.4037 484.073 -43.1849 483.73 -43.0248L489.017 -24.1797L507.534 -25.8097C507.598 -26.2035 507.712 -26.5866 507.874 -26.9485L492.393 -38.1126L484.664 -43.6723ZM507.534 -24.9165L489.378 -23.108L492.393 -12.3457L507.916 -23.5099C507.699 -23.9465 507.569 -24.4252 507.534 -24.9165ZM435.548 -77.8794L474.217 -25.9436L480.736 -42.9132L480.502 -42.9132C479.703 -43.341 479.079 -44.058 478.743 -44.932C478.407 -45.806 478.384 -46.7781 478.676 -47.6692L435.697 -78.058L435.548 -77.8794ZM402.911 -150.848L409.621 -135.219L431.493 -84.2207C431.681 -84.2904 431.872 -84.35 432.066 -84.3993C432.643 -84.5383 433.242 -84.5298 433.815 -84.3743C434.388 -84.2189 434.917 -83.9212 435.357 -83.5061L460.202 -108.559L403.59 -151.34C403.384 -151.147 403.156 -150.982 402.911 -150.848ZM404.249 -152.01L460.818 -109.318L497.341 -146.048C497.028 -146.484 496.811 -146.987 496.704 -147.522L496.704 -148.08L404.779 -153.081C404.65 -152.728 404.471 -152.397 404.249 -152.099L404.249 -152.01ZM498.573 -186.976L496.449 -252.331C495.76 -252.391 495.103 -252.662 494.559 -253.112L445.571 -200.641L497.915 -151.25C498.376 -151.671 498.931 -151.963 499.528 -152.099C499.599 -152.109 499.67 -152.109 499.741 -152.099L498.573 -186.976ZM500.548 -156.051L508.702 -245.632L499.358 -253.425C498.874 -252.921 498.262 -252.572 497.596 -252.42C497.526 -252.41 497.454 -252.41 497.384 -252.42L500.548 -156.051ZM503.966 -149.151C504.154 -148.261 504.042 -147.33 503.648 -146.517L512.312 -140.265L538.961 -214.306L502.65 -151.429C503.31 -150.876 503.774 -150.105 503.966 -149.241L503.966 -149.151ZM503.096 -145.691C502.585 -145.074 501.901 -144.644 501.142 -144.463C500.874 -144.439 500.604 -144.439 500.335 -144.463L493.731 -88.7533L511.951 -139.372L503.096 -145.691ZM404.376 -156.498C404.622 -156.112 404.796 -155.68 404.886 -155.225C404.958 -154.834 404.958 -154.432 404.886 -154.041L496.577 -148.995C496.676 -149.538 496.878 -150.054 497.171 -150.514L444.892 -199.971L404.376 -156.498ZM425.059 -216.36C424.501 -216.214 423.918 -216.214 423.36 -216.36L403.038 -157.793C403.289 -157.64 403.523 -157.46 403.739 -157.257L444.085 -200.596L426.524 -217.164C426.092 -216.814 425.591 -216.57 425.059 -216.449L425.059 -216.36ZM427.182 -217.9L444.764 -201.311L493.753 -253.804L493.561 -254.117L470.755 -242.797L427.67 -221.384L427.67 -221.026C427.923 -219.998 427.778 -218.906 427.267 -217.99L427.182 -217.9ZM459.034 -297.635L449.669 -276.602L493.349 -258.136C493.489 -258.391 493.653 -258.63 493.837 -258.851L462.347 -298.215C461.985 -297.962 461.582 -297.78 461.157 -297.68C460.514 -297.514 459.84 -297.53 459.204 -297.724L459.034 -297.635ZM449.266 -275.686L425.908 -223.505C426.383 -223.199 426.789 -222.787 427.097 -222.299L470.437 -243.824L492.967 -254.988L492.967 -255.323C492.839 -255.926 492.839 -256.551 492.967 -257.154L449.266 -275.686ZM379.383 -302.48L387.155 -217.074L420.472 -220.401C420.491 -220.974 420.63 -221.535 420.88 -222.045C421.129 -222.555 421.483 -223 421.916 -223.349L380.126 -302.681C379.935 -302.668 379.744 -302.668 379.553 -302.681L379.383 -302.48ZM380.721 -303.105L422.617 -223.728C422.814 -223.818 423.021 -223.886 423.232 -223.929C423.851 -224.109 424.504 -224.109 425.122 -223.929L448.374 -276.088L381.697 -304.267C381.485 -303.879 381.212 -303.532 380.891 -303.239L380.721 -303.105ZM337.232 -339.97L337.232 -339.59C337.42 -338.699 337.307 -337.768 336.914 -336.955L375.879 -309.045C376.297 -309.534 376.826 -309.904 377.416 -310.123C378.006 -310.341 378.638 -310.4 379.255 -310.295L393.631 -366.585C392.946 -366.88 392.361 -367.386 391.954 -368.036L337.232 -339.97ZM357.363 -443.662L374.117 -472.131L345.768 -489.056C345.404 -488.486 344.907 -488.025 344.325 -487.716L354.411 -444.578C354.937 -444.653 355.471 -444.61 355.98 -444.452C356.489 -444.295 356.96 -444.025 357.363 -443.662ZM358.021 -442.859C358.274 -442.474 358.454 -442.042 358.552 -441.586C358.583 -441.311 358.583 -441.034 358.552 -440.76L399.237 -454.894C399.087 -455.639 399.146 -456.415 399.407 -457.126L374.966 -471.707L358.021 -442.859ZM354.602 -436.808L342.647 -379.401L391.487 -371.296C391.697 -372.062 392.127 -372.74 392.718 -373.239L368.213 -415.506L355.791 -436.942C355.749 -436.932 355.706 -436.932 355.664 -436.942C355.33 -436.854 354.988 -436.809 354.645 -436.808L354.602 -436.808ZM393.631 -373.775C393.853 -373.87 394.08 -373.952 394.311 -374.02C394.544 -374.042 394.778 -374.042 395.012 -374.02L399.365 -422.763L357.363 -437.656C357.178 -437.495 356.979 -437.352 356.768 -437.232L393.631 -373.775ZM399.471 -423.879L401.976 -451.835C401.442 -451.967 400.943 -452.225 400.517 -452.588C400.091 -452.952 399.748 -453.411 399.513 -453.933L358.509 -439.666C358.406 -439.278 358.249 -438.91 358.042 -438.572L399.471 -423.879ZM405.841 -453.331L455.912 -405.392C456.159 -405.611 456.43 -405.798 456.719 -405.95L445.019 -443.506L406.308 -454.112C406.194 -453.836 406.051 -453.574 405.884 -453.331L405.841 -453.331ZM405.162 -452.594C404.717 -452.211 404.194 -451.943 403.633 -451.812C403.379 -451.779 403.122 -451.779 402.868 -451.812L400.363 -423.634L454.936 -404.275L455.233 -404.789L405.162 -452.594ZM400.256 -422.517L396.01 -374.02C396.947 -373.798 397.763 -373.196 398.282 -372.346L421.831 -384.358L454.829 -401.216L454.829 -401.596C454.713 -402.132 454.713 -402.689 454.829 -403.226L400.256 -422.517ZM421.725 -383.242L398.621 -371.43L398.728 -371.073C398.852 -370.511 398.855 -369.926 398.738 -369.362C398.62 -368.798 398.385 -368.269 398.048 -367.813L414.59 -350.352L455.509 -399.854L455.169 -400.323L421.725 -383.242ZM397.369 -367.098C396.939 -366.759 396.447 -366.516 395.925 -366.384C395.49 -366.295 395.043 -366.295 394.608 -366.384L380.211 -310.072C380.458 -309.957 380.693 -309.815 380.912 -309.648L414.101 -349.571L397.369 -367.098ZM336.765 -340.885L391.572 -368.952L391.572 -369.331C391.54 -369.658 391.54 -369.987 391.572 -370.314L342.605 -378.419L335.109 -342.403C335.804 -342.083 336.394 -341.555 336.807 -340.885L336.765 -340.885ZM269.239 -389.762L331.032 -341.51C331.53 -342.06 332.173 -342.441 332.879 -342.604C333.259 -342.659 333.645 -342.659 334.026 -342.604L341.5 -378.598L269.579 -390.521C269.497 -390.253 269.383 -389.998 269.239 -389.762ZM269.642 -392.53C269.674 -392.204 269.674 -391.875 269.642 -391.548L341.628 -379.625L353.583 -437.098C352.857 -437.359 352.231 -437.86 351.799 -438.527L269.409 -393.022L269.642 -392.53ZM268.687 -394.361L269.048 -393.915L351.438 -439.42L351.289 -439.911L351.289 -440.514L306.484 -443.35L268.687 -394.361ZM296.143 -440.871C295.391 -440.688 294.604 -440.758 293.892 -441.072L269.536 -397.063L305.295 -443.35L298.925 -443.752C298.769 -443.036 298.426 -442.381 297.934 -441.86C297.443 -441.339 296.822 -440.973 296.143 -440.804L296.143 -440.871ZM351.353 -441.519C351.463 -442.14 351.713 -442.723 352.083 -443.221C352.452 -443.718 352.93 -444.115 353.477 -444.377L343.411 -487.448C342.49 -487.26 341.535 -487.443 340.736 -487.962L307.206 -444.399L351.353 -441.519ZM298.437 -446.967C298.723 -446.545 298.926 -446.067 299.031 -445.56C299.062 -445.353 299.062 -445.142 299.031 -444.935L306.038 -444.489L337.89 -485.952L298.437 -446.967ZM259.28 -571.068L294.784 -448.53C295.31 -448.625 295.85 -448.601 296.366 -448.458C296.883 -448.316 297.364 -448.058 297.778 -447.704L339.738 -489.011C339.262 -489.716 339.021 -490.567 339.052 -491.431C339.083 -492.295 339.384 -493.124 339.908 -493.79L260.49 -571.939C260.127 -571.533 259.685 -571.213 259.195 -571.001L259.28 -571.068ZM340.608 -494.482L341.012 -494.75L313.938 -554.701L304.106 -576.449C304 -576.439 303.894 -576.439 303.788 -576.449C302.836 -576.214 301.835 -576.385 301.003 -576.925C300.171 -577.465 299.577 -578.33 299.35 -579.329L261.701 -575.065C261.755 -574.229 261.546 -573.397 261.106 -572.698L340.608 -494.482ZM344.027 -494.973L369.148 -556.778L306.23 -578.414C305.934 -577.758 305.471 -577.201 304.892 -576.806L325.171 -531.926L331.117 -518.753L341.904 -495.04C342.608 -495.219 343.348 -495.172 344.027 -494.906L344.027 -494.973ZM389.257 -672.483L391.38 -737.503C391.38 -737.503 391.253 -737.503 391.189 -737.503L371.972 -682.955C372.578 -682.626 373.086 -682.128 373.441 -681.516C373.796 -680.904 373.983 -680.2 373.983 -679.483C373.983 -678.766 373.796 -678.063 373.441 -677.45C373.086 -676.838 372.578 -676.34 371.972 -676.011L389.257 -672.483ZM371.632 -675.073L387.027 -604.114L389.151 -671.412L371.632 -675.073ZM274.845 -618.627L283.339 -607.039L315.191 -645.868C315.019 -646.065 314.869 -646.282 314.745 -646.515L276.076 -622.937L276.204 -622.535C276.36 -621.823 276.323 -621.08 276.098 -620.39C275.873 -619.699 275.468 -619.088 274.93 -618.627L274.845 -618.627ZM227.619 -621.977L216.046 -541.595C216.303 -541.506 216.551 -541.394 216.789 -541.26L270.046 -618.694C269.502 -619.226 269.125 -619.919 268.963 -620.682C268.942 -620.822 268.942 -620.965 268.963 -621.106L227.619 -621.977ZM271.787 -617.89L259.365 -578.302C259.491 -578.256 259.612 -578.196 259.726 -578.124L282.872 -606.347L274.123 -618.181C273.9 -618.069 273.664 -617.986 273.422 -617.935C272.905 -617.779 272.36 -617.748 271.83 -617.846L271.787 -617.89ZM215.388 -715.398C215.379 -715.977 215.491 -716.55 215.714 -717.078C215.938 -717.607 216.269 -718.077 216.683 -718.457L201.755 -742.55L164.616 -710.776C164.793 -710.462 164.929 -710.124 165.019 -709.772L215.388 -715.398ZM176.635 -710.062L217.596 -711.893C217.09 -712.122 216.638 -712.464 216.272 -712.896C215.905 -713.328 215.632 -713.839 215.473 -714.394L176.635 -710.062ZM222.735 -716.336C222.757 -716.121 222.757 -715.904 222.735 -715.689L266.436 -714.371C266.582 -715.334 267.058 -716.208 267.774 -716.827L255.288 -738.419L222.459 -716.984C222.574 -716.78 222.667 -716.562 222.735 -716.336ZM222.735 -714.684C222.627 -714.13 222.405 -713.608 222.086 -713.153C221.767 -712.698 221.359 -712.322 220.888 -712.049L256.732 -713.657L222.735 -714.684ZM165.147 -708.521C165.13 -708.042 165.021 -707.571 164.828 -707.137L229.743 -662.302C230.267 -662.932 230.964 -663.377 231.739 -663.574C232.627 -663.775 233.554 -663.632 234.35 -663.172L267.583 -710.933C267.053 -711.464 266.684 -712.147 266.521 -712.898L266.521 -713.099L165.147 -708.521ZM140.302 -627.804L152.342 -674.984L128.135 -679.718C127.969 -679.18 127.692 -678.688 127.325 -678.275C126.959 -677.862 126.51 -677.539 126.011 -677.329L139.262 -627.76C139.611 -627.834 139.97 -627.85 140.324 -627.804L140.302 -627.804ZM152.597 -675.944L160.008 -705.105C159.497 -705.333 159.041 -705.676 158.67 -706.11L127.88 -682.777C128.038 -682.466 128.16 -682.136 128.241 -681.794C128.273 -681.43 128.273 -681.064 128.241 -680.7L152.597 -675.944ZM162.28 -704.971C161.837 -704.894 161.385 -704.894 160.942 -704.971L153.531 -675.944L229.042 -661.14L229.233 -661.632L164.361 -706.266C163.835 -705.576 163.101 -705.096 162.28 -704.904L162.28 -704.971ZM271.235 -655.223L269.812 -709.95C269.317 -709.99 268.837 -710.151 268.411 -710.419L235.157 -662.659C235.691 -662.122 236.061 -661.43 236.219 -660.672C236.25 -660.397 236.25 -660.12 236.219 -659.845L271.235 -655.223ZM236.198 -658.841C236.08 -658.395 235.893 -657.973 235.646 -657.59L270.173 -624.701C270.632 -625.113 271.178 -625.404 271.766 -625.549C271.766 -625.549 271.936 -625.549 272.021 -625.549L271.256 -654.174L236.198 -658.841ZM272.828 -711L316.274 -651.852C316.607 -652.05 316.964 -652.201 317.335 -652.298C317.816 -652.409 318.314 -652.419 318.798 -652.327C319.283 -652.235 319.746 -652.043 320.16 -651.763L347.913 -686.729L273.592 -712.183C273.413 -711.74 273.153 -711.338 272.828 -711ZM320.882 -651.003L321.115 -650.735L366.812 -678.065C366.723 -678.256 366.659 -678.459 366.621 -678.668C366.526 -679.192 366.526 -679.73 366.621 -680.254L348.911 -686.305L320.882 -651.003ZM315.53 -651.003L272.063 -710.397C271.742 -710.189 271.39 -710.039 271.023 -709.95C271.023 -709.95 270.853 -709.95 270.768 -709.95L272.212 -655.09L314.554 -649.507C314.733 -650.16 315.069 -650.752 315.53 -651.227L315.53 -651.003ZM272.233 -653.794L272.976 -625.326C273.516 -625.267 274.038 -625.085 274.504 -624.792C274.97 -624.499 275.369 -624.102 275.673 -623.629L314.575 -647.453L314.575 -647.61C314.508 -647.887 314.473 -648.172 314.469 -648.458L272.233 -653.794ZM269.536 -623.674L235.009 -656.764C234.551 -656.354 234.004 -656.071 233.416 -655.938C233.113 -655.894 232.806 -655.894 232.503 -655.938L227.768 -623.026L268.92 -622.311C269.019 -622.879 269.228 -623.419 269.536 -623.897L269.536 -623.674ZM231.484 -655.983C230.997 -656.129 230.545 -656.379 230.154 -656.717C229.763 -657.055 229.442 -657.474 229.212 -657.948L143.615 -624.857L143.615 -624.433L226.706 -623.004L231.484 -655.983ZM228.872 -658.885C228.819 -659.24 228.819 -659.602 228.872 -659.957L153.298 -674.783L141.258 -627.603C142.114 -627.273 142.829 -626.631 143.275 -625.795L228.872 -658.885ZM137.839 -627.112L88.7871 -733.618C88.6741 -733.609 88.5604 -733.609 88.4474 -733.618C88.4055 -733.608 88.3619 -733.608 88.32 -733.618L93.1615 -649.485L136.884 -626.264C137.156 -626.599 137.479 -626.885 137.839 -627.112ZM137.839 -629.345L125.098 -677.15C124.323 -677.047 123.536 -677.203 122.85 -677.598C122.164 -677.992 121.614 -678.603 121.278 -679.345C120.941 -680.087 120.836 -680.922 120.977 -681.73C121.118 -682.539 121.497 -683.28 122.062 -683.848L90.762 -731.564L137.839 -629.345ZM127.222 -683.692L158.139 -706.958C157.99 -707.237 157.882 -707.538 157.821 -707.851C157.693 -708.424 157.693 -709.02 157.821 -709.593L138.497 -717.051L126.394 -684.362C126.738 -684.167 127.047 -683.91 127.307 -683.603L127.222 -683.692ZM158.161 -710.531C158.408 -711.033 158.757 -711.473 159.182 -711.82C159.607 -712.167 160.099 -712.413 160.624 -712.54C160.836 -712.54 161.049 -712.54 161.24 -712.54L167.122 -793.905L166.994 -793.905L138.837 -717.988L158.161 -710.531ZM168.714 -793.905C168.502 -793.905 168.29 -793.905 168.077 -793.905L162.195 -712.518C162.88 -712.38 163.514 -712.039 164.021 -711.536L201.224 -743.309L169.5 -794.329C169.258 -794.15 168.994 -794.007 168.714 -793.905ZM202.499 -742.996L217.49 -718.882C217.74 -719.011 218.004 -719.109 218.276 -719.172C218.766 -719.283 219.272 -719.283 219.762 -719.172L234.627 -768.785C234.261 -768.968 233.924 -769.209 233.628 -769.5L202.499 -742.996ZM237.026 -768.674C236.535 -768.573 236.03 -768.573 235.54 -768.674L220.675 -719.038C221.218 -718.775 221.692 -718.376 222.056 -717.877L254.842 -739.29L237.684 -768.919C237.469 -768.825 237.25 -768.743 237.026 -768.674ZM256.137 -738.955L268.644 -717.341C268.863 -717.446 269.09 -717.528 269.324 -717.587C269.876 -717.721 270.45 -717.721 271.001 -717.587L284.953 -755.947C284.522 -756.198 284.141 -756.531 283.827 -756.929L256.137 -738.955ZM287.543 -755.679C286.985 -755.534 286.402 -755.534 285.844 -755.679L272.764 -719.44L293.786 -757.755L290.282 -758.358C290.09 -757.698 289.735 -757.102 289.255 -756.632C288.774 -756.162 288.183 -755.833 287.543 -755.679ZM272.445 -716.872C273.018 -716.416 273.454 -715.796 273.698 -715.086L388.068 -740.92L388.28 -741.21L388.28 -741.5L294.848 -757.577L272.445 -716.872ZM273.889 -714.081C273.942 -713.741 273.942 -713.394 273.889 -713.054L348.614 -687.488L389.321 -738.665C388.977 -739.043 388.709 -739.491 388.535 -739.982L273.889 -714.081ZM349.548 -687.153L366.897 -681.214C367.127 -681.764 367.475 -682.252 367.913 -682.639C368.351 -683.026 368.868 -683.303 369.424 -683.447C369.969 -683.581 370.535 -683.581 371.08 -683.447L376.474 -698.697L390.319 -737.995C390.227 -738.033 390.141 -738.086 390.064 -738.151L349.548 -687.153ZM367.385 -677.172L321.71 -649.954L321.901 -649.329C322.105 -648.385 321.961 -647.396 321.497 -646.56L339.143 -634.346L367.725 -676.659C367.602 -676.822 367.488 -676.994 367.385 -677.172ZM320.924 -645.756C320.535 -645.332 320.06 -645.006 319.534 -644.801C319.008 -644.596 318.446 -644.518 317.887 -644.573L304.297 -583.75C304.453 -583.702 304.602 -583.634 304.743 -583.549L338.485 -633.52L320.924 -645.756ZM302.153 -583.907C302.553 -583.984 302.963 -583.984 303.363 -583.907L316.762 -644.796C316.571 -644.796 316.401 -644.997 316.21 -645.109L284.231 -606.146L301.091 -583.371C301.382 -583.599 301.704 -583.78 302.046 -583.907L302.153 -583.907ZM283.572 -605.454L260.618 -577.476C261.032 -577.032 261.351 -576.499 261.552 -575.913L299.265 -580.178C299.288 -581.183 299.676 -582.142 300.348 -582.857L283.572 -605.454ZM217.745 -540.701L254.842 -572.609C254.63 -572.976 254.473 -573.375 254.375 -573.792C254.159 -574.804 254.332 -575.865 254.857 -576.744C255.382 -577.622 256.216 -578.247 257.178 -578.481C257.634 -578.57 258.102 -578.57 258.558 -578.481L271.001 -618.114L217.766 -540.679L217.745 -540.701ZM142.766 -621.307L212.84 -541.148C213.234 -541.442 213.683 -541.648 214.156 -541.751C214.451 -541.806 214.753 -541.806 215.048 -541.751L226.642 -621.977L143.679 -623.406C143.582 -622.625 143.264 -621.894 142.766 -621.307ZM98.8099 -598.978L136.544 -622.468L136.374 -623.048C136.216 -623.744 136.253 -624.473 136.48 -625.147L93.2252 -648.123L95.9644 -600.742C96.5289 -600.711 97.079 -600.543 97.5723 -600.253C98.0656 -599.963 98.489 -599.557 98.8099 -599.068L98.8099 -598.978ZM6.67285 -693.807L93.4587 -599.849C93.9045 -600.247 94.437 -600.524 95.0089 -600.653L92.2271 -648.659L6.82149 -694.03L6.67285 -693.807ZM7.28865 -697.424L7.28865 -697.111C7.49397 -696.383 7.49397 -695.607 7.28865 -694.879L92.2271 -649.753L87.3644 -733.35C86.7822 -733.394 86.2177 -733.58 85.7162 -733.894C85.2147 -734.208 84.7901 -734.641 84.4765 -735.159L7.28865 -697.424ZM90.1037 -734.355L122.89 -684.496C123.17 -684.654 123.47 -684.767 123.782 -684.831C124.347 -684.976 124.937 -684.976 125.502 -684.831L137.584 -717.408L90.8681 -735.449C90.6795 -735.038 90.4204 -734.667 90.1037 -734.355ZM90.8894 -739.111C91.0727 -738.787 91.2222 -738.442 91.3353 -738.084C91.4523 -737.51 91.4523 -736.916 91.3353 -736.342L138.051 -718.301L166.102 -794.418C165.755 -794.619 165.44 -794.875 165.168 -795.178L90.8894 -739.111ZM232.567 -773.318L171.22 -796.138C170.99 -795.679 170.68 -795.27 170.307 -794.932L201.968 -743.956L233.034 -770.438C232.814 -770.801 232.656 -771.201 232.567 -771.621C232.44 -772.179 232.44 -772.76 232.567 -773.318ZM239.659 -771.085C239.431 -770.439 239.034 -769.873 238.512 -769.455L255.67 -739.803L283.275 -757.867C283.175 -758.112 283.097 -758.366 283.041 -758.626C282.967 -759.054 282.967 -759.493 283.041 -759.921L239.659 -771.085ZM289.263 -762.333C289.807 -761.801 290.185 -761.108 290.346 -760.345C290.377 -760.019 290.377 -759.69 290.346 -759.363L294.211 -758.693L323.047 -811.053L289.263 -762.333ZM326.53 -815.385L295.315 -758.514L388.45 -742.55C388.605 -743.103 388.873 -743.613 389.236 -744.046L330.012 -815.742C329.641 -815.472 329.223 -815.282 328.781 -815.184C328.029 -815.002 327.242 -815.072 326.53 -815.385ZM330.777 -816.389L390 -744.626C390.326 -744.855 390.684 -745.029 391.062 -745.14L383.163 -803.484L331.456 -817.551C331.292 -817.117 331.047 -816.722 330.734 -816.389L330.777 -816.389ZM375.518 -837.266L331.584 -819.895C331.668 -819.445 331.668 -818.983 331.584 -818.533L382.929 -804.578L378.682 -835.212C378.031 -835.237 377.396 -835.439 376.842 -835.799C376.287 -836.159 375.831 -836.665 375.518 -837.266ZM423.891 -794.351L381.167 -836.105C380.768 -835.745 380.296 -835.485 379.786 -835.346L384.033 -804.288L423.508 -793.548C423.611 -793.828 423.739 -794.097 423.891 -794.351ZM423.296 -791.225C423.222 -791.669 423.222 -792.122 423.296 -792.565L384.203 -803.193L391.933 -745.988L424.273 -789.439C423.796 -789.928 423.458 -790.546 423.296 -791.225ZM426.566 -788.189C426.02 -788.251 425.491 -788.434 425.016 -788.725L392.527 -745.251C393.268 -745.144 393.96 -744.804 394.514 -744.276C395.068 -743.748 395.458 -743.056 395.632 -742.292C395.806 -741.527 395.757 -740.725 395.491 -739.99C395.225 -739.256 394.755 -738.622 394.141 -738.173L430.24 -665.628L426.566 -788.189ZM393.292 -737.704C393.14 -737.639 392.984 -737.587 392.824 -737.548C392.669 -737.537 392.513 -737.537 392.357 -737.548L390.234 -672.372L429.921 -664.199L393.292 -737.704ZM429.943 -663.105L390.191 -671.278L388.068 -604.136C388.476 -604.062 388.871 -603.919 389.236 -603.712L429.943 -663.105ZM386.093 -603.958L370.613 -675.565C369.879 -675.488 369.139 -675.644 368.49 -676.011L339.78 -633.788L384.5 -602.841C384.93 -603.352 385.479 -603.737 386.093 -603.958ZM383.97 -601.993L339.292 -632.962L305.317 -582.969C305.75 -582.55 306.085 -582.03 306.293 -581.451L383.587 -599.916C383.567 -600.601 383.721 -601.28 384.033 -601.881L383.97 -601.993ZM383.821 -598.934L306.527 -580.468C306.58 -580.106 306.58 -579.737 306.527 -579.374L369.509 -557.716L385.477 -596.902C384.738 -597.364 384.174 -598.082 383.885 -598.934L383.821 -598.934ZM413.295 -544.631L388.62 -596.589L388.216 -596.455C387.616 -596.31 386.991 -596.31 386.39 -596.455L370.464 -557.358L412.105 -543.046C412.379 -543.684 412.812 -544.232 413.358 -544.631L413.295 -544.631ZM411.744 -540.523C411.649 -541.054 411.649 -541.599 411.744 -542.13L370.018 -556.465L344.749 -494.437C345.045 -494.234 345.31 -493.986 345.535 -493.7L357.681 -502.096L412.042 -539.674C411.942 -539.95 411.864 -540.234 411.808 -540.523L411.744 -540.523ZM412.551 -538.848L358.891 -501.649L346.151 -492.718C346.261 -492.483 346.346 -492.236 346.406 -491.981C346.579 -491.24 346.534 -490.462 346.278 -489.748L374.711 -472.779L413.188 -538.134C412.978 -538.354 412.786 -538.593 412.615 -538.848L412.551 -538.848ZM413.847 -537.843L375.454 -472.377L399.853 -457.819C400.369 -458.571 401.121 -459.109 401.976 -459.337C402.252 -459.37 402.529 -459.37 402.805 -459.337L414.335 -537.486C414.178 -537.584 414.035 -537.704 413.91 -537.843L413.847 -537.843ZM415.291 -537.486L403.76 -459.337C404.414 -459.157 405.007 -458.79 405.476 -458.278C405.944 -457.766 406.269 -457.128 406.415 -456.434C406.499 -455.984 406.499 -455.522 406.415 -455.072L444.637 -444.623L415.737 -537.441C415.608 -537.447 415.481 -537.462 415.354 -537.486L415.291 -537.486ZM521.464 -424.706L417.18 -535.7L445.614 -444.399L520.954 -423.768C521.134 -424.115 521.364 -424.431 521.634 -424.706L521.464 -424.706ZM520.721 -422.785L446.123 -443.35L457.632 -406.396C458.458 -406.562 459.312 -406.432 460.058 -406.027C460.805 -405.622 461.401 -404.966 461.752 -404.164L520.89 -421.87C520.859 -422.174 520.859 -422.481 520.89 -422.785L520.721 -422.785ZM522.186 -419.168C521.65 -419.569 521.231 -420.117 520.975 -420.753L461.837 -403.047C461.995 -402.058 461.786 -401.043 461.253 -400.212C460.719 -399.38 459.902 -398.797 458.97 -398.581C458.886 -398.571 458.8 -398.571 458.715 -398.581L460.563 -305.316C460.899 -305.274 461.227 -305.184 461.54 -305.048L522.186 -419.168ZM459.331 -305.294C459.437 -305.294 459.522 -305.294 459.607 -305.294L457.76 -398.559C457.169 -398.628 456.602 -398.843 456.104 -399.184L415.312 -349.571L458.078 -304.49C458.492 -304.857 458.978 -305.124 459.501 -305.271L459.331 -305.294ZM457.208 -303.865L414.505 -348.901L381.443 -308.888C381.795 -308.433 382.042 -307.898 382.165 -307.325C382.185 -307.051 382.185 -306.774 382.165 -306.499L456.486 -302.19C456.656 -302.811 456.97 -303.379 457.399 -303.842L457.208 -303.865ZM456.507 -300.605C456.486 -300.798 456.486 -300.992 456.507 -301.185L382.186 -305.495L382.186 -305.271L448.863 -277.093L458.333 -298.215C457.522 -298.757 456.937 -299.603 456.698 -300.582L456.507 -300.605ZM507.81 -266.085C507.623 -266.426 507.487 -266.795 507.406 -267.179C507.223 -268.017 507.305 -268.895 507.64 -269.68L463.047 -298.997L462.92 -298.841L494.793 -259.61C495.16 -259.849 495.562 -260.022 495.982 -260.123C496.596 -260.271 497.236 -260.253 497.842 -260.069C498.447 -259.886 498.998 -259.543 499.443 -259.074L507.81 -266.085ZM508.404 -265.281L499.804 -258.315C499.986 -257.963 500.122 -257.588 500.208 -257.198C500.421 -256.214 500.261 -255.181 499.762 -254.318L508.617 -246.95L510.188 -264.254C509.583 -264.437 509.034 -264.784 508.596 -265.259L508.404 -265.281ZM538.834 -222.299L512.821 -264.5C512.568 -264.38 512.305 -264.283 512.035 -264.209C511.802 -264.209 511.568 -264.209 511.356 -264.209L509.7 -246.347L538.642 -222.21L538.834 -222.299ZM537.602 -218.459C537.4 -219.444 537.559 -220.472 538.048 -221.339L509.657 -244.985L501.163 -152.188C501.389 -152.137 501.61 -152.063 501.822 -151.965L538.919 -216.181C538.263 -216.739 537.801 -217.508 537.602 -218.369L537.602 -218.459ZM537.602 -124.791C537.75 -124.813 537.9 -124.813 538.048 -124.791L540.66 -215.377C540.568 -215.365 540.475 -215.365 540.384 -215.377L513.118 -139.684L535.648 -123.429C536.152 -124.063 536.838 -124.51 537.602 -124.702L537.602 -124.791ZM535.181 -119.031C535.003 -119.368 534.868 -119.728 534.778 -120.102C534.588 -121 534.701 -121.939 535.096 -122.759L512.779 -138.88L494.602 -88.3291C495.008 -88.1532 495.382 -87.9038 495.706 -87.5923L535.181 -119.031ZM492.351 -88.6417L492.733 -88.6417L499.401 -144.619C498.887 -144.749 498.407 -145.001 497.999 -145.356L461.688 -108.737L490.249 -87.168C490.773 -87.8746 491.517 -88.3647 492.351 -88.5523L492.351 -88.6417ZM489.463 -84.9798C489.486 -85.4557 489.587 -85.9239 489.76 -86.3642L460.988 -108.09L435.994 -82.881C436.239 -82.4836 436.419 -82.0459 436.525 -81.5859L436.525 -81.0724L489.463 -84.9798ZM491.714 -81.2287C491.18 -81.4732 490.709 -81.8478 490.34 -82.3214C489.971 -82.795 489.714 -83.3542 489.591 -83.9527L436.61 -80.0229C436.539 -79.6524 436.425 -79.2925 436.27 -78.9512L479.164 -48.7632C479.615 -49.4734 480.273 -50.0101 481.039 -50.2921C481.805 -50.5741 482.638 -50.5861 483.411 -50.3263L491.714 -81.2287ZM493.54 -80.849L494.007 -81.0053C493.551 -80.9163 493.083 -80.9163 492.627 -81.0053L484.176 -49.7903C484.946 -49.2658 485.505 -48.4602 485.744 -47.5285C485.983 -46.5968 485.886 -45.605 485.471 -44.7442L485.301 -44.4092L493.158 -38.7601L508.426 -28.0202C508.572 -28.1661 508.728 -28.3005 508.893 -28.4222C509.028 -28.5587 509.178 -28.6785 509.339 -28.7793L493.54 -80.849ZM508.659 45.0604L510.57 -21.478C510.187 -21.5469 509.815 -21.6748 509.466 -21.8576C509.047 -22.078 508.672 -22.3813 508.362 -22.7507L492.606 -11.4079L508.447 45.1052C508.447 45.1052 508.596 45.1721 508.659 45.1498L508.659 45.0604ZM507.534 45.3731L491.778 -10.805L463.323 9.64773C463.595 10.1998 463.737 10.8123 463.737 11.434C463.737 12.0556 463.595 12.6682 463.323 13.2203L506.621 45.9759C506.9 45.7603 507.208 45.5874 507.534 45.4624L507.534 45.3731ZM505.41 48.5437C505.456 48.0756 505.585 47.6211 505.793 47.2041L506.047 46.7351L462.771 14.158C462.472 14.5093 462.112 14.7973 461.709 15.0066L470.628 51.2231L505.41 48.5437ZM493.71 106.865L507.98 52.7191C507.789 52.6563 507.604 52.5741 507.428 52.4735C506.895 52.1914 506.436 51.7781 506.088 51.2688C505.74 50.7594 505.515 50.1692 505.432 49.5485L470.968 52.1162L488.423 123.478C488.688 123.472 488.953 123.51 489.208 123.589L493.71 106.865ZM487.573 123.5L469.906 52.3395L419.325 56.0907C419.301 56.6337 419.171 57.1659 418.943 57.6537L418.646 58.1449L486.448 124.058C486.769 123.846 487.12 123.688 487.488 123.589L487.573 123.5ZM484.749 126.872C484.794 126.406 484.916 125.953 485.11 125.532C485.282 125.179 485.504 124.855 485.768 124.572L418.072 58.7478C417.668 59.0999 417.198 59.3586 416.692 59.5069L426.842 133.101L484.749 126.872ZM484.983 128.769C484.873 128.482 484.794 128.182 484.749 127.876L427.097 134.017L430.537 158.578C431.123 158.575 431.7 158.729 432.215 159.024C432.733 159.289 433.184 159.68 433.531 160.163L484.983 128.769ZM427.203 160.811C427.443 160.319 427.779 159.885 428.188 159.539C428.598 159.193 429.073 158.941 429.581 158.801L426.141 134.128L356.152 141.653L356.152 142.01L380.657 148.709L426.991 161.28L427.203 160.811ZM426.842 163.981C426.658 163.422 426.6 162.826 426.672 162.24L380.126 149.579L355.876 142.993L355.749 143.328C355.48 143.887 355.087 144.369 354.602 144.734L377.068 188.542L426.842 163.981ZM377.472 189.458L411.723 256.22C412.181 256.059 412.665 255.998 413.146 256.041L429.284 166.482C429.077 166.416 428.878 166.326 428.69 166.214C428.105 165.917 427.612 165.452 427.267 164.874L377.472 189.458ZM460.818 185.26L433.213 165.321C432.847 165.747 432.397 166.084 431.895 166.308C431.392 166.531 430.849 166.637 430.303 166.616L414.101 256.242C414.264 256.289 414.421 256.357 414.569 256.443L460.818 185.26ZM410.937 256.711L376.686 189.927L356.556 199.841C356.85 200.832 356.767 201.905 356.322 202.833C356.235 203.004 356.136 203.169 356.025 203.324L410.746 256.912C410.787 256.813 410.845 256.722 410.916 256.644L410.937 256.711ZM409.6 258.229C409.723 257.975 409.873 257.735 410.046 257.515L355.388 204.061C354.933 204.462 354.395 204.745 353.816 204.887L359.252 268.478L409.196 259.926C409.198 259.316 409.329 258.713 409.578 258.162L409.6 258.229ZM409.6 261.735C409.48 261.478 409.387 261.209 409.324 260.931L359.38 269.483L361.503 294.222C362.036 294.245 362.558 294.39 363.032 294.647C363.432 294.86 363.792 295.147 364.094 295.495L409.6 261.735ZM424.719 313.581C425.121 312.77 425.772 312.124 426.566 311.75L413.571 263.923C412.801 264.04 412.016 263.908 411.32 263.543C410.889 263.313 410.506 262.994 410.194 262.606L364.71 296.344C365.05 297.03 365.191 297.807 365.113 298.577L424.57 313.916L424.719 313.581ZM424.337 314.921L364.88 299.581L364.731 299.961C364.571 300.241 364.394 300.51 364.2 300.765L397.029 340.107L424.719 317.265C424.313 316.53 424.141 315.677 424.23 314.832L424.337 314.921ZM446.675 398.228L428.456 319.275C427.726 319.356 426.99 319.216 426.333 318.873C425.995 318.686 425.686 318.445 425.42 318.158L397.666 340.866L445.911 398.63C446.117 398.447 446.337 398.283 446.569 398.139L446.675 398.228ZM444.701 400.126C444.833 399.827 445.004 399.549 445.21 399.3L396.944 341.492L352.521 377.686C352.897 378.361 353.075 379.138 353.031 379.919L444.34 400.438C444.406 400.293 444.492 400.157 444.594 400.037L444.701 400.126ZM444.297 402.158L444.297 401.577L352.988 381.08C352.942 381.243 352.878 381.401 352.797 381.549L352.5 382.062L385.222 414.55L444.297 402.158ZM441.982 403.676L386.008 415.398L390.637 419.976C391.199 419.496 391.882 419.199 392.602 419.12C393.322 419.04 394.048 419.183 394.693 419.529C395.386 419.893 395.951 420.48 396.307 421.204L441.982 403.676ZM389.257 422.745C389.296 422.223 389.433 421.714 389.66 421.248C389.746 421.057 389.853 420.877 389.979 420.713L384.84 415.644L334.875 426.094L389.257 422.745ZM391.126 426.406C390.66 426.127 390.258 425.744 389.947 425.286C389.635 424.827 389.421 424.303 389.321 423.749L331.69 427.299C331.668 427.822 331.538 428.332 331.308 428.795C331.049 429.335 330.675 429.803 330.214 430.164C329.753 430.524 329.219 430.767 328.653 430.872L342.286 544.747C342.763 544.722 343.239 544.798 343.687 544.97L391.126 426.406ZM341.33 544.925L327.698 430.939C327.535 430.95 327.372 430.95 327.209 430.939L311.496 495.513L305.784 518.913C305.894 518.955 306 519.008 306.102 519.069C306.978 519.534 307.644 520.344 307.955 521.322C308.265 522.301 308.194 523.369 307.758 524.294L339.419 546.421C339.846 545.705 340.478 545.15 341.224 544.836L341.33 544.925ZM338.952 547.158L307.228 524.986C306.598 525.745 305.717 526.224 304.764 526.326L303.894 555.084L338.719 549.011C338.624 548.391 338.668 547.757 338.846 547.158L338.952 547.158ZM394.268 549.681L346.151 549.145C346.085 549.573 345.956 549.987 345.768 550.373C345.546 550.834 345.239 551.244 344.865 551.58C344.492 551.916 344.059 552.171 343.591 552.331C343.124 552.49 342.631 552.552 342.141 552.511C341.651 552.47 341.173 552.328 340.736 552.093C340.331 551.868 339.965 551.574 339.653 551.222L305.805 573.416L394.205 549.614L394.268 549.681ZM394.884 551.423C394.736 551.182 394.608 550.928 394.502 550.664L306.102 574.466C306.201 575.231 306.075 576.01 305.741 576.698L305.529 577.078L336.956 605.502L394.884 551.423ZM402.826 662.35L397.687 553.12C397.199 553.086 396.722 552.95 396.286 552.718C396.015 552.565 395.759 552.386 395.521 552.182L337.657 606.194L400.83 663.332C401.354 662.817 402.012 662.475 402.72 662.35L402.826 662.35ZM400.044 664.449L400.235 664.092L336.977 606.864L313.11 629.192C313.67 630.095 313.869 631.195 313.662 632.251L400.023 664.561L400.044 664.449ZM399.704 665.476L313.237 633.145C313.081 633.471 312.881 633.772 312.642 634.038L361.928 696.557L400.044 668.245C399.574 667.412 399.415 666.425 399.598 665.476L399.704 665.476ZM450.2 674.876L406.797 667.463C406.737 667.657 406.659 667.844 406.563 668.021C406.257 668.665 405.787 669.207 405.204 669.584L424.549 716.474L451.389 678.069C450.981 677.661 450.662 677.164 450.457 676.612C450.251 676.06 450.164 675.468 450.2 674.876ZM463.472 810.253L453.938 679.141C453.345 679.163 452.758 679.016 452.239 678.717L425.058 717.613L463.281 810.342C463.347 810.301 463.418 810.271 463.493 810.253L463.472 810.253ZM460.903 812.307C461.219 811.644 461.714 811.093 462.325 810.722L424.337 718.528L377.026 786.272C377.453 786.696 377.778 787.221 377.974 787.804C378.17 788.386 378.23 789.009 378.151 789.622L460.818 812.597L460.903 812.307Z" fill="#91AAD6"/>
</mask>
<g mask="url(#mask0)">
<rect y="248" width="553" height="652" fill="#C4C4C4"/>
</g>
<g filter="url(#filter0_d)">
<circle cx="237" cy="714" r="8" fill="#4884FA"/>
</g>
<defs>
<filter id="filter0_d" x="209" y="686" width="56" height="56" filterUnits="userSpaceOnUse" color-interpolation-filters="sRGB">
<feFlood flood-opacity="0" result="BackgroundImageFix"/>
<feColorMatrix in="SourceAlpha" type="matrix" values="0 0 0 0 0 0 0 0 0 0 0 0 0 0 0 0 0 0 127 0"/>
<feOffset/>
<feGaussianBlur stdDeviation="10"/>
<feColorMatrix type="matrix" values="0 0 0 0 0.282353 0 0 0 0 0.517647 0 0 0 0 0.980392 0 0 0 0.5 0"/>
<feBlend mode="normal" in2="BackgroundImageFix" result="effect1_dropShadow"/>
<feBlend mode="normal" in="SourceGraphic" in2="effect1_dropShadow" result="shape"/>
</filter>
</defs>
</svg>
