<svg width="1920" height="919" viewBox="0 0 1920 919" fill="none" xmlns="http://www.w3.org/2000/svg">
<path opacity="0.2" d="M1929.17 360.726C1928.64 361.5 1927.87 362.086 1926.98 362.405C1926.1 362.723 1925.13 362.758 1924.22 362.503L1884.16 458.516C1884.29 458.563 1884.4 458.632 1884.5 458.719C1885.49 459.407 1886.17 460.458 1886.38 461.642C1886.6 462.826 1886.33 464.046 1885.65 465.037C1885.2 465.709 1884.59 466.252 1883.86 466.611C1883.14 466.97 1882.33 467.133 1881.53 467.084L1858.53 576.525C1858.93 576.653 1859.3 576.836 1859.64 577.067C1860.61 577.762 1861.27 578.811 1861.48 579.989C1861.69 581.167 1861.42 582.378 1860.74 583.362C1860.06 584.345 1859.02 585.022 1857.84 585.245C1856.67 585.468 1855.45 585.221 1854.46 584.555C1853.9 584.188 1853.44 583.696 1853.11 583.118L1779.78 614.204C1780.04 615.109 1780.01 616.072 1779.7 616.959C1779.38 617.847 1778.8 618.616 1778.04 619.16C1777.27 619.705 1776.35 619.998 1775.41 620C1774.46 620.002 1773.54 619.713 1772.77 619.171C1772.36 618.879 1771.99 618.52 1771.69 618.109L1723.76 644.316C1724.03 645.012 1724.12 645.765 1724.01 646.504C1723.91 647.242 1723.63 647.944 1723.18 648.544C1722.55 649.458 1721.61 650.109 1720.53 650.373L1729.04 726.534C1729.94 726.562 1730.81 726.844 1731.55 727.346C1732.45 727.977 1733.1 728.913 1733.36 729.983C1733.63 731.053 1733.5 732.182 1733 733.162C1732.49 734.142 1731.65 734.906 1730.62 735.312C1729.6 735.718 1728.46 735.738 1727.42 735.369L1701.37 786.626C1701.88 786.962 1702.31 787.394 1702.64 787.897C1702.97 788.401 1703.2 788.965 1703.32 789.558C1703.43 790.151 1703.42 790.76 1703.3 791.35C1703.17 791.941 1702.93 792.5 1702.59 792.997C1702.25 793.493 1701.81 793.916 1701.3 794.242C1700.79 794.567 1700.22 794.788 1699.62 794.892C1699.03 794.996 1698.42 794.981 1697.83 794.847C1697.24 794.714 1696.68 794.464 1696.19 794.114C1695.66 793.751 1695.22 793.279 1694.89 792.729C1694.56 792.179 1694.35 791.565 1694.27 790.928L1622.82 790.345C1622.72 791.026 1622.47 791.676 1622.09 792.247C1621.71 792.818 1621.2 793.295 1620.61 793.643C1620.02 793.99 1619.35 794.199 1618.66 794.253C1617.98 794.308 1617.29 794.206 1616.65 793.956C1616.01 793.707 1615.43 793.315 1614.96 792.811C1614.49 792.308 1614.14 791.705 1613.94 791.047C1613.74 790.39 1613.69 789.696 1613.8 789.017C1613.9 788.338 1614.16 787.691 1614.55 787.126L1614.74 786.917L1513.62 683.161L1513.22 683.394L1513.14 682.678L1511.51 680.993L1513.01 681.537L1503.18 596.975C1502.29 596.973 1501.41 596.699 1500.68 596.188C1499.92 595.665 1499.34 594.924 1499.01 594.063C1498.68 593.203 1498.63 592.263 1498.85 591.37L1435.61 567.217L1435.34 567.65C1434.69 568.613 1433.7 569.292 1432.57 569.547C1431.43 569.803 1430.24 569.617 1429.24 569.027C1428.24 568.436 1427.5 567.487 1427.18 566.372C1426.86 565.256 1426.97 564.06 1427.5 563.028L1243.81 553.57C1243.7 554.21 1243.45 554.817 1243.07 555.348C1242.38 556.341 1241.33 557.019 1240.13 557.233C1238.94 557.447 1237.71 557.179 1236.72 556.49C1235.73 555.8 1235.05 554.744 1234.83 553.554C1234.62 552.365 1234.88 551.139 1235.57 550.146C1236.11 549.394 1236.85 548.815 1237.71 548.481L1202.79 400.579C1201.76 400.688 1200.71 400.436 1199.84 399.865C1198.96 399.293 1198.31 398.437 1197.99 397.442L1134.64 409.114C1134.69 410.123 1134.41 411.12 1133.83 411.953C1133.49 412.445 1133.06 412.865 1132.55 413.189C1132.05 413.512 1131.49 413.734 1130.9 413.84C1130.31 413.946 1129.7 413.934 1129.11 413.806C1128.53 413.679 1127.97 413.437 1127.48 413.094C1126.77 412.635 1126.21 411.987 1125.85 411.222C1125.49 410.458 1125.36 409.609 1125.46 408.771L1068.73 393.992C1068.61 394.31 1068.46 394.613 1068.27 394.894C1067.92 395.386 1067.49 395.805 1066.98 396.128C1066.48 396.452 1065.92 396.673 1065.33 396.779C1064.74 396.885 1064.13 396.873 1063.55 396.746C1062.96 396.618 1062.41 396.377 1061.91 396.035C1061.42 395.694 1061 395.259 1060.68 394.755C1060.35 394.252 1060.13 393.689 1060.02 393.1C1059.92 392.511 1059.93 391.907 1060.06 391.322C1060.18 390.738 1060.43 390.184 1060.77 389.692C1060.87 389.532 1060.99 389.382 1061.12 389.244L992.218 309.342C991.616 309.737 990.928 309.985 990.212 310.063C989.495 310.142 988.77 310.049 988.095 309.794C987.421 309.538 986.817 309.126 986.333 308.593C985.849 308.059 985.499 307.418 985.311 306.723C985.123 306.028 985.102 305.298 985.252 304.594C985.401 303.889 985.716 303.231 986.17 302.671C986.623 302.112 987.204 301.668 987.863 301.377C988.522 301.085 989.241 300.953 989.961 300.993L1000.97 241.546C1000.47 241.409 999.991 241.185 999.567 240.884C998.656 240.254 998.006 239.313 997.739 238.239C997.472 237.164 997.606 236.03 998.116 235.048L965.932 216.681C965.245 216.674 964.569 216.512 963.954 216.207C963.339 215.901 962.802 215.46 962.382 214.916L896.068 253.592C896.253 254.021 896.367 254.478 896.406 254.943C896.502 256.139 896.123 257.325 895.352 258.244C894.581 259.164 893.479 259.745 892.283 259.861C891.408 259.941 890.53 259.763 889.755 259.351C888.98 258.939 888.342 258.31 887.92 257.541L875.468 261.216L806.242 281.612C806.286 282.206 806.212 282.803 806.025 283.368C805.839 283.934 805.542 284.457 805.152 284.908C804.763 285.359 804.288 285.729 803.756 285.996C803.223 286.264 802.643 286.424 802.048 286.468C801.453 286.512 800.855 286.438 800.289 286.251C799.722 286.065 799.198 285.768 798.747 285.379C798.295 284.99 797.924 284.516 797.656 283.984C797.387 283.452 797.226 282.873 797.182 282.279C797.121 281.583 797.216 280.882 797.463 280.229L733.468 246.496C733.091 247.022 732.604 247.459 732.042 247.779C731.479 248.098 730.853 248.292 730.208 248.347L728.379 290.02L627.754 285.918C627.632 286.671 627.319 287.38 626.846 287.979C626.373 288.578 625.756 289.047 625.052 289.342C624.347 289.637 623.579 289.749 622.82 289.666C622.06 289.584 621.334 289.31 620.71 288.87L582.12 331.493C582.651 332.125 583 332.889 583.129 333.703C583.257 334.518 583.16 335.352 582.849 336.115C582.537 336.879 582.022 337.543 581.36 338.035C580.698 338.528 579.914 338.831 579.092 338.911C577.968 339.014 576.845 338.693 575.947 338.011L510.314 404.971C510.853 405.675 511.182 406.516 511.263 407.398C511.367 408.596 510.989 409.786 510.213 410.705C509.438 411.625 508.328 412.199 507.128 412.301C505.929 412.404 504.737 412.026 503.816 411.252C502.894 410.477 502.319 409.369 502.216 408.171C502.138 407.233 502.357 406.295 502.844 405.49L453.86 367.336C453.12 368.093 452.127 368.551 451.07 368.625C450.017 368.718 448.965 368.444 448.093 367.848C447.22 367.253 446.582 366.374 446.287 365.361L299.719 389.015L299.638 388.456C299.702 389.197 299.581 389.943 299.287 390.627C298.993 391.311 298.534 391.911 297.952 392.376L328.394 442.22C328.859 442.02 329.352 441.893 329.857 441.846C330.451 441.795 331.049 441.862 331.618 442.042C332.186 442.222 332.713 442.512 333.17 442.896C333.626 443.28 334.002 443.749 334.276 444.278C334.551 444.806 334.718 445.384 334.77 445.977C334.821 446.57 334.754 447.167 334.574 447.735C334.394 448.302 334.104 448.829 333.72 449.284C333.336 449.739 332.866 450.115 332.336 450.388C331.807 450.662 331.229 450.829 330.635 450.88C329.938 450.94 329.237 450.838 328.587 450.582C327.937 450.325 327.356 449.921 326.889 449.402L223.132 521.356C223.377 521.839 223.527 522.364 223.574 522.904C223.649 523.783 223.467 524.664 223.05 525.441C222.632 526.218 221.998 526.858 221.223 527.281L241.917 576.524C242.101 576.485 242.289 576.458 242.477 576.444C243.071 576.391 243.67 576.456 244.239 576.635C244.809 576.814 245.337 577.102 245.795 577.485C246.252 577.867 246.63 578.336 246.906 578.864C247.182 579.393 247.351 579.97 247.404 580.563C247.457 581.157 247.392 581.755 247.213 582.323C247.035 582.891 246.746 583.419 246.363 583.875C245.98 584.332 245.511 584.709 244.982 584.984C244.453 585.26 243.875 585.429 243.28 585.481C242.646 585.53 242.008 585.448 241.407 585.24C240.806 585.032 240.254 584.702 239.785 584.272L117.277 674.231C117.595 674.783 117.788 675.398 117.841 676.032C117.943 677.24 117.56 678.439 116.776 679.364C115.993 680.29 114.873 680.867 113.663 680.968C113.064 681.018 112.46 680.95 111.888 680.767C111.315 680.584 110.784 680.291 110.324 679.903C109.397 679.12 108.819 678.002 108.717 676.794C108.63 675.864 108.837 674.931 109.308 674.124C109.779 673.318 110.492 672.68 111.345 672.298L80.7837 573.231L80.4244 573.182C79.4227 573.28 78.4165 573.043 77.5646 572.507C76.7126 571.972 76.0634 571.168 75.7191 570.224C75.3748 569.279 75.3552 568.247 75.6632 567.291C75.9712 566.334 76.5895 565.507 77.4204 564.94L25.2373 466.441C24.8438 466.577 24.4366 466.67 24.0227 466.718C22.8229 466.821 21.6313 466.443 20.71 465.668C19.7887 464.894 19.2131 463.786 19.11 462.588C19.0068 461.39 19.3845 460.2 20.16 459.281C20.9354 458.361 22.0451 457.787 23.2449 457.684C23.8983 457.617 24.5586 457.707 25.1698 457.948L61.473 387.498C60.7073 386.965 60.124 386.21 59.8018 385.335C59.4796 384.46 59.4341 383.508 59.6714 382.606C59.9087 381.705 60.4174 380.898 61.1287 380.295C61.8401 379.692 62.7198 379.322 63.649 379.234C64.1527 379.225 64.6548 379.294 65.1376 379.437L85.1228 328.892C84.4752 328.529 83.9265 328.012 83.5242 327.389C83.1219 326.765 82.8783 326.053 82.8145 325.314C82.7104 324.211 83.0194 323.109 83.6819 322.222L28.4673 269.407C27.9509 269.815 27.3516 270.105 26.7111 270.258C26.0707 270.412 25.4045 270.423 24.7588 270.293C24.1132 270.163 23.5036 269.894 22.9726 269.505C22.4415 269.116 22.0018 268.616 21.6838 268.04C21.3659 267.464 21.1775 266.826 21.1317 266.169C21.0859 265.513 21.1838 264.855 21.4186 264.241C21.6534 263.627 22.0194 263.071 22.4913 262.613C22.9631 262.154 23.5294 261.804 24.1507 261.586L11.3999 205.886C10.8059 205.936 10.2076 205.87 9.63915 205.69C9.07074 205.51 8.54339 205.219 8.0872 204.836C7.63101 204.452 7.25491 203.983 6.98038 203.454C6.70585 202.926 6.53826 202.348 6.48719 201.755C6.43611 201.162 6.50255 200.565 6.68271 199.997C6.86287 199.43 7.15321 198.903 7.53717 198.448C7.92113 197.993 8.39119 197.617 8.9205 197.343C9.44981 197.07 10.028 196.902 10.6221 196.852C11.2573 196.792 11.8981 196.868 12.5011 197.077C13.1041 197.286 13.6552 197.621 14.1172 198.061L69.1634 153.067C68.7508 152.403 68.5175 151.643 68.4862 150.862C68.455 150.081 68.6269 149.305 68.9852 148.61C69.3435 147.915 69.876 147.325 70.5308 146.897C71.1857 146.469 71.9405 146.217 72.7218 146.167C73.9178 146.065 75.1056 146.441 76.0245 147.213C76.9434 147.985 77.5185 149.089 77.6234 150.283C77.6227 150.378 77.6098 150.473 77.5849 150.564L221.159 165.63L221.218 165.195L221.753 165.685L224.063 166.001L222.549 166.551L284.068 225.083C284.776 224.529 285.63 224.192 286.527 224.114C287.439 224.031 288.356 224.227 289.154 224.677C289.952 225.126 290.594 225.808 290.994 226.631L354.779 204.917C354.75 204.75 354.729 204.581 354.718 204.412C354.641 203.283 354.992 202.167 355.699 201.283C356.407 200.399 357.42 199.812 358.54 199.638C359.66 199.463 360.804 199.714 361.749 200.34C362.693 200.967 363.368 201.924 363.641 203.022L510.134 93.1103C509.828 92.5448 509.637 91.9242 509.573 91.2847C509.467 90.0863 509.841 88.8949 510.615 87.9726C511.388 87.0503 512.497 86.4727 513.697 86.3668C514.897 86.261 516.091 86.6355 517.015 87.4081C517.939 88.1806 518.518 89.2879 518.624 90.4864C518.679 91.3665 518.487 92.2442 518.069 93.0207L639.193 184.111C639.934 183.344 640.927 182.868 641.991 182.771C642.984 182.684 643.979 182.92 644.827 183.446L685.885 134.243C685.174 133.487 684.752 132.505 684.696 131.47C684.641 130.876 684.705 130.277 684.883 129.709C685.062 129.14 685.351 128.612 685.734 128.155C686.117 127.698 686.587 127.321 687.116 127.046C687.646 126.771 688.225 126.603 688.819 126.552C689.645 126.488 690.472 126.649 691.214 127.017C691.955 127.385 692.583 127.946 693.031 128.642L745.935 103.899C745.838 103.583 745.768 103.259 745.728 102.931C745.621 101.733 745.996 100.541 746.769 99.6189C747.542 98.6966 748.651 98.119 749.851 98.0131C751.052 97.9072 752.245 98.2818 753.169 99.0543C754.093 99.8269 754.672 100.934 754.779 102.133C754.767 102.313 754.742 102.493 754.705 102.671L858.402 120.062C858.701 119.048 859.347 118.17 860.227 117.582C861.107 116.993 862.166 116.731 863.22 116.841C864.274 116.951 865.256 117.426 865.995 118.184C866.735 118.941 867.186 119.933 867.27 120.988C867.332 121.754 867.2 122.523 866.885 123.224C866.569 123.925 866.082 124.534 865.466 124.996L894.888 177.52C895.364 177.317 895.867 177.183 896.381 177.124C897.463 177.059 898.535 177.38 899.403 178.03C900.272 178.679 900.882 179.615 901.125 180.67L963.362 169.708L963.397 169.452C963.397 168.23 963.884 167.058 964.75 166.195C965.616 165.332 966.79 164.848 968.013 164.849C969.237 164.85 970.41 165.337 971.275 166.202C972.14 167.067 972.626 168.239 972.625 169.461L1048.8 182.201C1048.95 181.751 1049.16 181.324 1049.42 180.928C1050.01 180.065 1050.88 179.432 1051.89 179.137C1052.89 178.841 1053.97 178.901 1054.94 179.306C1055.91 179.711 1056.7 180.437 1057.2 181.361C1057.69 182.284 1057.85 183.35 1057.65 184.377L1069.63 189.513L1136.13 218.107C1136.87 217.218 1137.91 216.64 1139.05 216.489C1140.2 216.338 1141.35 216.626 1142.29 217.294C1143.23 217.963 1143.89 218.962 1144.12 220.09C1144.35 221.218 1144.14 222.392 1143.54 223.375C1143.15 223.965 1142.62 224.448 1141.99 224.782L1169.72 291.822C1170.34 291.668 1171 291.65 1171.64 291.768C1172.28 291.887 1172.88 292.14 1173.41 292.511L1201.68 261.502L1276.75 329.195C1277.51 328.542 1278.47 328.16 1279.47 328.109C1280.48 328.058 1281.47 328.34 1282.3 328.911C1283.17 329.51 1283.8 330.402 1284.08 331.425L1341.44 323.581C1341.43 322.634 1341.71 321.707 1342.25 320.924C1342.59 320.432 1343.03 320.013 1343.53 319.689C1344.03 319.365 1344.6 319.144 1345.19 319.038C1345.78 318.932 1346.38 318.943 1346.97 319.071C1347.55 319.199 1348.11 319.441 1348.6 319.783C1349.53 320.421 1350.18 321.387 1350.43 322.487L1444.22 312.915C1444.22 312.018 1444.5 311.144 1445.03 310.416C1445.35 309.877 1445.77 309.41 1446.28 309.043C1446.79 308.676 1447.37 308.418 1447.98 308.284C1448.59 308.15 1449.22 308.144 1449.84 308.265C1450.45 308.387 1451.04 308.633 1451.55 308.99C1452.07 309.346 1452.5 309.805 1452.83 310.337C1453.16 310.869 1453.38 311.463 1453.47 312.082C1453.56 312.702 1453.52 313.333 1453.35 313.936C1453.19 314.539 1452.9 315.102 1452.5 315.589C1451.96 316.369 1451.2 316.965 1450.31 317.299L1463.58 378.186C1464.63 378.108 1465.68 378.39 1466.56 378.985C1467.4 379.576 1468.02 380.437 1468.31 381.425C1468.61 382.413 1468.55 383.471 1468.16 384.426L1596.63 460.283L1596.35 460.793C1596.76 460.182 1597.32 459.683 1597.97 459.34C1598.63 458.996 1599.36 458.82 1600.1 458.826L1608.66 400.819C1608.17 400.689 1607.71 400.477 1607.3 400.19C1606.81 399.849 1606.39 399.414 1606.07 398.91C1605.74 398.406 1605.52 397.844 1605.41 397.255C1605.31 396.666 1605.32 396.062 1605.45 395.477C1605.57 394.892 1605.82 394.338 1606.16 393.847C1606.5 393.355 1606.93 392.936 1607.44 392.613C1607.94 392.289 1608.51 392.068 1609.1 391.962C1609.69 391.856 1610.29 391.868 1610.88 391.995C1611.46 392.123 1612.02 392.364 1612.51 392.706C1613.08 393.111 1613.56 393.642 1613.9 394.258C1614.23 394.874 1614.42 395.559 1614.46 396.261L1740.91 407.237C1741.04 406.71 1741.26 406.21 1741.56 405.759C1742.05 405.008 1742.75 404.42 1743.58 404.068C1744.4 403.716 1745.31 403.617 1746.2 403.783L1761.91 352.524C1761.74 352.438 1761.58 352.337 1761.43 352.223C1760.46 351.529 1759.79 350.479 1759.59 349.301C1759.38 348.123 1759.65 346.912 1760.33 345.928C1761.01 344.945 1762.05 344.268 1763.22 344.045C1764.4 343.822 1765.62 344.069 1766.61 344.735C1767.14 345.098 1767.59 345.57 1767.92 346.12C1768.25 346.669 1768.46 347.284 1768.53 347.921L1920.87 357.032C1920.98 356.401 1921.23 355.802 1921.6 355.28C1922.29 354.287 1923.35 353.609 1924.54 353.395C1925.73 353.181 1926.96 353.448 1927.96 354.138C1928.95 354.828 1929.63 355.884 1929.84 357.074C1930.06 358.263 1929.79 359.489 1929.1 360.482L1929.17 360.726ZM1855.94 576.405C1856.4 576.287 1856.88 576.247 1857.36 576.287L1880.41 466.852C1880.02 466.718 1879.65 466.527 1879.31 466.284C1878.75 465.899 1878.28 465.388 1877.94 464.792L1821.56 487.858L1855.94 576.405ZM1715.71 643.371C1716.11 642.796 1716.64 642.323 1717.26 641.99L1700.58 600.058L1711.72 650.318L1715.37 647.945C1715.02 647.221 1714.86 646.417 1714.91 645.614C1714.97 644.811 1715.23 644.036 1715.68 643.367L1715.71 643.371ZM1743.33 556.124L1742.74 555.626L1702.35 590.589C1702.97 591.531 1703.22 592.675 1703.04 593.79L1731.19 602.051L1744 556.555C1743.76 556.437 1743.53 556.293 1743.33 556.124ZM1748.32 548.505L1780.04 512.67L1744.48 548.059C1745.11 547.849 1745.79 547.78 1746.45 547.857C1747.11 547.934 1747.75 548.155 1748.32 548.505ZM1741.61 550.929L1710.46 581.91L1742 554.716C1741.66 554.151 1741.45 553.52 1741.39 552.866C1741.32 552.212 1741.39 551.551 1741.61 550.929ZM1702.6 594.904C1702.48 595.179 1702.33 595.439 1702.15 595.678C1701.76 596.254 1701.24 596.729 1700.63 597.062L1718.31 641.534C1718.9 641.399 1719.5 641.367 1720.1 641.44L1730.88 603.132L1702.6 594.904ZM1698.77 597.618C1697.89 597.707 1697.01 597.532 1696.23 597.113L1613.17 713.664L1613.12 714.074L1613.34 714.314L1710.48 650.983L1698.77 597.618ZM1695.27 596.435C1694.96 596.163 1694.7 595.845 1694.49 595.492L1606.91 635.201L1610.34 712.755C1610.94 712.81 1611.53 712.97 1612.08 713.228L1695.27 596.435ZM1607.81 574.476C1608.19 575.196 1608.37 576.005 1608.33 576.818L1694.14 591.738C1694.27 591.29 1694.48 590.869 1694.75 590.49C1694.8 590.401 1694.87 590.322 1694.94 590.255L1650.48 544.314L1607.81 574.476ZM1685.97 517.817C1685.71 517.342 1685.54 516.823 1685.47 516.287L1628.41 516.55C1628.32 517.284 1628.05 517.982 1627.61 518.581C1627.62 518.668 1627.6 518.755 1627.58 518.838L1650.75 542.889L1685.97 517.817ZM1507.37 594.467L1577.75 643.248C1578.35 642.588 1579.13 642.123 1580 641.911L1572.52 581.919L1507.75 592.248C1507.78 593.011 1507.63 593.77 1507.29 594.457L1507.37 594.467ZM1581.17 641.732C1581.44 641.729 1581.71 641.766 1581.97 641.841L1601.83 580.758L1601.2 580.385C1600.27 579.742 1599.61 578.778 1599.35 577.678L1573.79 581.754L1581.17 641.732ZM1583.07 642.174L1583.73 642.525C1584.24 642.891 1584.68 643.348 1585.01 643.875L1605.7 634.487L1603.31 581.17L1602.9 581.114L1583.07 642.174ZM1606.92 633.95L1693.99 594.354C1693.84 593.853 1693.77 593.333 1693.78 592.811L1608 577.895C1607.86 578.341 1607.65 578.762 1607.38 579.143C1606.71 580.125 1605.68 580.807 1604.51 581.047L1606.92 633.95ZM1605.84 635.734L1585.49 644.959C1585.71 645.609 1585.78 646.302 1585.68 646.982C1585.59 647.662 1585.34 648.312 1584.96 648.879C1584.57 649.447 1584.06 649.914 1583.46 650.241L1590.58 667.765L1608.98 712.935L1609.32 712.98L1605.84 635.734ZM1582.29 650.786C1581.48 650.995 1580.64 650.98 1579.84 650.743C1579.04 650.506 1578.33 650.056 1577.77 649.442C1577.21 648.828 1576.83 648.073 1576.67 647.259C1576.51 646.444 1576.57 645.602 1576.86 644.822L1558.4 656.055L1607.61 713.634L1607.81 713.505L1582.29 650.786ZM1576.25 643.512L1506.64 595.411L1557.58 655.003L1576.25 643.512ZM1507.62 590.925L1572.41 580.599L1563.8 509.724C1563.09 509.727 1562.38 509.559 1561.75 509.235L1506.41 588.854C1507 589.468 1507.42 590.228 1507.63 591.057L1507.62 590.925ZM1573.57 580.497L1599.15 576.425C1599.18 575.531 1599.46 574.665 1599.96 573.925C1600.26 573.525 1600.6 573.168 1601 572.866L1565.45 509.532L1564.87 509.714L1573.57 580.497ZM1602.26 572.255C1602.49 572.158 1602.74 572.095 1602.99 572.068L1601.27 512.211L1568.05 506.572C1567.9 507.023 1567.69 507.451 1567.43 507.845C1567.14 508.239 1566.79 508.587 1566.4 508.879L1602.26 572.255ZM1602.38 511.345L1619.6 514.275C1619.72 513.991 1619.87 513.723 1620.05 513.475C1620.43 512.934 1620.93 512.485 1621.51 512.161L1601.6 467.906L1601.13 468.052L1602.38 511.345ZM1619.29 515.407L1602.42 512.552L1604.15 572.175C1604.46 572.191 1604.77 572.234 1605.08 572.301L1621.64 520.035L1621.2 519.767C1620.49 519.281 1619.94 518.603 1619.6 517.813C1619.26 517.022 1619.16 516.151 1619.3 515.304L1619.29 515.407ZM1606.2 572.873L1606.35 572.894C1606.63 573.077 1606.88 573.296 1607.1 573.544L1649.62 543.492L1626.58 519.666C1626.04 520.057 1625.42 520.326 1624.76 520.458C1624.11 520.589 1623.43 520.578 1622.78 520.427L1606.2 572.873ZM1628.35 515.472L1685.44 515.212C1685.51 514.477 1685.78 513.775 1686.21 513.178C1686.42 512.862 1686.67 512.579 1686.96 512.339L1665.21 480.156L1627.49 513.527C1627.9 514.068 1628.19 514.696 1628.31 515.362L1628.35 515.472ZM1651.42 543.738L1695.69 589.366C1696.19 589.008 1696.75 588.748 1697.34 588.599L1689.83 520.172C1688.94 520.152 1688.07 519.869 1687.33 519.36C1687.05 519.17 1686.79 518.951 1686.56 518.706L1651.42 543.738ZM1698.54 588.632C1699.43 588.653 1700.3 588.935 1701.04 589.445L1701.25 589.473L1789.26 501.896C1788.9 501.47 1788.63 500.981 1788.46 500.456L1694.52 515.54C1694.55 516.516 1694.26 517.475 1693.7 518.274C1693.08 519.189 1692.13 519.833 1691.05 520.078L1698.54 588.632ZM1694.33 514.47L1788.21 499.404C1788.14 498.378 1788.42 497.359 1789 496.509C1789.3 496.049 1789.71 495.658 1790.17 495.365L1773.98 464.28L1693.99 513.875C1694.1 514.032 1694.2 514.194 1694.29 514.36L1694.33 514.47ZM1808.36 446.297C1808.22 446.648 1808.05 446.983 1807.83 447.295C1807.44 447.89 1806.89 448.373 1806.26 448.698L1821.03 486.742L1877.41 463.702C1877.27 463.177 1877.22 462.631 1877.27 462.09L1808.36 446.297ZM1874.44 460.24L1751.36 411.328L1800.63 441.872C1801.25 441.116 1802.09 440.578 1803.04 440.339C1803.99 440.1 1804.99 440.172 1805.9 440.544C1806.8 440.917 1807.56 441.57 1808.07 442.408C1808.57 443.245 1808.79 444.222 1808.7 445.194L1874.44 460.24ZM1805.1 449.114C1804.64 449.235 1804.15 449.275 1803.67 449.232L1794.21 494.716C1794.56 494.848 1794.89 495.024 1795.19 495.241C1795.75 495.627 1796.22 496.137 1796.55 496.733L1819.9 487.187L1805.1 449.114ZM1802.5 448.994C1802.12 448.858 1801.75 448.675 1801.4 448.452C1801.06 448.198 1800.75 447.911 1800.47 447.594L1774.76 463.525L1791.28 494.733C1791.91 494.48 1792.6 494.394 1793.28 494.484L1802.5 448.994ZM1774.25 462.489L1799.95 446.609C1799.69 446.012 1799.56 445.368 1799.56 444.717C1799.56 444.065 1799.69 443.421 1799.95 442.823L1749.04 411.323C1748.78 411.654 1748.48 411.955 1748.15 412.221L1774.25 462.489ZM1749.7 409.535L1877.91 460.272C1877.97 460.135 1878.05 460.005 1878.15 459.886L1878.17 459.733L1807.62 391.534L1749.82 407.672C1749.95 408.257 1749.97 408.862 1749.87 409.453L1749.7 409.535ZM1854.5 576.991L1854.62 577.008L1820.27 488.465L1796.92 498.011C1797.12 498.638 1797.18 499.301 1797.09 499.952C1797 500.604 1796.77 501.227 1796.41 501.778C1796.26 501.992 1796.09 502.196 1795.91 502.388L1854.5 576.991ZM1853.56 577.698L1794.89 502.979C1794.21 503.32 1793.46 503.478 1792.71 503.438L1784.04 561.431L1852.83 579.034C1852.95 578.711 1853.11 578.408 1853.32 578.135C1853.44 577.952 1853.58 577.779 1853.73 577.617L1853.56 577.698ZM1777.77 611.71C1778.31 612.093 1778.76 612.591 1779.09 613.169L1852.54 582.101C1852.39 581.525 1852.34 580.926 1852.39 580.332L1783.73 562.746L1776.52 611.121C1777 611.232 1777.47 611.419 1777.9 611.676L1777.77 611.71ZM1791.3 503.402C1790.89 503.276 1790.5 503.1 1790.14 502.878L1749.08 549.261C1749.53 549.758 1749.88 550.347 1750.09 550.988C1750.3 551.629 1750.37 552.308 1750.29 552.978L1782.66 561.241L1791.3 503.402ZM1773.8 611.115C1774.27 610.97 1774.77 610.906 1775.26 610.923L1782.51 562.317L1750 553.982C1749.88 554.309 1749.72 554.62 1749.53 554.91C1749.17 555.403 1748.72 555.828 1748.21 556.165L1773.8 611.115ZM1772.73 611.622L1747.14 556.749C1746.44 556.968 1745.7 557.018 1744.97 556.897L1732.34 602.209L1771.17 613.496C1771.29 613.235 1771.43 612.983 1771.59 612.744C1771.94 612.272 1772.38 611.879 1772.89 611.592L1772.73 611.622ZM1722.04 642.2C1722.45 642.503 1722.81 642.86 1723.12 643.262L1771.15 617.096C1770.87 616.344 1770.78 615.532 1770.9 614.738L1731.97 603.437L1721.24 641.751L1722.04 642.2ZM1719.36 650.501C1718.46 650.488 1717.59 650.205 1716.86 649.688C1716.54 649.467 1716.25 649.209 1715.99 648.918L1711.94 651.626L1727.15 720.297L1719.36 650.501ZM1710.92 652.217L1614.15 715.312C1614.43 715.913 1614.58 716.564 1614.59 717.226L1724.54 729.991C1724.72 729.265 1725.08 728.594 1725.58 728.039C1726.08 727.483 1726.71 727.06 1727.41 726.807L1710.92 652.217ZM1613.89 719.714L1666.91 763.301L1724.75 732.682C1724.56 732.195 1724.46 731.677 1724.46 731.154L1614.51 718.415C1614.38 718.88 1614.17 719.318 1613.89 719.714ZM1700.36 786.017L1726.4 734.761C1725.97 734.461 1725.59 734.082 1725.3 733.644L1667.88 764.086L1695.73 786.977C1696.34 786.41 1697.09 786.02 1697.91 785.851C1698.73 785.682 1699.57 785.74 1700.36 786.017ZM1622.91 789.105L1694.37 789.688C1694.45 789.053 1694.67 788.443 1695 787.895L1666.8 764.696L1622.63 788.075C1622.75 788.41 1622.85 788.754 1622.91 789.105ZM1620.99 785.919C1621.43 786.218 1621.8 786.597 1622.09 787.035L1665.81 763.882L1613.9 721.151L1618.63 785.047C1619.47 785.111 1620.28 785.412 1620.97 785.915L1620.99 785.919ZM1615.75 786.037C1616.28 785.635 1616.9 785.354 1617.56 785.214L1612.61 721.052C1611.84 721.59 1610.93 721.877 1609.99 721.876C1609.05 721.874 1608.14 721.583 1607.38 721.042C1606.64 720.519 1606.07 719.79 1605.75 718.947C1605.42 718.104 1605.35 717.184 1605.54 716.301L1515.86 683.832L1615.75 786.037ZM1606.11 715.23L1606.41 714.724L1606.79 714.279L1557.36 656.592L1515.05 682.286L1606.11 715.23ZM1514.32 681.456L1556.68 655.637L1505.75 596.177C1505.32 596.453 1504.85 596.654 1504.36 596.77L1514.32 681.456ZM1502.43 587.919C1503.46 587.707 1504.53 587.853 1505.46 588.333L1560.8 508.688C1560.49 508.406 1560.21 508.079 1559.99 507.716L1486.04 541.091L1502.43 587.919ZM1559.46 504.171L1505.84 482.35L1490.11 475.971L1461.77 464.447C1461.28 465.163 1460.6 465.722 1459.8 466.057L1485.68 540.077L1559.53 506.713C1559.21 505.899 1559.14 505.007 1559.33 504.153L1559.46 504.171ZM1436.14 566.062L1499.37 590.215C1499.45 590.065 1499.54 589.92 1499.64 589.782C1500.08 589.155 1500.66 588.643 1501.34 588.291L1484.96 541.675L1436.07 563.703C1436.25 564.475 1436.23 565.282 1436.01 566.044L1436.14 566.062ZM1434.18 561.226C1434.69 561.591 1435.12 562.049 1435.46 562.576L1484.44 540.559L1458.48 466.529C1458.05 466.596 1457.61 466.598 1457.17 466.533L1452.8 483.79L1433.23 560.914C1433.56 560.993 1433.87 561.097 1434.18 561.226ZM1432.12 560.448L1451.47 484.105L1456.06 466.042C1455.79 465.919 1455.53 465.77 1455.29 465.596C1454.58 465.123 1454.03 464.458 1453.69 463.682L1414.66 472.623L1431.4 560.507C1431.64 560.467 1431.88 560.448 1432.12 560.448ZM1284.09 476.591C1284.32 476.595 1284.54 476.626 1284.76 476.682L1301.55 434.393L1313.15 405.228L1312.77 404.967C1312.21 404.59 1311.75 404.094 1311.41 403.515C1311.07 402.936 1310.87 402.288 1310.82 401.621L1282.24 400.322L1284.09 476.591ZM1280.93 400.275L1206.86 396.854C1206.74 397.501 1206.49 398.115 1206.12 398.657L1205.9 398.915L1280.95 477.439C1281.53 477.003 1282.22 476.719 1282.94 476.616L1280.93 400.275ZM1302.41 435.423L1285.85 477.144L1286.24 477.379C1286.76 477.739 1287.21 478.21 1287.54 478.758L1351.83 450.431L1317.62 405.213C1316.6 405.795 1315.38 405.957 1314.24 405.665L1302.41 435.423ZM1371.07 480.314C1371.17 479.618 1371.43 478.956 1371.83 478.382C1372 478.112 1372.21 477.868 1372.45 477.658L1352.51 451.437L1287.92 479.802C1287.99 480.029 1288.03 480.263 1288.06 480.5L1371.07 480.314ZM1287.84 482.82L1327.98 505.406L1371.3 482.617C1371.18 482.268 1371.09 481.905 1371.03 481.536L1288.15 481.739C1288.07 482.111 1287.94 482.47 1287.77 482.81L1287.84 482.82ZM1373.38 476.976C1373.98 476.654 1374.63 476.467 1375.31 476.429C1375.98 476.39 1376.66 476.5 1377.28 476.752L1403.09 430.684C1402.88 430.271 1402.74 429.829 1402.67 429.373L1353.67 450.944L1373.38 476.976ZM1352.92 449.953L1402.61 428.035C1402.63 427.75 1402.67 427.467 1402.73 427.189L1319.44 403.034C1319.32 403.306 1319.18 403.567 1319.02 403.812C1318.86 404.052 1318.67 404.272 1318.46 404.466L1352.92 449.953ZM1319.85 401.942L1375.17 417.991L1403.24 426.136L1403.26 425.983C1403.53 425.596 1403.86 425.254 1404.24 424.967L1369.89 365.818L1319.3 399.231C1319.73 400.064 1319.9 401.005 1319.8 401.935L1319.85 401.942ZM1378.28 477.332C1378.97 477.845 1379.5 478.542 1379.81 479.342L1413.35 471.687L1406.04 433.019C1405.5 432.878 1405 432.65 1404.53 432.344C1404.28 432.15 1404.04 431.943 1403.81 431.722L1378.28 477.332ZM1414.51 471.428L1453.43 462.549C1453.33 461.757 1453.44 460.953 1453.75 460.217L1410.61 431.504C1410.2 432.002 1409.68 432.405 1409.1 432.686C1408.51 432.966 1407.87 433.117 1407.23 433.129L1414.51 471.428ZM1411.23 430.388L1454.22 459.055C1454.91 458.123 1455.93 457.495 1457.07 457.305L1453.11 392.234L1411.07 426.216C1411.43 426.849 1411.63 427.557 1411.66 428.283C1411.69 429.008 1411.54 429.73 1411.23 430.388ZM1429.59 560.806L1430.17 560.573L1413.42 472.74L1380.12 480.482C1380.25 481.575 1379.98 482.679 1379.36 483.588C1379.15 483.866 1378.91 484.123 1378.65 484.353L1429.59 560.806ZM1428.21 561.846C1428.33 561.703 1428.46 561.573 1428.61 561.456L1377.6 484.94C1376.86 485.315 1376.04 485.484 1375.22 485.431C1374.39 485.378 1373.59 485.104 1372.91 484.638C1372.48 484.325 1372.1 483.947 1371.78 483.518L1329.11 506.084L1428.21 561.846ZM1243.88 552.301L1425.42 561.463L1327.92 506.548L1243.61 551.011C1243.76 551.476 1243.84 551.962 1243.84 552.451L1243.88 552.301ZM1243.04 550.019L1326.7 505.911L1287.2 483.907C1286.58 484.714 1285.72 485.292 1284.73 485.551C1283.75 485.809 1282.71 485.732 1281.78 485.331L1242.24 549.362C1242.53 549.596 1242.78 549.867 1243 550.169L1243.04 550.019ZM1238.86 548.116C1239.66 548.016 1240.48 548.127 1241.22 548.439L1280.75 484.434C1279.85 483.712 1279.27 482.68 1279.1 481.545C1278.94 480.409 1279.21 479.253 1279.86 478.309L1280.05 478.048L1205 399.575C1204.67 399.824 1204.3 400.029 1203.92 400.184L1238.86 548.116ZM1198.54 393.471C1199 392.811 1199.63 392.285 1200.37 391.946L1192.31 366.15L1138.3 386.356C1138.39 386.694 1138.43 387.042 1138.42 387.39L1197.87 394.919C1198.01 394.402 1198.23 393.912 1198.54 393.471ZM1132.63 405.628C1133.44 406.207 1134.05 407.031 1134.35 407.978L1197.73 396.31C1197.73 396.31 1197.75 396.156 1197.76 396.079L1138.29 388.547C1138.16 389.064 1137.94 389.555 1137.65 389.999C1137.22 390.656 1136.63 391.191 1135.93 391.553C1135.24 391.915 1134.46 392.092 1133.68 392.067L1131.39 405.171C1131.82 405.25 1132.25 405.396 1132.64 405.603L1132.63 405.628ZM1127.77 405.433C1128.51 404.994 1129.37 404.784 1130.23 404.83L1132.52 391.751C1132.07 391.61 1131.65 391.403 1131.27 391.137C1130.3 390.456 1129.64 389.43 1129.41 388.272L1115.58 389.226L1127.77 405.433ZM1130.11 384.87C1130.16 384.793 1130.21 384.721 1130.27 384.657L1051.66 304.471L1114.74 388.119L1129.34 387.113C1129.37 386.272 1129.65 385.459 1130.13 384.768L1130.11 384.87ZM1077.76 329.497L1131.12 383.782C1131.8 383.272 1132.6 382.965 1133.44 382.898L1136.42 297.424L1050.29 298.228C1050.2 298.965 1049.93 299.67 1049.51 300.288L1049.33 300.497L1077.76 329.497ZM1069.08 392.918L1125.83 407.752C1125.96 407.436 1126.13 407.135 1126.32 406.853C1126.49 406.617 1126.67 406.398 1126.88 406.199L1114.24 389.435L1069.1 392.607C1069.1 392.607 1069.06 392.706 1069.05 392.808L1069.08 392.918ZM1064.24 387.792C1065.27 387.733 1066.29 388.019 1067.14 388.606C1067.63 388.936 1068.04 389.359 1068.37 389.851C1068.69 390.344 1068.91 390.895 1069.02 391.474L1113.4 388.354L1048.04 301.73C1047.79 301.877 1047.53 301.998 1047.25 302.093L1064.24 387.792ZM1046.07 302.14C1045.02 302.229 1043.97 301.952 1043.1 301.357C1042.23 300.763 1041.59 299.886 1041.29 298.876L1028.55 300.657L1062.62 386.108L1046.07 302.14ZM1005.91 239.637C1005.84 239.78 1005.74 239.908 1005.62 240.016L1043.63 293.584C1044.2 293.271 1044.83 293.09 1045.48 293.054L1049.49 231.657L1006.73 236.721C1006.81 237.777 1006.52 238.829 1005.9 239.688L1005.91 239.637ZM1042.05 295.038C1042.24 294.771 1042.46 294.521 1042.7 294.292L1004.86 241.008L1028.23 299.518L1041.27 297.698C1041.25 296.753 1041.52 295.825 1042.05 295.038ZM1062.04 388.43L1062.32 388.26L1027.46 300.795L994.261 305.497C994.268 306.444 993.987 307.37 993.453 308.153C993.351 308.313 993.234 308.463 993.104 308.601L1062.04 388.43ZM991.116 301.151C991.543 301.285 991.948 301.481 992.318 301.733C993.192 302.349 993.827 303.247 994.114 304.276L1026.98 299.686L1003.58 241.355C1003.08 241.541 1002.56 241.637 1002.03 241.638L991.116 301.151ZM998.425 234.515C998.746 234.051 999.147 233.646 999.608 233.32L980.626 195.458L967.271 197.521L966.851 207.67C967.819 207.833 968.708 208.307 969.383 209.02C970.057 209.734 970.479 210.648 970.586 211.622C970.692 212.597 970.477 213.58 969.972 214.421C969.468 215.263 968.702 215.916 967.791 216.282L998.806 234.02L998.425 234.515ZM965.968 197.682L943.675 201.055C943.658 201.27 943.629 201.484 943.587 201.696L962.2 209.749C962.569 209.143 963.077 208.634 963.683 208.262C964.288 207.891 964.973 207.669 965.682 207.615L965.968 197.682ZM961.455 212.519C961.429 211.954 961.506 211.39 961.683 210.853L946.879 204.391L961.427 212.724C961.451 212.658 961.46 212.588 961.455 212.519ZM942.799 198.664C943.062 199.039 943.262 199.454 943.389 199.894L965.924 196.475L967.106 173.874C966.664 173.735 966.242 173.537 965.853 173.285L950.465 190.211L942.799 198.664ZM968.133 174.015L967.215 196.208L980.084 194.261L969.813 173.775C969.275 173.968 968.703 174.05 968.133 174.015ZM895.373 252.557L961.454 214.058L943.023 203.524L942.985 203.806C942.361 204.703 941.434 205.344 940.374 205.611C939.314 205.879 938.192 205.755 937.216 205.262L895.192 252.349L895.373 252.557ZM806.11 280.472L825.184 274.831L887.415 256.454C887.365 256.216 887.329 255.976 887.304 255.734C887.239 255.017 887.348 254.294 887.621 253.628C887.894 252.961 888.324 252.369 888.874 251.903L864.176 217.984L805.658 279.574C805.845 279.853 805.997 280.155 806.11 280.472ZM804.996 278.675L863.405 217.122L827.211 167.274C826.659 167.583 826.044 167.766 825.412 167.811L824.771 167.723L803.852 277.866C804.236 278.078 804.587 278.346 804.894 278.661L804.996 278.675ZM780.369 159.354L704.893 151.643C704.711 152.465 704.29 153.215 703.683 153.801L755.914 221.165L821.326 165.764C820.918 165.141 820.674 164.425 820.617 163.683C820.617 163.596 820.628 163.51 820.652 163.427L780.369 159.354ZM816.242 161.832L714.615 137.91L704.116 147.96C704.615 148.624 704.915 149.417 704.98 150.245C704.98 150.332 704.968 150.418 704.945 150.501L816.242 161.832ZM824.737 158.791C825.792 158.704 826.844 158.986 827.713 159.589L836.329 150.117L755.618 106.32L821.902 160.022C822.647 159.312 823.609 158.873 824.634 158.777L824.737 158.791ZM828.572 160.385C829.196 161.099 829.577 161.992 829.661 162.936C829.643 163.264 829.599 163.589 829.528 163.91L892.475 180.636L837.297 150.693L828.572 160.385ZM799.858 277.816C800.342 277.579 800.868 277.438 801.405 277.401C801.867 277.374 802.329 277.437 802.766 277.587L823.697 167.733C823.09 167.527 822.53 167.202 822.05 166.777L756.572 222.09L799.858 277.816ZM734.46 243.447C734.536 244.143 734.439 244.847 734.18 245.497L798.149 279.226C798.366 278.948 798.611 278.693 798.881 278.465L755.72 222.966L733.778 241.553C734.109 242.129 734.307 242.771 734.358 243.433L734.46 243.447ZM733.04 240.642L755.011 222.033L702.754 154.665L702.363 154.847L711.613 184.147L729.116 239.506L729.527 239.562C730.751 239.419 731.982 239.765 732.951 240.526L733.04 240.642ZM646.642 189.672L669.274 204.279L697.708 154.471C697.439 154.262 697.191 154.027 696.968 153.77L646.521 185.583C646.753 186.06 646.896 186.575 646.941 187.102C647.025 187.905 646.896 188.716 646.568 189.453L646.642 189.672ZM670.26 204.909L726.387 241.299C726.817 240.774 727.357 240.349 727.97 240.054L710.379 184.37L701.264 155.428L700.879 155.375C700.165 155.434 699.447 155.336 698.775 155.087L670.26 204.909ZM627.928 285.028L727.384 289.075L729.058 248.347C728.402 248.234 727.78 247.977 727.236 247.596C726.691 247.215 726.238 246.718 725.908 246.141L627.82 284.1C627.804 284.332 627.773 284.563 627.725 284.791L627.928 285.028ZM627.43 283.315L725.587 245.236C725.516 244.983 725.473 244.723 725.458 244.461C725.353 243.687 725.461 242.898 725.77 242.18L669.651 205.922L626.257 281.954C626.667 282.271 627.021 282.655 627.304 283.089L627.43 283.315ZM577.879 330L578.315 330.059C579.37 329.973 580.422 330.255 581.291 330.858L619.804 288.224C619.311 287.643 618.973 286.947 618.819 286.201C618.665 285.454 618.701 284.682 618.924 283.953L556.592 257.757C556.14 258.538 555.462 259.164 554.647 259.553L577.879 330ZM462.007 289.408L432.048 264.715L407.915 296.263C408.509 296.792 408.957 297.465 409.216 298.216L460.468 292.826C460.468 292.18 460.606 291.541 460.871 290.952C461.136 290.363 461.524 289.837 462.007 289.408ZM463.04 288.74C463.523 288.495 464.05 288.345 464.59 288.299C464.911 288.305 465.23 288.348 465.54 288.429L456.007 237.111C455.125 237.175 454.243 236.982 453.469 236.555L432.675 263.757L463.04 288.74ZM469.431 293.817L533.446 317.267L550.823 259.605C549.977 259.231 549.268 258.605 548.793 257.813L496.163 280.74L469.473 292.361C469.478 292.413 469.47 292.465 469.452 292.514C469.498 292.93 469.494 293.35 469.438 293.765L469.431 293.817ZM548.328 256.627C548.255 256.344 548.198 256.057 548.157 255.768C548.171 255.484 548.209 255.201 548.273 254.923L492.962 242.008L468.911 290.352C469.067 290.6 469.197 290.863 469.301 291.136L548.328 256.627ZM491.696 241.704L459.976 234.286C459.735 234.91 459.356 235.471 458.868 235.929C458.38 236.386 457.795 236.728 457.157 236.928L466.791 288.652C467.219 288.837 467.617 289.085 467.971 289.388L491.696 241.704ZM458.894 229.387L522.262 176.5C522.051 176.167 521.88 175.811 521.753 175.438L476.652 183.654L458.073 228.7C458.37 228.882 458.648 229.095 458.901 229.336L458.894 229.387ZM459.629 230.323C459.995 230.919 460.216 231.593 460.275 232.291C460.271 232.602 460.228 232.912 460.149 233.213L492.126 240.666L523.384 177.854L522.843 177.415L459.629 230.323ZM493.392 240.97L548.438 253.718C548.848 252.622 549.674 251.732 550.738 251.24L540.815 220.934L526.883 178.463L526.446 178.403C525.811 178.46 525.17 178.372 524.573 178.147L493.392 240.97ZM542.081 221.237L551.846 250.974L552.274 250.902C552.941 250.84 553.613 250.928 554.242 251.158C554.871 251.389 555.44 251.756 555.909 252.234L578.71 235.017L528.561 177.857L527.966 178.194L542.081 221.237ZM556.618 253.166C556.938 253.738 557.136 254.37 557.201 255.021C557.232 255.56 557.158 256.099 556.984 256.61L619.339 282.835C619.511 282.555 619.713 282.294 619.942 282.056L579.528 235.729L556.618 253.166ZM576.75 330.42L553.532 259.871L553.095 259.811C552.714 259.798 552.336 259.746 551.966 259.657L534.568 317.473L574.731 332.18C575.214 331.391 575.919 330.762 576.757 330.368L576.75 330.42ZM509.423 404.223L575.085 337.24C574.535 336.552 574.203 335.716 574.132 334.839C574.132 334.371 574.196 333.906 574.321 333.455L534.181 318.777L508.606 403.693C508.9 403.834 509.175 404.012 509.423 404.223ZM506.307 403.301C506.688 403.314 507.066 403.366 507.436 403.455L533.021 318.462L468.929 295.001C468.51 295.836 467.83 296.512 466.992 296.929L505.704 403.505L506.307 403.301ZM504.045 404.166L504.617 403.801L465.906 297.224L465.317 297.326L464.624 297.231L453.97 350.853L504.045 404.166ZM455.113 363.722C455.199 364.658 454.989 365.598 454.51 366.407L501.079 402.716L453.774 352.289L452.261 359.913C453.058 360.213 453.754 360.73 454.272 361.405C454.789 362.08 455.107 362.887 455.19 363.733L455.113 363.722ZM463.479 296.997C462.784 296.767 462.154 296.373 461.643 295.849C461.132 295.325 460.756 294.685 460.545 293.985L409.374 299.36C409.438 300.502 409.069 301.626 408.342 302.508L452.883 349.817L463.479 296.997ZM448.484 359.997C449.016 359.717 449.6 359.548 450.199 359.5C450.443 359.495 450.685 359.529 450.918 359.599L452.588 351.213L410.182 306.258L448.484 359.997ZM299.37 387.741L446.085 364.158C446.062 363.508 446.18 362.861 446.429 362.26C446.678 361.66 447.053 361.119 447.529 360.675L406.971 303.548C406.082 304.011 405.064 304.168 404.076 303.995C403.088 303.822 402.185 303.329 401.506 302.592L298.569 386.143C298.976 386.645 299.27 387.228 299.433 387.854L299.37 387.741ZM400.826 301.637L400.585 301.108L327.203 324.356L300.582 332.801C300.576 332.931 300.558 333.059 300.529 333.185C300.642 334.371 300.28 335.552 299.522 336.471C298.764 337.39 297.673 337.971 296.486 338.088L295.175 384.191C296.145 384.257 297.067 384.64 297.798 385.281L400.826 301.637ZM400.826 297.434L333.927 257.405L298.674 329.93C299.379 330.389 299.943 331.036 300.301 331.797L355.236 314.38L371.361 309.276L400.398 299.986C400.308 299.108 400.484 298.223 400.903 297.445L400.826 297.434ZM204.243 214.95L129.854 202.167C129.854 202.167 129.833 202.321 129.822 202.398L189.354 234.163C189.832 233.483 190.488 232.948 191.25 232.616C192.013 232.284 192.852 232.169 193.677 232.281C194.501 232.394 195.278 232.731 195.924 233.255C196.569 233.78 197.058 234.471 197.336 235.254L204.243 214.95ZM198.358 235.812L282.465 228.388L205.458 215.247L198.358 235.812ZM247.27 361.482L261.992 353.053L222.615 308.513C222.36 308.689 222.086 308.836 221.797 308.949L242.519 359.318L243.002 359.227C243.846 359.151 244.694 359.312 245.451 359.692C246.207 360.073 246.842 360.657 247.284 361.379L247.27 361.482ZM235.626 417.944L326.115 444.545C326.259 444.25 326.429 443.967 326.622 443.701L246.401 367.262C245.699 367.835 244.841 368.181 243.938 368.257C243.773 368.259 243.608 368.237 243.45 368.19L235.626 417.944ZM247.612 365.287L291.068 386.501C291.142 386.356 291.231 386.219 291.333 386.093L262.711 353.726L247.664 362.423C247.755 362.71 247.811 363.007 247.83 363.307C247.925 363.956 247.87 364.618 247.67 365.243L247.612 365.287ZM126.221 418.019C125.554 417.938 124.914 417.714 124.343 417.361C123.773 417.008 123.287 416.535 122.918 415.975L92.7608 430.202L123.155 480.014C123.545 479.849 123.956 479.738 124.376 479.685L126.221 418.019ZM125.96 465.622L130.615 415.905C130.268 416.479 129.8 416.971 129.243 417.346C128.685 417.72 128.053 417.969 127.39 418.074L125.96 465.622ZM126.355 409.005C126.606 409.012 126.856 409.046 127.099 409.107L135.825 356.579C134.743 356.251 133.817 355.539 133.223 354.578L106.343 366.251L125.565 409.236C125.819 409.13 126.084 409.052 126.355 409.005ZM128.254 409.265C128.873 409.483 129.436 409.832 129.907 410.288C130.377 410.745 130.742 411.297 130.978 411.908L135.045 368.401L128.254 409.265ZM125.835 479.728C126.383 479.824 126.906 480.028 127.374 480.33L189.624 409.043C188.986 408.311 188.59 407.4 188.49 406.434C188.406 405.331 188.723 404.234 189.383 403.346L139.967 355.735C139.269 356.29 138.423 356.629 137.533 356.708L137.302 356.676L125.835 479.728ZM214.518 522.397L162.272 500.451L152.836 528.919C153.427 529.204 153.947 529.615 154.361 530.123C154.775 530.63 155.072 531.222 155.232 531.857L214.398 523.659C214.369 523.226 214.411 522.791 214.522 522.371L214.518 522.397ZM161.211 499.993L128.914 486.466C128.568 487.046 128.098 487.543 127.538 487.922L149.278 528.746C149.661 528.603 150.061 528.509 150.467 528.464C150.891 528.484 151.311 528.541 151.725 528.636L161.211 499.993ZM129.443 483.745C129.458 484.292 129.384 484.837 129.222 485.359L161.365 498.865L190.843 410.071L190.309 409.763L128.297 481.03C129.004 481.773 129.435 482.735 129.52 483.755L129.443 483.745ZM204.607 360.085L141.464 353.199C141.337 353.791 141.073 354.344 140.694 354.817L190.107 402.453C190.812 401.893 191.668 401.555 192.566 401.484C192.887 401.489 193.205 401.533 193.516 401.614L204.607 360.085ZM194.667 401.797C195.16 402.01 195.614 402.301 196.013 402.66L239.517 366.164C239.119 365.546 238.875 364.841 238.805 364.109C238.805 364.109 238.833 363.904 238.847 363.802L205.817 360.224L194.667 401.797ZM140.756 349.396L215.915 306.265C215.742 305.832 215.628 305.377 215.577 304.914C215.529 304.316 215.6 303.714 215.786 303.144C215.971 302.574 216.268 302.045 216.659 301.59L181.046 262.602L139.521 348.287C140.001 348.573 140.42 348.95 140.756 349.396ZM217.651 300.838L217.997 300.598L194.123 241.158C193.889 241.235 193.645 241.281 193.398 241.294C192.781 241.327 192.162 241.242 191.576 241.045L181.698 261.464L217.651 300.838ZM216.768 307.296L141.322 350.413C141.508 350.833 141.623 351.281 141.664 351.739C141.664 351.739 141.636 351.944 141.622 352.046L204.922 358.927L218.326 308.709C217.606 308.391 216.981 307.892 216.511 307.26L216.768 307.296ZM206.414 359.105L239.261 362.684C239.418 362.041 239.713 361.441 240.127 360.924C240.541 360.408 241.063 359.989 241.657 359.696L220.691 309.007L220.511 308.982C220.181 309.019 219.848 309.017 219.518 308.977L206.414 359.105ZM240.593 367.095L196.858 403.558C197.253 404.175 197.489 404.88 197.545 405.61C197.545 405.983 197.495 406.353 197.394 406.712L234.445 417.6L242.057 368.052C241.421 367.844 240.835 367.506 240.336 367.059L240.593 367.095ZM197.174 407.935C196.926 408.499 196.564 409.006 196.111 409.425C195.658 409.843 195.123 410.164 194.541 410.368L218.453 518.862L218.94 518.929L234.295 418.885L197.174 407.935ZM193.407 410.631C192.99 410.638 192.574 410.581 192.175 410.462L162.661 499.33L214.907 521.275C215.428 520.294 216.284 519.531 217.319 519.125L193.407 410.631ZM214.907 525.478L84.3849 567.929C84.3772 568.067 84.3585 568.204 84.3289 568.339C84.334 568.391 84.3268 568.443 84.3078 568.492L181.817 575.875L215.725 526.764C215.385 526.382 215.109 525.948 214.907 525.478ZM212.341 525.127L155.287 532.987C155.277 533.939 154.968 534.864 154.401 535.629C153.835 536.395 153.041 536.963 152.133 537.252C151.225 537.542 150.248 537.537 149.342 537.241C148.436 536.944 147.646 536.369 147.086 535.598L87.0721 565.868L212.341 525.127ZM148.117 529.396L126.475 488.429C126.13 488.566 125.766 488.648 125.396 488.673C124.716 488.737 124.031 488.644 123.394 488.4L111.633 510.546L147.21 530.29C147.492 529.906 147.838 529.573 148.234 529.308L148.117 529.396ZM122.372 487.842C121.835 487.464 121.387 486.975 121.058 486.407C120.73 485.839 120.528 485.207 120.469 484.554C120.504 484.298 120.539 484.041 120.57 483.811L28.0132 463.923L27.9922 464.076L110.611 509.988L122.372 487.842ZM28.276 462.001C28.241 462.257 28.2059 462.513 28.1709 462.77L120.753 482.661C121.026 481.856 121.522 481.145 122.184 480.612L91.8005 430.723L27.918 460.986C28.0843 461.306 28.2048 461.648 28.276 462.001ZM92.3701 429.235L122.564 414.934C122.456 414.612 122.387 414.279 122.36 413.941C122.313 413.332 122.396 412.72 122.605 412.147L68.0275 386.411C67.7569 386.823 67.4243 387.191 67.0415 387.503L92.3701 429.235ZM68.5518 383.533C68.5864 384.141 68.5031 384.75 68.3065 385.326L122.91 411.066C123.302 410.452 123.838 409.943 124.472 409.583L105.269 366.653L68.3781 382.7C68.4512 382.974 68.5092 383.252 68.5518 383.533ZM105.867 365.142L132.776 353.447C132.691 353.167 132.634 352.879 132.606 352.588C132.542 351.901 132.637 351.209 132.883 350.564L91.0905 327.699C90.7311 328.178 90.2851 328.586 89.7755 328.902L105.867 365.142ZM91.826 324.614C91.9003 325.31 91.8041 326.014 91.5457 326.664L131.043 348.146L90.4693 316.754L89.1981 320.888C89.9254 321.224 90.5512 321.745 91.0126 322.399C91.4739 323.054 91.7545 323.818 91.826 324.614ZM133.942 348.934C134.561 348.314 135.346 347.886 136.202 347.703L125.38 205.628L125.082 205.326L124.748 205.28L90.8498 315.501L133.942 348.934ZM137.389 347.63C137.789 347.619 138.187 347.674 138.57 347.791L180.289 261.637L128.179 204.47C127.687 204.826 127.128 205.078 126.535 205.211L137.389 347.63ZM180.828 260.562L190.518 240.561C189.923 240.196 189.42 239.7 189.047 239.11C188.674 238.521 188.442 237.854 188.368 237.16C188.304 236.482 188.398 235.798 188.642 235.162L172.002 226.256L129.114 203.371C129.055 203.476 128.98 203.571 128.892 203.654L180.828 260.562ZM195.244 240.607L218.994 300.004L219.744 299.871C220.862 299.774 221.976 300.103 222.86 300.793L239.811 281.419L195.891 240.277C195.682 240.4 195.466 240.51 195.244 240.607ZM223.689 301.612C224.113 302.148 224.409 302.773 224.558 303.439C224.707 304.106 224.704 304.797 224.548 305.462L292.221 331.423C292.302 331.243 292.405 331.073 292.525 330.916L240.652 282.344L223.689 301.612ZM291.687 333.986C291.664 333.491 291.731 332.996 291.887 332.526L224.106 306.785C224.075 307.016 223.816 307.189 223.656 307.402L263.166 352.118L292.128 335.352C291.913 334.965 291.759 334.548 291.669 334.114L291.687 333.986ZM263.853 353.021L292.225 385.119C292.804 384.688 293.469 384.388 294.175 384.237L295.497 338.057C294.345 337.871 293.307 337.253 292.595 336.329L263.853 353.021ZM327.422 442.636L296.867 392.854C296.409 393.051 295.925 393.179 295.429 393.232C294.23 393.333 293.039 392.957 292.116 392.185C291.193 391.414 290.613 390.309 290.502 389.112C290.475 388.548 290.553 387.983 290.73 387.446L247.226 366.2L327.451 442.614L327.422 442.636ZM222.394 520.446L326.099 448.485C325.826 447.962 325.664 447.389 325.623 446.801C325.609 446.437 325.658 446.072 325.77 445.725L235.465 419.123L220.132 519.014C221.013 519.253 221.801 519.752 222.394 520.446ZM240.806 576.998L220.032 527.771L219.337 527.885C218.511 527.966 217.679 527.807 216.942 527.427L183.393 576.012L238.309 580.155C238.438 579.479 238.722 578.841 239.137 578.291C239.552 577.742 240.088 577.295 240.703 576.984L240.806 576.998ZM116.597 673.277L238.922 583.319C238.538 582.718 238.308 582.032 238.254 581.322L182.612 577.132L116.365 673.063L116.597 673.277ZM112.541 671.965L112.9 672.015C113.771 671.881 114.663 672.003 115.467 672.365L181.355 576.961L84.4581 569.688C84.3122 570.383 84.005 571.035 83.5612 571.591C83.1175 572.147 82.5494 572.591 81.9026 572.888L112.541 671.965ZM83.7552 566.224L146.478 534.497C146.343 534.135 146.263 533.754 146.24 533.368C146.167 532.664 146.265 531.952 146.524 531.293L111.071 511.591L82.6237 565.13C83.0651 565.422 83.4487 565.793 83.7552 566.224ZM78.418 564.528C78.8212 564.358 79.2417 564.232 79.6722 564.152C80.3513 564.101 81.0337 564.194 81.6742 564.425L110.122 510.887L27.2547 465.072C26.9671 465.459 26.6207 465.8 26.2278 466.08L78.418 564.528ZM62.4774 388.184L26.1229 458.626C26.6117 458.976 27.0307 459.414 27.3582 459.918L91.1789 429.724L65.8654 388.073C65.4121 388.282 64.9256 388.409 64.428 388.45C63.7659 388.516 63.0975 388.425 62.4774 388.184ZM66.2144 379.976C66.92 380.352 67.5042 380.921 67.8988 381.616L104.815 365.572L88.6064 329.421C88.3084 329.503 88.0033 329.558 87.6952 329.584C87.1908 329.606 86.6865 329.537 86.2066 329.38L66.2144 379.976ZM84.4613 321.493C85.1627 320.92 86.0214 320.574 86.9243 320.498C87.3049 320.513 87.6832 320.565 88.0537 320.653L89.4614 316.094L34.0329 273.066L84.4613 321.493ZM29.6283 268.182L89.849 314.79L123.57 204.91C122.96 204.636 122.417 204.232 121.98 203.727L29.7924 263.924C30.0418 264.414 30.1908 264.949 30.2308 265.498C30.3156 266.433 30.105 267.372 29.6283 268.182ZM29.1742 262.899L121.439 202.713C121.229 202.284 121.089 201.824 121.023 201.351L52.6541 201.712L27.9517 261.897C28.4235 262.163 28.8369 262.522 29.1672 262.951L29.1742 262.899ZM12.5597 205.627L25.2778 261.375C25.8086 261.344 26.3404 261.416 26.8434 261.589L51.3579 201.822L15.4431 202.131C15.3074 202.914 14.9703 203.647 14.4648 204.26C13.9592 204.873 13.3027 205.344 12.5597 205.627ZM69.8726 154L14.8264 198.993C15.1752 199.531 15.3958 200.142 15.4713 200.778L51.8738 200.535L70.7335 154.587C70.4282 154.42 70.1399 154.223 69.8726 154ZM73.3678 155.209C72.8461 155.228 72.325 155.157 71.8278 154.998L53.1595 200.502L120.192 200.167L75.5823 154.311C74.9419 154.809 74.1752 155.12 73.3678 155.209ZM77.398 151.74C77.2359 152.39 76.9389 152.998 76.5262 153.526L121.137 199.565C121.383 198.689 121.888 197.906 122.586 197.321C123.285 196.735 124.144 196.374 125.051 196.284C125.959 196.194 126.873 196.379 127.674 196.815C128.474 197.252 129.124 197.919 129.539 198.731L218.886 166.572L77.398 151.74ZM129.938 199.829C129.988 200.022 130.023 200.219 130.041 200.418C130.028 200.607 130.002 200.795 129.964 200.981L204.533 213.789L220.476 167.181L129.938 199.829ZM221.737 167.328L205.784 214.012L282.611 227.129C282.764 226.648 282.993 226.194 283.292 225.786L221.737 167.328ZM282.491 229.54L197.625 236.964C197.591 237.862 197.29 238.73 196.761 239.457L240.558 280.738L283.511 231.638C282.995 231.039 282.643 230.316 282.491 229.54ZM284.399 232.412L241.427 281.458L293.287 330.316C293.84 329.858 294.493 329.536 295.194 329.376L286.723 233.199C285.932 233.117 285.178 232.824 284.538 232.352L284.399 232.412ZM287.891 233.072L296.361 329.248C296.787 329.241 297.211 329.299 297.619 329.42L332.909 256.822L290.5 231.392C289.847 232.212 288.928 232.779 287.901 232.995L287.891 233.072ZM355.175 206.041L291.378 227.649L291.465 228.157C291.533 228.905 291.43 229.659 291.164 230.361L333.477 255.725L356.801 207.725C356.113 207.295 355.554 206.686 355.185 205.964L355.175 206.041ZM359.641 208.557C359.015 208.589 358.388 208.503 357.794 208.305L334.43 256.404L401.561 296.647C401.842 296.322 402.172 296.042 402.537 295.815L394.891 279.838L360.666 208.332C360.333 208.409 359.993 208.459 359.652 208.48L359.641 208.557ZM361.7 207.847L395.604 278.448L403.768 295.226C404.057 295.13 404.355 295.066 404.657 295.035C405.537 294.942 406.425 295.118 407.203 295.539L431.401 263.896L362.626 207.19C362.338 207.41 362.032 207.604 361.71 207.77L361.7 207.847ZM363.068 206.442L431.986 263.062L452.747 235.908C451.967 235.166 451.473 234.175 451.352 233.107C451.359 232.769 451.405 232.434 451.488 232.107L363.56 205.908C363.421 206.082 363.26 206.236 363.079 206.365L363.068 206.442ZM363.717 204.755L451.646 230.954C451.961 230.194 452.48 229.535 453.146 229.051C453.812 228.566 454.599 228.274 455.421 228.207C455.952 228.176 456.483 228.249 456.986 228.421L475.306 183.94L363.842 204.224C363.814 204.378 363.776 204.53 363.728 204.678L363.717 204.755ZM510.878 94.3607L366.082 202.756L475.724 182.796L511.872 95.1231C511.503 94.8509 511.178 94.5248 510.906 94.1557L510.878 94.3607ZM512.963 95.5593L477.014 182.346L521.391 174.266C521.337 173.245 521.627 172.234 522.216 171.397C522.804 170.559 523.657 169.943 524.637 169.646L514.043 95.4983C513.688 95.4878 513.336 95.4396 512.991 95.3544L512.963 95.5593ZM517.363 94.3599C516.814 94.943 516.114 95.3623 515.34 95.5713L525.935 169.719C527.098 169.683 528.23 170.095 529.097 170.87C529.965 171.645 530.501 172.722 530.595 173.88C530.593 173.984 530.579 174.088 530.553 174.188L638.065 186.619C638.169 186.221 638.326 185.838 638.534 185.483L517.363 94.3599ZM637.888 188.109C637.905 187.981 637.919 187.879 637.933 187.776L530.421 175.345C530.244 176.047 529.904 176.698 529.429 177.245L579.727 234.269L638.605 189.747C638.251 189.19 638.025 188.562 637.941 187.908L637.888 188.109ZM639.18 190.896L580.364 235.348L620.902 281.535C621.484 281.182 622.139 280.967 622.818 280.91C623.137 280.928 623.455 280.971 623.767 281.039L640.986 192.031C640.3 191.727 639.699 191.26 639.237 190.669L639.18 190.896ZM642.812 192.254C642.586 192.249 642.363 192.219 642.144 192.163L624.926 281.172L625.183 281.207L668.577 205.175L645.859 190.426C645.103 191.32 644.033 191.893 642.869 192.027L642.812 192.254ZM690.958 135.771C690.535 135.944 690.088 136.05 689.633 136.086C688.64 136.175 687.644 135.938 686.797 135.411L645.739 184.615L645.897 184.793L696.253 152.497C696.038 152.017 695.905 151.505 695.859 150.982C695.79 150.217 695.917 149.448 696.228 148.746C696.539 148.044 697.023 147.433 697.636 146.97L690.958 135.771ZM691.98 135.18L698.568 146.653C699.002 146.49 699.456 146.385 699.918 146.342C701.085 146.24 702.246 146.595 703.156 147.333L713.087 137.806L693.455 133.189C693.144 133.891 692.656 134.499 692.037 134.953L691.98 135.18ZM746.409 105.217L693.607 129.973C693.703 130.298 693.771 130.631 693.811 130.967C693.772 131.249 693.734 131.531 693.699 131.787L713.958 136.594L746.48 105.461L746.409 105.217ZM750.62 107.307C749.454 107.396 748.298 107.042 747.383 106.316L715.517 136.859L820.784 161.696C820.88 161.431 821.002 161.177 821.149 160.937L753.455 106.076C752.706 106.779 751.746 107.216 750.723 107.321L750.62 107.307ZM858.29 122.031C858.289 121.849 858.314 121.668 858.363 121.493L754.666 104.101C754.666 104.214 754.65 104.326 754.621 104.434L837.13 149.235L859.533 124.602C858.887 123.894 858.487 122.997 858.392 122.045L858.29 122.031ZM864.512 125.857C864.095 126.019 863.658 126.126 863.213 126.176C862.15 126.263 861.089 125.98 860.212 125.374L837.998 149.771L893.107 179.652C893.376 179.19 893.724 178.778 894.136 178.436L864.512 125.857ZM892.376 182.319L892.439 181.858L829.194 165.013C828.959 165.613 828.59 166.152 828.116 166.588L864.216 216.162L893.723 185.088C892.997 184.344 892.557 183.369 892.478 182.333L892.376 182.319ZM896.108 186.38C895.565 186.277 895.044 186.082 894.566 185.803L864.845 217.11L889.697 251.233C890.195 251 890.727 250.852 891.274 250.795L891.864 250.876L896.108 186.38ZM900.792 184.253C900.423 184.859 899.914 185.369 899.309 185.74C898.704 186.111 898.018 186.333 897.31 186.388L893.084 250.939C893.498 251.083 893.893 251.277 894.26 251.517L936.039 204.501C935.297 203.846 934.789 202.967 934.591 201.998C934.394 201.029 934.517 200.023 934.944 199.13L900.792 184.253ZM901.529 182.109L901.427 181.521C901.454 182.085 901.377 182.65 901.199 183.187L935.686 198.292C936.416 197.445 937.434 196.897 938.544 196.755C939.655 196.613 940.779 196.886 941.7 197.522L942.057 197.78L949.847 189.187L964.712 172.451C964.568 172.252 964.44 172.042 964.327 171.824C964.193 171.639 964.079 171.44 963.99 171.23L901.529 182.109ZM1048.76 183.657L972.586 170.891C972.444 171.343 972.235 171.772 971.968 172.164C971.645 172.635 971.235 173.04 970.759 173.356L981.197 194.152L1048.77 183.92C1048.77 183.92 1048.87 183.751 1048.86 183.671L1048.76 183.657ZM1048.93 185.064L981.753 195.247L1000.57 232.799C1001.25 232.557 1001.98 232.482 1002.69 232.58C1003.4 232.678 1004.08 232.945 1004.67 233.36L1049.47 186.261C1049.27 185.889 1049.12 185.491 1049.03 185.078L1048.93 185.064ZM1052.22 188.125C1051.69 187.996 1051.19 187.769 1050.75 187.453L1050.25 187.072L1005.66 234.174C1006.02 234.59 1006.29 235.07 1006.46 235.588L1049.56 230.519L1052.22 188.125ZM1117.33 211.412L1057.45 185.681C1057.34 185.901 1057.22 186.112 1057.07 186.308C1056.66 186.906 1056.11 187.396 1055.47 187.736C1054.83 188.075 1054.11 188.254 1053.38 188.257L1050.65 230.25L1135.56 220.404C1135.59 220.082 1135.68 219.768 1135.81 219.473L1117.33 211.412ZM1135.44 221.432L1050.73 231.566L1046.69 293.193C1047.31 293.307 1047.9 293.548 1048.43 293.9L1048.94 294.336L1135.9 222.878C1135.71 222.457 1135.58 222.008 1135.53 221.549L1135.44 221.432ZM1138.85 225.37C1138.32 225.243 1137.82 225.024 1137.37 224.724C1136.99 224.461 1136.66 224.142 1136.38 223.779L1049.54 295.123C1049.88 295.666 1050.1 296.274 1050.19 296.908L1136.46 296.228L1138.85 225.37ZM1141.07 225.387C1140.72 225.474 1140.37 225.522 1140.01 225.528L1137.55 296.064L1166.35 295.774C1166.44 295.066 1166.72 294.394 1167.14 293.82C1167.53 293.236 1168.05 292.753 1168.67 292.41L1141.07 225.387ZM1168.37 300.148C1167.84 299.781 1167.4 299.308 1167.07 298.759C1166.74 298.21 1166.53 297.598 1166.45 296.962L1137.52 297.235L1134.62 382.876L1135.03 382.933L1146.78 354.415L1168.87 300.478L1168.37 300.148ZM1171.95 301.082C1171.28 301.216 1170.58 301.193 1169.92 301.013L1147.69 355.192L1136.12 383.42L1136.48 383.627C1137.08 384.039 1137.57 384.589 1137.91 385.231L1191.97 365.007L1171.95 301.082ZM1193.09 364.664L1275.48 333.826C1275.38 333.248 1275.39 332.655 1275.51 332.081L1175.23 298.528C1175.12 298.768 1174.98 298.994 1174.82 299.204C1174.39 299.862 1173.77 300.384 1173.05 300.71L1193.09 364.664ZM1202.02 263.428L1174.54 293.605C1174.97 294.113 1175.29 294.709 1175.46 295.351C1175.63 295.993 1175.67 296.664 1175.55 297.319L1275.9 330.96C1275.98 330.771 1276.09 330.592 1276.21 330.427L1202.02 263.428ZM1275.92 334.851L1193.5 365.686L1201.57 391.536C1202.76 391.336 1203.98 391.606 1204.97 392.289C1205.16 392.42 1205.33 392.566 1205.49 392.725L1276.12 335.114C1276.01 335.048 1275.92 334.965 1275.84 334.866L1275.92 334.851ZM1277.44 336.704C1277.17 336.515 1276.92 336.297 1276.7 336.054L1206.23 393.609C1206.62 394.221 1206.85 394.915 1206.92 395.635L1280.92 399.071L1279.33 337.458C1278.63 337.36 1277.96 337.108 1277.36 336.72L1277.44 336.704ZM1281.47 337.255C1281.16 337.36 1280.83 337.429 1280.5 337.462L1282.09 399.076L1310.88 400.402C1310.99 399.762 1311.25 399.155 1311.62 398.624C1311.93 398.175 1312.32 397.786 1312.77 397.476L1281.47 337.255ZM1343.57 327.161C1342.7 326.548 1342.06 325.661 1341.77 324.644L1284.64 332.808C1284.65 333.755 1284.37 334.681 1283.84 335.464C1283.5 335.948 1283.07 336.36 1282.57 336.675L1313.85 396.866C1314.69 396.563 1315.61 396.516 1316.48 396.73L1343.93 327.393L1343.57 327.161ZM1345.04 327.832L1317.6 397.17L1318.01 397.409C1318.31 397.646 1318.58 397.902 1318.85 398.176L1369.49 364.745L1347.8 327.74C1346.89 328.114 1345.88 328.187 1344.92 327.947L1345.04 327.832ZM1444.49 313.971L1350.73 323.546C1350.7 324.439 1350.42 325.306 1349.91 326.045C1349.64 326.424 1349.32 326.758 1348.94 327.035L1370.47 364.096L1444.83 314.956C1444.65 314.679 1444.5 314.387 1444.37 314.085L1444.49 313.971ZM1446.35 316.652C1446.02 316.446 1445.73 316.195 1445.48 315.907L1371.06 365.065L1405.34 424.361C1406.18 424.013 1407.1 423.921 1407.99 424.097L1446.65 317.137C1446.49 317.034 1446.35 316.909 1446.22 316.766L1446.35 316.652ZM1448.61 317.458L1447.95 317.367L1409.32 424.331C1409.5 424.413 1409.67 424.515 1409.82 424.635L1410.37 425.075L1453.11 390.694L1448.61 317.458ZM1449.98 320.49L1454.22 389.879L1460.24 385.013C1459.78 384.259 1459.55 383.388 1459.58 382.507C1459.61 381.626 1459.89 380.772 1460.4 380.048C1460.93 379.269 1461.7 378.679 1462.59 378.364L1449.98 320.49ZM1463.2 387.114C1462.6 386.985 1462.04 386.739 1461.54 386.392C1461.34 386.258 1461.15 386.101 1460.98 385.923L1454.3 391.327L1458.07 453.265L1463.2 387.114ZM1467.71 385.434C1467.31 385.952 1466.81 386.377 1466.23 386.681C1465.65 386.985 1465.01 387.16 1464.36 387.195L1458.93 457.298C1459.53 457.406 1460.09 457.644 1460.59 457.994C1461.17 458.391 1461.64 458.917 1461.98 459.529C1462.32 460.142 1462.51 460.825 1462.54 461.524L1595.68 462.973C1595.74 462.394 1595.9 461.831 1596.17 461.317L1467.71 385.434ZM1595.73 464.154L1462.46 462.688C1462.44 462.885 1462.42 463.082 1462.38 463.277L1534.01 492.39L1559.96 502.961C1560.03 502.835 1560.11 502.715 1560.2 502.601C1560.88 501.617 1561.92 500.941 1563.09 500.72C1564.27 500.5 1565.49 500.753 1566.48 501.424L1597.14 466.696C1596.38 466.068 1595.85 465.218 1595.61 464.269L1595.73 464.154ZM1597.91 467.375L1567.18 502.173C1567.95 503.053 1568.36 504.19 1568.32 505.356L1601.23 510.928L1600 467.949C1599.27 467.965 1598.55 467.813 1597.89 467.504L1597.91 467.375ZM1609.93 401.02L1601.38 459.001C1601.86 459.148 1602.31 459.369 1602.73 459.655C1603.22 459.996 1603.64 460.431 1603.97 460.935C1604.29 461.438 1604.51 462.001 1604.62 462.59C1604.72 463.179 1604.71 463.784 1604.59 464.369C1604.46 464.954 1604.22 465.507 1603.87 465.999C1603.55 466.452 1603.15 466.848 1602.69 467.169L1622.62 511.503L1609.85 401.086L1609.93 401.02ZM1612.04 400.551C1611.74 400.691 1611.42 400.806 1611.1 400.892L1623.87 511.309C1624.77 511.311 1625.65 511.585 1626.38 512.096L1626.78 512.412L1664.64 478.955L1612.04 400.551ZM1740.86 408.404L1614.45 397.435C1614.33 398.019 1614.1 398.572 1613.76 399.063C1613.54 399.365 1613.29 399.646 1613.02 399.901L1665.55 478.219L1741.66 410.967C1741.15 410.253 1740.87 409.406 1740.84 408.532L1740.86 408.404ZM1742.81 412.091L1742.43 411.804L1666.21 479.144L1687.94 511.456C1689.07 510.921 1690.37 510.854 1691.55 511.27L1742.94 412.134L1742.81 412.091ZM1743.94 412.662L1692.5 511.923C1692.85 512.163 1693.17 512.452 1693.43 512.781L1773.43 463.134L1747.18 412.687C1746.14 413.123 1744.98 413.16 1743.92 412.79L1743.94 412.662ZM1763.08 353.205L1747.39 404.416C1747.6 404.519 1747.81 404.643 1747.99 404.786C1748.68 405.256 1749.23 405.909 1749.57 406.671L1806.66 390.698L1766.94 352.272C1766.41 352.701 1765.78 353.007 1765.11 353.168C1764.44 353.329 1763.75 353.342 1763.08 353.205ZM1920.88 358.47L1768.59 349.365C1768.52 350.083 1768.26 350.768 1767.83 351.348L1808.05 390.262L1920.95 358.714C1920.91 358.628 1920.89 358.537 1920.88 358.444L1920.88 358.47ZM1922.82 361.893C1922.11 361.407 1921.55 360.723 1921.23 359.927L1808.98 391.277L1879.05 459.018C1879.61 458.569 1880.26 458.259 1880.97 458.115C1881.67 457.97 1882.39 457.994 1883.08 458.186L1923.14 362.041L1922.82 361.893Z" fill="#C4C4C4"/>
<circle r="7" transform="matrix(1 -8.74228e-08 -8.74228e-08 -1 1610 715.967)" fill="#26C296"/>
<circle r="7" transform="matrix(1 -8.74228e-08 -8.74228e-08 -1 1430 560.967)" fill="#26C296"/>
<g filter="url(#filter0_d)">
<circle r="16.5" transform="matrix(1 -8.74228e-08 -8.74228e-08 -1 1717.5 646.467)" fill="#4884FA"/>
</g>
<defs>
<filter id="filter0_d" x="1681" y="609.967" width="73" height="73" filterUnits="userSpaceOnUse" color-interpolation-filters="sRGB">
<feFlood flood-opacity="0" result="BackgroundImageFix"/>
<feColorMatrix in="SourceAlpha" type="matrix" values="0 0 0 0 0 0 0 0 0 0 0 0 0 0 0 0 0 0 127 0"/>
<feOffset/>
<feGaussianBlur stdDeviation="10"/>
<feColorMatrix type="matrix" values="0 0 0 0 0.282353 0 0 0 0 0.517647 0 0 0 0 0.980392 0 0 0 0.5 0"/>
<feBlend mode="normal" in2="BackgroundImageFix" result="effect1_dropShadow"/>
<feBlend mode="normal" in="SourceGraphic" in2="effect1_dropShadow" result="shape"/>
</filter>
</defs>
</svg>
