<?xml version="1.0" encoding="utf-8"?>
<!-- Generator: Adobe Illustrator 19.2.1, SVG Export Plug-In . SVG Version: 6.00 Build 0)  -->
<svg version="1.1" id="Layer_1" xmlns="http://www.w3.org/2000/svg" xmlns:xlink="http://www.w3.org/1999/xlink" x="0px" y="0px"
	 viewBox="0 0 1920 1144" style="enable-background:new 0 0 1920 1144;" xml:space="preserve">
<style type="text/css">
	.st0{opacity:0.2;fill:#91AAD6;enable-background:new    ;}
	.st1{fill:#26C296;}
	.st2{fill:#4884FA;}
</style>
<path class="st0" d="M1584.2,567.8c0.4-1,1.1-1.8,2-2.4c0.9-0.6,2-0.8,3-0.7l22.5-115.3c-0.1,0-0.3-0.1-0.4-0.1
	c-1.2-0.5-2.2-1.5-2.7-2.8c-0.5-1.3-0.5-2.7,0-3.9c0.3-0.8,0.9-1.6,1.6-2.1c0.7-0.6,1.6-0.9,2.5-1.1l0.5-126.3
	c-0.5-0.1-0.9-0.2-1.3-0.3c-1.2-0.5-2.2-1.6-2.7-2.8c-0.5-1.3-0.5-2.7,0.1-3.9c0.5-1.2,1.5-2.2,2.8-2.7c1.2-0.5,2.7-0.5,3.9,0
	c0.7,0.3,1.3,0.7,1.8,1.3l74-51.1c-0.5-0.9-0.7-2-0.5-3.1c0.1-1.1,0.6-2,1.3-2.8c0.7-0.8,1.7-1.3,2.7-1.5c1-0.2,2.1-0.1,3.1,0.3
	c0.5,0.2,1,0.5,1.4,0.9l47-39.9c-0.5-0.7-0.7-1.5-0.8-2.4c-0.1-0.8,0.1-1.7,0.5-2.4c0.5-1.2,1.4-2.1,2.5-2.6l-26.7-82.3
	c-1,0.2-2,0.1-3-0.3c-1.1-0.5-2.1-1.4-2.6-2.5c-0.5-1.1-0.6-2.4-0.3-3.6c0.3-1.2,1.1-2.2,2.1-2.9c1-0.7,2.3-1,3.5-0.8l17.1-62.6
	c-0.6-0.3-1.2-0.6-1.7-1.1c-0.5-0.5-0.9-1.1-1.1-1.7c-0.3-0.6-0.4-1.3-0.4-2c0-0.7,0.1-1.4,0.4-2c0.3-0.6,0.7-1.2,1.1-1.7
	c0.5-0.5,1.1-0.8,1.7-1.1c0.6-0.3,1.3-0.4,2-0.4c0.7,0,1.4,0.2,2,0.4c0.7,0.3,1.3,0.7,1.8,1.2c0.5,0.5,0.9,1.2,1.1,1.9l79.1-15.6
	c0-0.8,0.1-1.5,0.4-2.3c0.3-0.7,0.7-1.4,1.3-1.9c0.6-0.5,1.3-0.9,2-1.1c0.7-0.2,1.5-0.3,2.3-0.1c0.8,0.1,1.5,0.4,2.1,0.9
	c0.6,0.5,1.2,1,1.5,1.7c0.4,0.7,0.6,1.4,0.6,2.2c0,0.8-0.1,1.5-0.4,2.3l-0.2,0.3l135.4,91.8l0.4-0.3l0.3,0.8l2.2,1.5l-1.8-0.3
	l30.1,91.3c1-0.2,2-0.1,3,0.3c1,0.4,1.8,1.1,2.3,2c0.6,0.9,0.8,1.9,0.8,2.9l75.4,12.3l0.2-0.5c0.5-1.2,1.4-2.2,2.6-2.7
	c1.2-0.5,2.6-0.6,3.8-0.2c1.2,0.4,2.3,1.3,2.9,2.5c0.6,1.2,0.8,2.5,0.4,3.8l205.2-31.3c0-0.7,0.1-1.5,0.4-2.1
	c0.5-1.3,1.6-2.2,2.8-2.8c1.3-0.5,2.7-0.5,3.9,0c1.3,0.5,2.2,1.6,2.8,2.8c0.5,1.3,0.5,2.7,0,3.9c-0.4,1-1.1,1.8-2,2.3l72.2,155.7
	c1.1-0.4,2.3-0.3,3.4,0.1c1.1,0.4,2,1.2,2.6,2.3l67.4-27.3c-0.3-1.1-0.2-2.3,0.2-3.3c0.3-0.6,0.7-1.2,1.1-1.7
	c0.5-0.5,1.1-0.8,1.7-1.1c0.6-0.3,1.3-0.4,2-0.4c0.7,0,1.3,0.1,2,0.4c0.9,0.3,1.7,0.9,2.2,1.7c0.6,0.8,0.9,1.7,1,2.6l66.1,3.5
	c0.1-0.4,0.2-0.7,0.3-1.1c0.3-0.6,0.7-1.2,1.1-1.7c0.5-0.5,1.1-0.8,1.7-1.1c0.6-0.3,1.3-0.4,2-0.4c0.7,0,1.3,0.1,2,0.4
	c0.6,0.3,1.2,0.7,1.7,1.1c0.5,0.5,0.8,1.1,1.1,1.7c0.3,0.6,0.4,1.3,0.4,2c0,0.7-0.1,1.3-0.4,2c-0.1,0.2-0.2,0.4-0.3,0.6l94.3,72.7
	c0.6-0.6,1.3-1,2.1-1.3c0.8-0.2,1.6-0.3,2.4-0.2c0.8,0.1,1.6,0.4,2.2,0.9c0.7,0.5,1.2,1.1,1.6,1.8c0.4,0.7,0.6,1.5,0.5,2.3
	c0,0.8-0.2,1.6-0.6,2.3c-0.4,0.7-0.9,1.3-1.6,1.8c-0.7,0.5-1.4,0.8-2.2,0.9l1.3,68.3c0.6,0,1.2,0.2,1.7,0.4c1.2,0.5,2.1,1.4,2.6,2.5
	c0.5,1.1,0.6,2.4,0.3,3.6l39.8,13c0.8-0.1,1.5-0.1,2.3,0.1c0.7,0.2,1.4,0.6,2,1.1l64.5-57.9c-0.3-0.4-0.5-0.9-0.7-1.4
	c-0.4-1.3-0.2-2.7,0.4-3.9c0.6-1.2,1.7-2.1,3-2.5c0.9-0.3,2-0.3,2.9,0c1,0.3,1.8,0.8,2.4,1.6l12.9-6.9l71.9-38.3
	c-0.2-0.6-0.2-1.3-0.2-2c0.1-0.7,0.3-1.3,0.6-1.9c0.3-0.6,0.8-1.1,1.3-1.5c0.5-0.4,1.1-0.7,1.8-0.9c0.6-0.2,1.3-0.2,2-0.2
	c0.7,0.1,1.3,0.3,1.9,0.6c0.6,0.3,1.1,0.8,1.5,1.3c0.4,0.5,0.7,1.1,0.9,1.8c0.2,0.8,0.3,1.6,0.2,2.3l78.4,22.8
	c0.3-0.7,0.7-1.3,1.3-1.7c0.6-0.5,1.2-0.8,1.9-1l-7.5-46.5l112.2-18.3c0-0.9,0.1-1.7,0.5-2.5c0.4-0.8,1-1.4,1.7-1.9
	c0.7-0.5,1.5-0.8,2.4-0.9c0.9-0.1,1.7,0.1,2.5,0.4l33-55.9c-0.7-0.6-1.3-1.3-1.6-2.2c-0.3-0.9-0.4-1.8-0.2-2.7
	c0.2-0.9,0.6-1.8,1.2-2.5c0.6-0.7,1.4-1.2,2.3-1.5c1.2-0.4,2.5-0.3,3.7,0.3l57.3-89c-0.8-0.7-1.3-1.5-1.6-2.5
	c-0.4-1.3-0.2-2.7,0.4-3.9c0.6-1.2,1.7-2.1,3-2.5c1.3-0.4,2.7-0.2,3.9,0.4c1.2,0.6,2.1,1.7,2.5,3c0.3,1,0.3,2.1-0.1,3.1l62.8,31.1
	c0.6-1,1.6-1.7,2.8-2.1c1.1-0.3,2.4-0.3,3.5,0.2c1.1,0.5,2,1.3,2.6,2.3l156.7-59.5l0.2,0.6c-0.2-0.8-0.3-1.7-0.1-2.5
	c0.2-0.8,0.5-1.6,1.1-2.2l-45-48.2c-0.5,0.3-1,0.6-1.5,0.7c-0.6,0.2-1.3,0.3-2,0.2c-0.7-0.1-1.3-0.3-1.9-0.6
	c-0.6-0.3-1.1-0.8-1.5-1.3c-0.4-0.5-0.7-1.1-0.9-1.8c-0.2-0.6-0.3-1.3-0.2-2c0.1-0.7,0.3-1.3,0.6-1.9c0.3-0.6,0.8-1.1,1.3-1.5
	c0.5-0.4,1.1-0.7,1.8-0.9c0.8-0.2,1.6-0.3,2.3-0.1c0.8,0.1,1.5,0.4,2.2,0.9l98.4-103.2c-0.4-0.5-0.7-1-0.8-1.6c-0.3-1-0.3-2,0-2.9
	c0.3-1,0.8-1.8,1.6-2.4l-34.1-49.8c-0.2,0.1-0.4,0.2-0.6,0.2c-0.6,0.2-1.3,0.3-2,0.2c-0.7-0.1-1.3-0.3-1.9-0.6
	c-0.6-0.3-1.1-0.7-1.5-1.3c-0.4-0.5-0.8-1.1-0.9-1.8c-0.2-0.6-0.3-1.3-0.2-2c0.1-0.7,0.3-1.3,0.6-1.9c0.3-0.6,0.7-1.1,1.3-1.5
	c0.5-0.4,1.1-0.7,1.8-0.9c0.7-0.2,1.4-0.3,2.1-0.2c0.7,0.1,1.4,0.3,2,0.7l115-127.4c-0.5-0.5-0.8-1.2-1-1.9
	c-0.4-1.3-0.2-2.7,0.4-3.9c0.7-1.2,1.8-2.1,3.1-2.5c0.7-0.2,1.3-0.3,2-0.2c0.7,0.1,1.3,0.3,1.9,0.6c1.2,0.7,2.1,1.8,2.5,3.1
	c0.3,1,0.3,2.1,0,3.1c-0.3,1-1,1.9-1.8,2.5l56.3,102.7l0.4,0c1.1-0.3,2.2-0.3,3.3,0.1s2,1.1,2.6,2.1c0.6,1,0.9,2.1,0.7,3.2
	c-0.1,1.1-0.6,2.2-1.4,3l80.1,97.1c0.4-0.2,0.8-0.4,1.3-0.6c1.3-0.4,2.7-0.2,3.9,0.4c1.2,0.6,2.1,1.7,2.5,3c0.4,1.3,0.2,2.7-0.4,3.9
	c-0.6,1.2-1.7,2.1-3,2.5c-0.7,0.2-1.5,0.3-2.2,0.1l-24.1,86.2c1,0.4,1.8,1.1,2.3,2c0.5,0.9,0.8,1.9,0.8,3c-0.1,1.1-0.4,2.1-1.1,2.9
	c-0.7,0.8-1.5,1.4-2.6,1.7c-0.5,0.1-1.1,0.2-1.7,0.1l-10.6,60.5c0.8,0.3,1.5,0.7,2.1,1.3c0.6,0.6,1,1.3,1.3,2.1
	c0.4,1.2,0.3,2.5-0.3,3.6l73,45.9c0.5-0.6,1.1-1,1.8-1.3c0.7-0.3,1.4-0.5,2.1-0.5c0.7,0,1.5,0.2,2.2,0.5c0.7,0.3,1.3,0.8,1.8,1.3
	c0.5,0.6,0.8,1.2,1,1.9c0.2,0.7,0.2,1.5,0.1,2.2c-0.1,0.7-0.4,1.4-0.8,2c-0.4,0.6-1,1.1-1.6,1.5l26.8,58.7c0.6-0.2,1.3-0.3,2-0.2
	c0.7,0.1,1.3,0.3,1.9,0.6c0.6,0.3,1.1,0.8,1.5,1.3c0.4,0.5,0.7,1.1,0.9,1.8c0.2,0.6,0.3,1.3,0.2,2c-0.1,0.7-0.3,1.3-0.6,1.9
	c-0.3,0.6-0.8,1.1-1.3,1.5c-0.5,0.4-1.1,0.7-1.8,0.9c-0.7,0.2-1.4,0.3-2.1,0.2c-0.7-0.1-1.4-0.3-2-0.7l-50.6,62.3
	c0.6,0.6,1,1.4,1.2,2.3c0.2,0.9,0.2,1.7,0,2.6c-0.2,0.9-0.7,1.6-1.3,2.2c-0.6,0.6-1.4,1.1-2.3,1.3c-1.3,0.4-2.7,0.2-3.9-0.4
	c-1.2-0.6-2.1-1.7-2.5-3c0-0.1,0-0.2,0-0.3l-162.1,16l0,0.5l-0.7-0.4l-2.6,0.2l1.5-0.9l-81.3-50.8c-0.7,0.8-1.5,1.3-2.5,1.6
	c-1,0.3-2,0.3-3,0c-1-0.3-1.8-0.9-2.5-1.7l-65.6,38.5c0.1,0.2,0.1,0.4,0.2,0.5c0.3,1.2,0.2,2.5-0.4,3.7c-0.6,1.1-1.6,2-2.8,2.5
	c-1.2,0.5-2.5,0.4-3.7,0c-1.2-0.5-2.2-1.4-2.7-2.5l-137,154.9c0.5,0.6,0.8,1.2,1,1.9c0.4,1.3,0.2,2.7-0.4,3.9
	c-0.6,1.2-1.7,2.1-3,2.5c-1.3,0.4-2.7,0.2-3.9-0.4c-1.2-0.6-2.1-1.7-2.5-3c-0.3-1-0.2-2,0-2.9l-154.6-73.2c-0.6,1-1.6,1.8-2.8,2.1
	c-1.1,0.3-2.2,0.3-3.3-0.1l-34.2,63.8c1,0.7,1.6,1.7,1.9,2.8c0.2,0.6,0.3,1.3,0.2,2c-0.1,0.7-0.3,1.3-0.6,1.9
	c-0.3,0.6-0.8,1.1-1.3,1.5c-0.5,0.4-1.1,0.7-1.8,0.9c-0.9,0.3-1.9,0.3-2.8,0c-0.9-0.2-1.7-0.7-2.4-1.4l-52.9,39.4
	c0.2,0.3,0.3,0.7,0.4,1c0.4,1.3,0.2,2.7-0.4,3.9c-0.6,1.2-1.7,2.1-3,2.5c-1.3,0.4-2.7,0.2-3.9-0.4c-1.2-0.6-2.1-1.7-2.5-3
	c0-0.2,0-0.4,0-0.6l-118.6,4.3c-0.1,1.2-0.6,2.3-1.5,3.2c-0.8,0.9-1.9,1.4-3.1,1.5c-1.2,0.1-2.4-0.2-3.4-0.9c-1-0.7-1.7-1.7-2-2.8
	c-0.2-0.8-0.3-1.7-0.1-2.6c0.2-0.8,0.6-1.6,1.2-2.3l-44.5-51.4c-0.5,0.3-1,0.6-1.6,0.8c-1.2,0.3-2.4,0.2-3.6-0.3
	c-1.1-0.5-2-1.4-2.5-2.5l-66.3,26.3l0,0.3c0.3,1.4,0,2.8-0.8,3.9s-1.9,2-3.3,2.2c-1.4,0.3-2.8,0-3.9-0.8c-1.2-0.8-2-1.9-2.2-3.3
	l-87.1,3.2c-0.1,0.5-0.2,1.1-0.4,1.5c-0.5,1.1-1.3,2-2.3,2.5c-1,0.6-2.2,0.7-3.4,0.5c-1.2-0.2-2.2-0.8-3-1.8
	c-0.8-0.9-1.2-2.1-1.2-3.2l-14.4-3l-80-16.5c-0.6,1.1-1.6,2-2.9,2.5c-1.2,0.4-2.6,0.4-3.8-0.2c-1.2-0.5-2.1-1.5-2.7-2.7
	s-0.6-2.5-0.1-3.8c0.3-0.7,0.8-1.4,1.4-1.9l-45.9-67.9c-0.7,0.3-1.4,0.5-2.1,0.5c-0.7,0-1.5-0.1-2.1-0.4l-24.2,40.7l-98.4-57.8
	c-0.7,0.9-1.7,1.5-2.8,1.8c-1.1,0.3-2.3,0.2-3.3-0.2c-1.1-0.5-2-1.3-2.5-2.4l-61.6,21.7c0.2,1,0.1,2.1-0.3,3.1
	c-0.3,0.6-0.7,1.2-1.1,1.7c-0.5,0.5-1.1,0.8-1.7,1.1c-0.6,0.3-1.3,0.4-2,0.4c-0.7,0-1.3-0.1-2-0.4c-1.2-0.5-2.1-1.4-2.6-2.6
	l-101.5,31.9c0.2,1,0.1,2-0.3,3c-0.2,0.7-0.6,1.3-1.1,1.8c-0.5,0.5-1.1,0.9-1.7,1.2c-0.6,0.3-1.3,0.4-2.1,0.4
	c-0.7,0-1.4-0.1-2.1-0.4c-0.7-0.3-1.2-0.7-1.7-1.2c-0.5-0.5-0.9-1.1-1.1-1.8c-0.2-0.7-0.3-1.4-0.3-2.1c0-0.7,0.2-1.4,0.6-2
	c0.4-1,1.1-1.8,2-2.4l-28.5-64.3c-1.1,0.3-2.4,0.3-3.5-0.2c-1.1-0.5-2-1.3-2.5-2.3c-0.5-1-0.7-2.2-0.5-3.4L1929.2,382l0.2-0.6
	c-0.3,0.8-0.8,1.4-1.5,2c-0.6,0.5-1.4,0.9-2.2,1.1l3.7,66.1c0.6,0,1.1,0.2,1.6,0.4c0.6,0.3,1.2,0.7,1.7,1.1c0.5,0.5,0.8,1.1,1.1,1.7
	c0.3,0.6,0.4,1.3,0.4,2c0,0.7-0.1,1.3-0.4,2s-0.7,1.2-1.1,1.7c-0.5,0.5-1.1,0.8-1.7,1.1c-0.6,0.3-1.3,0.4-2,0.4
	c-0.7,0-1.3-0.1-2-0.4c-0.7-0.3-1.4-0.8-1.9-1.4c-0.5-0.6-0.9-1.3-1.1-2.1l-142.3,16.6c0,0.6-0.1,1.2-0.4,1.8
	c-0.4,0.9-1,1.8-1.8,2.3c-0.8,0.6-1.8,0.9-2.8,0.9l-5.7,60.3c0.2,0.1,0.4,0.1,0.6,0.2c1.2,0.5,2.2,1.6,2.7,2.8
	c0.5,1.3,0.5,2.7-0.1,3.9c-0.5,1.2-1.5,2.2-2.8,2.7c-1.2,0.5-2.7,0.5-3.9,0c-0.7-0.3-1.3-0.7-1.8-1.2c-0.5-0.5-0.9-1.2-1.1-1.9
	L1594.2,570c0,0.7-0.1,1.4-0.4,2.1c-0.5,1.3-1.6,2.2-2.8,2.8c-1.3,0.5-2.7,0.5-3.9,0c-1.3-0.5-2.2-1.6-2.8-2.8
	c-0.5-1.3-0.5-2.7,0-3.9L1584.2,567.8z M1616.1,312.5c-0.5,0.2-1,0.4-1.6,0.5l-0.6,126.3c0.5,0.1,0.9,0.2,1.3,0.4
	c0.7,0.3,1.3,0.8,1.8,1.3l57.1-38.3L1616.1,312.5z M1755.9,206.5c-0.3,0.7-0.8,1.4-1.4,1.9l28,42.6l-23.7-53.1l-3.5,3.5
	c0.6,0.7,0.9,1.6,1,2.5C1756.4,204.7,1756.3,205.7,1755.9,206.5L1755.9,206.5z M1745.2,309.3l0.8,0.4l36.7-47.9
	c-0.9-0.9-1.4-2.1-1.5-3.4l-33-2.7l-3.8,53.2C1744.7,309.1,1745,309.2,1745.2,309.3z M1741.4,318.9l-26.9,46.9l31.3-47.2
	c-0.7,0.4-1.4,0.6-2.1,0.7C1742.9,319.2,1742.1,319.1,1741.4,318.9z M1748.3,314.7l27.4-41.4l-28.7,37.3c0.5,0.5,0.9,1.2,1.1,1.9
	C1748.3,313.2,1748.4,313.9,1748.3,314.7z M1781.4,257.1c0.1-0.3,0.2-0.7,0.3-1c0.3-0.7,0.8-1.4,1.4-1.9l-29.7-45.2
	c-0.6,0.3-1.3,0.5-2,0.5l-3.2,44.8L1781.4,257.1z M1785,253.3c1-0.3,2-0.3,2.9,0l65.3-147.8l0-0.5l-0.3-0.2l-93,92.2L1785,253.3z
	 M1789.2,253.8c0.4,0.2,0.8,0.5,1.1,0.9l87.8-63.9l-21.4-85c-0.7,0.1-1.4,0-2-0.1L1789.2,253.8z M1890.9,258.2
	c-0.6-0.7-1-1.6-1.1-2.5l-98.3,3c0,0.5-0.2,1-0.4,1.5c0,0.1-0.1,0.2-0.2,0.3l59.6,40.7L1890.9,258.2z M1817.3,338.6
	c0.4,0.5,0.7,1,0.9,1.6l63-13.3c-0.1-0.8,0.1-1.7,0.4-2.4c0-0.1,0-0.2,0-0.3l-31.1-21.3L1817.3,338.6z M1997.4,213.2l-88.9-38
	c-0.5,0.9-1.3,1.6-2.2,2l21.9,64.7l69.3-26.2C1997.2,214.9,1997.2,214.1,1997.4,213.2L1997.4,213.2z M1905,177.7
	c-0.3,0.1-0.6,0.1-0.9,0.1l-8.1,72.1l0.8,0.3c1.2,0.5,2.1,1.4,2.7,2.6l27.3-10.3L1905,177.7z M1902.8,177.7l-0.8-0.2
	c-0.6-0.3-1.2-0.7-1.7-1.2l-20.7,15.1l14.8,58.4l0.5,0L1902.8,177.7z M1878.3,192.2l-87.3,63.6c0.3,0.5,0.5,1.1,0.6,1.7l98.2-3
	c0.1-0.5,0.2-1,0.4-1.5c0.5-1.2,1.5-2.2,2.7-2.8L1878.3,192.2z M1879.1,190l20.4-14.8c-0.4-0.7-0.6-1.4-0.7-2.2
	c-0.1-0.8,0.1-1.5,0.4-2.3c0.3-0.7,0.8-1.3,1.3-1.8l-11.9-17.8l-30.6-45.8l-0.4,0L1879.1,190z M1901.7,167.9
	c0.8-0.4,1.8-0.6,2.7-0.5c0.9,0.1,1.8,0.4,2.6,1c0.8,0.6,1.4,1.3,1.7,2.2c0.4,0.9,0.5,1.8,0.3,2.7l17.8-16.6l-67.5-52.5l-0.2,0.2
	L1901.7,167.9z M1910.1,174.6L1998,212l-69.9-54.3L1910.1,174.6z M1997.9,217.2l-69.3,26.2l25.6,76.5c0.8-0.2,1.6-0.1,2.4,0.1
	l43.1-100.7c-0.8-0.5-1.4-1.3-1.8-2.2L1997.9,217.2z M1927.4,243.7l-27.4,10.3c0.2,1,0.1,2-0.3,3c-0.2,0.5-0.5,1-0.9,1.4l53.7,62
	l0.6-0.3L1927.4,243.7z M1897.5,259.4c-0.2,0.2-0.5,0.3-0.8,0.4l15.5,65.8l38-1.3c0.1-0.5,0.2-1.1,0.4-1.5c0.2-0.5,0.5-1,0.9-1.4
	L1897.5,259.4z M1911.2,326.8l-19.7,0.7c-0.1,0.3-0.2,0.7-0.3,1c-0.3,0.7-0.8,1.3-1.3,1.8l32.1,44.4l0.5-0.3L1911.2,326.8z
	 M1891.6,326.1l19.3-0.7l-15.5-65.6c-0.3,0.1-0.7,0.1-1.1,0.1l-6.4,61.6l0.5,0.2c0.9,0.4,1.7,1,2.2,1.8c0.6,0.8,0.9,1.7,0.9,2.7
	L1891.6,326.1z M1893,259.6l-0.2,0c-0.3-0.1-0.7-0.3-1-0.5l-40.2,42.9l30.9,21.1c0.5-0.6,1.1-1,1.8-1.3c0.7-0.3,1.4-0.4,2.2-0.4
	L1893,259.6z M1881.6,328.1l-63.1,13.3c0.1,0.8,0,1.7-0.4,2.4c-0.2,0.4-0.4,0.8-0.6,1.1l31.4,30.7l34.1-45.5c-0.6-0.5-1-1.1-1.3-1.8
	L1881.6,328.1z M1849.7,302.1l-59.3-40.4c-0.5,0.5-1,0.9-1.6,1.2l23.9,74c1-0.2,2-0.1,3,0.3c0.4,0.1,0.7,0.3,1,0.5L1849.7,302.1z
	 M1787.4,263.2c-1,0.2-2,0.1-3-0.3l-0.2,0l-77.4,116.9c0.5,0.4,0.9,0.9,1.2,1.4l100.4-38.1c-0.3-1.1-0.2-2.2,0.3-3.2
	c0.5-1.2,1.4-2.1,2.5-2.6L1787.4,263.2z M1808.9,344.2l-100.4,38c0.3,1.1,0.2,2.3-0.2,3.4c-0.2,0.6-0.6,1.1-1,1.5l25,30.7l77.2-73.1
	c-0.2-0.1-0.3-0.3-0.4-0.5L1808.9,344.2z M1698.3,445.6c0.1-0.4,0.2-0.8,0.4-1.2c0.3-0.7,0.8-1.4,1.4-1.9l-25-38.7l-57.1,38.3
	c0.3,0.5,0.5,1.1,0.5,1.8L1698.3,445.6z M1622.1,445.2l147.2,26.1l-61.4-22.6c-0.5,1-1.3,1.8-2.3,2.2c-1,0.5-2.1,0.6-3.2,0.4
	c-1.1-0.2-2.1-0.8-2.8-1.6c-0.7-0.8-1.2-1.8-1.3-2.9L1622.1,445.2z M1701.3,441.7c0.5-0.2,1-0.4,1.6-0.5l0.1-52.5
	c-0.4-0.1-0.8-0.2-1.2-0.4c-0.7-0.3-1.3-0.8-1.8-1.3l-23.6,15.9L1701.3,441.7z M1704.2,441.3c0.5,0.1,0.9,0.2,1.3,0.3
	c0.4,0.2,0.8,0.5,1.2,0.7l24.8-23.5l-25.4-30.8c-0.6,0.4-1.4,0.7-2.1,0.7L1704.2,441.3z M1732.3,419.9l-24.8,23.4
	c0.4,0.6,0.7,1.3,0.9,2c0.1,0.7,0.1,1.5,0,2.2l63.4,23.3c0.2-0.4,0.5-0.8,0.8-1.2L1732.3,419.9z M1771.5,472.9l-153.3-27
	c0,0.2-0.1,0.3-0.2,0.5l0,0.2l93.5,59.4l60.2-31c-0.3-0.6-0.4-1.3-0.5-2L1771.5,472.9z M1617.6,311.5l-0.1,0l58.1,90.2l23.6-15.9
	c-0.4-0.6-0.6-1.4-0.6-2.1c0-0.7,0.1-1.5,0.3-2.2c0.1-0.3,0.3-0.5,0.4-0.8L1617.6,311.5z M1618.4,310.5l81.9,69.3
	c0.7-0.5,1.5-0.9,2.3-1l-3.6-66.1l-80.1-3.8c-0.1,0.4-0.2,0.8-0.3,1.1c-0.1,0.2-0.2,0.5-0.3,0.7L1618.4,310.5z M1694.5,255.6
	c-0.7-0.3-1.3-0.7-1.8-1.3l-74.1,51.1c0.3,0.6,0.5,1.3,0.6,1.9l79.9,3.8l-3-55.2c-0.6,0-1.1-0.1-1.7-0.3L1694.5,255.6z
	 M1704.2,378.5c0.5,0,0.9,0.2,1.4,0.3l34.9-60.7c-0.6-0.4-1.1-1-1.5-1.7c-0.4-0.7-0.6-1.4-0.7-2.2l-37.7-1.8L1704.2,378.5z
	 M1699,255.4c-0.5,0.3-1,0.5-1.6,0.5l3,55.4l37.8,1.8c0.1-0.4,0.2-0.8,0.3-1.1c0.3-0.6,0.7-1.2,1.2-1.7L1699,255.4z M1700.1,254.6
	l40.8,54.9c0.7-0.4,1.5-0.6,2.4-0.7l3.7-53l-45.5-3.7c-0.1,0.3-0.2,0.6-0.3,0.9c-0.3,0.6-0.7,1.1-1.2,1.6L1700.1,254.6z
	 M1749.2,209.2c-0.5-0.2-1-0.6-1.4-0.9l-47.1,39.9c0.5,0.8,0.8,1.6,0.8,2.6l45.6,3.7l3.2-44.8L1749.2,209.2z M1750.3,199.4
	c1-0.2,2-0.1,3,0.3c0.4,0.2,0.8,0.4,1.1,0.7l3.9-3.9l-32.4-72.5L1750.3,199.4z M1759.2,195.6l92.6-91.8c-0.4-0.6-0.8-1.3-0.9-2
	l-124.5,10.9c0,0.8-0.3,1.7-0.7,2.4c-0.4,0.7-1,1.3-1.7,1.8L1759.2,195.6z M1851.1,98.9l-68.5-36.2l-57,47c0.3,0.5,0.5,1,0.7,1.6
	l124.5-10.9C1850.8,99.9,1850.9,99.4,1851.1,98.9z M1740.5,45.2l-17.1,62.6c0.5,0.2,1,0.6,1.5,1l56.6-46.7l-36-19
	c-0.5,0.8-1.3,1.4-2.2,1.7C1742.3,45.2,1741.4,45.3,1740.5,45.2z M1825.4,24.2l-79.1,15.6c0,0.7-0.1,1.4-0.3,2.1l36.5,19.3
	l43.5-35.9C1825.7,24.9,1825.5,24.5,1825.4,24.2z M1828.2,27.2c-0.5-0.2-1-0.6-1.5-1l-43.1,35.6l67.1,35.5L1831,27.7
	C1830.1,27.8,1829.1,27.6,1828.2,27.2L1828.2,27.2z M1834,25.9c-0.5,0.6-1.1,1-1.8,1.3l20.1,69.9c0.7-0.8,1.7-1.3,2.7-1.5
	c1-0.2,2.1-0.1,3.1,0.3c0.9,0.4,1.7,1.1,2.3,1.9c0.6,0.9,0.8,1.9,0.8,2.9l106.5,15.5L1834,25.9z M1860.8,102.1l-0.2,0.6l-0.3,0.6
	l67.8,52.6l40.9-38.1L1860.8,102.1z M1969.9,118.6l-41,38.2l69.8,54.2c0.4-0.4,0.9-0.7,1.4-1L1969.9,118.6z M2004.3,219.3
	c-1.1,0.5-2.3,0.5-3.4,0.2l-43.1,100.7c0.4,0.2,0.8,0.5,1.1,0.9l74.2-53.7L2004.3,219.3z M1960.3,325l64.2,11.9l18.8,3.5l33.9,6.3
	c0.4-0.9,1-1.7,1.8-2.2l-45.4-76l-74.1,53.7c0.5,0.8,0.8,1.8,0.8,2.8L1960.3,325z M2082.6,228.4l-75.4-12.3
	c-0.1,0.2-0.1,0.4-0.2,0.5c-0.3,0.8-0.9,1.5-1.5,2l28.7,47.9l49.1-35.5c-0.4-0.8-0.5-1.7-0.5-2.6L2082.6,228.4z M2085.8,233.4
	c-0.6-0.3-1.2-0.7-1.7-1.2l-49.1,35.5l45.5,76c0.5-0.2,1-0.3,1.4-0.3l0.9-20.1l4.1-89.8C2086.6,233.5,2086.2,233.4,2085.8,233.4z
	 M2088.3,233.7l-4,88.9l-1,21c0.3,0.1,0.6,0.2,1,0.3c0.9,0.4,1.6,1,2.2,1.8l41.1-18.8l-38.5-93.4
	C2088.8,233.6,2088.6,233.7,2088.3,233.7z M2271,292.9c-0.2,0-0.5,0.1-0.8,0.1l-8.9,50.6l-6.2,34.9l0.5,0.2c0.7,0.3,1.3,0.7,1.8,1.3
	c0.5,0.6,0.9,1.2,1.1,2l31.9-5.1L2271,292.9z M2291.9,376.6l82.7-13.1c0-0.7,0.1-1.5,0.4-2.2l0.2-0.3l-100.8-69.8
	c-0.5,0.6-1.2,1.1-2,1.4L2291.9,376.6z M2260.1,342.6l8.8-49.9l-0.5-0.2c-0.7-0.3-1.3-0.7-1.8-1.2l-64.6,46l48.1,42.2
	c1-0.9,2.3-1.3,3.6-1.3L2260.1,342.6z M2174,308.5c0.1,0.8-0.1,1.6-0.4,2.3c-0.1,0.3-0.3,0.7-0.5,0.9l28,24.5l65-46.1
	c-0.1-0.2-0.2-0.5-0.3-0.7L2174,308.5z M2265.5,286.8L2216,271l-42.7,35.1c0.2,0.4,0.4,0.7,0.5,1.1l91.6-19.1
	C2265.4,287.7,2265.4,287.2,2265.5,286.8L2265.5,286.8z M2172.2,312.7c-0.6,0.5-1.3,0.8-2,1c-0.7,0.2-1.5,0.2-2.3,0.1l-18.1,56.8
	c0.3,0.4,0.6,0.9,0.8,1.4l49.3-35L2172.2,312.7z M2201,338l-50,35.6c0,0.3,0.1,0.6,0.1,1l97.6,7.8c0.1-0.3,0.2-0.6,0.3-1
	c0.1-0.3,0.3-0.6,0.5-0.9L2201,338z M2248.5,383.6l-64.8-5.2l-32.9-2.6l0,0.2c-0.2,0.5-0.5,0.9-0.8,1.3l51.4,57.6l48.3-48.5
	C2249,385.6,2248.6,384.6,2248.5,383.6L2248.5,383.6z M2166.7,313.5c-0.9-0.4-1.6-1.1-2.1-1.9l-35.3,16.1l16.9,41.1
	c0.6,0,1.2,0.2,1.8,0.4c0.3,0.2,0.6,0.3,0.9,0.5L2166.7,313.5z M2128,328.2l-41,18.7c0.3,0.9,0.4,1.8,0.2,2.7l54.2,22
	c0.3-0.6,0.8-1.2,1.4-1.7c0.6-0.4,1.3-0.8,2-0.9L2128,328.2z M2141,372.9l-54-21.9c-0.5,1.2-1.5,2.1-2.8,2.6l19.2,71.1l38.7-47.2
	c-0.5-0.6-0.9-1.4-1.1-2.2C2140.8,374.5,2140.8,373.7,2141,372.9z M2091,232.8l-0.6,0.4l38.5,93.4l35.1-16.1
	c-0.4-1.2-0.3-2.5,0.1-3.6c0.2-0.4,0.4-0.7,0.6-1L2091,232.8z M2092.3,231.3c-0.1,0.2-0.2,0.4-0.3,0.5l73.8,73.1
	c0.7-0.6,1.6-1,2.5-1.1c0.9-0.1,1.9,0,2.7,0.4c0.5,0.2,1.1,0.6,1.5,1l42-34.7L2092.3,231.3z M2298.3,200l-202.8,31.1l120.3,38.6
	l83.1-68.4c-0.3-0.5-0.5-1-0.6-1.5L2298.3,200z M2299.7,202.3l-82.5,67.8l48.7,15.4c0.5-1,1.3-1.9,2.4-2.4c1-0.5,2.2-0.7,3.3-0.4
	l29.1-79.8c-0.4-0.2-0.7-0.4-1-0.7L2299.7,202.3z M2304.8,203.4c-0.9,0.3-1.8,0.4-2.7,0.2l-29.1,79.8c1.2,0.6,2,1.6,2.5,2.8
	c0.4,1.2,0.4,2.6-0.1,3.8l-0.2,0.3l100.8,69.8c0.3-0.4,0.7-0.7,1.1-0.9L2304.8,203.4z M2384.5,365.4c-0.4,0.8-0.9,1.6-1.7,2.1
	l14.8,26.7l55.1-34.6c-0.2-0.4-0.3-0.7-0.4-1.1l-67.4,5.2C2384.9,364.2,2384.7,364.8,2384.5,365.4z M2454.6,336.9
	c-1-0.5-1.9-1.2-2.4-2.2l-67.4,27.3c0,0,0,0.2,0,0.3l67.5-5.2c0-0.6,0.2-1.2,0.4-1.8c0.3-0.8,0.9-1.6,1.5-2.1
	c0.7-0.6,1.5-0.9,2.4-1.1l-0.4-15C2455.6,337.2,2455.1,337.1,2454.6,336.9L2454.6,336.9z M2460,336c-0.7,0.7-1.6,1.1-2.6,1.2l0.4,15
	c0.5,0.1,1,0.2,1.5,0.4c1.2,0.5,2.2,1.5,2.7,2.7l15.1-4.2L2460,336z M2462.1,359.3c0,0.1-0.1,0.2-0.1,0.3l105.1,70.8l-88.8-78.2
	l-15.9,4.4c0.2,0.9,0,1.9-0.3,2.8L2462.1,359.3z M2532.6,408.7l-71.3-47.9c-0.6,0.7-1.4,1.2-2.4,1.5l16.1,95.2l95-20.5
	c-0.1-0.8,0.1-1.7,0.4-2.5l0.2-0.3L2532.6,408.7z M2527.7,336.5l-66.1-3.5c-0.1,0.4-0.2,0.8-0.3,1.1c-0.1,0.3-0.3,0.6-0.5,0.9
	l17.8,15.7l49.2-13.8c0,0,0-0.1,0-0.2L2527.7,336.5z M2534.3,341.1c-1.1,0.3-2.3,0.2-3.4-0.2c-0.6-0.3-1.2-0.6-1.6-1.1
	c-0.5-0.5-0.8-1-1.1-1.6l-48.4,13.5l92,81c0.2-0.2,0.5-0.4,0.8-0.6L2534.3,341.1z M2573.8,431.7c1.1-0.3,2.4-0.3,3.5,0.2
	c1.1,0.5,2,1.3,2.6,2.3l13.7-4.9l-57.1-86.8L2573.8,431.7z M2632.4,491.8c0-0.2,0.1-0.3,0.2-0.5l-54.2-50.6c-0.6,0.5-1.2,0.8-1.9,1
	l9.5,68.8l46.1-15.3C2631.9,494,2632,492.8,2632.4,491.8L2632.4,491.8z M2579.9,438.7c-0.2,0.3-0.3,0.7-0.6,1l54,50.3l-39.1-59.4
	l-14,5C2580.4,436.6,2580.3,437.7,2579.9,438.7z M2536.6,339.9l-0.3,0.3l58.4,88.8l35.6-12.8c-0.2-1-0.1-2.1,0.3-3.1
	c0.1-0.2,0.2-0.4,0.3-0.6L2536.6,339.9z M2634.8,420.3c-0.5-0.1-1-0.2-1.5-0.4c-1.1-0.5-2-1.3-2.6-2.4l-35.3,12.6l39.1,59.2
	c0.5-0.3,1.1-0.5,1.7-0.7L2634.8,420.3z M2641.9,495.7c-0.3,0.6-0.6,1.1-1,1.6l29.6,37.6l14.3-5.3l-1.8-11.3c-1.1,0-2.2-0.3-3.1-0.9
	c-0.9-0.6-1.6-1.6-1.9-2.6c-0.3-1.1-0.3-2.2,0-3.2c0.4-1,1.1-1.9,2-2.6l-38.3-12.6L2641.9,495.7z M2686.1,529.1l23.9-8.8
	c0-0.2,0-0.5,0-0.7l-22.4-4.7c-0.3,0.8-0.7,1.4-1.3,2c-0.6,0.5-1.3,0.9-2.1,1.2L2686.1,529.1z M2687.8,511.7
	c0.2,0.6,0.2,1.3,0.1,1.9l17.8,3.8l-18-5.9C2687.7,511.5,2687.7,511.6,2687.8,511.7z M2711.5,522.7c-0.4-0.4-0.7-0.8-0.9-1.2
	l-24.1,8.9l3.8,25.3c0.5,0.1,1,0.2,1.5,0.4l13.2-22.2L2711.5,522.7z M2689.1,555.8l-4-24.8l-13.8,5.1l16,20.3
	C2687.9,556.1,2688.5,555.9,2689.1,555.8z M2751.7,452.3l-64.3,57.6l22.8,7.5l0-0.3c0.5-1.1,1.4-2.1,2.5-2.6
	c1.1-0.5,2.4-0.7,3.6-0.3l35.8-61.7L2751.7,452.3z M2844,401.1l-19.8,10.6l-64.6,34.5c0.1,0.3,0.2,0.5,0.3,0.8
	c0.2,0.8,0.3,1.6,0.1,2.4c-0.1,0.8-0.5,1.6-1,2.2l35,31.9l50.7-81.5C2844.5,401.8,2844.2,401.5,2844,401.1z M2845.7,402.9
	l-50.6,81.4l51.4,46.9c0.5-0.5,1.2-0.8,1.9-1l0.7,0l-1.9-126.6c-0.5-0.1-0.9-0.4-1.3-0.6L2845.7,402.9z M2900,529.3l85.2-8.6
	c0-0.9,0.3-1.9,0.8-2.7l-73.1-62.7l-59.7,76.2c0.6,0.6,1,1.3,1.3,2.1c0,0.1,0,0.2,0,0.3L2900,529.3z M2859.8,534.7l117.8,3.4
	l9.3-13.5c-0.7-0.6-1.2-1.4-1.5-2.3c0-0.1,0-0.2,0-0.3L2859.8,534.7z M2851.1,540c-1.1,0.3-2.4,0.3-3.5-0.2l-7.4,12.4l99.2,30.1
	L2854,538c-0.7,1-1.6,1.7-2.7,2L2851.1,540z M2846.5,539.1c-0.9-0.6-1.5-1.5-1.8-2.6c-0.1-0.4-0.1-0.7-0.1-1.1l-73.4-4.2l67.8,20.6
	L2846.5,539.1z M2851.6,402.7c-0.5,0.4-1,0.7-1.6,0.8c-0.5,0.1-1,0.2-1.5,0.1l1.8,126.3c0.7,0.1,1.4,0.3,2,0.7l59.8-76.1
	L2851.6,402.7z M2931.7,425.8c-0.2-0.8-0.3-1.6-0.2-2.3l-78.4-22.8c-0.2,0.4-0.4,0.7-0.6,1l60.3,51.6l20-25.6
	c-0.5-0.6-0.9-1.2-1.1-1.9L2931.7,425.8z M2933.9,428.6l-20.1,25.6l73.1,62.7l0.4-0.3l-16.9-30.3l-31.9-57.3l-0.5,0
	c-1.3,0.4-2.8,0.3-4-0.3L2933.9,428.6z M3041,465.3l-28.3-11l-20.1,61.6c0.3,0.2,0.7,0.4,1,0.6l48.5-46.7c-0.4-0.5-0.6-1-0.8-1.6
	c-0.3-0.9-0.3-1.8-0.1-2.7L3041,465.3z M3011.4,453.8l-70.3-27.5c-0.4,0.7-0.9,1.3-1.5,1.7l32.1,57.6l16.7,30l0.4,0
	c0.8-0.2,1.6-0.3,2.4-0.2L3011.4,453.8z M3040,355.6l-110.9,18.1l7.4,45.4c0.7,0,1.5,0.1,2.2,0.4c0.7,0.3,1.3,0.7,1.8,1.3l99.8-64.3
	c0-0.3-0.1-0.5-0.1-0.8L3040,355.6z M3040.9,357.4l-99.9,64.5c0.1,0.3,0.2,0.5,0.3,0.8c0.3,0.8,0.3,1.7,0.2,2.6l70.3,27.4l30.7-94
	c-0.5-0.3-1-0.6-1.4-1L3040.9,357.4z M3085.1,294.4l-0.5,0c-1.1,0.3-2.4,0.3-3.5-0.2l-32.9,55.9c0.7,0.5,1.2,1.2,1.5,2
	c0.3,0.8,0.5,1.7,0.4,2.5l74.9,14.8c0.3-1,0.9-1.8,1.7-2.4L3085.1,294.4z M3222.5,313l38.7,20.5l19.5-40.4c-0.8-0.5-1.4-1.1-1.9-1.9
	l-55.4,17.6c0.1,0.7,0.1,1.5,0,2.2C3223.2,311.7,3222.9,312.4,3222.5,313z M3221.5,314c-0.5,0.4-1,0.7-1.6,0.8
	c-0.4,0.1-0.7,0.1-1.1,0.1l22.2,54.6c1-0.3,2-0.3,2.9,0l16.8-34.8L3221.5,314z M3213.2,309.8l-76.1-11.4l-6.1,67.7
	c1,0.2,1.9,0.8,2.7,1.5l53-37.3l26.9-18.9c0-0.1,0-0.1,0-0.2C3213.4,310.8,3213.3,310.3,3213.2,309.8L3213.2,309.8z M3134.5,368.9
	c0.1,0.3,0.3,0.6,0.4,0.9c0.1,0.3,0.1,0.6,0.1,1l64.1,1.7l15.6-59c-0.2-0.2-0.4-0.5-0.6-0.8L3134.5,368.9z M3200.5,372.5l36.8,1
	c0.1-0.7,0.4-1.5,0.8-2.1c0.4-0.6,1-1.1,1.7-1.5l-22.4-55c-0.5-0.1-1-0.3-1.5-0.5L3200.5,372.5z M3239.5,378.7l-58,72.9
	c0.3,0.3,0.6,0.7,0.8,1.1l48-19.3l10.3-54.1C3240.2,379.1,3239.9,379,3239.5,378.7L3239.5,378.7z M3238.5,377.8
	c-0.5-0.6-0.9-1.3-1.2-2c-0.1-0.3-0.1-0.7-0.1-1l-37-1l-20.3,76.6l0.7,0.4L3238.5,377.8z M3198.8,373.7l-63.8-1.6
	c-0.2,1.3-0.9,2.5-2,3.3l17.9,31.3l25.1,43.8l0.5,0c0.7-0.2,1.4-0.3,2.1-0.1L3198.8,373.7z M3149.4,406.6l-17.6-30.7l-0.5,0.2
	c-0.7,0.2-1.5,0.3-2.2,0.2c-0.7-0.1-1.5-0.4-2.1-0.8l-21.3,24.2l68.4,51.8l0.6-0.5L3149.4,406.6z M3126.1,374.6
	c-0.5-0.6-0.8-1.2-1.1-1.9c-0.2-0.6-0.2-1.2-0.1-1.8l-74.9-14.8c-0.1,0.3-0.3,0.7-0.5,1l55.2,42.1L3126.1,374.6z M3086.3,293.7
	l41.7,72.8l0.5,0c0.4-0.1,0.9-0.1,1.3-0.1l6.1-67.9l-47.7-7.1C3087.7,292.3,3087.1,293.2,3086.3,293.7L3086.3,293.7z M3143.9,196.8
	l-57.4,89c0.8,0.6,1.3,1.5,1.6,2.4c0.1,0.5,0.1,1,0.1,1.6l47.7,7.1l9-99.8C3144.6,197.1,3144.2,196.9,3143.9,196.8z M3147.6,197.1
	c-0.4,0.1-0.9,0.1-1.3,0.1l-9,99.9l76.2,11.4c0.3-1,0.9-1.9,1.7-2.6l-67-109.1L3147.6,197.1z M3149.9,195.6l-0.5,0.5l67,109.1
	l0.6-0.2l0.8-0.1l-0.4-61.7L3149.9,195.6z M3213.2,229.2c-0.3-1-0.3-2.1,0.1-3.1l-59.7-29.6l63.8,45l-0.1-8.8
	c-0.9-0.2-1.8-0.6-2.6-1.2C3213.9,231,3213.4,230.1,3213.2,229.2L3213.2,229.2z M3219.1,304.9c0.8,0.1,1.6,0.4,2.3,0.8
	c0.7,0.5,1.2,1.1,1.6,1.8l55.4-17.6c-0.3-1.2-0.2-2.6,0.4-3.7l-60-42.2L3219.1,304.9z M3221.4,231.8c-0.5,0.4-1.1,0.8-1.8,0.9
	c-0.3,0.1-0.5,0.1-0.8,0.1l0.1,9.7l57.1,40.1L3221.4,231.8z M3379.9,167.2L3223,226.7c0.2,0.7,0.2,1.5,0.1,2.2
	c-0.1,0.7-0.4,1.4-0.9,2l57.8,54c0.9-0.7,2-1.1,3.1-1.2c1.1,0,2.2,0.3,3.2,1l94.8-115.8c-0.6-0.5-1-1-1.3-1.7L3379.9,167.2z
	 M3287.3,285.6l0.4,0.5l75.8-42.4l27.5-15.4c0-0.1,0-0.3,0-0.4c-0.4-1.3-0.3-2.7,0.4-3.9c0.6-1.2,1.7-2.1,3-2.5l-9-51.3
	c-1.1,0.1-2.2-0.1-3.2-0.6L3287.3,285.6z M3288.3,290.2l83.1,29.1l22.5-88.3c-0.9-0.3-1.7-0.9-2.2-1.7l-56.8,31.8l-16.7,9.3
	l-30,16.9C3288.5,288.2,3288.5,289.3,3288.3,290.2L3288.3,290.2z M3524.3,336.8l85.2-2.8c0,0,0-0.2,0-0.3l-73-21.6
	c-0.4,0.9-1,1.6-1.7,2.1c-0.8,0.5-1.7,0.9-2.6,0.9c-0.9,0.1-1.9-0.1-2.7-0.6c-0.8-0.4-1.5-1.1-2-1.9L3524.3,336.8z M3526.1,312.3
	l-91.3,27.3l88.1-3L3526.1,312.3z M3443.5,184.4l-14.4,12.7l53.7,40.3c0.2-0.3,0.5-0.5,0.8-0.7l-34.4-51l-0.5,0.2
	c-0.9,0.3-1.9,0.3-2.8,0c-0.9-0.2-1.8-0.8-2.4-1.4L3443.5,184.4z M3443.5,119.3l-106.1-8.9c-0.1,0.4-0.2,0.7-0.4,1l106.1,66.3
	c0.6-0.8,1.5-1.4,2.5-1.7c0.2,0,0.4-0.1,0.6,0L3443.5,119.3z M3442.2,180.3l-52.9-13.6c0,0.2-0.1,0.3-0.2,0.5l39,29.3l14.7-13
	c-0.2-0.3-0.3-0.6-0.4-0.9C3442.2,181.8,3442.1,181.1,3442.2,180.3L3442.2,180.3z M3564.4,94.3c0.8-0.1,1.5,0,2.2,0.3
	c0.7,0.3,1.4,0.7,1.9,1.2l30.1-22.6l-44.9-48.2c-0.4,0.3-0.8,0.5-1.3,0.6L3564.4,94.3z M3553.9,41.6l6.2,56.1
	c0.3-0.7,0.7-1.4,1.2-1.9c0.5-0.5,1.2-1,1.9-1.2L3553.9,41.6z M3566.3,104.3c-0.3,0-0.6,0.1-0.8,0.1l2.3,60.1
	c1.3,0.1,2.5,0.7,3.3,1.6l27.1-19l-31-43.2C3566.9,104.1,3566.6,104.2,3566.3,104.3z M3564.2,104.5c-0.7-0.1-1.4-0.4-2.1-0.8
	c-0.6-0.4-1.2-0.9-1.6-1.5l5.4,49.1L3564.2,104.5z M3550.8,26c-0.6,0-1.3-0.1-1.8-0.3l-52.6,93c0.9,0.7,1.5,1.6,1.8,2.6
	c0.3,1.2,0.2,2.5-0.3,3.6l65.5,41.4c0.6-0.8,1.5-1.3,2.5-1.6l0.3,0L3550.8,26z M3443.1-1.1l62.8,12.4l4-33.6c-0.7-0.2-1.4-0.5-2-1
	c-0.6-0.5-1-1.1-1.4-1.7l-63.6,22.5C3443.1-2,3443.1-1.5,3443.1-1.1L3443.1-1.1z M3507.1,11.6l38.8,7.6c0.3-0.7,0.7-1.4,1.2-1.9
	l-33.3-40.2c-0.4,0.2-0.8,0.4-1.2,0.6c-0.5,0.1-1,0.1-1.4,0.1L3507.1,11.6z M3545.9,22.4c-0.1-0.6-0.2-1.2-0.1-1.8l-38.6-7.6
	l-12.4,104.9l0.7,0.2l52.4-93C3546.9,24.4,3546.2,23.5,3545.9,22.4L3545.9,22.4z M3490.9,176.3l71.4-6.7c0-0.7,0.2-1.4,0.5-2
	l-65.5-41.5c-0.7,0.8-1.5,1.3-2.5,1.6c-0.4,0.1-0.7,0.1-1.1,0.1L3490.9,176.3z M3492.5,127.9c-0.6-0.1-1.2-0.3-1.7-0.6l-39.8,50.3
	c0.6,0.6,1,1.3,1.3,2.1c0,0,0,0.2,0,0.3l37.3-3.6L3492.5,127.9z M3564,173.6l-73.3,64.8c0.3,0.4,0.5,0.9,0.7,1.4
	c0.2,0.7,0.2,1.3,0.2,2c-0.1,0.7-0.3,1.3-0.6,1.9l48.2,35l26.4-104.2C3565,174.3,3564.4,174,3564,173.6z M3490,244.8l-0.3,0.3
	l39.9,60.3c0.2-0.1,0.5-0.2,0.8-0.3c0.7-0.2,1.4-0.2,2.1-0.1l6.3-24.8L3490,244.8z M3489.5,237.4l73.6-64.9
	c-0.3-0.4-0.5-0.9-0.7-1.4c0,0,0-0.2,0-0.3l-71.6,6.8l-3.4,58.6c0.9,0.2,1.7,0.6,2.3,1.2L3489.5,237.4z M3489.2,177.8l-37.1,3.5
	c0,0.7-0.2,1.5-0.5,2.1c-0.3,0.7-0.8,1.3-1.4,1.7l34.7,51.3l0.2,0c0.4-0.1,0.7-0.2,1.1-0.2L3489.2,177.8z M3449.6,176.7l40.1-50.3
	c-0.6-0.6-1-1.3-1.2-2.1c-0.1-0.4-0.1-0.8-0.1-1.3l-43.4-3.6l2.9,56.5c0.7,0.1,1.5,0.3,2.1,0.7L3449.6,176.7z M3488.3,121.6
	c0.1-0.7,0.4-1.3,0.8-1.9c0.4-0.6,0.9-1,1.5-1.4L3439.5,3.7l-0.5,0l5.8,114.2L3488.3,121.6z M3491.8,117.8c0.5-0.1,0.9-0.1,1.4-0.1
	l12.4-105l-62.8-12.4c-0.4,1.2-1.1,2.2-2.2,2.9L3491.8,117.8z M3442-4.4L3576.6-81c0-0.2,0-0.3,0-0.5c0-0.1,0-0.1,0-0.2l-109.5,14
	l-26.3,62C3441.2-5.3,3441.6-4.9,3442-4.4z M3444.9-4.6l61.3-21.7c-0.2-1.1-0.1-2.1,0.4-3.1c0.4-1,1.2-1.8,2.1-2.3
	c0.9-0.5,2-0.7,3.1-0.6c1.1,0.1,2.1,0.6,2.9,1.3l59.5-47.1L3444.9-4.6z M3514.9-23.9l33.2,40.4c0.3-0.2,0.7-0.4,1.1-0.5
	c0.7-0.2,1.5-0.3,2.3-0.2l8-27.2l-43.8-13.8c-0.2,0.5-0.5,0.9-0.9,1.3L3514.9-23.9z M3552.8,16.2c0.7,0.3,1.3,0.7,1.8,1.3
	c0.5,0.6,0.9,1.2,1.1,1.9c0,0.3,0,0.6,0.1,0.8l106.8,1l0-0.2l-101.8-32L3552.8,16.2z M3662.7,23.4c0-0.3,0-0.6-0.1-0.9l-106.9-1
	c-0.1,1-0.5,1.9-1.1,2.6l44.9,48.3l63.7-48C3663.1,24.1,3662.9,23.8,3662.7,23.4z M3599.3,74.2l-30.1,22.7c0.2,0.3,0.3,0.7,0.5,1.1
	c0.2,0.7,0.2,1.4,0.1,2l66.2,16.1c0.2-0.5,0.5-1,0.8-1.4L3599.3,74.2z M3636,119.4c-0.2-0.7-0.2-1.4-0.1-2l-66.2-16.1
	c-0.3,0.8-0.8,1.5-1.4,2l31,43.1l37.1-26.1C3636.3,120,3636.1,119.7,3636,119.4z M3599,148.2l-27.1,19.1c0.2,0.3,0.3,0.6,0.4,0.9
	c0.2,0.7,0.3,1.5,0.2,2.3l51.4,15.8c0.3-0.6,0.7-1.2,1.2-1.6L3599,148.2z M3623.7,189.9c-0.2-0.8-0.3-1.6-0.2-2.3l-48.6-14.8
	l52,25.5l0.5-4.9c-0.9-0.2-1.7-0.6-2.3-1.3C3624.4,191.5,3624,190.7,3623.7,189.9z M3571.6,172.5c-0.5,0.8-1.3,1.5-2.2,1.9
	l44.3,154.7l0.4,0.3l0.4,0l12.4-129.7L3571.6,172.5z M3568.1,174.8c-0.4,0.1-0.9,0.1-1.3,0.1l-26.5,104.8l70.6,51.4
	c0.5-0.5,1-0.9,1.6-1.2L3568.1,174.8z M3539.9,281l-6.2,24.3c0.7,0.3,1.4,0.7,2,1.3c0.5,0.6,0.9,1.3,1.2,2c0.2,0.7,0.3,1.5,0.2,2.3
	l20.4,6.1l52.6,15.6c0-0.1,0.1-0.2,0.2-0.4L3539.9,281z M3528.5,306.3l-39.8-60.3l-0.8,0.3c-1.2,0.4-2.5,0.3-3.7-0.3l-14.3,25.3
	l57.9,35.5C3528,306.7,3528.2,306.5,3528.5,306.3z M3483.1,245.3c-0.6-0.5-1.1-1.1-1.4-1.8c-0.3-0.7-0.5-1.5-0.4-2.2l-80.7-13.3
	c0,0.2-0.1,0.4-0.2,0.6l68.4,41.9L3483.1,245.3z M3400.6,224.9c0.1,0.5,0.2,1.1,0.1,1.7l80.8,13.1c0-0.3,0.2-0.5,0.4-0.8l-53.8-40.5
	l-28.2,25.1c0.3,0.4,0.6,0.8,0.8,1.3L3400.6,224.9z M3427.1,197.6l-38.7-29.1c-0.5,0.6-1.2,1.1-2,1.4l9,51.4
	c1.3-0.1,2.6,0.4,3.6,1.3L3427.1,197.6z M3336.4,112.9l45.1,48.1c0.5-0.3,1-0.6,1.5-0.7c1.3-0.4,2.7-0.2,3.9,0.4
	c1.2,0.6,2.1,1.7,2.5,3c0.2,0.6,0.2,1.3,0.1,1.9l52.9,13.6L3336.4,112.9L3336.4,112.9z M3434.8,2.9l-98.3,103.2
	c0.4,0.5,0.7,1.1,0.9,1.8c0.1,0.4,0.1,0.8,0.1,1.2l105.9,8.9l-5.8-114C3436.6,3.9,3435.6,3.5,3434.8,2.9z M3401.6-55.5l34.2,49.7
	l0.7-0.3c0.9-0.3,1.9-0.3,2.8,0l26-61.4l-61.6,7.9c0,0.8-0.2,1.5-0.5,2.2c-0.3,0.7-0.8,1.3-1.4,1.8L3401.6-55.5z M3517-190.3
	L3402.3-62.9c0.6,0.6,1,1.3,1.2,2.1l62.5-8l51.4-121.2L3517-190.3z M3521.8-189.7l-0.4,0c-0.9,0.3-2,0.4-2.9,0.2L3467.3-69l108.8-14
	c0-0.8,0.2-1.6,0.6-2.3c0.4-0.7,0.9-1.3,1.5-1.8L3521.8-189.7z M3577.7-79.3l-62.1,49.4c0.2,0.4,0.4,0.8,0.5,1.2
	c0.2,0.8,0.3,1.6,0.2,2.4l43.7,13.7l19.3-65.7C3578.6-78.6,3578.1-78.9,3577.7-79.3z M3584-78.6c-0.4,0.3-0.8,0.5-1.3,0.7
	c-0.7,0.2-1.5,0.3-2.3,0.2l-19.3,65.7l102,31.8c0.2-0.5,0.5-0.9,0.9-1.3L3584-78.6z M3641.7,112.9l24.2-86.2
	c-0.6-0.3-1.2-0.7-1.7-1.1l-63.7,47.9l37.5,40.3c0.4-0.3,1-0.6,1.5-0.7C3640.2,112.8,3641,112.7,3641.7,112.9z M3639.4,122.8
	c-0.9-0.3-1.6-0.8-2.2-1.4l-37.2,26.1l26.1,36.3c0.3-0.2,0.6-0.3,1-0.4c0.6-0.1,1.1-0.2,1.7-0.1L3639.4,122.8z M3632.5,191.6
	c-0.6,0.8-1.5,1.4-2.5,1.7c-0.4,0.1-0.9,0.1-1.3,0.1l-0.5,5.4l71.1,35L3632.5,191.6z M3705.3,238.2l-77.2-37.9l-12.3,129.2
	c0.7,0.2,1.4,0.5,2,0.9l88.2-87.6c-0.4-0.5-0.7-1-0.8-1.6C3704.9,240.2,3705,239.2,3705.3,238.2z M3707,243.9l-88.3,87.6
	c0.3,0.4,0.6,0.9,0.8,1.4l75.5-15.9l13.6-72.2C3708,244.5,3707.5,244.2,3707,243.9L3707,243.9z M3738.4,303.5l-26.7-58.8
	c-0.6,0.2-1.2,0.2-1.8,0.1l-13.5,71.7l39.6-8.5c0-0.9,0.2-1.8,0.6-2.6C3737,304.6,3737.6,304,3738.4,303.5z M3686.8,373.6l50.6-62.3
	c-0.5-0.5-0.9-1.1-1.1-1.8l-40.2,8.5l-10.4,55.1C3686,373.3,3686.4,373.4,3686.8,373.6z M3682.6,373.1c0.6-0.1,1.2-0.2,1.8-0.1
	l10.3-54.6l-74,15.6l59.7,40.6C3681,373.9,3681.8,373.4,3682.6,373.1z M3679,377.8c0-0.7,0.2-1.5,0.6-2.2l-59.8-40.8
	c-0.1,1-0.5,2-1.1,2.8c-0.6,0.8-1.5,1.4-2.5,1.7c-1,0.3-2,0.3-3,0c-1-0.3-1.9-0.9-2.5-1.7l-91.5,55.9L3679,377.8z M3609.9,336.6
	c-0.1-0.2-0.2-0.4-0.2-0.6c0-0.2,0-0.4,0-0.6l-85.4,2.8l-7,55.2L3609.9,336.6z M3515.8,393.4l7-55.3l-87.9,3
	c-0.1,0.6-0.2,1.1-0.4,1.6L3515.8,393.4z M3434.5,338.4l92.1-27.5c-0.2-1,0-2,0.4-3l-57.8-35.7l-36.3,64.1
	C3433.6,336.9,3434.2,337.6,3434.5,338.4z M3431.8,335.7l36.4-64l-68.4-42.3c-0.5,0.6-1.2,1.1-1.9,1.5l31.2,104.5
	c0.9-0.1,1.8,0.1,2.6,0.4L3431.8,335.7z M3427.7,335.7l-31.2-104.5c-0.5,0.1-1,0.1-1.4,0.1l-22.5,88.4l52.7,18.5
	C3425.8,337.1,3426.7,336.3,3427.7,335.7L3427.7,335.7z M3359.5,380.9l65.6-38.4l-0.2-0.5c-0.2-0.8-0.3-1.7-0.2-2.5l-52.5-18.4
	l-14.9,58.4C3358.2,379.8,3358.9,380.3,3359.5,380.9L3359.5,380.9z M3354,379.2c0.7-0.2,1.4-0.2,2.1-0.1l14.9-58.5l-83.4-29.3
	c-0.2,0.4-0.5,0.8-0.9,1.1l12.1,15.9l54.1,71.3C3353.3,379.5,3353.6,379.4,3354,379.2L3354,379.2z M3351.9,380.4l-53.5-70.4
	l-12.8-16.7c-0.3,0.2-0.6,0.3-0.9,0.4c-0.9,0.3-2,0.3-2.9,0l-19.6,40.5l88.9,47.1C3351.3,381.1,3351.6,380.8,3351.9,380.4
	L3351.9,380.4z M3350.7,382.3l-89.1-47l-16.8,34.8c1,0.6,1.8,1.6,2.2,2.8c0.1,0.4,0.1,0.8,0.1,1.1l103.2,9
	C3350.4,382.8,3350.5,382.6,3350.7,382.3L3350.7,382.3z M3350.4,384.3l-103.2-9c-0.2,0.9-0.6,1.8-1.2,2.4c-0.6,0.7-1.4,1.2-2.3,1.5
	c-0.6,0.2-1.2,0.2-1.8,0.1l-10.1,53.4l118.6-47.8C3350.3,384.7,3350.3,384.6,3350.4,384.3L3350.4,384.3z M3212.8,539.9l135.4-152.8
	l-116.7,47l-20,105.2c0.5,0.2,0.9,0.5,1.3,0.8L3212.8,539.9z M3210.2,539.1l20-104.2l-47.2,19c0.3,1.1,0.2,2.3-0.3,3.4
	c-0.5,1.1-1.3,1.9-2.3,2.5l28.6,79.6c0.4-0.1,0.8-0.1,1.2-0.1L3210.2,539.1z M3205.6,541.4c0.5-0.8,1.2-1.4,2-1.8L3179,460
	c-1.3,0.3-2.6,0.1-3.8-0.6c-1.1-0.7-2-1.7-2.3-3c0-0.1,0-0.2,0-0.4l-121.7,10.7c0,0.5-0.1,0.9-0.3,1.4L3205.6,541.4z M3051,465.1
	c0,0.1,0,0.3,0,0.4l121.7-10.7c0-0.8,0.3-1.6,0.7-2.3l-68.6-51.7l-55,62.6c0.5,0.5,0.9,1.2,1.2,1.9L3051,465.1z M3049,462.3
	l54.9-62.6l-55.3-41.9c-0.6,0.5-1.2,0.9-2,1.1c-0.4,0.1-0.7,0.1-1.1,0.1l1.2,102.4c0.8,0.2,1.6,0.6,2.2,1.1L3049,462.3z
	 M3044.6,461.6c0.2,0,0.5-0.1,0.8-0.1l-1.2-102.4l-0.3,0l-30.7,94l28.5,11.2c0.6-1.2,1.7-2,2.9-2.5L3044.6,461.6z M3004.3,535
	c0.4-0.3,0.9-0.5,1.4-0.7c1.1-0.3,2.2-0.3,3.3,0.1l34.2-63.8l-0.2-0.2l-48.3,47.2c0.3,0.5,0.6,1,0.8,1.6c0.3,0.8,0.3,1.7,0.1,2.6
	c-0.2,0.8-0.6,1.6-1.2,2.3L3004.3,535z M3003.3,535.9l-9.9-11.2c-0.4,0.3-0.9,0.5-1.4,0.7c-1.3,0.4-2.6,0.2-3.8-0.4l-8.8,12.8
	l22.8,0.6c0.2-0.8,0.6-1.6,1.2-2.3L3003.3,535.9z M2949.9,581.5l52.7-39.4c-0.2-0.3-0.3-0.7-0.4-1.1c0-0.3,0-0.6-0.1-0.9l-23.5-0.7
	l-28.9,41.8L2949.9,581.5z M2944.8,580.1c1.3-0.4,2.6-0.2,3.8,0.4l28.3-41l-122-3.5c0,0.3-0.1,0.6-0.2,0.9l87.3,45.3
	c0.7-1,1.6-1.7,2.7-2L2944.8,580.1z M2822.4,588.3c0,0.2,0.1,0.4,0,0.6l118.6-4.3c0-0.1,0-0.3,0-0.4l-101.4-30.8l-19.2,32.3
	c0.9,0.6,1.5,1.5,1.8,2.6L2822.4,588.3z M2814.6,585.5c0.4-0.3,0.9-0.5,1.4-0.6c1.2-0.3,2.4-0.3,3.5,0.2l19-32l-67.7-20.5
	c-0.2,0.6-0.5,1.1-0.9,1.6L2814.6,585.5z M2771,529.4l0,0.5l73.8,4.3c0.1-0.7,0.4-1.4,0.8-2l-51.2-46.6l-25.6,41.1
	c1,0.7,1.7,1.6,2,2.8L2771,529.4z M2765.9,525.7c0.6,0,1.2,0.1,1.8,0.3l25.7-41.4l-35.2-32.1c-0.5,0.4-1.1,0.7-1.6,0.8l-0.7,0
	L2765.9,525.7z M2761.2,529.1c0.3-0.8,0.7-1.4,1.3-2c0.6-0.5,1.3-1,2.1-1.2l-10-72.4c-0.5-0.1-1-0.2-1.4-0.4l-35.5,61.5
	c1,0.6,1.7,1.4,2.2,2.4c0.4,1,0.5,2.2,0.3,3.3L2761.2,529.1z M2760.9,531.7l0.2,0.6c-0.2-0.6-0.2-1.3-0.1-1.9l-41.6-8.9
	c-0.6,1.1-1.6,1.9-2.8,2.4c-1.2,0.4-2.5,0.4-3.7-0.1l-0.5-0.2l-6.7,11.3l-12.6,21.9c0.2,0.2,0.4,0.4,0.6,0.6
	c0.2,0.2,0.4,0.4,0.5,0.6L2760.9,531.7z M2597.8,563.4l87.1-3.2c0.1-0.5,0.2-1.1,0.4-1.5c0.2-0.6,0.6-1.1,1.1-1.6l-16.3-20.6
	l-72.4,26.7c0,0-0.1,0.2,0,0.3L2597.8,563.4z M2597.3,561.9l72-26.5l-29.3-37.3c-0.7,0.4-1.5,0.7-2.3,0.7c-0.8,0.1-1.6-0.1-2.4-0.4
	l-38.8,62.3c0.3,0.4,0.6,0.8,0.8,1.2L2597.3,561.9z M2593,559.3c0.6,0,1.2,0.2,1.8,0.4l0.6,0.3l38.6-62.3c-0.5-0.4-0.9-0.8-1.2-1.4
	l-46.5,15.4L2593,559.3z M2515.7,548.3l72.1,14.8c0.1-0.3,0.2-0.5,0.3-0.8c0.3-0.8,0.8-1.4,1.5-1.9c0.6-0.5,1.4-0.9,2.2-1.1
	l-6.5-47.1l-91.6,30.2c0,0.4,0,0.7-0.1,1.1L2515.7,548.3z M2493.4,541.4l91.4-30.5l-9.6-69.1c-0.7,0-1.4-0.1-2.1-0.4l-0.7-0.4
	l-79.9,98.8c0.3,0.4,0.5,0.9,0.7,1.4L2493.4,541.4z M2488.7,537.8c0.6,0,1.2,0.1,1.8,0.4c0.5,0.2,0.9,0.5,1.3,0.8l79.8-98.7
	c-0.5-0.5-0.9-1.1-1.1-1.8l-95.2,20.4L2488.7,537.8z M2486.3,538.3c0.4-0.2,0.7-0.3,1.1-0.4l-13.3-78.6l-31.8,6.9
	c0.1,0.8-0.1,1.6-0.4,2.3c-0.3,0.7-0.8,1.4-1.4,1.9L2486.3,538.3z M2439.1,461.8c0.7,0.3,1.3,0.7,1.8,1.2c0.5,0.5,0.9,1.2,1.1,1.8
	l31.9-6.9l-16.3-95.4l-0.5,0l-6.5,34.2l-12.2,64.7L2439.1,461.8z M2434.9,461.5c0.7-0.3,1.5-0.4,2.3-0.4l12.3-65l6.4-33.9l-0.4-0.1
	c-0.8-0.3-1.4-0.8-1.9-1.5l-55.2,34.7L2434.9,461.5z M2397.1,396l-84.1,52.9c0.3,0.6,0.4,1.3,0.4,1.9l118.5,14.3
	c0.1-0.3,0.2-0.6,0.3-0.8c0.3-0.8,0.9-1.5,1.6-2.1L2397.1,396z M2410.2,510l23.5-39.6c-0.6-0.5-1.1-1.1-1.4-1.7s-0.5-1.4-0.5-2.2
	l-118.6-14.4c0,0.2-0.1,0.4-0.2,0.7L2410.2,510z M2312.3,447.8l84.1-52.9l-14.8-26.8c-1.3,0.5-2.7,0.5-3.9-0.1
	c-0.2-0.1-0.5-0.2-0.7-0.4l-65,79.8C2312.1,447.6,2312.3,447.7,2312.3,447.8L2312.3,447.8z M2310.2,446.1c0.3,0.1,0.7,0.3,1,0.5
	L2376,367c-0.6-0.6-1-1.3-1.2-2.1l-82.6,13l15.8,67.8C2308.7,445.7,2309.5,445.8,2310.2,446.1L2310.2,446.1z M2305.6,446.4
	c0.3-0.2,0.7-0.3,1-0.4l-15.8-67.8l-32.1,5.1c0,0.7-0.1,1.5-0.4,2.1c-0.2,0.6-0.6,1.1-1,1.5L2305.6,446.4z M2239.2,471.7
	c1.1,0.5,2,1.3,2.6,2.4l61.3-22c-0.2-1-0.1-2.1,0.3-3.1c0.3-0.6,0.6-1.2,1.1-1.6l-48.3-59.5c-0.9,0.5-1.9,0.8-2.9,0.7l-14.6,83
	L2239.2,471.7z M2237.5,471.3l14.6-83l-0.5-0.2c-0.4-0.2-0.7-0.4-1.1-0.7L2202,436l32.4,36c0.9-0.6,2-0.9,3.1-0.9L2237.5,471.3z
	 M2130.7,509.3l101.5-31.9c-0.2-1-0.1-2,0.3-2.9c0.2-0.5,0.5-0.9,0.8-1.3l-32.2-36.1l-71,71.3c0.3,0.3,0.5,0.6,0.7,0.9L2130.7,509.3
	z M2128,506.7c0.4,0.2,0.8,0.4,1.1,0.6l71.1-71.3l-51.4-57.8c-0.8,0.6-1.8,0.9-2.9,0.9l-18.4,127.1c0.2,0.1,0.4,0.2,0.5,0.3
	L2128,506.7z M2125.3,506.3l0.8-0.1l18.4-127.1c-0.2,0-0.4-0.1-0.6-0.2l-0.7-0.4l-39.4,47.8L2125.3,506.3z M2123.1,503.3l-20.5-75.8
	l-5.6,6.8c0.7,0.7,1.1,1.6,1.3,2.6c0.2,1,0.1,2-0.3,2.9c-0.4,1-1.1,1.8-2,2.4L2123.1,503.3z M2093.4,432.6c0.7,0,1.4,0.2,2,0.4
	c0.3,0.1,0.5,0.2,0.7,0.4l6.2-7.5l-18.2-67.7L2093.4,432.6z M2088.7,435.5c0.3-0.7,0.8-1.2,1.4-1.7c0.6-0.5,1.2-0.8,1.9-1l-9.9-78.8
	c-0.7,0-1.4-0.1-2-0.4c-0.7-0.3-1.4-0.8-1.9-1.4c-0.5-0.6-0.9-1.3-1.1-2.1l-147.5,28.7c0.1,0.7,0,1.3-0.2,1.9L2088.7,435.5z
	 M1929.3,377.5l147.7-28.7c0-0.2,0-0.4,0-0.7l-85.8-15.9l-31.1-5.8c0,0.2-0.1,0.3-0.2,0.5c-0.5,1.2-1.5,2.2-2.8,2.7
	c-1.2,0.5-2.7,0.5-3.9,0l-26,45.4c1,0.5,1.8,1.3,2.2,2.3L1929.3,377.5z M1926.2,374.4l26.1-45.5c-1-0.8-1.8-2-2-3.3l-37.7,1.3
	l11.1,47.3c0.8-0.2,1.6-0.2,2.4,0L1926.2,374.4z M1928,450.6l-3.7-66.1c-0.6-0.1-1.1-0.2-1.6-0.4c-0.6-0.3-1.2-0.7-1.7-1.1
	c-0.5-0.5-0.8-1.1-1.1-1.7c-0.3-0.6-0.4-1.3-0.4-2c0-0.7,0.2-1.3,0.4-2c0.3-0.6,0.6-1.1,1-1.6l-32.1-44.5L1928,450.6L1928,450.6z
	 M1925.7,451.6c0.3-0.2,0.6-0.4,1-0.6l-39.2-119.3c-1,0.2-2,0.1-3-0.3l-0.5-0.3l-34.2,45.6L1925.7,451.6z M1781.5,472.2l142.2-16.6
	c0-0.7,0.1-1.3,0.4-2c0.2-0.4,0.4-0.8,0.6-1.1l-75.9-74.7l-68.8,91.7c0.7,0.7,1.2,1.5,1.5,2.5L1781.5,472.2z M1778.5,468.5l0.5,0.2
	l69-91.8l-31.4-30.8c-1.1,0.8-2.5,1.2-3.9,1l-34.3,121.4L1778.5,468.5z M1777.2,468.2l34.3-121.5c-0.4-0.2-0.9-0.4-1.2-0.7
	l-77.2,73.1l40.5,49.8c1-0.7,2.3-1,3.6-0.9L1777.2,468.2z M1769.5,538.3l5.7-60.2c-0.3-0.1-0.5-0.2-0.8-0.3c-0.9-0.4-1.6-1-2.2-1.7
	l-59.5,30.7l52.6,33.5c0.5-0.6,1.1-1.1,1.8-1.4C1768,538.5,1768.8,538.3,1769.5,538.3z M1593.9,568.4l170.4-24.6
	c-0.1-0.8,0.1-1.6,0.4-2.4l-53.3-33.9l-117.6,60.6C1593.8,568.2,1593.8,568.3,1593.9,568.4L1593.9,568.4z M1590.9,565
	c0.9,0.4,1.7,1,2.2,1.8l117-60.2l-92.9-59c-0.5,0.6-1.2,1.1-1.9,1.4c-0.7,0.3-1.6,0.5-2.4,0.4l-22.4,115.5L1590.9,565z"/>
<ellipse transform="matrix(0.9465 -0.3228 0.3228 0.9465 12.5834 590.957)" class="st1" cx="1788.1" cy="257.5" rx="7" ry="7"/>
<g>
	
		<ellipse transform="matrix(0.9465 -0.3228 0.3228 0.9465 53.0424 564.9664)" class="st2" cx="1730" cy="122.6" rx="16.5" ry="16.5"/>
</g>
</svg>
