<svg width="14" height="10" viewBox="0 0 14 10" fill="none" xmlns="http://www.w3.org/2000/svg">
<path d="M12.5805 0H1.08541C0.555103 0 0.11147 0.388149 0.0238647 0.894391L5.38694 5.35431L6.28074 6.09767C6.58456 6.35056 7.0811 6.35056 7.38527 6.09767L8.32463 5.31658L13.6419 0.894391C13.5544 0.388149 13.1109 0 12.5805 0Z" fill="#26C296"/>
<path d="M13.6577 7.94661V5.59657V2.09961L9.60057 5.47311L8.86808 6.08226L8.11094 6.7122L7.38475 7.31597C7.08081 7.56862 6.5838 7.56862 6.28045 7.31597L5.34401 6.5371L4.79701 6.08226L4.06486 5.47311L0.00792176 2.09961V5.62052V7.95222C0.00792176 8.63297 -0.113441 9.43263 0.597563 9.81354C0.628867 9.83036 0.660989 9.84566 0.693695 9.85968C0.992137 9.98618 1.31908 10.0081 1.64614 9.99716V9.99996H12.3145V9.97718C12.5752 9.9641 12.8324 9.92474 13.0665 9.8133C13.7918 9.46791 13.6577 8.61557 13.6577 7.94661Z" fill="#26C296"/>
</svg>
