<svg width="360" height="287" viewBox="0 0 360 287" fill="none" xmlns="http://www.w3.org/2000/svg">
<g clip-path="url(#clip0)">
<mask id="mask0" mask-type="alpha" maskUnits="userSpaceOnUse" x="-811" y="-563" width="1709" height="959">
<path opacity="0.2" d="M-788.777 -105.212C-788.247 -105.8 -787.547 -106.209 -786.774 -106.381C-786 -106.554 -785.192 -106.481 -784.462 -106.172L-740.911 -182.062C-741.01 -182.114 -741.098 -182.183 -741.172 -182.267C-741.924 -182.945 -742.376 -183.893 -742.431 -184.904C-742.485 -185.914 -742.137 -186.905 -741.462 -187.659C-741.019 -188.173 -740.447 -188.561 -739.806 -188.784C-739.164 -189.008 -738.476 -189.059 -737.808 -188.932L-707.069 -277.826C-707.382 -277.974 -707.672 -278.165 -707.931 -278.394C-708.671 -279.076 -709.112 -280.022 -709.16 -281.026C-709.208 -282.031 -708.859 -283.014 -708.188 -283.763C-707.516 -284.512 -706.577 -284.966 -705.572 -285.029C-704.568 -285.091 -703.579 -284.756 -702.819 -284.096C-702.395 -283.731 -702.063 -283.272 -701.849 -282.755L-637.419 -300.96C-637.538 -301.743 -637.412 -302.543 -637.058 -303.25C-636.704 -303.958 -636.139 -304.539 -635.441 -304.912C-634.743 -305.285 -633.946 -305.433 -633.16 -305.336C-632.374 -305.238 -631.637 -304.899 -631.052 -304.366C-630.735 -304.078 -630.468 -303.74 -630.26 -303.366L-587.527 -320.179C-587.675 -320.788 -587.668 -321.425 -587.506 -322.031C-587.343 -322.637 -587.031 -323.192 -586.598 -323.646C-585.976 -324.342 -585.119 -324.786 -584.19 -324.892L-583.241 -389.338C-583.984 -389.456 -584.678 -389.783 -585.243 -390.28C-585.931 -390.902 -586.371 -391.752 -586.48 -392.672C-586.589 -393.593 -586.36 -394.521 -585.836 -395.286C-585.312 -396.05 -584.528 -396.599 -583.63 -396.829C-582.731 -397.06 -581.779 -396.957 -580.951 -396.539L-553.818 -436.562C-554.201 -436.895 -554.514 -437.301 -554.739 -437.756C-554.964 -438.211 -555.096 -438.706 -555.128 -439.213C-555.16 -439.719 -555.09 -440.227 -554.924 -440.707C-554.758 -441.186 -554.497 -441.628 -554.158 -442.005C-553.82 -442.383 -553.409 -442.69 -552.95 -442.908C-552.492 -443.126 -551.994 -443.251 -551.487 -443.275C-550.979 -443.298 -550.472 -443.221 -549.995 -443.048C-549.517 -442.874 -549.079 -442.607 -548.706 -442.263C-548.303 -441.904 -547.981 -441.463 -547.764 -440.97C-547.546 -440.476 -547.437 -439.942 -547.444 -439.403L-487.923 -431.381C-487.772 -431.939 -487.496 -432.456 -487.117 -432.892C-486.737 -433.328 -486.264 -433.673 -485.732 -433.9C-485.201 -434.127 -484.624 -434.231 -484.046 -434.204C-483.468 -434.177 -482.904 -434.02 -482.396 -433.744C-481.887 -433.468 -481.448 -433.08 -481.111 -432.611C-480.773 -432.141 -480.547 -431.601 -480.448 -431.031C-480.35 -430.462 -480.381 -429.877 -480.541 -429.322C-480.7 -428.766 -480.984 -428.254 -481.37 -427.824L-481.547 -427.668L-408.198 -330.432L-407.842 -330.585L-407.846 -329.978L-406.668 -328.401L-407.857 -329.012L-408.603 -257.418C-407.855 -257.322 -407.155 -257.001 -406.595 -256.497C-406.018 -255.981 -405.612 -255.301 -405.431 -254.548C-405.25 -253.796 -405.303 -253.006 -405.583 -252.285L-355.404 -225.462L-355.135 -225.795C-354.492 -226.53 -353.592 -226.992 -352.62 -227.086C-351.647 -227.18 -350.675 -226.899 -349.903 -226.301C-349.131 -225.703 -348.616 -224.833 -348.464 -223.868C-348.312 -222.904 -348.535 -221.918 -349.087 -221.112L-196.918 -193.851C-196.756 -194.373 -196.481 -194.852 -196.113 -195.257C-195.432 -196.012 -194.479 -196.466 -193.463 -196.519C-192.447 -196.572 -191.452 -196.219 -190.695 -195.539C-189.939 -194.858 -189.484 -193.906 -189.431 -192.891C-189.377 -191.875 -189.73 -190.881 -190.41 -190.125C-190.935 -189.554 -191.615 -189.149 -192.368 -188.961L-178.884 -61.8693C-178.006 -61.8513 -177.161 -61.5306 -176.492 -60.9614C-175.823 -60.3923 -175.371 -59.6097 -175.213 -58.7462L-121.153 -61.8042C-121.087 -62.6513 -120.745 -63.4535 -120.18 -64.0883C-119.844 -64.4629 -119.436 -64.7673 -118.982 -64.9842C-118.527 -65.2012 -118.034 -65.3264 -117.531 -65.3526C-117.027 -65.3788 -116.524 -65.3056 -116.049 -65.1371C-115.574 -64.9686 -115.137 -64.7082 -114.763 -64.3707C-114.22 -63.913 -113.817 -63.3121 -113.599 -62.6366C-113.382 -61.9611 -113.358 -61.2383 -113.532 -60.5504L-67.7913 -42.2362C-67.6597 -42.4894 -67.4979 -42.7259 -67.3096 -42.9403C-66.9726 -43.3144 -66.5651 -43.6183 -66.1104 -43.8349C-65.6558 -44.0515 -65.1628 -44.1766 -64.6598 -44.2028C-64.1567 -44.229 -63.6533 -44.1559 -63.1784 -43.9878C-62.7035 -43.8196 -62.2663 -43.5597 -61.8918 -43.2227C-61.5174 -42.8858 -61.213 -42.4785 -60.996 -42.0241C-60.779 -41.5697 -60.6537 -41.0771 -60.6273 -40.5744C-60.6008 -40.0717 -60.6737 -39.5688 -60.8418 -39.0943C-61.0098 -38.6198 -61.2698 -38.1831 -61.6068 -37.8091C-61.7088 -37.6864 -61.8221 -37.5735 -61.9451 -37.4718L-12.9402 36.4637C-12.3962 36.1971 -11.7965 36.0634 -11.1905 36.0734C-10.5846 36.0834 -9.98958 36.2369 -9.45439 36.5213C-8.9192 36.8057 -8.45908 37.2129 -8.11184 37.7093C-7.7646 38.2058 -7.54019 38.7775 -7.45693 39.3773C-7.37367 39.9772 -7.43397 40.5882 -7.63292 41.1601C-7.83187 41.732 -8.16374 42.2486 -8.60133 42.6674C-9.03893 43.0861 -9.56975 43.3952 -10.1502 43.5691C-10.7306 43.743 -11.3442 43.7768 -11.9404 43.6678L-27.3999 92.1103C-26.996 92.2776 -26.6247 92.5143 -26.3025 92.8096C-25.6095 93.4321 -25.1671 94.2854 -25.0581 95.21C-24.949 96.1345 -25.1808 97.0669 -25.71 97.8328L-0.814611 116.552C-0.2426 116.63 0.30428 116.836 0.784757 117.156C1.26523 117.476 1.66677 117.901 1.95896 118.398L61.3415 93.1204C61.2332 92.7426 61.1862 92.3498 61.2023 91.9572C61.2492 90.9491 61.6902 89.9999 62.4305 89.3138C63.1708 88.6277 64.1512 88.2595 65.1607 88.2885C65.8981 88.3144 66.612 88.5548 67.2148 88.9804C67.8175 89.4059 68.2828 89.998 68.5536 90.684L79.3243 88.9308L139.204 79.2123C139.23 78.712 139.354 78.2219 139.569 77.7697C139.785 77.3176 140.088 76.9124 140.46 76.5772C140.832 76.242 141.267 75.9834 141.74 75.8162C142.212 75.6489 142.713 75.5764 143.214 75.6026C143.714 75.6287 144.205 75.7532 144.657 75.9688C145.11 76.1845 145.516 76.4871 145.851 76.8593C146.187 77.2315 146.446 77.6662 146.614 78.1383C146.781 78.6105 146.854 79.111 146.828 79.6113C146.806 80.1983 146.652 80.7728 146.378 81.2922L196.174 116.187C196.544 115.788 196.996 115.474 197.499 115.267C198.002 115.06 198.544 114.964 199.088 114.986V114.986L205.017 80.4071L288.488 94.4406C288.67 93.8254 289.005 93.2666 289.463 92.8167C289.92 92.3667 290.485 92.0404 291.104 91.8684C291.722 91.6964 292.374 91.6843 292.999 91.8333C293.623 91.9823 294.2 92.2875 294.674 92.7202L331.357 61.2245C330.98 60.6418 330.77 59.9674 330.749 59.2741C330.728 58.5809 330.897 57.8952 331.237 57.291C331.578 56.6868 332.077 56.1871 332.681 55.8459C333.285 55.5047 333.971 55.3349 334.665 55.3549C335.613 55.3868 336.515 55.7732 337.192 56.4375L398.996 7.48637C398.621 6.8423 398.436 6.10572 398.461 5.36123C398.502 4.35077 398.942 3.39798 399.686 2.71248C400.43 2.02698 401.416 1.66492 402.427 1.70593C403.438 1.74695 404.392 2.18768 405.078 2.93119C405.765 3.6747 406.128 4.66007 406.087 5.67053C406.053 6.46105 405.771 7.22065 405.28 7.84141L442.092 44.842C442.789 44.2889 443.666 44.0109 444.555 44.0608C445.443 44.0939 446.291 44.4339 446.955 45.0228C447.62 45.6116 448.059 46.4126 448.198 47.289L572.912 43.0071L572.92 43.4821C572.946 42.8566 573.125 42.2472 573.443 41.7077C573.76 41.1682 574.206 40.7153 574.741 40.3892L554.625 -4.41125C554.216 -4.29275 553.791 -4.23944 553.365 -4.25328C552.865 -4.27359 552.373 -4.39225 551.918 -4.60249C551.463 -4.81272 551.054 -5.1104 550.714 -5.47855C550.374 -5.84669 550.11 -6.27808 549.937 -6.7481C549.764 -7.21812 549.685 -7.71755 549.705 -8.21788C549.725 -8.71821 549.844 -9.20965 550.054 -9.66412C550.264 -10.1186 550.562 -10.5272 550.93 -10.8666C551.299 -11.2061 551.73 -11.4697 552.201 -11.6424C552.671 -11.8151 553.171 -11.8935 553.671 -11.8732C554.258 -11.8502 554.832 -11.6911 555.347 -11.4085C555.862 -11.1259 556.304 -10.7275 556.639 -10.2448L650.759 -59.3421C650.606 -59.771 650.536 -60.2255 650.554 -60.6807C650.585 -61.4218 650.83 -62.138 651.26 -62.7424C651.69 -63.3468 652.286 -63.8133 652.977 -64.0852L640.926 -107.355C640.768 -107.342 640.609 -107.34 640.451 -107.347C639.95 -107.366 639.457 -107.484 639.001 -107.693C638.546 -107.902 638.135 -108.199 637.794 -108.566C637.453 -108.934 637.188 -109.364 637.013 -109.834C636.839 -110.304 636.759 -110.804 636.778 -111.304C636.796 -111.805 636.914 -112.297 637.123 -112.752C637.332 -113.208 637.628 -113.618 637.996 -113.958C638.364 -114.299 638.795 -114.564 639.265 -114.738C639.735 -114.912 640.235 -114.992 640.736 -114.973C641.27 -114.947 641.793 -114.811 642.272 -114.574C642.752 -114.337 643.177 -114.004 643.523 -113.596L755.182 -175.74C754.975 -176.233 754.879 -176.766 754.901 -177.301C754.944 -178.32 755.39 -179.28 756.142 -179.97C756.893 -180.659 757.888 -181.023 758.907 -180.979C759.412 -180.958 759.908 -180.837 760.366 -180.625C760.825 -180.412 761.237 -180.111 761.579 -179.739C762.269 -178.988 762.633 -177.994 762.59 -176.975C762.564 -176.19 762.293 -175.433 761.815 -174.81C761.337 -174.187 760.676 -173.729 759.924 -173.501L774.937 -87.6167L775.231 -87.5378C776.077 -87.5142 776.891 -87.21 777.545 -86.6733C778.198 -86.1365 778.655 -85.3976 778.842 -84.5732C779.029 -83.7488 778.937 -82.8856 778.579 -82.1199C778.221 -81.3541 777.618 -80.7293 776.865 -80.3439L809.968 7.3467C810.31 7.2742 810.659 7.23946 811.01 7.24308C812.021 7.2841 812.975 7.72483 813.661 8.46834C814.347 9.21185 814.71 10.1972 814.669 11.2077C814.629 12.2181 814.188 13.1709 813.444 13.8564C812.701 14.5419 811.715 14.904 810.703 14.863C810.151 14.8506 809.61 14.7057 809.126 14.4403L771.41 69.3953C771.992 69.9211 772.398 70.6127 772.575 71.3766C772.751 72.1406 772.688 72.94 772.395 73.667C772.102 74.394 771.593 75.0135 770.936 75.4417C770.279 75.87 769.506 76.0864 768.722 76.0617C768.301 76.0158 767.89 75.9055 767.502 75.7349L745.496 115.802C745.998 116.174 746.401 116.663 746.67 117.225C746.94 117.788 747.067 118.408 747.042 119.032C747.013 119.963 746.639 120.849 745.992 121.52L786.451 171.411C786.924 171.125 787.455 170.946 788.005 170.886C788.555 170.826 789.112 170.886 789.637 171.063C790.161 171.239 790.641 171.528 791.043 171.909C791.444 172.289 791.758 172.753 791.963 173.267C792.167 173.781 792.256 174.334 792.225 174.886C792.194 175.438 792.043 175.977 791.782 176.465C791.522 176.952 791.158 177.378 790.716 177.71C790.274 178.043 789.765 178.276 789.223 178.392L793.969 226.213C794.47 226.233 794.961 226.352 795.416 226.562C795.871 226.772 796.28 227.07 796.62 227.438C796.96 227.806 797.224 228.238 797.397 228.708C797.57 229.178 797.649 229.677 797.629 230.178C797.609 230.678 797.49 231.169 797.28 231.624C797.07 232.078 796.772 232.487 796.404 232.826C796.035 233.166 795.604 233.429 795.134 233.602C794.663 233.775 794.163 233.853 793.663 233.833C793.127 233.816 792.601 233.684 792.12 233.447C791.639 233.209 791.215 232.871 790.876 232.456L740.221 264.194C740.495 264.791 740.61 265.45 740.553 266.105C740.497 266.76 740.271 267.389 739.899 267.931C739.527 268.473 739.02 268.91 738.429 269.198C737.838 269.486 737.182 269.617 736.525 269.576C735.517 269.535 734.566 269.096 733.882 268.355C733.197 267.614 732.834 266.632 732.873 265.625C732.884 265.546 732.904 265.468 732.935 265.394L614.81 237.683L614.714 238.041L614.32 237.575L612.428 237.068L613.748 236.768L568.637 181.442C567.988 181.83 567.24 182.021 566.484 181.991C565.715 181.965 564.971 181.704 564.354 181.245C563.736 180.786 563.272 180.149 563.026 179.42L507.544 190.813C507.551 190.955 507.551 191.098 507.542 191.24C507.486 192.19 507.076 193.085 506.393 193.748C505.71 194.411 504.803 194.794 503.85 194.821C502.898 194.849 501.97 194.519 501.249 193.896C500.528 193.274 500.066 192.405 499.955 191.459L366.187 267.722C366.383 268.226 366.476 268.764 366.462 269.305C366.424 270.316 365.986 271.27 365.244 271.958C364.501 272.646 363.516 273.012 362.504 272.973C361.492 272.935 360.536 272.497 359.847 271.755C359.158 271.013 358.793 270.028 358.83 269.016C358.878 268.276 359.131 267.564 359.562 266.96L268.191 178.182C267.491 178.744 266.613 179.036 265.716 179.005C264.879 178.973 264.074 178.671 263.423 178.143L223.987 214.869C224.5 215.574 224.747 216.438 224.685 217.308C224.668 217.809 224.551 218.302 224.343 218.758C224.134 219.213 223.837 219.624 223.469 219.965C223.102 220.305 222.67 220.57 222.199 220.744C221.729 220.918 221.228 220.997 220.727 220.977C220.032 220.943 219.359 220.721 218.78 220.336C218.2 219.951 217.736 219.416 217.436 218.789L170.708 233.855C170.755 234.129 170.779 234.407 170.779 234.685C170.741 235.696 170.302 236.651 169.56 237.339C168.818 238.027 167.832 238.392 166.82 238.354C165.808 238.315 164.853 237.877 164.164 237.135C163.475 236.393 163.109 235.408 163.147 234.397C163.176 234.247 163.216 234.1 163.265 233.955L78.637 208.509C78.2803 209.324 77.649 209.989 76.8529 210.387C76.0568 210.785 75.1462 210.892 74.2792 210.689C73.4122 210.486 72.6435 209.986 72.1067 209.276C71.5699 208.566 71.2989 207.691 71.3406 206.802C71.3692 206.156 71.5609 205.528 71.8979 204.977C72.2348 204.425 72.7061 203.968 73.2678 203.648L54.2857 156.719C53.8677 156.839 53.4345 156.897 52.9996 156.892C52.0898 156.832 51.2306 156.451 50.5749 155.818C49.9192 155.184 49.5095 154.339 49.4184 153.433L-3.63541 156.017L-3.69172 156.227C-3.8214 157.247 -4.3511 158.173 -5.16426 158.802C-5.97741 159.431 -7.00739 159.711 -8.02768 159.581C-9.04797 159.451 -9.97493 158.921 -10.6047 158.108C-11.2344 157.295 -11.5154 156.266 -11.3857 155.247L-73.5554 136.584C-73.728 136.943 -73.9466 137.278 -74.2058 137.581C-74.7915 138.239 -75.5863 138.674 -76.4563 138.815C-77.3263 138.955 -78.2182 138.792 -78.9819 138.352C-79.7455 137.912 -80.3341 137.222 -80.6485 136.399C-80.9629 135.576 -80.9838 134.671 -80.7078 133.834L-90.1532 128.286L-142.583 97.4147C-143.288 98.079 -144.219 98.4512 -145.189 98.4564C-146.158 98.4617 -147.094 98.0995 -147.807 97.4428C-148.52 96.7862 -148.958 95.8839 -149.032 94.9179C-149.106 93.9519 -148.81 92.994 -148.205 92.2372C-147.815 91.7869 -147.32 91.44 -146.763 91.2275L-162.795 32.3651C-163.336 32.4275 -163.885 32.3738 -164.404 32.2075C-164.923 32.0413 -165.401 31.7663 -165.805 31.4009V31.4009L-192.654 54.2939L-248.091 -10.105C-248.797 -9.64082 -249.638 -9.42329 -250.481 -9.48634C-251.325 -9.54938 -252.124 -9.88947 -252.754 -10.4536C-253.419 -11.0457 -253.849 -11.8561 -253.967 -12.738L-302.63 -12.2424C-302.723 -11.4513 -303.056 -10.7077 -303.584 -10.1109C-303.921 -9.73637 -304.328 -9.43195 -304.783 -9.21501C-305.237 -8.99807 -305.73 -8.87289 -306.234 -8.84666C-306.737 -8.82043 -307.24 -8.89363 -307.715 -9.06212C-308.19 -9.23061 -308.627 -9.49106 -309.002 -9.82854C-309.709 -10.4589 -310.151 -11.3339 -310.239 -12.277L-389.454 -14.1803C-389.551 -13.4317 -389.881 -12.7323 -390.396 -12.1806C-390.718 -11.7646 -391.123 -11.4196 -391.585 -11.1671C-392.047 -10.9145 -392.556 -10.7598 -393.081 -10.7127C-393.605 -10.6655 -394.134 -10.7269 -394.633 -10.893C-395.133 -11.0591 -395.594 -11.3264 -395.985 -11.6781C-396.377 -12.0299 -396.692 -12.4585 -396.911 -12.9373C-397.13 -13.4161 -397.248 -13.9348 -397.257 -14.4609C-397.266 -14.9871 -397.166 -15.5094 -396.964 -15.9953C-396.763 -16.4813 -396.463 -16.9204 -396.083 -17.2852C-395.551 -17.879 -394.849 -18.2961 -394.072 -18.4805L-398.703 -70.6845C-399.59 -70.7304 -400.435 -71.076 -401.1 -71.6646C-401.742 -72.2473 -402.168 -73.0304 -402.307 -73.8858C-402.446 -74.7413 -402.291 -75.6186 -401.867 -76.3741L-500.967 -153.216L-500.68 -153.612C-501.09 -153.146 -501.608 -152.788 -502.189 -152.57C-502.771 -152.353 -503.397 -152.282 -504.012 -152.365L-517.28 -104.867C-516.89 -104.708 -516.531 -104.482 -516.219 -104.2C-515.845 -103.863 -515.54 -103.456 -515.323 -103.001C-515.106 -102.547 -514.981 -102.054 -514.955 -101.551C-514.928 -101.049 -515.001 -100.546 -515.169 -100.071C-515.337 -99.5968 -515.597 -99.1601 -515.934 -98.786C-516.271 -98.412 -516.679 -98.1081 -517.133 -97.8915C-517.588 -97.6749 -518.081 -97.5499 -518.584 -97.5237C-519.087 -97.4975 -519.59 -97.5705 -520.065 -97.7387C-520.54 -97.9068 -520.977 -98.1668 -521.352 -98.5037C-521.788 -98.9025 -522.127 -99.3956 -522.343 -99.9453C-522.559 -100.495 -522.646 -101.087 -522.598 -101.675L-626.884 -124.169C-627.046 -123.743 -627.281 -123.348 -627.579 -123.004C-628.067 -122.429 -628.715 -122.012 -629.44 -121.805C-630.166 -121.599 -630.936 -121.612 -631.654 -121.844L-650.177 -80.7302C-650.044 -80.641 -649.921 -80.54 -649.807 -80.4284C-649.067 -79.7462 -648.625 -78.8006 -648.577 -77.7961C-648.529 -76.7916 -648.879 -75.8087 -649.55 -75.0598C-650.222 -74.3109 -651.161 -73.8562 -652.165 -73.7938C-653.17 -73.7315 -654.159 -74.0666 -654.918 -74.7267C-655.321 -75.0854 -655.643 -75.5264 -655.861 -76.0199C-656.078 -76.5134 -656.188 -77.0479 -656.181 -77.5871L-782.241 -101.253C-782.402 -100.738 -782.675 -100.265 -783.041 -99.8687C-783.721 -99.1134 -784.675 -98.6592 -785.691 -98.6063C-786.707 -98.5533 -787.702 -98.9059 -788.459 -99.5863C-789.215 -100.267 -789.67 -101.219 -789.723 -102.235C-789.777 -103.25 -789.424 -104.245 -788.744 -105L-788.777 -105.212ZM-704.916 -277.451C-705.317 -277.402 -705.723 -277.42 -706.119 -277.503L-736.9 -188.621C-736.587 -188.468 -736.298 -188.269 -736.043 -188.031C-735.614 -187.65 -735.278 -187.175 -735.063 -186.643L-685.607 -199.942L-704.916 -277.451ZM-580.911 -318.541C-581.305 -318.103 -581.798 -317.765 -582.348 -317.552L-572.876 -280.806L-576.855 -323.918L-580.145 -322.322C-579.927 -321.681 -579.881 -320.994 -580.012 -320.329C-580.142 -319.665 -580.445 -319.046 -580.889 -318.535L-580.911 -318.541ZM-613.161 -248.654L-612.725 -248.177L-575.349 -273.091C-575.771 -273.943 -575.855 -274.923 -575.584 -275.834L-598.186 -285.696L-613.677 -249.085C-613.489 -248.962 -613.316 -248.817 -613.161 -248.654V-248.654ZM-618.127 -242.823L-648.369 -216.268L-614.976 -242.047C-615.526 -241.938 -616.093 -241.951 -616.638 -242.086C-617.182 -242.22 -617.69 -242.472 -618.127 -242.823ZM-612.275 -244.138L-583.034 -266.705L-612.206 -247.34C-611.984 -246.833 -611.875 -246.284 -611.887 -245.731C-611.899 -245.178 -612.031 -244.634 -612.275 -244.138V-244.138ZM-575.099 -276.717C-574.972 -276.935 -574.82 -277.136 -574.645 -277.317C-574.259 -277.756 -573.774 -278.097 -573.229 -278.311L-583.276 -317.283C-583.78 -317.232 -584.289 -317.269 -584.779 -317.393L-597.818 -286.566L-575.099 -276.717ZM-571.625 -278.579C-570.882 -278.561 -570.161 -278.321 -569.556 -277.89L-487.983 -366.381L-487.893 -366.718L-488.058 -366.942L-575.75 -324.342L-571.625 -278.579ZM-568.833 -277.223C-568.603 -276.964 -568.416 -276.67 -568.277 -276.353L-491.051 -300.251L-485.719 -365.324C-486.216 -365.434 -486.69 -365.629 -487.12 -365.902L-568.833 -277.223ZM-498.224 -249.678C-498.465 -250.319 -498.528 -251.013 -498.407 -251.686L-568.382 -273.184C-568.541 -272.825 -568.759 -272.495 -569.027 -272.208C-569.077 -272.139 -569.139 -272.079 -569.209 -272.032L-536.986 -229.009L-498.224 -249.678ZM-569.384 -210.643C-569.219 -210.219 -569.134 -209.769 -569.132 -209.314L-521.524 -203.517C-521.37 -204.119 -521.066 -204.672 -520.642 -205.127C-520.635 -205.2 -520.616 -205.271 -520.586 -205.337L-537.365 -227.849L-569.384 -210.643ZM-412.359 -255.767L-465.89 -303.891C-466.46 -303.404 -467.162 -303.098 -467.906 -303.012L-468.006 -252.166L-412.911 -253.956C-412.859 -254.596 -412.647 -255.212 -412.295 -255.75L-412.359 -255.767ZM-468.905 -302.987C-469.13 -303.013 -469.349 -303.072 -469.557 -303.162L-492.57 -254.289L-492.085 -253.911C-491.377 -253.276 -490.929 -252.402 -490.827 -251.457L-469.089 -252.163L-468.905 -302.987ZM-470.443 -303.557L-470.954 -303.919C-471.339 -304.277 -471.653 -304.705 -471.879 -305.18L-490.118 -299.528L-493.766 -254.789L-493.429 -254.699L-470.443 -303.557ZM-491.196 -299.209L-567.982 -275.351C-567.912 -274.918 -567.909 -274.476 -567.972 -274.042L-498.017 -252.55C-497.856 -252.908 -497.638 -253.237 -497.373 -253.526C-496.706 -254.275 -495.774 -254.735 -494.774 -254.812L-491.196 -299.209ZM-490.106 -300.583L-472.164 -306.135C-472.278 -306.701 -472.26 -307.286 -472.111 -307.843C-471.961 -308.401 -471.685 -308.917 -471.302 -309.35C-470.925 -309.783 -470.448 -310.119 -469.913 -310.329L-473.999 -325.701L-484.568 -365.331L-484.841 -365.404L-490.106 -300.583ZM-468.878 -310.659C-468.185 -310.749 -467.481 -310.647 -466.841 -310.365C-466.202 -310.084 -465.652 -309.633 -465.25 -309.062C-464.849 -308.49 -464.611 -307.82 -464.563 -307.124C-464.515 -306.427 -464.658 -305.731 -464.978 -305.11L-448.404 -312.537L-483.346 -365.77L-483.527 -365.683L-468.878 -310.659ZM-464.611 -303.953L-411.65 -256.478L-447.828 -311.572L-464.611 -303.953ZM-412.941 -252.837L-468.057 -251.053L-468.368 -191.008C-467.773 -190.935 -467.204 -190.721 -466.709 -190.383L-412.153 -250.982C-412.583 -251.557 -412.852 -252.235 -412.933 -252.948L-412.941 -252.837ZM-469.038 -251.091L-490.797 -250.39C-490.915 -249.648 -491.241 -248.954 -491.739 -248.391C-492.024 -248.087 -492.353 -247.826 -492.713 -247.616L-469.762 -191.021L-469.264 -191.112L-469.038 -251.091ZM-493.828 -247.239C-494.033 -247.182 -494.245 -247.156 -494.458 -247.16L-499.346 -197.034L-472.243 -188.826C-472.073 -189.186 -471.854 -189.521 -471.593 -189.822C-471.309 -190.12 -470.983 -190.375 -470.624 -190.576L-493.828 -247.239ZM-500.365 -196.428L-514.416 -200.689C-514.544 -200.465 -514.698 -200.257 -514.875 -200.069C-515.252 -199.658 -515.715 -199.336 -516.232 -199.126L-504.306 -160.101L-503.903 -160.173L-500.365 -196.428ZM-514.036 -201.6L-500.274 -197.44L-495.415 -247.372C-495.673 -247.418 -495.926 -247.486 -496.172 -247.574L-515.505 -205.71L-515.171 -205.44C-514.63 -204.96 -514.238 -204.336 -514.041 -203.641C-513.844 -202.945 -513.85 -202.208 -514.059 -201.516L-514.036 -201.6ZM-497.05 -248.17L-497.176 -248.204C-497.387 -248.386 -497.573 -248.595 -497.731 -248.825L-536.36 -228.233L-519.663 -205.923C-519.171 -206.192 -518.627 -206.352 -518.068 -206.392C-517.509 -206.433 -516.947 -206.353 -516.421 -206.158L-497.05 -248.17ZM-521.587 -202.61L-569.215 -208.413C-569.353 -207.808 -569.65 -207.25 -570.077 -206.798C-570.279 -206.555 -570.518 -206.346 -570.784 -206.176L-556.053 -177.029L-521.077 -200.897C-521.362 -201.392 -521.53 -201.945 -521.567 -202.515L-521.587 -202.61ZM-537.832 -228.628L-569.928 -271.368C-570.379 -271.122 -570.873 -270.964 -571.383 -270.902L-572.355 -213.016C-571.61 -212.904 -570.914 -212.576 -570.353 -212.074C-570.14 -211.886 -569.947 -211.675 -569.777 -211.447L-537.832 -228.628ZM-572.378 -271.057C-573.123 -271.168 -573.819 -271.496 -574.38 -271.998L-574.548 -272.043L-657.189 -208.25C-656.939 -207.857 -656.765 -207.421 -656.677 -206.964L-576.752 -209.645C-576.675 -210.462 -576.334 -211.232 -575.781 -211.839C-575.164 -212.537 -574.306 -212.975 -573.379 -213.065L-572.378 -271.057ZM-576.704 -208.731L-656.581 -206.06C-656.633 -205.197 -656.972 -204.376 -657.544 -203.728C-657.848 -203.376 -658.224 -203.093 -658.646 -202.897L-648.427 -175.252L-576.485 -208.2C-576.559 -208.342 -576.625 -208.487 -576.684 -208.636L-576.704 -208.731ZM-678.998 -163.873C-678.844 -164.151 -678.661 -164.412 -678.451 -164.65C-678.058 -165.105 -677.554 -165.451 -676.988 -165.654L-685.286 -198.955L-734.736 -185.677C-734.673 -185.224 -734.689 -184.763 -734.785 -184.316L-678.998 -163.873ZM-732.618 -182.474L-635.164 -128.684L-673.015 -159.365C-673.611 -158.799 -674.374 -158.44 -675.19 -158.34C-676.006 -158.241 -676.833 -158.406 -677.548 -158.813C-678.263 -159.219 -678.829 -159.844 -679.161 -160.596C-679.493 -161.348 -679.574 -162.187 -679.393 -162.988L-732.618 -182.474ZM-675.981 -165.88C-675.58 -165.931 -675.172 -165.913 -674.777 -165.827L-662.08 -202.782C-662.355 -202.928 -662.61 -203.11 -662.837 -203.322C-663.267 -203.703 -663.602 -204.179 -663.818 -204.711L-684.294 -199.208L-675.981 -165.88ZM-673.827 -165.505C-673.518 -165.351 -673.229 -165.16 -672.965 -164.936C-672.71 -164.689 -672.481 -164.417 -672.281 -164.123L-649.159 -174.705L-659.635 -202.487C-660.189 -202.342 -660.771 -202.343 -661.325 -202.489L-673.827 -165.505ZM-648.842 -173.787L-671.953 -163.246C-671.799 -162.721 -671.754 -162.169 -671.823 -161.626C-671.891 -161.082 -672.07 -160.558 -672.348 -160.087L-633.224 -128.435C-632.973 -128.684 -632.695 -128.904 -632.395 -129.091L-648.842 -173.787ZM-633.966 -127.012L-735.511 -182.867C-735.579 -182.759 -735.658 -182.66 -735.749 -182.57L-735.782 -182.444L-684.162 -118.1L-634.266 -125.471C-634.315 -125.973 -634.263 -126.48 -634.115 -126.962L-633.966 -127.012ZM-703.653 -277.788L-703.758 -277.817L-684.471 -200.314L-663.995 -205.817C-664.094 -206.361 -664.071 -206.92 -663.928 -207.454C-663.785 -207.988 -663.525 -208.484 -663.167 -208.906C-663.017 -209.068 -662.855 -209.221 -662.684 -209.362L-703.653 -277.788ZM-702.8 -278.28L-661.769 -209.747C-661.171 -209.96 -660.528 -210.013 -659.903 -209.9L-646.55 -257.376L-702.049 -279.318C-702.179 -279.06 -702.349 -278.825 -702.551 -278.619C-702.673 -278.479 -702.806 -278.349 -702.949 -278.23L-702.8 -278.28ZM-636.005 -298.667C-636.416 -299.044 -636.739 -299.507 -636.949 -300.024L-701.484 -281.846C-701.414 -281.349 -701.435 -280.844 -701.545 -280.354L-646.152 -258.44L-635.022 -298.044C-635.418 -298.188 -635.789 -298.394 -636.121 -298.653L-636.005 -298.667ZM-658.733 -209.722C-658.408 -209.573 -658.103 -209.386 -657.824 -209.163L-618.68 -243.535C-619.009 -243.997 -619.235 -244.525 -619.343 -245.082C-619.45 -245.639 -619.436 -246.213 -619.302 -246.764L-645.415 -257.071L-658.733 -209.722ZM-632.756 -297.752C-633.167 -297.681 -633.586 -297.68 -633.998 -297.746L-645.178 -257.954L-618.951 -247.571C-618.818 -247.831 -618.654 -248.074 -618.464 -248.296C-618.109 -248.669 -617.691 -248.977 -617.229 -249.204L-632.756 -297.752ZM-631.817 -298.063L-616.272 -249.578C-615.665 -249.686 -615.042 -249.65 -614.452 -249.473L-599.133 -285.95L-630.315 -299.462C-630.44 -299.256 -630.583 -299.061 -630.741 -298.878C-631.083 -298.521 -631.496 -298.24 -631.954 -298.055L-631.817 -298.063ZM-586.313 -318.232C-586.621 -318.527 -586.888 -318.864 -587.104 -319.232L-629.916 -302.463C-629.759 -301.806 -629.773 -301.12 -629.955 -300.469L-598.689 -286.934L-585.692 -317.773L-586.313 -318.232ZM-583.203 -324.875C-582.456 -324.77 -581.758 -324.442 -581.201 -323.934C-580.96 -323.716 -580.746 -323.469 -580.564 -323.2L-576.895 -325.032L-582.322 -383.935L-583.203 -324.875ZM-575.98 -325.417L-488.624 -367.859C-488.792 -368.39 -488.849 -368.95 -488.792 -369.503L-579.124 -391.748C-579.349 -391.161 -579.715 -390.639 -580.191 -390.228C-580.667 -389.817 -581.237 -389.531 -581.851 -389.394L-575.98 -325.417ZM-487.94 -371.505L-527.548 -413.466L-579.012 -394.016C-578.904 -393.59 -578.877 -393.147 -578.934 -392.711L-488.596 -370.487C-488.436 -370.86 -488.214 -371.204 -487.94 -371.505V-371.505ZM-553.036 -435.947L-580.169 -395.924C-579.838 -395.629 -579.567 -395.273 -579.368 -394.877L-528.269 -414.222L-549.075 -436.259C-549.643 -435.85 -550.313 -435.605 -551.011 -435.55C-551.71 -435.495 -552.41 -435.632 -553.036 -435.947V-435.947ZM-488.13 -430.356L-547.651 -438.377C-547.791 -437.857 -548.037 -437.371 -548.372 -436.949L-527.307 -414.617L-488.007 -429.467C-488.072 -429.759 -488.113 -430.057 -488.13 -430.356V-430.356ZM-486.867 -427.495C-487.198 -427.791 -487.47 -428.147 -487.669 -428.543L-526.57 -413.834L-487.799 -372.705L-484.988 -426.519C-485.686 -426.661 -486.331 -426.998 -486.847 -427.49L-486.867 -427.495ZM-482.481 -427.041C-482.972 -426.762 -483.517 -426.593 -484.079 -426.545L-486.73 -372.487C-486.035 -372.854 -485.243 -372.998 -484.463 -372.898C-483.682 -372.797 -482.952 -372.458 -482.372 -371.927C-481.812 -371.412 -481.416 -370.745 -481.233 -370.007C-481.05 -369.269 -481.088 -368.494 -481.343 -367.778L-409.991 -331.228L-482.481 -427.041ZM-481.927 -366.943L-482.234 -366.553L-482.594 -366.221L-447.479 -312.875L-409.48 -329.853L-481.927 -366.943ZM-408.965 -329.084L-447.013 -312.007L-410.827 -257.023C-410.443 -257.208 -410.031 -257.326 -409.607 -257.371L-408.965 -329.084ZM-408.936 -249.782C-409.814 -249.714 -410.69 -249.949 -411.417 -250.447L-465.979 -189.827C-465.745 -189.559 -465.552 -189.256 -465.408 -188.931L-400.213 -208.981L-408.936 -249.782ZM-465.336 -185.916L-422.93 -162.055L-410.488 -155.073L-388.078 -142.47C-387.596 -143.016 -386.966 -143.41 -386.264 -143.605L-400.022 -208.096L-465.127 -188.045C-464.945 -187.332 -464.981 -186.58 -465.231 -185.888L-465.336 -185.916ZM-355.964 -224.554L-406.142 -251.376C-406.224 -251.259 -406.314 -251.147 -406.411 -251.043C-406.841 -250.566 -407.38 -250.2 -407.982 -249.977L-399.256 -209.355L-356.155 -222.578C-356.228 -223.242 -356.125 -223.913 -355.858 -224.525L-355.964 -224.554ZM-354.846 -220.313C-355.231 -220.671 -355.545 -221.099 -355.77 -221.574L-398.935 -208.368L-385.114 -143.86C-384.745 -143.87 -384.378 -143.825 -384.023 -143.725L-378.553 -157.663L-354.086 -219.952C-354.348 -220.052 -354.602 -220.173 -354.846 -220.313V-220.313ZM-353.207 -219.446L-377.415 -157.786L-383.15 -143.199C-382.936 -143.067 -382.735 -142.915 -382.55 -142.745C-382.014 -142.276 -381.623 -141.663 -381.423 -140.979L-347.933 -144.324L-352.606 -219.42C-352.806 -219.412 -353.008 -219.421 -353.207 -219.446V-219.446ZM-238.642 -133.867C-238.829 -133.894 -239.012 -133.943 -239.188 -134.013L-257.658 -100.498L-270.411 -77.3856L-270.119 -77.1274C-269.696 -76.7545 -269.363 -76.2915 -269.143 -75.7727C-268.923 -75.2538 -268.822 -74.6923 -268.849 -74.1296L-245.152 -70.0321L-238.642 -133.867ZM-244.072 -69.8554L-182.668 -59.1898C-182.501 -59.7173 -182.225 -60.2035 -181.857 -60.6166L-181.648 -60.8082L-235.926 -134.243C-236.461 -133.94 -237.063 -133.776 -237.677 -133.766L-244.072 -69.8554ZM-258.261 -101.447L-240.046 -134.513L-240.343 -134.75C-240.746 -135.106 -241.067 -135.546 -241.283 -136.038L-297.89 -119.182L-274.142 -77.8449C-273.225 -78.2222 -272.197 -78.2294 -271.274 -77.8647L-258.261 -101.447ZM-310.772 -146.145C-310.924 -145.574 -311.212 -145.049 -311.611 -144.613C-311.782 -144.406 -311.982 -144.224 -312.206 -144.075L-298.345 -120.092L-241.49 -136.949C-241.525 -137.146 -241.539 -137.346 -241.533 -137.546L-310.772 -146.145ZM-241.11 -139.46L-272.186 -162.537L-310.724 -148.091C-310.653 -147.786 -310.616 -147.474 -310.612 -147.161L-241.478 -138.59C-241.371 -138.892 -241.226 -139.178 -241.047 -139.443L-241.11 -139.46ZM-313.053 -143.603C-313.582 -143.398 -314.15 -143.311 -314.716 -143.35C-315.282 -143.389 -315.833 -143.552 -316.329 -143.828L-342.715 -108.11C-342.587 -107.743 -342.515 -107.36 -342.501 -106.972L-299.369 -119.804L-313.053 -143.603ZM-298.846 -118.898L-342.599 -105.849C-342.64 -105.613 -342.702 -105.381 -342.785 -105.156L-275.885 -76.2177C-275.761 -76.4329 -275.616 -76.6355 -275.453 -76.8224C-275.295 -77.0064 -275.115 -77.17 -274.917 -77.3093L-298.846 -118.898ZM-276.343 -75.3496L-320.781 -94.5756L-343.322 -104.331L-343.355 -104.205C-343.622 -103.911 -343.933 -103.66 -344.276 -103.461L-321.888 -50.4849L-276.176 -73.0301C-276.444 -73.7706 -276.487 -74.5734 -276.301 -75.3383L-276.343 -75.3496ZM-317.096 -144.416C-317.616 -144.917 -317.984 -145.554 -318.158 -146.255L-346.94 -143.405L-344.927 -110.369C-344.496 -110.195 -344.097 -109.951 -343.746 -109.647C-343.555 -109.459 -343.375 -109.26 -343.206 -109.052L-317.096 -144.416ZM-347.934 -143.311L-381.323 -140.007C-381.322 -139.335 -381.498 -138.675 -381.835 -138.094L-348.901 -109.587C-348.503 -109.959 -348.029 -110.241 -347.513 -110.413C-346.996 -110.586 -346.448 -110.645 -345.906 -110.586L-347.934 -143.311ZM-349.538 -108.722L-382.352 -137.175C-383.023 -136.469 -383.943 -136.053 -384.917 -136.015L-388.487 -81.3018L-349.845 -105.223C-350.075 -105.789 -350.167 -106.401 -350.114 -107.01C-350.061 -107.618 -349.863 -108.205 -349.538 -108.722ZM-351.057 -219.478L-351.566 -219.344L-346.883 -144.291L-318.3 -147.239C-318.293 -148.165 -317.95 -149.058 -317.334 -149.75C-317.131 -149.961 -316.907 -150.15 -316.665 -150.314L-351.057 -219.478ZM-349.804 -220.201C-349.918 -220.094 -350.041 -219.999 -350.173 -219.917L-315.729 -150.694C-315.075 -150.928 -314.37 -150.983 -313.687 -150.851C-313.005 -150.72 -312.37 -150.408 -311.849 -149.947C-311.523 -149.64 -311.245 -149.285 -311.027 -148.893L-273.062 -163.223L-349.804 -220.201ZM-197.11 -192.799L-347.512 -219.587L-272.022 -163.484L-197.023 -191.694C-197.097 -192.098 -197.108 -192.512 -197.055 -192.919L-197.11 -192.799ZM-196.652 -190.807L-271.072 -162.825L-240.457 -140.298C-239.859 -140.907 -239.074 -141.298 -238.227 -141.41C-237.38 -141.522 -236.52 -141.348 -235.784 -140.915L-196.055 -190.174C-196.269 -190.399 -196.451 -190.653 -196.597 -190.927L-196.652 -190.807ZM-193.364 -188.777C-194.043 -188.779 -194.71 -188.957 -195.298 -189.296L-235.022 -140.058C-234.353 -139.362 -233.971 -138.439 -233.954 -137.474C-233.937 -136.509 -234.285 -135.573 -234.929 -134.854L-235.117 -134.656L-180.827 -61.2639C-180.525 -61.4374 -180.201 -61.5702 -179.865 -61.6591L-193.364 -188.777ZM-176.086 -55.4894C-176.543 -54.988 -177.125 -54.6158 -177.772 -54.41L-173.782 -32.0366L-126.611 -43.2011C-126.645 -43.4923 -126.642 -43.7866 -126.602 -44.0769L-175.375 -56.6276C-175.546 -56.2107 -175.786 -55.8258 -176.086 -55.4894V-55.4894ZM-119.848 -58.6844C-120.462 -59.2527 -120.878 -60.0036 -121.032 -60.8259L-175.113 -57.7735C-175.113 -57.7735 -175.147 -57.6474 -175.164 -57.5844L-126.37 -45.0281C-126.207 -45.4459 -125.973 -45.8327 -125.68 -46.172C-125.254 -46.6747 -124.706 -47.0591 -124.088 -47.288C-123.469 -47.5169 -122.803 -47.5825 -122.152 -47.4786L-118.858 -58.1715C-119.213 -58.2836 -119.549 -58.4495 -119.853 -58.6634L-119.848 -58.6844ZM-115.814 -58.0088C-116.48 -57.7208 -117.216 -57.6361 -117.93 -57.7652L-121.218 -47.0933C-120.862 -46.9285 -120.533 -46.7112 -120.241 -46.4487C-119.508 -45.7792 -119.062 -44.8529 -118.995 -43.8629L-107.362 -43.2004L-115.814 -58.0088ZM-119.939 -41.0981C-119.984 -41.0381 -120.036 -40.984 -120.095 -40.9371L-63.0205 34.2598L-106.777 -42.1878L-119.054 -42.8877C-119.173 -42.1898 -119.488 -41.5401 -119.962 -41.014L-119.939 -41.0981ZM-82.136 10.6261L-120.898 -40.2965C-121.512 -39.9415 -122.215 -39.7703 -122.923 -39.8033L-134.443 31.2016L-62.5391 39.6135C-62.38 39.0084 -62.0834 38.4483 -61.6722 37.9766L-61.4954 37.8213L-82.136 10.6261ZM-68.2016 -41.3778L-113.952 -59.7396C-114.095 -59.4896 -114.263 -59.2554 -114.455 -59.0411C-114.617 -58.8613 -114.797 -58.6983 -114.991 -58.5542L-106.226 -43.2338L-68.2482 -41.12C-68.2482 -41.12 -68.2046 -41.1984 -68.1821 -41.2824L-68.2016 -41.3778ZM-64.7059 -36.5901C-65.5702 -36.649 -66.3899 -36.9955 -67.0343 -37.5743C-67.4064 -37.9012 -67.71 -38.2985 -67.9275 -38.7434C-68.1449 -39.1882 -68.2718 -39.6717 -68.3009 -40.1658L-105.635 -42.2423L-60.2871 36.9289C-60.0649 36.8327 -59.8337 36.7589 -59.5968 36.7085L-64.7059 -36.5901ZM-58.6054 36.794C-57.7194 36.8312 -56.8731 37.1726 -56.2094 37.7607C-55.5457 38.3488 -55.1053 39.1476 -54.9624 40.0222L-44.1497 39.8792L-63.528 -35.0134L-58.6054 36.794ZM-31.7217 93.1817C-31.6466 93.0704 -31.552 92.9737 -31.4424 92.8962L-57.4767 44.1903C-57.9843 44.3917 -58.5308 44.4762 -59.0757 44.4375L-68.9027 95.2449L-32.7113 95.5289C-32.6731 94.6387 -32.3182 93.7915 -31.7105 93.1397L-31.7217 93.1817ZM-56.0018 43.1442C-56.1925 43.3466 -56.4006 43.532 -56.6235 43.6983L-30.7012 92.149L-44.0077 40.8631L-55.0685 41.0072C-55.1551 41.7978 -55.4806 42.5432 -56.0018 43.1442V43.1442ZM-62.7997 -36.8901L-63.0551 -36.7784L-43.2255 39.8791L-15.0495 39.4567C-14.9558 38.6656 -14.623 37.9221 -14.0953 37.3252C-13.9932 37.2026 -13.8799 37.0897 -13.7569 36.988L-62.7997 -36.8901ZM-12.8867 43.4142C-13.2285 43.2574 -13.5454 43.051 -13.8271 42.8019C-14.4912 42.1962 -14.9255 41.3797 -15.0562 40.4908L-42.946 40.8548L-29.6002 91.9936C-29.1658 91.8906 -28.7164 91.8661 -28.2734 91.9212L-12.8867 43.4142ZM-26.0231 98.2443C-26.3402 98.598 -26.7169 98.8934 -27.1361 99.1171L-15.3101 132.711L-3.95595 132.398L-2.53278 123.973C-3.32327 123.736 -4.01448 123.246 -4.50124 122.58C-4.98801 121.914 -5.2437 121.107 -5.2294 120.282C-5.21511 119.457 -4.93159 118.66 -4.42203 118.011C-3.91246 117.362 -3.20472 116.898 -2.40647 116.688L-26.3937 98.6179L-26.0231 98.2443ZM-2.85229 132.401L16.0932 131.937C16.1297 131.759 16.1767 131.584 16.2339 131.412L1.56486 122.729C1.19296 123.196 0.715325 123.568 0.17133 123.813C-0.372665 124.059 -0.967434 124.172 -1.56386 124.143L-2.85229 132.401ZM2.47863 120.497C2.44109 120.971 2.31706 121.434 2.11267 121.863L13.7739 128.816L2.52366 120.329C2.49688 120.381 2.48153 120.438 2.47863 120.497V120.497ZM16.5707 134.024C16.3907 133.684 16.2683 133.316 16.2086 132.936L-2.94306 133.412L-6.31722 152.146C-5.96331 152.309 -5.63285 152.518 -5.33473 152.769L9.28483 140.269L16.5707 134.024ZM-7.15843 151.92L-4.04819 133.499L-14.9844 133.766L-8.5847 151.943C-8.11586 151.839 -7.63051 151.831 -7.15843 151.92V151.92ZM61.8118 94.0572L2.64252 119.212L16.8973 129.945L16.9592 129.714C17.5739 129.032 18.4149 128.595 19.327 128.483C20.2392 128.372 21.1612 128.594 21.9229 129.108L61.9406 94.2493L61.8118 94.0572ZM139.193 80.1777L122.692 82.8729L68.8598 91.6443C68.8756 91.8481 68.881 92.0525 68.876 92.2567C68.8541 92.8623 68.687 93.4537 68.3887 93.9812C68.0905 94.5087 67.6698 94.9569 67.1621 95.2881L84.1711 126.194L139.475 80.9741C139.348 80.7215 139.253 80.4539 139.193 80.1777V80.1777ZM139.932 81.7945L84.7229 126.995L109.634 172.405C110.128 172.205 110.66 172.117 111.191 172.147L111.717 172.288L140.8 82.5903C140.502 82.3726 140.238 82.112 140.016 81.817L139.932 81.7945ZM147.857 183.953L209.976 198.346C210.215 197.679 210.645 197.097 211.213 196.673L174.78 134.956L114.382 174.285C114.657 174.848 114.784 175.471 114.754 176.096C114.745 176.169 114.726 176.239 114.697 176.307L147.857 183.953ZM118.206 178.102L200.418 208.779L210.235 201.5C209.889 200.893 209.722 200.201 209.756 199.503C209.765 199.431 209.784 199.36 209.812 199.293L118.206 178.102ZM110.801 179.744C109.912 179.705 109.065 179.359 108.404 178.764L100.218 185.759L162.89 230.815L113.295 179.016C112.599 179.53 111.75 179.794 110.885 179.767L110.801 179.744ZM107.772 178.009C107.327 177.348 107.103 176.562 107.133 175.766C107.183 175.495 107.254 175.228 107.347 174.968L56.6272 154.373L99.4727 185.176L107.772 178.009ZM144.125 83.0532C143.696 83.1998 143.243 83.262 142.791 83.2363C142.404 83.2096 142.025 83.1082 141.677 82.9376L112.613 172.393C113.098 172.628 113.531 172.958 113.885 173.364L174.329 134.115L144.125 83.0532ZM195.024 118.626C195.035 118.038 195.189 117.461 195.474 116.945L145.699 82.0563C145.489 82.2654 145.258 82.4524 145.009 82.6144L175.132 133.474L195.393 120.279C195.178 119.763 195.081 119.207 195.108 118.649L195.024 118.626ZM195.912 121.116L175.625 134.327L212.079 196.049L212.424 195.939L207.808 170.515L199.063 122.479L198.727 122.388C197.691 122.379 196.701 121.96 195.974 121.223L195.912 121.116ZM262.567 172.757L245.239 158.182L216.266 196.743C216.468 196.946 216.65 197.168 216.809 197.407L262.235 176.181C262.092 175.759 262.028 175.314 262.046 174.869C262.061 174.191 262.254 173.528 262.606 172.947L262.567 172.757ZM244.484 157.552L201.529 121.27C201.114 121.663 200.619 121.961 200.078 122.142L208.86 170.459L213.402 195.57L213.717 195.655C214.319 195.681 214.908 195.839 215.442 196.117L244.484 157.552ZM288.249 95.1647L205.747 81.3008L200.047 115.108C200.581 115.271 201.073 115.551 201.487 115.926C201.9 116.302 202.226 116.764 202.44 117.28L288.241 95.9509C288.279 95.7586 288.33 95.569 288.393 95.3835L288.249 95.1647ZM288.483 96.6463L202.612 118.07C202.644 118.288 202.653 118.509 202.638 118.73C202.643 119.387 202.47 120.033 202.137 120.6L245.099 156.771L289.318 97.9058C289.009 97.5979 288.754 97.2403 288.564 96.8482L288.483 96.6463ZM334.735 62.9179L334.377 62.8221C333.489 62.7832 332.641 62.4367 331.98 61.842L295.361 93.3545C295.71 93.8919 295.919 94.5081 295.969 95.1469C296.018 95.7858 295.906 96.4267 295.643 97.011L344.85 125.442C345.309 124.838 345.941 124.387 346.661 124.148L334.735 62.9179ZM427.063 109.006L449.435 132.769L472.892 108.99C472.452 108.486 472.149 107.878 472.013 107.223L428.708 106.317C428.639 106.856 428.457 107.374 428.174 107.838C427.89 108.301 427.512 108.699 427.063 109.006ZM426.131 109.455C425.702 109.608 425.247 109.678 424.792 109.659C424.525 109.621 424.264 109.551 424.014 109.45L426.539 153.276C427.281 153.315 427.996 153.569 428.597 154.007L448.81 133.503L426.131 109.455ZM421.338 104.545L370.439 78.2275L349.856 124.509C350.521 124.91 351.046 125.507 351.359 126.218L397.667 112.637L421.149 105.755C421.151 105.711 421.163 105.668 421.183 105.629C421.189 105.277 421.237 104.927 421.327 104.587L421.338 104.545ZM351.621 127.256C351.652 127.5 351.669 127.745 351.673 127.991C351.631 128.227 351.569 128.459 351.487 128.684L396.242 145.293L421.406 107.491C421.303 107.267 421.221 107.034 421.164 106.795L351.621 127.256ZM397.265 145.68L422.931 155.214C423.198 154.719 423.573 154.291 424.028 153.96C424.484 153.63 425.008 153.407 425.561 153.307L422.994 109.132C422.657 108.933 422.351 108.684 422.088 108.394L397.265 145.68ZM423.316 159.416L364.888 196.863C365.028 197.163 365.133 197.478 365.199 197.802L403.675 195.703L423.928 160.076C423.699 159.892 423.49 159.685 423.304 159.458L423.316 159.416ZM422.802 158.558C422.559 158.021 422.446 157.436 422.471 156.848C422.507 156.588 422.575 156.334 422.674 156.091L396.798 146.5L364.095 195.615L364.5 196.038L422.802 158.558ZM395.774 146.114L351.222 129.672C350.764 130.543 349.981 131.199 349.042 131.497L354.113 157.831L361.242 194.738L361.6 194.833C362.136 194.854 362.66 194.994 363.135 195.245L395.774 146.114ZM353.09 157.444L348.09 131.603L347.725 131.617C347.163 131.598 346.612 131.454 346.112 131.196C345.612 130.937 345.176 130.57 344.835 130.122L324.004 142.084L359.779 195.066L360.311 194.848L353.09 157.444ZM344.342 129.27C344.137 128.759 344.038 128.211 344.052 127.661C344.084 127.208 344.203 126.766 344.401 126.358L295.18 97.9001C295.006 98.116 294.81 98.3126 294.594 98.4864L323.397 141.403L344.342 129.27ZM335.721 62.6867L347.625 124.001L347.982 124.097C348.298 124.148 348.608 124.231 348.908 124.345L369.525 77.9375L337.59 61.431C337.104 62.0378 336.45 62.489 335.71 62.7287L335.721 62.6867ZM399.66 8.20478L337.83 57.1713C338.215 57.8034 338.404 58.536 338.37 59.2754C338.321 59.6657 338.219 60.0473 338.066 60.4101L369.986 76.89L400.285 8.73257C400.055 8.58427 399.845 8.40686 399.66 8.20478V8.20478ZM402.161 9.30277C401.845 9.25151 401.535 9.16844 401.236 9.05482L370.919 77.2752L421.882 103.61C422.32 102.957 422.959 102.464 423.701 102.205L402.686 9.19561L402.161 9.30277ZM404.139 8.8193L403.622 9.06381L424.638 102.073L425.14 102.05L425.708 102.202L440.258 58.5835L404.139 8.8193ZM440.666 47.7253C440.692 46.9352 440.967 46.1737 441.452 45.5488L406.458 10.3416L440.573 57.4068L442.641 51.2048C442.008 50.8701 441.482 50.3653 441.122 49.7474C440.762 49.1294 440.582 48.4231 440.602 47.7084L440.666 47.7253ZM426.637 102.519C427.193 102.784 427.676 103.179 428.047 103.67C428.418 104.162 428.664 104.735 428.766 105.342L472.003 106.252C472.07 105.293 472.496 104.394 473.196 103.734L441.055 59.5628L426.637 102.519ZM445.799 51.5329C445.326 51.7105 444.821 51.7899 444.316 51.7663C444.113 51.7447 443.914 51.6915 443.727 51.6085L441.449 58.4296L472.057 100.412L445.799 51.5329ZM573.068 44.1073L448.239 48.3134C448.19 48.8581 448.023 49.3858 447.752 49.8609C447.481 50.336 447.111 50.7474 446.667 51.0676L474.449 103.012C475.239 102.719 476.104 102.695 476.909 102.944C477.715 103.192 478.416 103.699 478.904 104.386L573.567 45.5248C573.281 45.0629 573.097 44.5451 573.028 44.0064L573.068 44.1073ZM479.37 105.254L479.516 105.72L543.161 94.0608L566.251 89.821C566.27 89.7136 566.298 89.6081 566.336 89.5058C566.367 88.5049 566.794 87.5573 567.523 86.8705C568.252 86.1836 569.224 85.8136 570.225 85.8413L576.191 47.5113C575.389 47.354 574.661 46.9373 574.119 46.3257L479.37 105.254ZM478.927 108.76L530.479 149.215L567.539 92.4181C566.999 91.9603 566.598 91.3615 566.38 90.6886L518.732 99.4282L504.747 101.987L479.553 106.676C479.535 107.419 479.295 108.139 478.864 108.744L478.927 108.76ZM634.127 198.314L694.805 216.825C694.805 216.825 694.838 216.699 694.855 216.636L648.573 183.854C648.103 184.37 647.499 184.748 646.828 184.944C646.157 185.141 645.445 185.149 644.77 184.968C644.094 184.787 643.482 184.424 642.999 183.918C642.516 183.412 642.182 182.784 642.033 182.101L634.127 198.314ZM641.239 181.528L570.323 178.854L633.146 197.939L641.239 181.528ZM613.736 71.5116L600.569 76.9917L628.696 118.309C628.927 118.188 629.172 118.095 629.424 118.031L617.469 73.8179L617.056 73.8425C616.345 73.8173 615.655 73.5935 615.064 73.1964C614.473 72.7992 614.005 72.2447 613.714 71.5957L613.736 71.5116ZM629.412 25.6269L556.771 -6.11079C556.619 -5.87923 556.448 -5.66143 556.258 -5.4599L615.072 66.7799C615.717 66.3762 616.47 66.1774 617.23 66.2098C617.368 66.2251 617.503 66.2612 617.63 66.3169L629.412 25.6269ZM613.853 68.3L579.859 46.0171C579.783 46.1302 579.694 46.2348 579.595 46.3293L600.041 76.3547L613.507 70.6845C613.461 70.4355 613.446 70.1818 613.461 69.9292C613.451 69.3776 613.567 68.8309 613.8 68.3307L613.853 68.3ZM720.646 37.1015C721.193 37.2387 721.704 37.4936 722.142 37.8483C722.581 38.2031 722.936 38.649 723.184 39.1552L749.834 30.4642L729.755 -14.3039C729.412 -14.2075 729.057 -14.1585 728.701 -14.1583L720.646 37.1015ZM725.895 -2.59164L716.759 38.402C717.109 37.9592 717.551 37.5983 718.055 37.3444C718.56 37.0904 719.113 36.9497 719.678 36.9319L725.895 -2.59164ZM719.582 44.6082C719.373 44.5757 719.169 44.5209 718.972 44.4448L706.144 87.3543C707.013 87.7419 707.709 88.4331 708.103 89.2979L731.75 82.3922L720.265 44.4984C720.042 44.5608 719.813 44.5976 719.582 44.6082V44.6082ZM718.025 44.1912C717.533 43.9442 717.1 43.5934 716.756 43.163C716.412 42.7326 716.166 42.2329 716.034 41.6982L708.044 77.5717L718.025 44.1912ZM727.49 -14.3478C727.043 -14.4858 726.628 -14.7118 726.27 -15.0123L666.83 37.9051C667.285 38.5834 667.519 39.3854 667.5 40.2014C667.453 41.1309 667.073 42.0124 666.428 42.6844L702.602 87.6212C703.243 87.2316 703.984 87.0387 704.734 87.0665L704.923 87.1172L727.49 -14.3478ZM658.052 -59.3023L699.297 -35.4817L710.174 -58.2404C709.712 -58.5405 709.321 -58.9382 709.03 -59.4054C708.738 -59.8726 708.553 -60.398 708.486 -60.9445L658.286 -60.3432C658.263 -59.9786 658.183 -59.6201 658.046 -59.2813L658.052 -59.3023ZM700.134 -34.9873L725.635 -20.2948C725.984 -20.7426 726.429 -21.108 726.936 -21.3649L713.122 -57.7206C712.788 -57.6423 712.445 -57.6056 712.101 -57.6113C711.75 -57.6719 711.405 -57.7644 711.071 -57.8874L700.134 -34.9873ZM724.906 -18.0803C724.951 -18.538 725.071 -18.9853 725.261 -19.4041L699.886 -34.0628L665.922 36.9187L666.334 37.2318L725.574 -15.6944C725.064 -16.389 724.806 -17.2366 724.843 -18.0972L724.906 -18.0803ZM649.162 77.1756L701.085 89.5794C701.254 89.0993 701.533 88.6651 701.898 88.311L665.731 43.3532C665.084 43.746 664.334 43.9372 663.578 43.9023C663.311 43.8641 663.05 43.7941 662.8 43.6938L649.162 77.1756ZM661.859 43.4192C661.471 43.1897 661.122 42.8986 660.827 42.5573L620.695 68.4218C620.962 68.9799 621.091 69.5937 621.072 70.2118C621.072 70.2118 621.027 70.3799 621.004 70.4639L648.168 76.9318L661.859 43.4192ZM701.274 92.8279L634.045 120.89C634.144 121.27 634.191 121.661 634.184 122.054C634.161 122.558 634.038 123.052 633.823 123.509C633.608 123.965 633.305 124.374 632.931 124.713L658.506 161L702.186 93.883C701.816 93.5938 701.507 93.2354 701.274 92.8279V92.8279ZM632.024 125.236L631.71 125.399L645.336 177.514C645.539 177.474 645.747 177.462 645.954 177.477C646.473 177.515 646.979 177.651 647.447 177.877L657.842 161.88L632.024 125.236ZM633.443 119.941L700.909 91.9194C700.799 91.549 700.75 91.1632 700.764 90.7771C700.764 90.7771 700.809 90.609 700.832 90.525L648.777 78.1083L632.293 118.597C632.86 118.938 633.329 119.421 633.653 119.997L633.443 119.941ZM647.552 77.8025L620.541 71.3531C620.342 71.8728 620.033 72.3427 619.633 72.7297C619.233 73.1168 618.753 73.4116 618.227 73.5933L630.353 118.099L630.5 118.139C630.779 118.143 631.057 118.18 631.327 118.248L647.552 77.8025ZM619.897 67.5323L660.218 41.7185C659.954 41.1622 659.831 40.5491 659.862 39.9341C659.901 39.6233 659.983 39.3192 660.104 39.0306L630.361 26.0389L618.777 66.5792C619.286 66.8197 619.739 67.1635 620.107 67.5886L619.897 67.5323ZM660.417 38.0333C660.684 37.5889 661.039 37.204 661.461 36.9026C661.883 36.6011 662.363 36.3896 662.87 36.281L654.397 -56.7683L653.998 -56.8754L630.621 24.9826L660.417 38.0333ZM663.843 36.1814C664.192 36.219 664.532 36.3103 664.853 36.4519L698.854 -34.5869L657.609 -58.4075C657.071 -57.6438 656.277 -57.0977 655.371 -56.8679L663.843 36.1814ZM658.053 -61.9144L771.374 -83.5719C771.395 -83.6862 771.425 -83.7986 771.464 -83.9081C771.465 -83.9522 771.477 -83.9954 771.498 -84.0342L690.971 -100.477L657.507 -63.074C657.75 -62.7194 657.935 -62.3278 658.053 -61.9144ZM660.156 -61.3509L708.56 -61.8931C708.669 -62.6865 709.025 -63.4254 709.578 -64.0046C710.131 -64.5839 710.853 -64.974 711.641 -65.1196C712.429 -65.2652 713.243 -65.1587 713.967 -64.8154C714.691 -64.472 715.289 -63.9093 715.674 -63.2073L768.915 -82.1363L660.156 -61.3509ZM714.159 -58.1409L727.876 -21.6761C728.178 -21.7538 728.49 -21.7841 728.801 -21.7659C729.375 -21.7476 729.936 -21.5971 730.442 -21.3263L742.589 -38.5648L715.01 -58.7913C714.735 -58.5 714.411 -58.2591 714.053 -58.0794L714.159 -58.1409ZM731.235 -20.7535C731.643 -20.3816 731.965 -19.9257 732.179 -19.4173C732.393 -18.9088 732.494 -18.3601 732.474 -17.809C732.418 -17.5988 732.362 -17.3887 732.311 -17.1996L807.387 9.15493L807.421 9.02885L743.382 -37.992L731.235 -20.7535ZM806.964 10.7308C807.021 10.5207 807.077 10.3106 807.133 10.1005L732.037 -16.2597C731.725 -15.6168 731.236 -15.076 730.627 -14.7007L750.69 30.1305L807.156 11.6153C807.051 11.3308 806.987 11.0331 806.964 10.7308V10.7308ZM750.058 31.3124L723.37 40.0607C723.426 40.3406 723.448 40.6262 723.435 40.9114C723.41 41.4241 723.275 41.9255 723.041 42.3822L765.829 69.6116C766.099 69.2961 766.415 69.0238 766.767 68.8043L750.058 31.3124ZM765.088 71.9577C765.124 71.4466 765.257 70.9472 765.482 70.4869L722.673 43.2519C722.281 43.7229 721.78 44.0911 721.213 44.3246L732.688 82.1707L765.145 72.6711C765.113 72.4345 765.094 72.1964 765.088 71.9577ZM732.03 83.3679L708.356 90.289C708.397 90.5315 708.414 90.7775 708.407 91.0234C708.387 91.6034 708.235 92.1712 707.962 92.6833L740.394 116.169C740.744 115.807 741.159 115.513 741.617 115.303L732.03 83.3679ZM739.454 118.665C739.466 118.076 739.621 117.499 739.905 116.984L709.241 94.895L739.755 125.366L741.252 122.052C740.681 121.695 740.214 121.193 739.899 120.599C739.583 120.004 739.43 119.337 739.454 118.665V118.665ZM706.906 93.9317C706.325 94.3838 705.626 94.6578 704.892 94.7206L698.901 214.409L699.118 214.693L699.391 214.766L739.305 126.372L706.906 93.9317ZM703.895 94.6562C703.56 94.6229 703.234 94.5353 702.927 94.3969L659.035 161.885L696.444 215.08C696.892 214.835 697.385 214.684 697.893 214.635L703.895 94.6562ZM658.472 162.725L648.278 178.392C648.736 178.76 649.103 179.227 649.352 179.758C649.6 180.289 649.723 180.87 649.711 181.456C649.693 182.029 649.543 182.59 649.272 183.095L662.206 192.281L695.549 215.898C695.609 215.817 695.682 215.746 695.764 215.686L658.472 162.725ZM644.342 177.856L630.816 125.79L630.177 125.822C629.234 125.786 628.34 125.393 627.676 124.724L611.494 139.102L643.768 178.062C643.955 177.982 644.147 177.913 644.342 177.856ZM627.071 123.954C626.775 123.461 626.593 122.909 626.54 122.337C626.486 121.765 626.562 121.189 626.761 120.65L573.078 91.8528C572.99 91.9943 572.887 92.1253 572.77 92.2433L610.89 138.242L627.071 123.954ZM573.794 89.7701C573.761 90.1855 573.652 90.5915 573.473 90.9677L627.27 119.593C627.321 119.404 627.555 119.287 627.711 119.126L599.492 77.6488L573.57 88.5842C573.708 88.9297 573.793 89.2941 573.822 89.665L573.794 89.7701ZM599.014 76.8227L578.749 47.0483C578.221 47.3465 577.634 47.5273 577.029 47.5784L571.047 85.9714C571.988 86.2485 572.788 86.8736 573.284 87.7192L599.014 76.8227ZM555.479 -4.65526L575.696 40.1047C576.098 39.9882 576.516 39.933 576.934 39.9411C577.945 39.9828 578.899 40.4222 579.587 41.1635C580.275 41.9048 580.642 42.8877 580.608 43.898C580.57 44.3718 580.446 44.8347 580.242 45.2638L614.271 67.5789L555.452 -4.63989L555.479 -4.65526ZM651.279 -58.5048L557.2 -9.39625C557.373 -8.93154 557.447 -8.43619 557.419 -7.94139C557.393 -7.6356 557.313 -7.33685 557.182 -7.05889L629.671 24.6604L653.014 -57.0716C652.304 -57.3639 651.7 -57.8635 651.279 -58.5048V-58.5048ZM641.903 -107.634L654.022 -64.3682L654.614 -64.3898C655.311 -64.3705 655.988 -64.15 656.563 -63.755L689.671 -100.757L644.318 -110.004C644.139 -109.454 643.835 -108.952 643.431 -108.537C643.027 -108.122 642.533 -107.805 641.987 -107.612L641.903 -107.634ZM755.648 -174.871L644.142 -112.709C644.398 -112.168 644.517 -111.571 644.488 -110.973L690.441 -101.61L755.819 -174.668L755.648 -174.871ZM758.892 -173.349L758.597 -173.428C757.856 -173.409 757.126 -173.605 756.494 -173.992L691.471 -101.333L771.499 -85.0473C771.694 -85.6125 772.019 -86.1241 772.448 -86.5411C772.876 -86.958 773.397 -87.2688 773.968 -87.4485L758.892 -173.349ZM771.719 -82.0832L716.065 -62.2244C716.139 -61.9078 716.166 -61.5818 716.144 -61.2574C716.13 -60.6617 715.974 -60.078 715.688 -59.5554L743.168 -39.3782L772.546 -81.0507C772.209 -81.3411 771.929 -81.6911 771.719 -82.0832ZM775.99 -80.1055C775.636 -80.006 775.272 -79.945 774.904 -79.9235C774.333 -79.9525 773.773 -80.1023 773.264 -80.363L743.885 -38.6905L808.141 8.27597C808.421 7.98303 808.746 7.73573 809.103 7.54305L775.99 -80.1055ZM770.645 68.7174L808.403 13.7737C808.033 13.4303 807.729 13.0206 807.51 12.5659L751.103 31.0294L767.808 68.4527C768.208 68.3263 768.627 68.2709 769.046 68.2891C769.606 68.304 770.153 68.4508 770.645 68.7174V68.7174ZM766.661 75.1717C766.113 74.7833 765.686 74.2471 765.43 73.6258L732.953 83.1198L742.647 114.994C742.904 114.957 743.164 114.943 743.424 114.954C743.847 114.989 744.26 115.1 744.644 115.281L766.661 75.1717ZM745.266 122.046C744.62 122.45 743.868 122.649 743.107 122.616C742.791 122.564 742.481 122.481 742.181 122.368L740.526 126.023L782.197 167.771L745.266 122.046ZM785.353 172.311L740.065 127.071L700.335 215.199C700.814 215.492 701.224 215.886 701.535 216.354L784.766 175.847C784.61 175.411 784.542 174.949 784.567 174.487C784.595 173.697 784.87 172.936 785.353 172.311V172.311ZM785.174 176.766L701.879 217.257C702.009 217.637 702.077 218.035 702.082 218.437L759.129 225.345L786.087 177.732C785.722 177.46 785.415 177.117 785.185 176.724L785.174 176.766ZM792.974 226.307L788.261 178.45C787.816 178.419 787.38 178.303 786.979 178.106L760.221 225.39L790.201 228.919C790.397 228.281 790.755 227.704 791.242 227.246C791.728 226.788 792.325 226.464 792.974 226.307V226.307ZM739.729 263.341L790.383 231.603C790.149 231.117 790.03 230.585 790.034 230.046L759.655 226.41L739.073 262.76C739.31 262.932 739.529 263.126 739.729 263.341ZM736.942 261.964C737.379 262.002 737.806 262.116 738.204 262.302L758.579 226.302L702.65 219.513L735.001 262.479C735.587 262.131 736.259 261.952 736.942 261.964ZM733.215 264.433C733.419 263.908 733.731 263.431 734.131 263.034L701.798 219.915C701.5 220.621 700.997 221.22 700.352 221.635C699.708 222.05 698.954 222.261 698.187 222.24C697.421 222.22 696.679 221.969 696.057 221.52C695.436 221.072 694.964 220.446 694.704 219.726L616.805 237.137L733.215 264.433ZM694.487 218.767C694.466 218.6 694.458 218.433 694.464 218.265C694.495 218.108 694.536 217.954 694.588 217.803L633.763 199.253L615.543 236.461L694.487 218.767ZM614.507 236.206L632.744 198.935L570.068 179.889C569.89 180.274 569.65 180.629 569.359 180.937L614.507 236.206ZM570.423 177.89L641.972 180.644C642.095 179.898 642.438 179.206 642.956 178.655L610.799 139.592L569.794 176.032C570.162 176.586 570.378 177.226 570.423 177.89V177.89ZM569.136 175.292L610.15 138.9L572.071 92.6641C571.562 92.9875 570.983 93.1872 570.382 93.2475L567.281 174.39C567.932 174.543 568.53 174.866 569.014 175.327L569.136 175.292ZM566.294 174.373L569.395 93.2307C569.039 93.192 568.692 93.0989 568.365 92.9545L531.266 149.809L563.941 175.5C564.572 174.884 565.398 174.508 566.277 174.436L566.294 174.373ZM507.333 189.833L562.813 178.53L562.794 178.097C562.817 177.466 562.982 176.848 563.278 176.29L530.676 150.664L506.155 188.256C506.684 188.688 507.085 189.255 507.316 189.896L507.333 189.833ZM503.875 187.262C504.4 187.302 504.914 187.44 505.389 187.668L529.953 149.998L478.23 109.34C477.961 109.581 477.657 109.781 477.328 109.931L482.015 124.069L502.997 187.342C503.283 187.313 503.571 187.308 503.858 187.325L503.875 187.262ZM502.083 187.638L481.274 125.154L476.24 110.293C475.989 110.342 475.734 110.364 475.478 110.359C474.734 110.343 474.013 110.103 473.409 109.669L449.887 133.521L501.241 188.088C501.505 187.935 501.781 187.806 502.066 187.701L502.083 187.638ZM500.794 188.666L449.311 134.155L429.13 154.623C429.702 155.324 430.009 156.204 429.998 157.108C429.956 157.388 429.882 157.663 429.778 157.927L500.328 189.059C500.461 188.929 500.612 188.818 500.777 188.729L500.794 188.666ZM500.074 190.005L429.525 158.873C429.181 159.474 428.679 159.969 428.073 160.303C427.466 160.637 426.779 160.797 426.087 160.767C425.641 160.736 425.205 160.62 424.804 160.423L404.828 195.607L499.914 190.435C499.953 190.309 500.001 190.187 500.057 190.068L500.074 190.005ZM365.699 266.6L497.891 191.424L404.358 196.517L364.951 265.859C365.23 266.125 365.467 266.432 365.654 266.769L365.699 266.6ZM364.087 265.38L403.235 196.756L365.378 198.819C365.315 199.677 364.966 200.489 364.387 201.126C363.808 201.763 363.032 202.187 362.183 202.331L363.18 265.317C363.475 265.364 363.764 265.441 364.042 265.548L364.087 265.38ZM360.292 265.917C360.811 265.489 361.439 265.213 362.106 265.12L361.109 202.134C360.135 202.041 359.234 201.578 358.593 200.84C357.951 200.102 357.618 199.146 357.663 198.17C357.675 198.084 357.698 197.999 357.73 197.918L269.396 176.208C269.268 176.53 269.096 176.832 268.885 177.107L360.292 265.917ZM269.701 174.984C269.673 175.089 269.651 175.173 269.628 175.257L357.962 196.967C358.184 196.399 358.536 195.892 358.99 195.486L323.076 142.601L269.277 173.541C269.512 174.044 269.635 174.591 269.635 175.146L269.701 174.984ZM268.919 172.522L322.659 141.633L293.738 98.8201C293.216 99.0539 292.647 99.1634 292.075 99.1401C291.81 99.0911 291.55 99.0214 291.297 98.9316L267.533 171.385C268.073 171.71 268.524 172.164 268.847 172.705L268.919 172.522ZM266.034 171.006C266.221 171.034 266.405 171.083 266.581 171.152L290.345 98.699L290.134 98.6427L245.916 157.508L263.299 172.21C264.025 171.544 264.977 171.179 265.962 171.189L266.034 171.006ZM219.919 213.058C220.289 212.959 220.673 212.918 221.056 212.935C221.894 212.966 222.699 213.268 223.35 213.797L262.786 177.072L262.672 176.906L217.271 198.544C217.399 198.967 217.456 199.408 217.439 199.85C217.416 200.495 217.229 201.124 216.895 201.677C216.562 202.229 216.093 202.688 215.533 203.01L219.919 213.058ZM219.004 213.444L214.723 203.176C214.343 203.267 213.954 203.306 213.564 203.293C212.58 203.255 211.65 202.836 210.969 202.125L201.682 209.027L217.564 214.949C217.896 214.397 218.368 213.941 218.932 213.627L219.004 213.444ZM170.452 232.706L217.097 217.617C217.051 217.336 217.029 217.051 217.032 216.766C217.094 216.535 217.155 216.304 217.212 216.094L200.827 209.947L170.419 232.494L170.452 232.706ZM167.162 230.518C168.143 230.567 169.07 230.984 169.756 231.686L199.555 209.561L114.404 177.737C114.297 177.948 114.168 178.147 114.019 178.332L164.667 231.246C165.367 230.738 166.213 230.475 167.077 230.495L167.162 230.518ZM78.9387 206.879C78.9199 207.031 78.8801 207.179 78.8205 207.32L163.449 232.766C163.461 232.672 163.486 232.58 163.522 232.493L99.4575 186.411L78.1738 204.602C78.6376 205.261 78.8763 206.051 78.8546 206.856L78.9387 206.879ZM74.1547 203.029C74.5197 202.939 74.895 202.895 75.2711 202.901C76.1669 202.94 77.0215 203.288 77.6893 203.886L98.7905 185.872L55.9968 155.128C55.7235 155.485 55.3895 155.792 55.0101 156.035L74.1547 203.029ZM56.8881 152.98L56.7867 153.358L107.742 174.083C108.002 173.607 108.366 173.196 108.808 172.882L83.9453 127.71L56.0574 150.527C56.5839 151.225 56.8482 152.085 56.8039 152.957L56.8881 152.98ZM54.2047 149.198C54.6468 149.341 55.0611 149.559 55.4298 149.841L83.5212 126.853L66.4044 95.7607C65.9652 95.9026 65.5053 95.9697 65.0439 95.9591L64.5601 95.8295L54.2047 149.198ZM50.0748 150.478C50.4467 150.012 50.9244 149.64 51.4684 149.394C52.0124 149.149 52.6071 149.036 53.2036 149.065V149.065L63.5492 95.6487C63.2192 95.4846 62.9104 95.2809 62.6298 95.0421L22.8239 129.867C23.3734 130.492 23.7044 131.279 23.7668 132.108C23.8293 132.937 23.6198 133.764 23.17 134.464L50.0748 150.478ZM49.2331 152.19L49.2565 152.691C49.2935 152.217 49.4176 151.754 49.6224 151.325L22.4626 135.085C21.7643 135.715 20.8574 136.064 19.9165 136.066C18.9755 136.067 18.0671 135.721 17.3663 135.093L17.0958 134.841L9.69198 141.189L-4.47169 153.586C-4.37297 153.767 -4.2878 153.956 -4.21695 154.15C-4.1242 154.318 -4.05104 154.496 -3.99876 154.681L49.2331 152.19ZM-73.3663 135.374L-11.2022 154.057C-11.0356 153.695 -10.8164 153.359 -10.5519 153.06C-10.2332 152.701 -9.84817 152.407 -9.41796 152.193L-15.924 133.74L-73.3521 135.152C-73.3521 135.152 -73.4546 135.282 -73.4505 135.351L-73.3663 135.374ZM-73.3624 134.181L-16.2722 132.768L-27.9918 99.4508C-28.5839 99.5805 -29.1984 99.5663 -29.7839 99.4094C-30.3695 99.2525 -30.9088 98.9575 -31.3567 98.5492V98.5492L-73.6881 133.125C-73.5592 133.457 -73.4779 133.804 -73.4465 134.158L-73.3624 134.181ZM-75.7857 131.28C-75.3569 131.443 -74.9631 131.686 -74.6252 131.996L-74.2511 132.366L-32.0936 97.7663C-32.3451 97.3814 -32.5208 96.9522 -32.6113 96.5015L-69.0873 96.1863L-75.7857 131.28ZM-127.615 104.983L-80.3997 132.768C-80.2898 132.595 -80.1633 132.433 -80.0219 132.284C-79.6151 131.828 -79.1039 131.478 -78.532 131.262C-77.9601 131.047 -77.3445 130.973 -76.7377 131.047L-70.0186 96.2971L-141.86 95.5589C-141.925 95.8233 -142.031 96.076 -142.173 96.3082L-127.615 104.983ZM-141.656 94.7128L-69.9474 95.1902L-60.0697 44.1937C-60.5749 44.0331 -61.0416 43.77 -61.4405 43.421L-61.8244 43.0028L-141.883 93.4584C-141.769 93.8301 -141.713 94.2173 -141.717 94.6062L-141.656 94.7128ZM-144.083 91.0674C-143.656 91.2292 -143.261 91.4645 -142.916 91.7627C-142.629 92.0221 -142.383 92.3234 -142.187 92.6563L-62.2402 42.2834C-62.4647 41.7945 -62.5836 41.2639 -62.5893 40.726L-134.597 32.1963L-144.083 91.0674ZM-145.932 90.8195C-145.632 90.7832 -145.329 90.7813 -145.029 90.8138L-135.527 32.2174L-159.572 29.4227C-159.725 30.0034 -160.023 30.5358 -160.438 30.9699C-160.825 31.4157 -161.312 31.7636 -161.859 31.9853L-145.932 90.8195ZM-160.791 25.5604C-160.392 25.9217 -160.072 26.3633 -159.855 26.8562C-159.637 27.3491 -159.526 27.8822 -159.529 28.4208L-135.379 31.2437L-123.909 -39.9098L-124.246 -39.9999L-137.052 -17.443L-161.177 25.2319L-160.791 25.5604ZM-163.682 24.403C-163.107 24.3618 -162.53 24.4547 -161.997 24.6744L-137.731 -18.1881L-125.098 -40.521L-125.379 -40.7316C-125.835 -41.1387 -126.185 -41.6498 -126.4 -42.2213L-173.619 -31.047L-163.682 24.403ZM-174.588 -30.8788L-246.55 -13.8359C-246.52 -13.3424 -246.591 -12.8481 -246.759 -12.3831L-166.685 26.1882C-166.568 26.0001 -166.43 25.8255 -166.275 25.6675C-165.84 25.1643 -165.272 24.7937 -164.636 24.5978L-174.588 -30.8788ZM-192.732 52.6514L-166.633 30.3684C-166.937 29.8991 -167.135 29.369 -167.213 28.8152C-167.29 28.2614 -167.245 27.6975 -167.081 27.163L-247.202 -11.4883C-247.29 -11.3391 -247.395 -11.201 -247.515 -11.0767L-192.732 52.6514ZM-246.805 -14.7373L-174.821 -31.7746L-178.821 -54.1957C-179.833 -54.1541 -180.822 -54.5078 -181.578 -55.1819C-181.716 -55.3109 -181.845 -55.4507 -181.961 -55.6L-246.943 -14.9771C-246.861 -14.9114 -246.791 -14.8316 -246.736 -14.7414L-246.805 -14.7373ZM-247.88 -16.4442C-247.673 -16.2577 -247.487 -16.0493 -247.325 -15.8227L-182.487 -56.4163C-182.744 -56.9676 -182.868 -57.5717 -182.848 -58.1797L-244.184 -68.8495L-249.371 -17.2717C-248.797 -17.1158 -248.264 -16.8346 -247.811 -16.4484L-247.88 -16.4442ZM-251.182 -17.329C-250.909 -17.3828 -250.63 -17.4064 -250.352 -17.3993L-245.164 -68.977L-269.029 -73.1195C-269.191 -72.5977 -269.466 -72.1179 -269.834 -71.7137C-270.14 -71.3717 -270.507 -71.0883 -270.915 -70.8773L-251.182 -17.329ZM-304.023 -15.4533C-303.365 -14.8506 -302.93 -14.0437 -302.789 -13.1633L-254.296 -13.952C-254.202 -14.7431 -253.869 -15.4866 -253.341 -16.0835C-253.01 -16.4519 -252.608 -16.7501 -252.16 -16.9604L-271.877 -70.482C-272.614 -70.3181 -273.383 -70.3753 -274.087 -70.6464L-304.299 -15.685L-304.023 -15.4533ZM-305.184 -16.1696L-274.972 -71.131L-275.29 -71.3739C-275.511 -71.6026 -275.717 -71.8459 -275.906 -72.1021L-321.666 -49.5471L-307.493 -16.3832C-306.693 -16.5995 -305.844 -16.5536 -305.071 -16.2522L-305.184 -16.1696ZM-389.571 -15.0899L-310.377 -13.1922C-310.259 -13.9347 -309.933 -14.6283 -309.435 -15.192C-309.17 -15.4794 -308.861 -15.7234 -308.52 -15.9151L-322.55 -49.1083L-389.747 -15.9478C-389.63 -15.6977 -389.534 -15.4384 -389.459 -15.1725L-389.571 -15.0899ZM-390.835 -17.523C-390.588 -17.3168 -390.372 -17.0769 -390.192 -16.8102L-322.947 -49.9805L-345.26 -103.071C-345.995 -102.869 -346.774 -102.89 -347.498 -103.131L-391.034 -17.9591C-390.914 -17.8562 -390.81 -17.7372 -390.723 -17.6055L-390.835 -17.523ZM-392.642 -18.435L-392.095 -18.2885L-348.58 -103.466C-348.722 -103.553 -348.853 -103.656 -348.971 -103.773L-349.376 -104.197L-388.651 -80.017L-392.642 -18.435ZM-393.458 -21.1085L-389.659 -79.4537L-395.197 -76.0284C-394.895 -75.351 -394.796 -74.6005 -394.912 -73.868C-395.028 -73.1356 -395.355 -72.4527 -395.852 -71.9024C-396.379 -71.3083 -397.081 -70.8971 -397.857 -70.7282L-393.458 -21.1085ZM-397.439 -78.0929C-396.958 -77.9226 -396.515 -77.6586 -396.137 -77.3161C-395.98 -77.183 -395.838 -77.0318 -395.717 -76.8657L-389.58 -80.6713L-386.175 -132.749L-397.439 -78.0929ZM-401.384 -77.168C-400.997 -77.5578 -400.53 -77.8593 -400.015 -78.0518C-399.501 -78.2443 -398.95 -78.3234 -398.402 -78.2834L-386.466 -136.205C-386.952 -136.358 -387.398 -136.616 -387.774 -136.961C-388.213 -137.353 -388.555 -137.842 -388.772 -138.388C-388.99 -138.935 -389.077 -139.525 -389.026 -140.111L-499.896 -155.361C-499.999 -154.883 -500.197 -154.431 -500.478 -154.03L-401.384 -77.168ZM-499.811 -156.351L-388.836 -141.074C-388.803 -141.237 -388.76 -141.399 -388.706 -141.557L-445.36 -173.402L-465.886 -184.96C-465.955 -184.862 -466.033 -184.77 -466.117 -184.684C-466.787 -183.935 -467.727 -183.48 -468.731 -183.42C-469.735 -183.36 -470.722 -183.7 -471.477 -184.364L-500.713 -158.62C-500.152 -158.017 -499.797 -157.251 -499.699 -156.434L-499.811 -156.351ZM-501.283 -159.268L-471.989 -185.064C-472.536 -185.879 -472.754 -186.871 -472.597 -187.84L-499.454 -195.959L-502.967 -159.967C-502.358 -159.904 -501.772 -159.701 -501.255 -159.373L-501.283 -159.268ZM-518.326 -105.17L-505.064 -152.647C-505.449 -152.82 -505.805 -153.052 -506.119 -153.335C-506.494 -153.672 -506.799 -154.079 -507.016 -154.533C-507.233 -154.988 -507.359 -155.48 -507.385 -155.983C-507.412 -156.486 -507.339 -156.989 -507.17 -157.464C-507.002 -157.938 -506.742 -158.375 -506.404 -158.749C-506.085 -159.093 -505.711 -159.381 -505.297 -159.6L-517.227 -198.694L-518.246 -105.216L-518.326 -105.17ZM-520.13 -105C-519.864 -105.086 -519.59 -105.148 -519.313 -105.186L-518.294 -198.665C-519.041 -198.761 -519.741 -199.082 -520.301 -199.586L-520.602 -199.892L-555.707 -175.968L-520.13 -105ZM-626.715 -125.137L-522.471 -102.655C-522.31 -103.129 -522.055 -103.566 -521.721 -103.94C-521.506 -104.169 -521.269 -104.377 -521.014 -104.561L-556.544 -175.449L-627.111 -127.36C-626.764 -126.711 -626.617 -125.974 -626.687 -125.242L-626.715 -125.137ZM-627.954 -128.419L-627.668 -128.14L-556.995 -176.291L-571.697 -205.543C-572.697 -205.216 -573.785 -205.297 -574.725 -205.769L-628.054 -128.468L-627.954 -128.419ZM-628.831 -129.014L-575.454 -206.414C-575.72 -206.651 -575.95 -206.925 -576.137 -207.228L-648.09 -174.238L-631.529 -129.377C-630.62 -129.631 -629.649 -129.54 -628.803 -129.119L-628.831 -129.014ZM-651.073 -81.4209L-632.584 -122.498C-632.75 -122.606 -632.906 -122.731 -633.047 -122.87C-633.573 -123.335 -633.958 -123.937 -634.159 -124.609L-683.452 -117.301L-654.396 -81.05C-653.903 -81.3515 -653.35 -81.541 -652.776 -81.6051C-652.202 -81.6691 -651.621 -81.6063 -651.073 -81.4209ZM-782.1 -102.454L-656.081 -78.7991C-655.945 -79.3907 -655.651 -79.9345 -655.231 -80.373V-80.373L-684.66 -117.084L-782.133 -102.666C-782.112 -102.59 -782.103 -102.512 -782.106 -102.433L-782.1 -102.454ZM-783.354 -105.515C-782.813 -105.034 -782.425 -104.406 -782.238 -103.707L-685.331 -118.03L-736.593 -181.941C-737.106 -181.625 -737.687 -181.436 -738.287 -181.389C-738.888 -181.342 -739.491 -181.439 -740.046 -181.672L-783.604 -105.672L-783.354 -105.515Z" fill="#91AAD6"/>
</mask>
<g mask="url(#mask0)">
<rect x="-0.0324707" y="9" width="360" height="308" fill="#C4C4C4"/>
</g>
</g>
<defs>
<clipPath id="clip0">
<rect width="360" height="287" fill="white"/>
</clipPath>
</defs>
</svg>
