<svg width="1920" height="1144" viewBox="0 0 1920 1144" fill="none" xmlns="http://www.w3.org/2000/svg">
<path opacity="0.2" d="M-126.156 614.783C-125.444 613.992 -124.504 613.443 -123.466 613.212C-122.427 612.981 -121.342 613.079 -120.361 613.492L-61.875 511.578C-62.0075 511.508 -62.1261 511.415 -62.2249 511.302C-63.2347 510.391 -63.8424 509.118 -63.9155 507.761C-63.9887 506.404 -63.5212 505.074 -62.6153 504.06C-62.019 503.371 -61.2518 502.85 -60.3906 502.55C-59.5292 502.25 -58.604 502.181 -57.7076 502.351L-16.4272 382.972C-16.8467 382.773 -17.2363 382.516 -17.5846 382.209C-18.5781 381.293 -19.1711 380.023 -19.2355 378.674C-19.2999 377.325 -18.8307 376.005 -17.9291 374.999C-17.0275 373.993 -15.7659 373.383 -14.4168 373.299C-13.0679 373.215 -11.7399 373.665 -10.7198 374.552C-10.1502 375.042 -9.7038 375.659 -9.4166 376.353L77.1091 351.904C76.9486 350.853 77.1178 349.779 77.5935 348.828C78.0693 347.878 78.8282 347.098 79.7658 346.597C80.7033 346.095 81.7734 345.897 82.8289 346.028C83.8844 346.159 84.8735 346.614 85.66 347.33C86.0854 347.717 86.4443 348.17 86.7227 348.673L144.111 326.095C143.912 325.276 143.922 324.421 144.14 323.607C144.358 322.794 144.777 322.048 145.359 321.439C146.194 320.503 147.345 319.908 148.592 319.765L149.867 233.217C148.869 233.059 147.937 232.621 147.179 231.953C146.254 231.118 145.664 229.977 145.517 228.74C145.37 227.504 145.678 226.257 146.382 225.23C147.086 224.204 148.139 223.467 149.345 223.158C150.552 222.848 151.83 222.986 152.942 223.547L189.381 169.799C188.866 169.352 188.445 168.807 188.143 168.196C187.841 167.584 187.663 166.919 187.621 166.239C187.578 165.559 187.671 164.877 187.895 164.233C188.119 163.589 188.468 162.996 188.923 162.489C189.378 161.981 189.93 161.569 190.546 161.276C191.162 160.984 191.83 160.817 192.511 160.784C193.193 160.752 193.873 160.856 194.515 161.089C195.156 161.322 195.744 161.68 196.246 162.142C196.787 162.624 197.219 163.216 197.511 163.879C197.803 164.542 197.95 165.26 197.94 165.984L277.874 176.756C278.077 176.007 278.447 175.314 278.956 174.728C279.466 174.142 280.101 173.679 280.815 173.374C281.529 173.068 282.304 172.929 283.08 172.965C283.856 173.001 284.613 173.213 285.296 173.583C285.979 173.954 286.569 174.474 287.022 175.105C287.475 175.736 287.779 176.461 287.911 177.226C288.044 177.991 288.001 178.776 287.787 179.522C287.573 180.268 287.192 180.956 286.674 181.534L286.436 181.742L384.94 312.325L385.418 312.12L385.412 312.935L386.994 315.052L385.397 314.232L384.396 410.379C385.399 410.508 386.34 410.939 387.092 411.616C387.867 412.309 388.412 413.222 388.655 414.232C388.898 415.243 388.827 416.303 388.451 417.272L455.838 453.293L456.2 452.846C457.063 451.859 458.271 451.239 459.577 451.113C460.883 450.986 462.189 451.364 463.226 452.167C464.263 452.97 464.955 454.139 465.158 455.434C465.362 456.729 465.063 458.053 464.322 459.135L668.676 495.746C668.894 495.045 669.263 494.401 669.757 493.858C670.671 492.843 671.951 492.234 673.315 492.162C674.68 492.091 676.017 492.565 677.033 493.479C678.048 494.392 678.659 495.672 678.731 497.035C678.803 498.399 678.329 499.734 677.415 500.749C676.711 501.516 675.797 502.06 674.787 502.313L692.894 672.989C694.074 673.013 695.209 673.444 696.107 674.208C697.006 674.972 697.612 676.023 697.825 677.183L770.424 673.076C770.512 671.939 770.971 670.861 771.73 670.009C772.182 669.506 772.729 669.097 773.34 668.806C773.95 668.514 774.613 668.346 775.288 668.311C775.964 668.276 776.64 668.374 777.278 668.6C777.916 668.827 778.503 669.176 779.006 669.63C779.734 670.244 780.276 671.051 780.568 671.958C780.86 672.866 780.891 673.836 780.658 674.76L842.085 699.355C842.262 699.015 842.479 698.697 842.732 698.409C843.185 697.907 843.732 697.499 844.343 697.208C844.953 696.917 845.615 696.749 846.291 696.714C846.967 696.679 847.643 696.777 848.28 697.003C848.918 697.229 849.505 697.578 850.008 698.03C850.511 698.483 850.92 699.03 851.211 699.64C851.502 700.25 851.671 700.912 851.706 701.587C851.742 702.262 851.644 702.937 851.418 703.574C851.193 704.212 850.843 704.798 850.391 705.3C850.254 705.465 850.102 705.617 849.936 705.753L915.747 805.044C916.478 804.686 917.283 804.507 918.097 804.52C918.911 804.534 919.71 804.74 920.428 805.122C921.147 805.504 921.765 806.05 922.231 806.717C922.698 807.384 922.999 808.152 923.111 808.957C923.223 809.763 923.142 810.583 922.875 811.351C922.607 812.119 922.162 812.813 921.574 813.376C920.986 813.938 920.273 814.353 919.494 814.586C918.714 814.82 917.891 814.865 917.09 814.719L896.329 879.774C896.871 879.999 897.37 880.317 897.802 880.714C898.733 881.55 899.327 882.696 899.474 883.937C899.62 885.179 899.309 886.431 898.598 887.459L932.031 912.598C932.799 912.702 933.534 912.98 934.179 913.41C934.824 913.839 935.363 914.41 935.756 915.078L1015.5 881.131C1015.36 880.624 1015.29 880.096 1015.32 879.569C1015.38 878.215 1015.97 876.94 1016.97 876.019C1017.96 875.097 1019.28 874.603 1020.63 874.642C1021.62 874.677 1022.58 875 1023.39 875.571C1024.2 876.143 1024.82 876.938 1025.19 877.859L1039.65 875.505L1120.07 862.453C1120.1 861.781 1120.27 861.123 1120.56 860.516C1120.85 859.909 1121.25 859.365 1121.75 858.914C1122.25 858.464 1122.84 858.117 1123.47 857.892C1124.11 857.668 1124.78 857.57 1125.45 857.605C1126.12 857.641 1126.78 857.808 1127.39 858.097C1128 858.387 1128.54 858.793 1128.99 859.293C1129.45 859.793 1129.79 860.377 1130.02 861.011C1130.24 861.645 1130.34 862.317 1130.31 862.989C1130.28 863.777 1130.07 864.549 1129.7 865.246L1196.57 912.108C1197.07 911.572 1197.68 911.151 1198.35 910.872C1199.03 910.594 1199.76 910.465 1200.49 910.495L1208.45 864.058L1320.55 882.904C1320.79 882.078 1321.24 881.327 1321.86 880.723C1322.47 880.119 1323.23 879.681 1324.06 879.45C1324.89 879.219 1325.77 879.202 1326.61 879.403C1327.44 879.603 1328.22 880.012 1328.86 880.593L1378.12 838.297C1377.61 837.514 1377.33 836.608 1377.3 835.677C1377.27 834.746 1377.5 833.826 1377.96 833.014C1378.41 832.203 1379.08 831.532 1379.9 831.074C1380.71 830.615 1381.63 830.387 1382.56 830.414C1383.83 830.457 1385.05 830.976 1385.95 831.868L1468.95 766.13C1468.45 765.265 1468.2 764.275 1468.23 763.276C1468.29 761.919 1468.88 760.639 1469.88 759.718C1470.88 758.798 1472.2 758.312 1473.56 758.367C1474.92 758.422 1476.2 759.014 1477.12 760.012C1478.04 761.011 1478.53 762.334 1478.48 763.691C1478.43 764.753 1478.05 765.773 1477.39 766.606L1526.83 816.296C1527.76 815.553 1528.94 815.18 1530.14 815.247C1531.33 815.291 1532.47 815.748 1533.36 816.539C1534.25 817.329 1534.84 818.405 1535.03 819.582L1702.51 813.832L1702.52 814.47C1702.56 813.63 1702.8 812.811 1703.22 812.087C1703.65 811.362 1704.25 810.754 1704.97 810.316L1677.95 750.152C1677.4 750.311 1676.83 750.382 1676.26 750.364C1675.59 750.337 1674.93 750.177 1674.32 749.895C1673.71 749.613 1673.16 749.213 1672.7 748.718C1672.24 748.224 1671.89 747.645 1671.66 747.013C1671.43 746.382 1671.32 745.712 1671.35 745.04C1671.37 744.368 1671.53 743.708 1671.82 743.097C1672.1 742.487 1672.5 741.938 1672.99 741.483C1673.49 741.027 1674.07 740.673 1674.7 740.441C1675.33 740.209 1676 740.104 1676.67 740.131C1677.46 740.162 1678.23 740.375 1678.92 740.755C1679.61 741.134 1680.21 741.669 1680.66 742.318L1807.06 676.383C1806.85 675.807 1806.76 675.196 1806.78 674.585C1806.82 673.59 1807.15 672.628 1807.73 671.816C1808.31 671.005 1809.11 670.378 1810.03 670.013L1793.85 611.904C1793.64 611.922 1793.43 611.925 1793.21 611.914C1792.54 611.889 1791.88 611.731 1791.27 611.451C1790.65 611.17 1790.1 610.771 1789.65 610.278C1789.19 609.784 1788.83 609.206 1788.6 608.575C1788.36 607.944 1788.25 607.273 1788.28 606.601C1788.3 605.928 1788.46 605.267 1788.74 604.656C1789.02 604.044 1789.42 603.494 1789.92 603.037C1790.41 602.579 1790.99 602.223 1791.62 601.99C1792.25 601.756 1792.92 601.648 1793.6 601.674C1794.31 601.709 1795.02 601.892 1795.66 602.21C1796.3 602.528 1796.87 602.975 1797.34 603.523L1947.29 520.068C1947.01 519.405 1946.88 518.689 1946.91 517.971C1946.97 516.603 1947.57 515.314 1948.58 514.387C1949.59 513.461 1950.92 512.973 1952.29 513.031C1952.97 513.06 1953.64 513.222 1954.25 513.508C1954.87 513.794 1955.42 514.198 1955.88 514.697C1956.81 515.706 1957.3 517.041 1957.24 518.409C1957.2 519.463 1956.84 520.48 1956.2 521.316C1955.56 522.153 1954.67 522.768 1953.66 523.075L1973.82 638.412L1974.22 638.518C1975.35 638.549 1976.44 638.958 1977.32 639.679C1978.2 640.4 1978.81 641.392 1979.06 642.499C1979.32 643.606 1979.19 644.765 1978.71 645.794C1978.23 646.822 1977.42 647.661 1976.41 648.179L2020.86 765.942C2021.32 765.845 2021.79 765.798 2022.26 765.803C2023.62 765.858 2024.9 766.45 2025.82 767.448C2026.75 768.447 2027.23 769.77 2027.18 771.127C2027.12 772.484 2026.53 773.764 2025.53 774.684C2024.53 775.605 2023.21 776.091 2021.85 776.036C2021.11 776.019 2020.38 775.825 2019.73 775.468L1969.08 849.27C1969.86 849.976 1970.41 850.904 1970.65 851.93C1970.88 852.956 1970.8 854.03 1970.41 855.006C1970.01 855.983 1969.33 856.814 1968.45 857.39C1967.56 857.965 1966.53 858.255 1965.47 858.222C1964.91 858.16 1964.36 858.012 1963.84 857.783L1934.28 911.591C1934.96 912.09 1935.5 912.747 1935.86 913.502C1936.22 914.258 1936.39 915.091 1936.36 915.928C1936.32 917.178 1935.82 918.369 1934.95 919.27L1989.28 986.271C1989.92 985.887 1990.63 985.646 1991.37 985.565C1992.11 985.484 1992.86 985.565 1993.56 985.803C1994.27 986.04 1994.91 986.428 1995.45 986.939C1995.99 987.45 1996.41 988.073 1996.68 988.763C1996.96 989.454 1997.08 990.196 1997.04 990.937C1997 991.679 1996.79 992.402 1996.44 993.057C1996.09 993.712 1995.6 994.283 1995.01 994.73C1994.42 995.177 1993.73 995.49 1993.01 995.646L1999.38 1059.87C2000.05 1059.89 2000.71 1060.05 2001.32 1060.34C2001.93 1060.62 2002.48 1061.02 2002.94 1061.51C2003.4 1062.01 2003.75 1062.59 2003.98 1063.22C2004.21 1063.85 2004.32 1064.52 2004.29 1065.19C2004.27 1065.86 2004.11 1066.52 2003.82 1067.13C2003.54 1067.74 2003.14 1068.29 2002.65 1068.75C2002.15 1069.2 2001.57 1069.56 2000.94 1069.79C2000.31 1070.02 1999.64 1070.13 1998.97 1070.1C1998.25 1070.08 1997.54 1069.9 1996.9 1069.58C1996.25 1069.26 1995.68 1068.81 1995.23 1068.25L1927.2 1110.87C1927.57 1111.68 1927.72 1112.56 1927.64 1113.44C1927.57 1114.32 1927.27 1115.16 1926.77 1115.89C1926.27 1116.62 1925.59 1117.21 1924.79 1117.59C1924 1117.98 1923.12 1118.16 1922.23 1118.1C1920.88 1118.05 1919.6 1117.46 1918.68 1116.46C1917.77 1115.47 1917.28 1114.15 1917.33 1112.79C1917.34 1112.69 1917.37 1112.58 1917.41 1112.48L1758.78 1075.27L1758.65 1075.75L1758.12 1075.12L1755.58 1074.44L1757.35 1074.04L1696.77 999.742C1695.9 1000.26 1694.9 1000.52 1693.88 1000.48C1692.85 1000.44 1691.85 1000.09 1691.02 999.477C1690.19 998.86 1689.57 998.006 1689.24 997.027L1614.73 1012.33C1614.74 1012.52 1614.74 1012.71 1614.72 1012.9C1614.65 1014.18 1614.1 1015.38 1613.18 1016.27C1612.26 1017.16 1611.05 1017.67 1609.77 1017.71C1608.49 1017.75 1607.24 1017.3 1606.27 1016.47C1605.3 1015.63 1604.68 1014.46 1604.54 1013.19L1424.89 1115.61C1425.16 1116.29 1425.28 1117.01 1425.26 1117.74C1425.21 1119.09 1424.62 1120.38 1423.63 1121.3C1422.63 1122.22 1421.31 1122.71 1419.95 1122.66C1418.59 1122.61 1417.3 1122.02 1416.38 1121.03C1415.45 1120.03 1414.96 1118.71 1415.01 1117.35C1415.08 1116.35 1415.42 1115.4 1416 1114.59L1293.29 995.364C1292.35 996.119 1291.17 996.511 1289.97 996.47C1288.84 996.426 1287.76 996.02 1286.89 995.312L1233.93 1044.63C1234.62 1045.58 1234.95 1046.74 1234.86 1047.91C1234.84 1048.58 1234.68 1049.24 1234.4 1049.85C1234.12 1050.47 1233.73 1051.02 1233.23 1051.48C1232.74 1051.93 1232.16 1052.29 1231.53 1052.52C1230.89 1052.76 1230.22 1052.86 1229.55 1052.83C1228.62 1052.79 1227.71 1052.49 1226.93 1051.97C1226.16 1051.46 1225.53 1050.74 1225.13 1049.9L1162.38 1070.13C1162.44 1070.5 1162.47 1070.87 1162.47 1071.24C1162.42 1072.6 1161.83 1073.88 1160.83 1074.81C1159.84 1075.73 1158.51 1076.22 1157.15 1076.17C1155.8 1076.12 1154.51 1075.53 1153.59 1074.53C1152.66 1073.54 1152.17 1072.21 1152.22 1070.86C1152.26 1070.66 1152.31 1070.46 1152.38 1070.26L1038.73 1036.09C1038.25 1037.19 1037.4 1038.08 1036.33 1038.61C1035.26 1039.15 1034.04 1039.29 1032.88 1039.02C1031.71 1038.75 1030.68 1038.07 1029.96 1037.12C1029.24 1036.17 1028.88 1034.99 1028.93 1033.8C1028.97 1032.93 1029.23 1032.09 1029.68 1031.35C1030.13 1030.61 1030.77 1029.99 1031.52 1029.56L1006.03 966.54C1005.47 966.701 1004.88 966.779 1004.3 966.773C1003.08 966.692 1001.92 966.18 1001.04 965.33C1000.16 964.479 999.613 963.344 999.491 962.127L928.243 965.598L928.167 965.88C927.993 967.249 927.282 968.492 926.19 969.337C925.098 970.182 923.715 970.558 922.344 970.383C920.974 970.209 919.729 969.497 918.884 968.406C918.038 967.314 917.661 965.932 917.835 964.563L834.344 939.5C834.113 939.982 833.819 940.432 833.471 940.839C832.685 941.722 831.617 942.307 830.449 942.496C829.28 942.684 828.083 942.465 827.057 941.874C826.032 941.283 825.241 940.357 824.819 939.252C824.397 938.147 824.369 936.93 824.739 935.807L812.055 928.356L741.645 886.898C740.698 887.79 739.447 888.29 738.145 888.297C736.843 888.304 735.587 887.818 734.629 886.936C733.671 886.054 733.083 884.842 732.984 883.545C732.885 882.248 733.282 880.961 734.094 879.945C734.618 879.34 735.284 878.874 736.031 878.589L714.501 799.54C713.774 799.624 713.037 799.552 712.34 799.329C711.643 799.105 711.002 798.736 710.459 798.245L674.402 828.989L599.954 742.505C599.005 743.129 597.876 743.421 596.743 743.336C595.611 743.252 594.538 742.795 593.692 742.037C592.799 741.242 592.221 740.154 592.062 738.969L526.712 739.635C526.586 740.697 526.139 741.696 525.43 742.497C524.978 743 524.431 743.409 523.82 743.701C523.209 743.992 522.547 744.16 521.871 744.195C521.196 744.23 520.519 744.132 519.882 743.906C519.244 743.68 518.657 743.33 518.154 742.877C517.204 742.03 516.61 740.855 516.493 739.589L410.111 737.032C409.981 738.038 409.539 738.977 408.846 739.718C408.413 740.277 407.87 740.74 407.249 741.079C406.629 741.418 405.946 741.626 405.241 741.689C404.537 741.753 403.827 741.67 403.156 741.447C402.485 741.224 401.866 740.865 401.34 740.393C400.814 739.92 400.391 739.345 400.097 738.702C399.803 738.059 399.645 737.362 399.633 736.656C399.62 735.949 399.754 735.248 400.025 734.595C400.296 733.942 400.699 733.353 401.209 732.863C401.924 732.065 402.866 731.505 403.909 731.258L397.691 661.151C396.5 661.089 395.364 660.625 394.472 659.834C393.609 659.052 393.037 658 392.85 656.851C392.663 655.703 392.872 654.525 393.442 653.51L260.357 550.316L260.741 549.784C260.191 550.41 259.495 550.891 258.715 551.183C257.934 551.475 257.093 551.57 256.267 551.458L238.448 615.246C238.972 615.459 239.454 615.762 239.873 616.142C240.376 616.594 240.785 617.141 241.076 617.751C241.368 618.362 241.536 619.023 241.572 619.698C241.607 620.373 241.509 621.049 241.284 621.686C241.058 622.323 240.709 622.91 240.256 623.412C239.803 623.914 239.256 624.322 238.646 624.613C238.035 624.904 237.373 625.072 236.697 625.107C236.022 625.142 235.346 625.044 234.708 624.819C234.07 624.593 233.483 624.244 232.98 623.791C232.395 623.256 231.94 622.593 231.65 621.855C231.359 621.117 231.242 620.322 231.306 619.532L91.257 589.325C91.0398 589.897 90.7236 590.426 90.3231 590.889C89.668 591.661 88.7983 592.221 87.8241 592.499C86.8498 592.776 85.8149 592.758 84.8506 592.447L59.9762 647.66C60.1538 647.78 60.3201 647.915 60.4731 648.065C61.4666 648.981 62.0596 650.251 62.1242 651.6C62.1886 652.949 61.7193 654.269 60.8177 655.275C59.9161 656.281 58.6545 656.891 57.3055 656.975C55.9566 657.059 54.6286 656.609 53.6085 655.722C53.0671 655.241 52.6355 654.648 52.3431 653.986C52.0507 653.323 51.9041 652.605 51.9135 651.881L-117.379 620.098C-117.594 620.79 -117.961 621.426 -118.452 621.958C-119.366 622.972 -120.647 623.582 -122.011 623.653C-123.375 623.724 -124.713 623.251 -125.728 622.337C-126.744 621.423 -127.355 620.144 -127.426 618.781C-127.498 617.417 -127.025 616.081 -126.111 615.067L-126.156 614.783ZM-13.5347 383.475C-14.0734 383.541 -14.6194 383.517 -15.1505 383.405L-56.4875 502.769C-56.0672 502.975 -55.6797 503.241 -55.3376 503.561C-54.7607 504.073 -54.3102 504.711 -54.021 505.426L12.3955 487.565L-13.5347 383.475ZM152.997 328.294C152.466 328.882 151.805 329.336 151.067 329.622L163.786 378.97L158.443 321.074L154.024 323.216C154.317 324.078 154.379 325 154.204 325.893C154.028 326.785 153.622 327.616 153.025 328.302L152.997 328.294ZM109.686 422.148L110.271 422.789L160.465 389.33C159.898 388.186 159.786 386.87 160.15 385.647L129.796 372.403L108.994 421.569C109.246 421.735 109.478 421.929 109.686 422.148ZM103.017 429.978L62.4042 465.641L107.248 431.021C106.51 431.167 105.748 431.149 105.017 430.969C104.286 430.789 103.603 430.451 103.017 429.978ZM110.876 428.213L150.145 397.906L110.969 423.913C111.267 424.594 111.413 425.331 111.397 426.073C111.381 426.816 111.203 427.546 110.876 428.213ZM160.801 384.461C160.971 384.169 161.176 383.899 161.41 383.656C161.929 383.066 162.581 382.608 163.312 382.321L149.82 329.983C149.143 330.052 148.46 330.002 147.801 329.836L130.291 371.235L160.801 384.461ZM165.467 381.961C166.465 381.985 167.432 382.308 168.246 382.887L277.793 264.047L277.914 263.596L277.692 263.294L159.927 320.504L165.467 381.961ZM169.217 383.782C169.525 384.13 169.776 384.524 169.963 384.95L273.672 352.857L280.833 265.467C280.165 265.32 279.529 265.057 278.952 264.69L169.217 383.782ZM264.04 420.773C263.716 419.913 263.631 418.981 263.794 418.076L169.821 389.206C169.608 389.689 169.316 390.131 168.956 390.517C168.889 390.61 168.806 390.69 168.711 390.753L211.984 448.53L264.04 420.773ZM168.476 473.194C168.697 473.764 168.812 474.368 168.815 474.979L232.749 482.765C232.956 481.956 233.364 481.213 233.933 480.602C233.943 480.505 233.969 480.409 234.009 480.32L211.476 450.088L168.476 473.194ZM379.352 412.596L307.462 347.968C306.697 348.622 305.754 349.033 304.754 349.148L304.62 417.432L378.609 415.028C378.68 414.169 378.964 413.341 379.437 412.619L379.352 412.596ZM303.414 349.182C303.112 349.147 302.817 349.068 302.538 348.947L271.633 414.581L272.284 415.088C273.235 415.941 273.837 417.115 273.974 418.384L303.166 417.436L303.414 349.182ZM301.348 348.417L300.661 347.93C300.144 347.449 299.723 346.875 299.42 346.237L274.925 353.827L270.027 413.909L270.479 414.03L301.348 348.417ZM273.478 354.256L170.359 386.296C170.452 386.878 170.457 387.47 170.372 388.053L264.317 416.916C264.534 416.436 264.827 415.993 265.183 415.605C266.078 414.6 267.329 413.981 268.672 413.879L273.478 354.256ZM274.942 352.41L299.037 344.955C298.883 344.195 298.908 343.409 299.109 342.66C299.309 341.911 299.681 341.219 300.194 340.638C300.701 340.055 301.341 339.604 302.059 339.323L296.573 318.678L282.379 265.458L282.012 265.359L274.942 352.41ZM303.45 338.879C304.38 338.759 305.326 338.895 306.185 339.273C307.043 339.651 307.782 340.257 308.322 341.024C308.861 341.792 309.18 342.692 309.245 343.627C309.309 344.562 309.117 345.497 308.688 346.331L330.945 336.357L284.02 264.869L283.777 264.985L303.45 338.879ZM309.18 347.884L380.304 411.642L331.718 337.652L309.18 347.884ZM378.57 416.53L304.553 418.926L304.135 499.564C304.934 499.661 305.698 499.949 306.363 500.403L379.628 419.021C379.051 418.25 378.689 417.339 378.58 416.382L378.57 416.53ZM303.235 418.875L274.014 419.816C273.856 420.813 273.417 421.745 272.749 422.502C272.365 422.909 271.925 423.26 271.441 423.542L302.263 499.546L302.932 499.423L303.235 418.875ZM269.943 424.048C269.668 424.125 269.383 424.16 269.098 424.154L262.533 491.471L298.931 502.494C299.159 502.01 299.453 501.56 299.804 501.156C300.185 500.755 300.623 500.414 301.104 500.143L269.943 424.048ZM261.165 492.284L242.295 486.563C242.123 486.864 241.916 487.143 241.679 487.396C241.173 487.947 240.55 488.379 239.856 488.661L255.872 541.07L256.413 540.973L261.165 492.284ZM242.805 485.338L261.286 490.926L267.812 423.87C267.466 423.808 267.126 423.717 266.795 423.598L240.833 479.82L241.281 480.182C242.007 480.826 242.534 481.665 242.798 482.599C243.063 483.532 243.055 484.522 242.775 485.451L242.805 485.338ZM265.617 422.798L265.447 422.753C265.164 422.508 264.913 422.227 264.702 421.918L212.825 449.572L235.249 479.533C235.91 479.173 236.64 478.958 237.391 478.903C238.142 478.849 238.896 478.956 239.602 479.218L265.617 422.798ZM232.664 483.982L168.703 476.189C168.518 477.002 168.118 477.752 167.546 478.359C167.274 478.684 166.954 478.966 166.596 479.193L186.378 518.336L233.35 486.283C232.966 485.619 232.741 484.875 232.691 484.11L232.664 483.982ZM210.848 449.042L167.745 391.644C167.14 391.975 166.477 392.187 165.792 392.27L164.486 470.008C165.487 470.158 166.421 470.598 167.174 471.273C167.461 471.526 167.72 471.808 167.948 472.115L210.848 449.042ZM164.455 392.063C163.454 391.913 162.52 391.473 161.767 390.798L161.541 390.738L50.5589 476.409C50.8947 476.936 51.128 477.522 51.2466 478.135L158.581 474.535C158.685 473.437 159.142 472.403 159.886 471.588C160.714 470.651 161.866 470.063 163.111 469.942L164.455 392.063ZM158.646 475.762L51.3752 479.349C51.3062 480.508 50.851 481.611 50.0822 482.481C49.6742 482.954 49.1698 483.334 48.6026 483.597L62.3261 520.723L158.939 476.476C158.841 476.285 158.752 476.09 158.672 475.89L158.646 475.762ZM21.2714 536.004C21.4771 535.63 21.723 535.281 22.0052 534.961C22.5335 534.35 23.2105 533.885 23.9707 533.612L12.8272 488.89L-53.5815 506.723C-53.4971 507.331 -53.5195 507.95 -53.6473 508.55L21.2714 536.004ZM-50.7383 511.023L80.138 583.261L29.3055 542.058C28.5051 542.818 27.4812 543.301 26.3848 543.434C25.2886 543.568 24.1782 543.345 23.218 542.8C22.2576 542.254 21.4984 541.415 21.0524 540.405C20.6064 539.395 20.4972 538.269 20.7411 537.193L-50.7383 511.023ZM25.3232 533.309C25.8618 533.24 26.4082 533.264 26.939 533.379L43.9901 483.752C43.621 483.556 43.2792 483.311 42.9738 483.026C42.3969 482.514 41.9463 481.876 41.6573 481.161L14.159 488.552L25.3232 533.309ZM28.2155 533.812C28.6302 534.02 29.0188 534.276 29.373 534.576C29.7158 534.908 30.0235 535.274 30.291 535.669L61.3422 521.457L47.2743 484.148C46.5302 484.342 45.7485 484.341 45.0049 484.145L28.2155 533.812ZM61.7686 522.691L30.7324 536.845C30.9392 537.551 30.9985 538.292 30.9071 539.022C30.8156 539.752 30.5754 540.455 30.201 541.088L82.7425 583.595C83.0798 583.261 83.4533 582.966 83.8562 582.714L61.7686 522.691ZM81.746 585.506L-54.623 510.496C-54.7138 510.641 -54.8206 510.775 -54.9418 510.895L-54.9872 511.064L14.3355 597.475L81.3429 587.576C81.278 586.901 81.3472 586.221 81.5463 585.573L81.746 585.506ZM-11.8392 383.022L-11.9807 382.984L13.9213 487.067L41.4195 479.676C41.2866 478.945 41.3173 478.194 41.5095 477.477C41.7017 476.76 42.0505 476.094 42.5309 475.528C42.7331 475.309 42.9498 475.105 43.1796 474.915L-11.8392 383.022ZM-10.6936 382.362L44.4079 474.398C45.2112 474.112 46.0755 474.041 46.9149 474.192L64.8462 410.435L-9.68463 380.969C-9.85968 381.314 -10.0875 381.631 -10.3599 381.907C-10.5235 382.095 -10.7017 382.269 -10.8931 382.429L-10.6936 382.362ZM79.0081 354.983C78.4559 354.477 78.0229 353.855 77.7405 353.162L-8.92615 377.573C-8.83307 378.24 -8.86106 378.919 -9.00895 379.577L65.3805 409.006L80.3276 355.821C79.7956 355.627 79.2977 355.351 78.8519 355.002L79.0081 354.983ZM48.4853 474.432C48.9217 474.631 49.332 474.883 49.7069 475.182L102.274 429.023C101.832 428.402 101.529 427.693 101.385 426.945C101.24 426.197 101.259 425.426 101.439 424.686L66.3712 410.844L48.4853 474.432ZM83.3706 356.213C82.8193 356.307 82.256 356.31 81.7039 356.22L66.6888 409.659L101.91 423.603C102.09 423.254 102.309 422.927 102.565 422.629C103.041 422.128 103.603 421.715 104.224 421.41L83.3706 356.213ZM84.6328 355.795L105.509 420.907C106.323 420.762 107.16 420.81 107.953 421.048L128.525 372.062L86.6499 353.916C86.4809 354.193 86.2891 354.455 86.0765 354.7C85.6186 355.18 85.0635 355.557 84.4483 355.806L84.6328 355.795ZM145.742 328.709C145.327 328.313 144.969 327.86 144.679 327.366L87.1849 349.886C87.3954 350.768 87.3777 351.69 87.1335 352.564L129.122 370.74L146.575 329.326L145.742 328.709ZM149.918 319.788C150.921 319.929 151.858 320.37 152.606 321.052C152.93 321.345 153.218 321.676 153.462 322.038L158.39 319.577L151.101 240.474L149.918 319.788ZM159.618 319.06L276.932 262.062C276.707 261.35 276.63 260.598 276.706 259.855L155.396 229.981C155.094 230.769 154.602 231.47 153.963 232.022C153.324 232.574 152.558 232.959 151.733 233.143L159.618 319.06ZM277.85 257.167L224.659 200.816L155.546 226.936C155.691 227.508 155.727 228.103 155.651 228.688L276.969 258.534C277.185 258.032 277.483 257.571 277.85 257.167ZM190.431 170.625L153.992 224.373C154.436 224.77 154.801 225.247 155.068 225.78L223.69 199.8L195.75 170.206C194.987 170.755 194.087 171.084 193.149 171.158C192.212 171.232 191.271 171.048 190.431 170.625ZM277.596 178.133L197.662 167.361C197.474 168.06 197.144 168.712 196.694 169.279L224.983 199.269L277.76 179.327C277.673 178.934 277.618 178.535 277.596 178.133ZM279.291 181.975C278.847 181.578 278.482 181.1 278.215 180.568L225.972 200.321L278.04 255.555L281.815 183.286C280.877 183.095 280.012 182.643 279.319 181.982L279.291 181.975ZM285.181 182.586C284.523 182.96 283.791 183.187 283.036 183.251L279.475 255.848C280.408 255.355 281.472 255.162 282.52 255.296C283.568 255.431 284.549 255.886 285.328 256.6C286.08 257.291 286.612 258.188 286.858 259.179C287.104 260.169 287.053 261.211 286.71 262.172L382.532 311.256L285.181 182.586ZM285.926 263.293L285.513 263.817L285.03 264.263L332.187 335.903L383.218 313.103L285.926 263.293ZM383.909 314.135L332.813 337.069L381.408 410.909C381.924 410.661 382.478 410.502 383.047 410.441L383.909 314.135ZM383.949 420.633C382.769 420.725 381.592 420.41 380.616 419.74L307.343 501.149C307.658 501.51 307.916 501.916 308.11 502.353L395.663 475.427L383.949 420.633ZM308.206 506.401L365.155 538.446L381.864 547.822L411.959 564.747C412.606 564.014 413.453 563.485 414.395 563.223L395.919 476.615L308.488 503.543C308.732 504.501 308.683 505.509 308.347 506.439L308.206 506.401ZM455.087 454.513L387.701 418.493C387.591 418.65 387.47 418.8 387.339 418.94C386.762 419.581 386.038 420.072 385.23 420.371L396.948 474.925L454.83 457.167C454.732 456.275 454.87 455.373 455.228 454.551L455.087 454.513ZM456.588 460.208C456.071 459.727 455.65 459.152 455.347 458.515L397.379 476.25L415.94 562.88C416.435 562.867 416.929 562.928 417.405 563.061L424.751 544.343L457.609 460.693C457.256 460.559 456.915 460.396 456.588 460.208ZM458.789 461.372L426.279 544.178L418.578 563.769C418.865 563.945 419.135 564.149 419.383 564.378C420.103 565.008 420.628 565.831 420.897 566.749L465.872 562.257L459.597 461.408C459.327 461.418 459.057 461.407 458.789 461.372ZM612.643 576.301C612.392 576.264 612.146 576.198 611.909 576.104L587.105 621.113L569.98 652.151L570.371 652.498C570.939 652.999 571.387 653.621 571.682 654.318C571.977 655.014 572.112 655.768 572.077 656.524L603.9 662.027L612.643 576.301ZM605.35 662.264L687.813 676.587C688.037 675.879 688.408 675.226 688.902 674.671L689.183 674.414L616.29 575.796C615.572 576.202 614.764 576.422 613.939 576.436L605.35 662.264ZM586.296 619.838L610.757 575.432L610.358 575.114C609.817 574.636 609.386 574.046 609.096 573.385L533.076 596.021L564.969 651.535C566.201 651.028 567.581 651.018 568.82 651.508L586.296 619.838ZM515.777 559.812C515.572 560.578 515.186 561.284 514.651 561.869C514.421 562.148 514.151 562.391 513.851 562.592L532.465 594.799L608.819 572.161C608.772 571.896 608.753 571.628 608.761 571.359L515.777 559.812ZM609.329 568.789L567.596 537.798L515.842 557.198C515.936 557.608 515.986 558.027 515.991 558.448L608.834 569.957C608.978 569.553 609.172 569.168 609.413 568.812L609.329 568.789ZM512.713 563.225C512.003 563.501 511.24 563.618 510.48 563.565C509.719 563.513 508.98 563.294 508.314 562.923L472.879 610.891C473.051 611.383 473.148 611.898 473.166 612.419L531.09 595.186L512.713 563.225ZM531.793 596.403L473.035 613.926C472.979 614.244 472.896 614.555 472.785 614.858L562.628 653.72C562.794 653.431 562.989 653.159 563.208 652.908C563.42 652.661 563.662 652.441 563.928 652.254L531.793 596.403ZM562.012 654.886L502.336 629.066L472.064 615.965L472.019 616.134C471.661 616.529 471.244 616.866 470.783 617.134L500.849 688.278L562.237 658.001C561.877 657.006 561.819 655.928 562.069 654.901L562.012 654.886ZM507.284 562.133C506.585 561.461 506.091 560.605 505.857 559.664L467.206 563.491L469.908 607.857C470.487 608.091 471.023 608.418 471.495 608.826C471.751 609.079 471.993 609.346 472.219 609.625L507.284 562.133ZM465.87 563.617L421.031 568.055C421.033 568.957 420.795 569.843 420.343 570.623L464.572 608.907C465.106 608.407 465.742 608.029 466.436 607.797C467.13 607.566 467.866 607.486 468.594 607.565L465.87 563.617ZM463.716 610.069L419.649 571.858C418.748 572.806 417.512 573.364 416.205 573.416L411.41 646.892L463.304 614.767C462.995 614.007 462.871 613.185 462.943 612.368C463.014 611.551 463.279 610.763 463.716 610.069ZM461.676 461.33L460.992 461.509L467.282 562.302L505.667 558.343C505.676 557.098 506.137 555.9 506.964 554.97C507.236 554.687 507.538 554.434 507.863 554.213L461.676 461.33ZM463.359 460.359C463.206 460.502 463.04 460.63 462.863 460.74L509.119 553.703C509.998 553.388 510.945 553.315 511.862 553.491C512.779 553.668 513.631 554.087 514.33 554.706C514.768 555.118 515.141 555.595 515.434 556.121L566.419 536.878L463.359 460.359ZM668.418 497.159L466.437 461.184L567.815 536.526L668.536 498.642C668.435 498.099 668.42 497.544 668.492 496.997L668.418 497.159ZM669.034 499.834L569.091 537.412L610.205 567.663C611.009 566.846 612.063 566.32 613.2 566.17C614.337 566.02 615.492 566.254 616.481 566.835L669.835 500.683C669.547 500.381 669.302 500.041 669.107 499.672L669.034 499.834ZM673.449 502.559C672.537 502.557 671.642 502.317 670.851 501.863L617.505 567.986C618.403 568.921 618.916 570.161 618.939 571.457C618.962 572.753 618.495 574.01 617.63 574.975L617.377 575.24L690.285 673.802C690.691 673.569 691.125 673.391 691.578 673.271L673.449 502.559ZM696.653 681.557C696.038 682.23 695.257 682.73 694.387 683.006L699.746 713.053L763.094 698.059C763.048 697.668 763.052 697.273 763.106 696.883L697.607 680.028C697.378 680.588 697.055 681.105 696.653 681.557ZM772.177 677.266C771.351 676.503 770.794 675.495 770.586 674.39L697.959 678.489C697.959 678.489 697.913 678.659 697.891 678.743L763.418 695.606C763.637 695.045 763.95 694.525 764.345 694.07C764.916 693.394 765.653 692.878 766.483 692.571C767.313 692.263 768.209 692.175 769.083 692.315L773.506 677.955C773.029 677.804 772.578 677.582 772.169 677.294L772.177 677.266ZM777.594 678.173C776.7 678.56 775.711 678.674 774.752 678.5L770.337 692.832C770.815 693.054 771.257 693.345 771.648 693.698C772.633 694.597 773.232 695.841 773.321 697.17L788.945 698.06L777.594 678.173ZM772.054 700.884C771.993 700.964 771.923 701.037 771.845 701.1L848.492 802.085L789.73 699.42L773.243 698.48C773.083 699.417 772.66 700.29 772.024 700.996L772.054 700.884ZM822.821 770.346L770.767 701.96C769.942 702.437 768.998 702.667 768.046 702.622L752.576 797.978L849.139 809.274C849.352 808.462 849.751 807.71 850.303 807.076L850.54 806.868L822.821 770.346ZM841.534 700.508L780.094 675.849C779.903 676.185 779.676 676.499 779.419 676.787C779.201 677.028 778.96 677.247 778.699 677.441L790.47 698.015L841.472 700.854C841.472 700.854 841.53 700.749 841.561 700.636L841.534 700.508ZM846.229 706.937C845.068 706.858 843.967 706.393 843.102 705.616C842.602 705.177 842.195 704.643 841.903 704.046C841.611 703.448 841.44 702.799 841.401 702.136L791.264 699.347L852.163 805.669C852.461 805.54 852.772 805.441 853.09 805.373L846.229 706.937ZM854.421 805.488C855.611 805.538 856.748 805.996 857.639 806.786C858.53 807.576 859.122 808.649 859.314 809.823L873.835 809.631L847.811 709.055L854.421 805.488ZM890.525 881.213C890.625 881.064 890.753 880.934 890.9 880.83L855.937 815.421C855.256 815.691 854.522 815.805 853.79 815.753L840.593 883.984L889.196 884.365C889.247 883.17 889.724 882.032 890.54 881.157L890.525 881.213ZM857.918 814.016C857.662 814.288 857.383 814.537 857.083 814.76L891.895 879.826L874.025 810.953L859.171 811.146C859.055 812.208 858.618 813.209 857.918 814.016ZM848.789 706.535L848.446 706.685L875.076 809.631L912.914 809.064C913.04 808.001 913.487 807.003 914.196 806.201C914.333 806.037 914.485 805.885 914.65 805.748L848.789 706.535ZM915.819 814.379C915.36 814.168 914.934 813.891 914.556 813.556C913.664 812.743 913.081 811.646 912.906 810.453L875.451 810.941L893.374 879.618C893.957 879.479 894.561 879.447 895.156 879.52L915.819 814.379ZM898.178 888.012C897.752 888.487 897.246 888.884 896.683 889.184L912.565 934.299L927.812 933.878L929.724 922.565C928.662 922.245 927.734 921.588 927.08 920.693C926.426 919.798 926.083 918.715 926.102 917.607C926.122 916.5 926.502 915.429 927.187 914.558C927.871 913.687 928.821 913.063 929.893 912.781L897.68 888.514L898.178 888.012ZM929.295 933.882L954.737 933.259C954.786 933.021 954.849 932.785 954.926 932.554L935.227 920.894C934.727 921.521 934.086 922.02 933.355 922.35C932.625 922.68 931.826 922.832 931.025 922.793L929.295 933.882ZM936.454 917.896C936.403 918.532 936.237 919.154 935.962 919.73L951.623 929.068L936.514 917.67C936.478 917.74 936.458 917.817 936.454 917.896ZM955.379 936.062C955.137 935.606 954.972 935.112 954.892 934.601L929.173 935.24L924.642 960.399C925.117 960.617 925.56 960.899 925.961 961.236L945.594 944.449L955.379 936.062ZM923.512 960.096L927.689 935.357L913.002 935.716L921.596 960.127C922.226 959.986 922.878 959.976 923.512 960.096ZM1016.13 882.389L936.674 916.171L955.817 930.585L955.9 930.274C956.726 929.358 957.855 928.771 959.08 928.621C960.305 928.471 961.543 928.769 962.566 929.46L1016.31 882.647L1016.13 882.389ZM1120.05 863.75L1097.89 867.369L1025.6 879.149C1025.62 879.422 1025.63 879.697 1025.62 879.971C1025.59 880.784 1025.37 881.579 1024.97 882.287C1024.57 882.995 1024 883.597 1023.32 884.042L1046.16 925.547L1120.43 864.819C1120.26 864.48 1120.13 864.121 1120.05 863.75ZM1121.05 865.921L1046.9 926.623L1080.36 987.606C1081.02 987.337 1081.73 987.219 1082.45 987.259L1083.15 987.448L1122.21 866.99C1121.81 866.697 1121.46 866.347 1121.16 865.951L1121.05 865.921ZM1131.69 1003.11L1215.11 1022.44C1215.43 1021.55 1216.01 1020.77 1216.77 1020.2L1167.84 937.314L1086.73 990.131C1087.1 990.887 1087.27 991.723 1087.23 992.563C1087.22 992.66 1087.2 992.755 1087.16 992.845L1131.69 1003.11ZM1091.87 995.257L1202.27 1036.45L1215.46 1026.68C1214.99 1025.86 1214.77 1024.93 1214.81 1024C1214.83 1023.9 1214.85 1023.8 1214.89 1023.71L1091.87 995.257ZM1081.92 997.461C1080.73 997.409 1079.59 996.944 1078.71 996.145L1067.71 1005.54L1151.88 1066.05L1085.27 996.484C1084.34 997.173 1083.2 997.529 1082.04 997.492L1081.92 997.461ZM1077.86 995.132C1077.26 994.243 1076.96 993.189 1077 992.119C1077.07 991.755 1077.16 991.396 1077.29 991.047L1009.17 963.39L1066.71 1004.76L1077.86 995.132ZM1126.68 867.611C1126.1 867.808 1125.49 867.892 1124.89 867.857C1124.36 867.821 1123.86 867.685 1123.39 867.456L1084.36 987.589C1085.01 987.905 1085.59 988.349 1086.07 988.893L1167.24 936.184L1126.68 867.611ZM1195.03 915.384C1195.05 914.593 1195.25 913.818 1195.64 913.126L1128.79 866.273C1128.51 866.553 1128.2 866.804 1127.86 867.022L1168.32 935.324L1195.53 917.603C1195.24 916.911 1195.11 916.163 1195.14 915.414L1195.03 915.384ZM1196.22 918.728L1168.98 936.469L1217.93 1019.36L1218.4 1019.21L1212.2 985.068L1200.46 920.557L1200 920.436C1198.61 920.423 1197.28 919.86 1196.31 918.871L1196.22 918.728ZM1285.74 988.078L1262.47 968.505L1223.56 1020.29C1223.83 1020.56 1224.07 1020.86 1224.29 1021.18L1285.29 992.677C1285.1 992.11 1285.01 991.513 1285.04 990.915C1285.06 990.003 1285.32 989.113 1285.79 988.334L1285.74 988.078ZM1261.45 967.659L1203.77 918.934C1203.21 919.462 1202.54 919.862 1201.82 920.106L1213.61 984.993L1219.71 1018.72L1220.13 1018.83C1220.94 1018.86 1221.73 1019.08 1222.45 1019.45L1261.45 967.659ZM1320.23 883.876L1209.43 865.258L1201.78 910.659C1202.49 910.878 1203.15 911.253 1203.71 911.758C1204.27 912.262 1204.7 912.883 1204.99 913.576L1320.22 884.932C1320.27 884.674 1320.33 884.419 1320.42 884.17L1320.23 883.876ZM1320.54 885.866L1205.22 914.636C1205.26 914.93 1205.28 915.227 1205.26 915.523C1205.26 916.405 1205.03 917.273 1204.58 918.034L1262.28 966.61L1321.66 887.558C1321.25 887.144 1320.91 886.664 1320.65 886.137L1320.54 885.866ZM1382.65 840.571L1382.17 840.442C1380.98 840.39 1379.84 839.925 1378.95 839.126L1329.78 881.445C1330.25 882.167 1330.53 882.995 1330.59 883.853C1330.66 884.71 1330.51 885.571 1330.16 886.356L1396.24 924.537C1396.85 923.726 1397.7 923.12 1398.67 922.8L1382.65 840.571ZM1506.65 902.465L1536.69 934.377L1568.19 902.443C1567.6 901.766 1567.19 900.949 1567.01 900.07L1508.85 898.853C1508.76 899.577 1508.52 900.273 1508.14 900.895C1507.76 901.518 1507.25 902.053 1506.65 902.465ZM1505.39 903.067C1504.82 903.273 1504.21 903.366 1503.6 903.341C1503.24 903.29 1502.89 903.196 1502.55 903.061L1505.94 961.916C1506.94 961.969 1507.9 962.31 1508.71 962.899L1535.85 935.362L1505.39 903.067ZM1498.96 896.473L1430.6 861.131L1402.96 923.284C1403.85 923.822 1404.56 924.624 1404.98 925.579L1467.17 907.341L1498.7 898.099C1498.71 898.04 1498.72 897.982 1498.75 897.93C1498.76 897.457 1498.82 896.987 1498.94 896.53L1498.96 896.473ZM1405.33 926.974C1405.37 927.301 1405.4 927.63 1405.4 927.96C1405.35 928.277 1405.26 928.589 1405.15 928.891L1465.25 951.196L1499.05 900.429C1498.91 900.129 1498.8 899.816 1498.72 899.495L1405.33 926.974ZM1466.63 951.715L1501.1 964.519C1501.45 963.855 1501.96 963.279 1502.57 962.836C1503.18 962.392 1503.89 962.092 1504.63 961.958L1501.18 902.634C1500.73 902.366 1500.32 902.032 1499.96 901.642L1466.63 951.715ZM1501.61 970.162L1423.15 1020.45C1423.34 1020.85 1423.48 1021.28 1423.57 1021.71L1475.24 1018.89L1502.44 971.048C1502.13 970.802 1501.85 970.524 1501.6 970.219L1501.61 970.162ZM1500.92 969.009C1500.6 968.289 1500.45 967.502 1500.48 966.713C1500.53 966.364 1500.62 966.023 1500.75 965.697L1466 952.817L1422.08 1018.77L1422.63 1019.34L1500.92 969.009ZM1464.63 952.298L1404.8 930.217C1404.18 931.388 1403.13 932.268 1401.87 932.669L1408.68 968.033L1418.25 1017.6L1418.73 1017.73C1419.45 1017.75 1420.16 1017.94 1420.79 1018.28L1464.63 952.298ZM1407.3 967.514L1400.59 932.81L1400.1 932.83C1399.34 932.805 1398.6 932.611 1397.93 932.264C1397.26 931.917 1396.68 931.424 1396.22 930.822L1368.24 946.886L1416.29 1018.04L1417 1017.75L1407.3 967.514ZM1395.56 929.677C1395.28 928.991 1395.15 928.256 1395.17 927.516C1395.21 926.908 1395.37 926.315 1395.64 925.767L1329.53 887.55C1329.3 887.84 1329.04 888.104 1328.75 888.337L1367.43 945.972L1395.56 929.677ZM1383.98 840.26L1399.96 922.602L1400.44 922.731C1400.87 922.799 1401.29 922.911 1401.69 923.064L1429.38 860.741L1386.49 838.574C1385.84 839.389 1384.96 839.995 1383.96 840.317L1383.98 840.26ZM1469.84 767.094L1386.81 832.853C1387.33 833.702 1387.58 834.686 1387.54 835.679C1387.47 836.203 1387.33 836.716 1387.13 837.203L1429.99 859.334L1470.68 767.803C1470.38 767.604 1470.09 767.366 1469.84 767.094ZM1473.2 768.569C1472.78 768.5 1472.36 768.388 1471.96 768.236L1431.25 859.852L1499.69 895.217C1500.28 894.341 1501.13 893.679 1502.13 893.331L1473.91 768.425L1473.2 768.569ZM1475.86 767.92L1475.17 768.248L1503.39 893.154L1504.06 893.123L1504.83 893.328L1524.37 834.75L1475.86 767.92ZM1524.91 820.168C1524.95 819.107 1525.32 818.084 1525.97 817.245L1478.97 769.964L1524.79 833.17L1527.57 824.841C1526.72 824.391 1526.01 823.713 1525.53 822.884C1525.04 822.054 1524.8 821.105 1524.83 820.145L1524.91 820.168ZM1506.07 893.753C1506.82 894.109 1507.47 894.639 1507.97 895.299C1508.46 895.959 1508.8 896.729 1508.93 897.543L1567 898.766C1567.09 897.478 1567.66 896.271 1568.6 895.385L1525.44 836.065L1506.07 893.753ZM1531.81 825.281C1531.17 825.52 1530.49 825.627 1529.82 825.595C1529.54 825.566 1529.28 825.494 1529.02 825.383L1525.96 834.543L1567.07 890.923L1531.81 825.281ZM1702.72 815.309L1535.08 820.958C1535.02 821.689 1534.79 822.398 1534.43 823.036C1534.07 823.674 1533.57 824.227 1532.97 824.656L1570.28 894.414C1571.34 894.021 1572.5 893.989 1573.59 894.323C1574.67 894.657 1575.61 895.337 1576.27 896.259L1703.39 817.213C1703.01 816.593 1702.76 815.897 1702.67 815.174L1702.72 815.309ZM1576.89 897.425L1577.09 898.052L1662.56 882.394L1693.57 876.7C1693.59 876.556 1693.63 876.414 1693.68 876.277C1693.72 874.933 1694.3 873.66 1695.27 872.738C1696.25 871.815 1697.56 871.318 1698.9 871.356L1706.92 819.881C1705.84 819.669 1704.86 819.11 1704.13 818.288L1576.89 897.425ZM1576.3 902.135L1645.53 956.463L1695.3 880.188C1694.57 879.573 1694.03 878.769 1693.74 877.865L1629.75 889.602L1610.97 893.038L1577.14 899.336C1577.11 900.333 1576.79 901.3 1576.21 902.112L1576.3 902.135ZM1784.72 1022.4L1866.21 1047.26C1866.21 1047.26 1866.25 1047.09 1866.27 1047L1804.12 1002.98C1803.49 1003.67 1802.68 1004.18 1801.78 1004.44C1800.88 1004.71 1799.92 1004.72 1799.01 1004.48C1798.11 1004.23 1797.28 1003.75 1796.63 1003.07C1795.99 1002.39 1795.54 1001.54 1795.34 1000.63L1784.72 1022.4ZM1794.27 999.858L1699.03 996.265L1783.4 1021.9L1794.27 999.858ZM1757.34 852.112L1739.65 859.471L1777.43 914.957C1777.74 914.795 1778.07 914.67 1778.4 914.584L1762.35 855.209L1761.8 855.242C1760.84 855.208 1759.91 854.908 1759.12 854.374C1758.33 853.841 1757.7 853.096 1757.31 852.225L1757.34 852.112ZM1778.39 790.491L1680.84 747.869C1680.63 748.18 1680.4 748.473 1680.15 748.743L1759.13 845.757C1760 845.215 1761.01 844.948 1762.03 844.992C1762.21 845.012 1762.4 845.061 1762.57 845.135L1778.39 790.491ZM1757.49 847.799L1711.84 817.874C1711.74 818.026 1711.62 818.166 1711.49 818.293L1738.95 858.616L1757.03 851.001C1756.97 850.667 1756.95 850.326 1756.97 849.987C1756.95 849.246 1757.11 848.512 1757.42 847.84L1757.49 847.799ZM1900.91 805.901C1901.65 806.085 1902.33 806.427 1902.92 806.904C1903.51 807.38 1903.99 807.979 1904.32 808.659L1940.11 796.987L1913.14 736.866C1912.68 736.996 1912.21 737.062 1911.73 737.062L1900.91 805.901ZM1907.96 752.595L1895.69 807.647C1896.16 807.053 1896.75 806.568 1897.43 806.227C1898.11 805.886 1898.85 805.697 1899.61 805.673L1907.96 752.595ZM1899.48 815.982C1899.2 815.938 1898.93 815.865 1898.66 815.762L1881.44 873.387C1882.6 873.908 1883.54 874.836 1884.07 875.998L1915.82 866.724L1900.4 815.835C1900.1 815.918 1899.79 815.968 1899.48 815.982ZM1897.39 815.422C1896.73 815.09 1896.15 814.619 1895.69 814.041C1895.22 813.463 1894.89 812.792 1894.72 812.074L1883.99 860.25L1897.39 815.422ZM1910.1 736.808C1909.5 736.622 1908.94 736.319 1908.46 735.915L1828.64 806.98C1829.25 807.891 1829.56 808.968 1829.54 810.064C1829.47 811.312 1828.96 812.496 1828.1 813.398L1876.68 873.746C1877.54 873.223 1878.53 872.964 1879.54 873.001L1879.8 873.069L1910.1 736.808ZM1816.85 676.436L1872.24 708.426L1886.85 677.862C1886.23 677.459 1885.7 676.925 1885.31 676.298C1884.92 675.67 1884.67 674.965 1884.58 674.231L1817.16 675.038C1817.13 675.528 1817.03 676.01 1816.84 676.464L1816.85 676.436ZM1873.36 709.09L1907.61 728.821C1908.08 728.22 1908.68 727.729 1909.36 727.384L1890.81 678.56C1890.36 678.666 1889.9 678.715 1889.44 678.707C1888.96 678.626 1888.5 678.502 1888.05 678.336L1873.36 709.09ZM1906.63 731.795C1906.69 731.18 1906.85 730.58 1907.11 730.017L1873.03 710.331L1827.42 805.655L1827.97 806.076L1907.53 734.999C1906.84 734.066 1906.5 732.928 1906.55 731.772L1906.63 731.795ZM1804.91 859.718L1874.64 876.376C1874.87 875.731 1875.24 875.148 1875.73 874.672L1827.16 814.297C1826.29 814.824 1825.29 815.081 1824.27 815.034C1823.91 814.983 1823.56 814.889 1823.23 814.754L1804.91 859.718ZM1821.96 814.385C1821.44 814.077 1820.97 813.686 1820.58 813.228L1766.68 847.962C1767.04 848.712 1767.21 849.536 1767.19 850.366C1767.19 850.366 1767.13 850.592 1767.1 850.705L1803.58 859.391L1821.96 814.385ZM1874.89 880.738L1784.61 918.424C1784.74 918.934 1784.81 919.46 1784.8 919.987C1784.77 920.664 1784.6 921.328 1784.31 921.94C1784.02 922.553 1783.62 923.103 1783.11 923.558L1817.46 972.289L1876.12 882.155C1875.62 881.767 1875.21 881.285 1874.89 880.738ZM1781.9 924.26L1781.47 924.48L1799.77 994.466C1800.05 994.413 1800.33 994.396 1800.6 994.417C1801.3 994.468 1801.98 994.65 1802.61 994.954L1816.57 973.472L1781.9 924.26ZM1783.8 917.149L1874.4 879.518C1874.26 879.021 1874.19 878.503 1874.21 877.984C1874.21 877.984 1874.27 877.758 1874.3 877.645L1804.39 860.971L1782.26 915.344C1783.02 915.803 1783.65 916.451 1784.08 917.225L1783.8 917.149ZM1802.75 860.56L1766.47 851.899C1766.21 852.597 1765.79 853.228 1765.26 853.748C1764.72 854.267 1764.07 854.663 1763.37 854.907L1779.65 914.676L1779.85 914.729C1780.22 914.735 1780.6 914.784 1780.96 914.876L1802.75 860.56ZM1765.61 846.768L1819.76 812.101C1819.4 811.354 1819.24 810.531 1819.28 809.705C1819.33 809.287 1819.44 808.879 1819.61 808.492L1779.66 791.044L1764.11 845.488C1764.79 845.811 1765.4 846.272 1765.89 846.843L1765.61 846.768ZM1820.03 807.152C1820.38 806.555 1820.86 806.039 1821.43 805.634C1821.99 805.229 1822.64 804.945 1823.32 804.799L1811.94 679.839L1811.41 679.695L1780.01 789.626L1820.03 807.152ZM1824.63 804.665C1825.1 804.716 1825.55 804.838 1825.98 805.029L1871.65 709.628L1816.26 677.638C1815.53 678.664 1814.47 679.397 1813.25 679.706L1824.63 804.665ZM1816.85 672.928L1969.03 643.844C1969.06 643.69 1969.1 643.539 1969.16 643.392C1969.16 643.333 1969.17 643.275 1969.2 643.223L1861.06 621.142L1816.12 671.371C1816.45 671.847 1816.69 672.373 1816.85 672.928ZM1819.68 673.685L1884.68 672.957C1884.83 671.892 1885.3 670.899 1886.05 670.121C1886.79 669.343 1887.76 668.819 1888.82 668.624C1889.88 668.429 1890.97 668.572 1891.94 669.033C1892.91 669.494 1893.72 670.249 1894.23 671.192L1965.73 645.772L1819.68 673.685ZM1892.2 677.996L1910.62 726.966C1911.02 726.862 1911.44 726.821 1911.86 726.846C1912.63 726.87 1913.39 727.072 1914.07 727.436L1930.38 704.285L1893.34 677.123C1892.97 677.514 1892.54 677.837 1892.06 678.079L1892.2 677.996ZM1915.13 728.205C1915.68 728.705 1916.11 729.317 1916.4 730C1916.69 730.682 1916.82 731.419 1916.8 732.159C1916.72 732.442 1916.64 732.724 1916.58 732.978L2017.4 768.37L2017.44 768.201L1931.44 705.055L1915.13 728.205ZM2016.83 770.487C2016.91 770.204 2016.98 769.922 2017.06 769.64L1916.21 734.24C1915.79 735.103 1915.13 735.83 1914.31 736.334L1941.26 796.539L2017.09 771.674C2016.95 771.292 2016.86 770.893 2016.83 770.487ZM1940.41 798.126L1904.57 809.875C1904.64 810.251 1904.67 810.634 1904.66 811.017C1904.62 811.706 1904.44 812.379 1904.13 812.993L1961.59 849.56C1961.95 849.136 1962.38 848.771 1962.85 848.476L1940.41 798.126ZM1960.59 852.711C1960.64 852.024 1960.82 851.354 1961.12 850.736L1903.63 814.161C1903.11 814.793 1902.43 815.288 1901.67 815.601L1917.08 866.426L1960.67 853.669C1960.63 853.351 1960.6 853.031 1960.59 852.711ZM1916.2 868.034L1884.41 877.329C1884.46 877.654 1884.48 877.985 1884.47 878.315C1884.45 879.094 1884.24 879.856 1883.88 880.544L1927.43 912.084C1927.9 911.598 1928.46 911.203 1929.07 910.921L1916.2 868.034ZM1926.17 915.436C1926.18 914.645 1926.39 913.871 1926.77 913.178L1885.59 883.514L1926.57 924.435L1928.58 919.984C1927.82 919.504 1927.19 918.831 1926.77 918.033C1926.34 917.235 1926.14 916.339 1926.17 915.436ZM1882.46 882.221C1881.68 882.828 1880.74 883.196 1879.75 883.28L1871.71 1044.01L1872 1044.4L1872.37 1044.49L1925.97 925.786L1882.46 882.221ZM1878.41 883.193C1877.97 883.149 1877.53 883.031 1877.12 882.845L1818.17 973.478L1868.41 1044.92C1869.01 1044.59 1869.67 1044.38 1870.35 1044.32L1878.41 883.193ZM1817.41 974.606L1803.72 995.646C1804.34 996.139 1804.83 996.767 1805.17 997.48C1805.5 998.193 1805.66 998.974 1805.65 999.761C1805.62 1000.53 1805.42 1001.28 1805.06 1001.96L1822.43 1014.3L1867.21 1046.01C1867.29 1045.91 1867.38 1045.81 1867.49 1045.73L1817.41 974.606ZM1798.44 994.926L1780.27 925.005L1779.42 925.047C1778.15 924.998 1776.95 924.471 1776.06 923.572L1754.33 942.882L1797.67 995.203C1797.92 995.095 1798.18 995.002 1798.44 994.926ZM1775.24 922.538C1774.85 921.877 1774.6 921.135 1774.53 920.367C1774.46 919.599 1774.56 918.825 1774.83 918.102L1702.73 879.429C1702.62 879.619 1702.48 879.795 1702.32 879.953L1753.51 941.727L1775.24 922.538ZM1703.7 876.632C1703.65 877.19 1703.51 877.735 1703.26 878.24L1775.51 916.682C1775.58 916.428 1775.89 916.271 1776.1 916.054L1738.21 860.353L1703.4 875.039C1703.58 875.503 1703.7 875.993 1703.73 876.491L1703.7 876.632ZM1737.57 859.244L1710.35 819.259C1709.64 819.659 1708.85 819.902 1708.04 819.971L1700.01 871.53C1701.27 871.902 1702.35 872.742 1703.01 873.877L1737.57 859.244ZM1679.1 749.824L1706.25 809.934C1706.79 809.777 1707.35 809.703 1707.91 809.714C1709.27 809.77 1710.55 810.36 1711.48 811.356C1712.4 812.351 1712.89 813.671 1712.85 815.028C1712.8 815.664 1712.63 816.286 1712.36 816.862L1758.06 846.83L1679.06 749.845L1679.1 749.824ZM1807.75 677.507L1681.41 743.457C1681.64 744.081 1681.74 744.746 1681.71 745.411C1681.67 745.822 1681.56 746.223 1681.39 746.596L1778.74 789.193L1810.08 679.432C1809.13 679.039 1808.32 678.369 1807.75 677.507ZM1795.16 611.53L1811.44 669.633L1812.23 669.604C1813.17 669.63 1814.08 669.926 1814.85 670.457L1859.31 620.765L1798.41 608.346C1798.17 609.086 1797.76 609.76 1797.22 610.317C1796.67 610.874 1796.01 611.299 1795.28 611.56L1795.16 611.53ZM1947.92 521.234L1798.17 604.714C1798.51 605.441 1798.67 606.242 1798.63 607.046L1860.35 619.62L1948.15 521.507L1947.92 521.234ZM1952.27 523.278L1951.88 523.172C1950.88 523.198 1949.9 522.935 1949.05 522.415L1861.73 619.991L1969.2 641.862C1969.46 641.103 1969.9 640.416 1970.48 639.856C1971.05 639.296 1971.75 638.879 1972.52 638.638L1952.27 523.278ZM1969.5 645.843L1894.76 672.512C1894.86 672.937 1894.89 673.375 1894.86 673.811C1894.85 674.611 1894.64 675.395 1894.25 676.096L1931.16 703.193L1970.61 647.229C1970.16 646.84 1969.78 646.369 1969.5 645.843ZM1975.23 648.499C1974.76 648.632 1974.27 648.714 1973.78 648.743C1973.01 648.704 1972.26 648.503 1971.57 648.153L1932.12 704.117L2018.41 767.19C2018.79 766.797 2019.22 766.464 2019.7 766.206L1975.23 648.499ZM1968.06 848.359L2018.76 774.573C2018.27 774.112 2017.86 773.562 2017.56 772.951L1941.81 797.746L1964.25 848.004C1964.78 847.834 1965.35 847.76 1965.91 847.784C1966.66 847.804 1967.4 848.001 1968.06 848.359ZM1962.71 857.027C1961.97 856.505 1961.4 855.785 1961.05 854.951L1917.44 867.701L1930.46 910.506C1930.8 910.456 1931.15 910.438 1931.5 910.452C1932.07 910.499 1932.62 910.648 1933.14 910.891L1962.71 857.027ZM1933.97 919.976C1933.11 920.519 1932.1 920.786 1931.07 920.742C1930.65 920.672 1930.23 920.56 1929.83 920.409L1927.61 925.318L1983.57 981.383L1933.97 919.976ZM1987.81 987.479L1926.99 926.724L1873.63 1045.08C1874.28 1045.47 1874.83 1046 1875.25 1046.63L1987.02 992.227C1986.81 991.643 1986.72 991.022 1986.75 990.402C1986.79 989.341 1987.16 988.319 1987.81 987.479ZM1987.57 993.463L1875.71 1047.84C1875.88 1048.35 1875.97 1048.88 1875.98 1049.42L1952.59 1058.7L1988.79 994.759C1988.3 994.394 1987.89 993.934 1987.58 993.406L1987.57 993.463ZM1998.04 1059.99L1991.71 995.723C1991.11 995.682 1990.53 995.526 1989.99 995.261L1954.06 1058.76L1994.32 1063.5C1994.58 1062.64 1995.06 1061.87 1995.72 1061.25C1996.37 1060.64 1997.17 1060.2 1998.04 1059.99ZM1926.54 1109.73L1994.56 1067.1C1994.25 1066.45 1994.09 1065.74 1994.09 1065.01L1953.3 1060.13L1925.66 1108.95C1925.97 1109.18 1926.27 1109.44 1926.54 1109.73ZM1922.79 1107.88C1923.38 1107.93 1923.96 1108.08 1924.49 1108.33L1951.85 1059.99L1876.74 1050.87L1920.19 1108.57C1920.98 1108.1 1921.88 1107.86 1922.79 1107.88ZM1917.79 1111.19C1918.06 1110.49 1918.48 1109.85 1919.02 1109.32L1875.6 1051.41C1875.2 1052.36 1874.52 1053.16 1873.66 1053.72C1872.79 1054.28 1871.78 1054.56 1870.75 1054.53C1869.72 1054.5 1868.72 1054.17 1867.89 1053.56C1867.05 1052.96 1866.42 1052.12 1866.07 1051.15L1761.46 1074.54L1917.79 1111.19ZM1865.78 1049.87C1865.75 1049.64 1865.74 1049.42 1865.75 1049.19C1865.79 1048.98 1865.85 1048.78 1865.92 1048.57L1784.23 1023.66L1759.76 1073.63L1865.78 1049.87ZM1758.37 1073.29L1782.86 1023.23L1698.69 997.656C1698.45 998.174 1698.13 998.649 1697.74 999.064L1758.37 1073.29ZM1699.17 994.971L1795.26 998.67C1795.42 997.668 1795.88 996.739 1796.58 995.999L1753.39 943.539L1698.32 992.476C1698.82 993.221 1699.11 994.08 1699.17 994.971ZM1697.44 991.483L1752.52 942.61L1701.38 880.518C1700.7 880.952 1699.92 881.221 1699.11 881.302L1694.95 990.272C1695.82 990.476 1696.63 990.911 1697.28 991.53L1697.44 991.483ZM1693.62 990.249L1697.79 881.279C1697.31 881.227 1696.84 881.102 1696.41 880.908L1646.58 957.261L1690.46 991.761C1691.31 990.935 1692.42 990.43 1693.6 990.334L1693.62 990.249ZM1614.44 1011.01L1688.95 995.831L1688.92 995.25C1688.95 994.402 1689.18 993.573 1689.57 992.823L1645.79 958.409L1612.86 1008.89C1613.57 1009.47 1614.11 1010.23 1614.42 1011.09L1614.44 1011.01ZM1609.8 1007.56C1610.5 1007.61 1611.19 1007.8 1611.83 1008.1L1644.82 957.514L1575.36 902.912C1575 903.237 1574.59 903.505 1574.15 903.707L1580.44 922.693L1608.62 1007.67C1609 1007.63 1609.39 1007.62 1609.78 1007.64L1609.8 1007.56ZM1607.39 1008.06L1579.45 924.15L1572.69 904.192C1572.35 904.259 1572.01 904.289 1571.66 904.281C1570.67 904.26 1569.7 903.937 1568.89 903.355L1537.3 935.387L1606.26 1008.67C1606.62 1008.46 1606.99 1008.29 1607.37 1008.15L1607.39 1008.06ZM1605.66 1009.44L1536.52 936.238L1509.42 963.726C1510.19 964.667 1510.6 965.848 1510.59 967.062C1510.53 967.439 1510.43 967.808 1510.29 968.163L1605.04 1009.97C1605.21 1009.8 1605.42 1009.65 1605.64 1009.53L1605.66 1009.44ZM1604.7 1011.24L1509.95 969.432C1509.49 970.24 1508.82 970.904 1508 971.353C1507.19 971.802 1506.26 972.017 1505.33 971.976C1504.74 971.935 1504.15 971.778 1503.61 971.514L1476.78 1018.76L1604.48 1011.82C1604.53 1011.65 1604.6 1011.49 1604.67 1011.33L1604.7 1011.24ZM1424.24 1114.1L1601.76 1013.15L1476.15 1019.99L1423.23 1113.11C1423.61 1113.47 1423.93 1113.88 1424.18 1114.33L1424.24 1114.1ZM1422.07 1112.47L1474.65 1020.31L1423.81 1023.08C1423.72 1024.23 1423.25 1025.32 1422.48 1026.18C1421.7 1027.03 1420.66 1027.6 1419.51 1027.79L1420.85 1112.38C1421.25 1112.44 1421.64 1112.55 1422.01 1112.69L1422.07 1112.47ZM1416.98 1113.19C1417.67 1112.61 1418.52 1112.24 1419.41 1112.12L1418.07 1027.53C1416.77 1027.4 1415.56 1026.78 1414.69 1025.79C1413.83 1024.8 1413.39 1023.52 1413.44 1022.21C1413.46 1022.09 1413.49 1021.98 1413.54 1021.87L1294.91 992.713C1294.74 993.145 1294.5 993.551 1294.22 993.92L1416.98 1113.19ZM1295.32 991.069C1295.28 991.21 1295.25 991.323 1295.22 991.435L1413.85 1020.59C1414.15 1019.83 1414.62 1019.15 1415.23 1018.6L1367 947.58L1294.75 989.131C1295.06 989.806 1295.23 990.542 1295.23 991.287L1295.32 991.069ZM1294.27 987.763L1366.44 946.281L1327.6 888.785C1326.9 889.099 1326.13 889.246 1325.36 889.215C1325.01 889.149 1324.66 889.056 1324.32 888.935L1292.41 986.236C1293.13 986.673 1293.74 987.282 1294.17 988.009L1294.27 987.763ZM1290.39 985.726C1290.64 985.764 1290.89 985.83 1291.13 985.923L1323.04 888.623L1322.76 888.547L1263.38 967.599L1286.72 987.343C1287.69 986.449 1288.97 985.959 1290.3 985.973L1290.39 985.726ZM1228.46 1042.2C1228.96 1042.07 1229.48 1042.01 1229.99 1042.03C1231.12 1042.08 1232.2 1042.48 1233.07 1043.19L1286.03 993.873L1285.88 993.65L1224.91 1022.71C1225.08 1023.28 1225.16 1023.87 1225.13 1024.46C1225.1 1025.33 1224.85 1026.17 1224.4 1026.92C1223.95 1027.66 1223.33 1028.27 1222.57 1028.71L1228.46 1042.2ZM1227.23 1042.72L1221.48 1028.93C1220.98 1029.05 1220.45 1029.1 1219.93 1029.09C1218.61 1029.04 1217.36 1028.47 1216.44 1027.52L1203.97 1036.79L1225.3 1044.74C1225.75 1044 1226.38 1043.39 1227.14 1042.96L1227.23 1042.72ZM1162.03 1068.59L1224.67 1048.32C1224.61 1047.94 1224.58 1047.56 1224.59 1047.18C1224.67 1046.87 1224.75 1046.56 1224.83 1046.28L1202.82 1038.02L1161.99 1068.3L1162.03 1068.59ZM1157.61 1065.65C1158.93 1065.71 1160.18 1066.27 1161.1 1067.22L1201.12 1037.5L1086.76 994.766C1086.62 995.049 1086.45 995.317 1086.25 995.565L1154.26 1066.63C1155.2 1065.94 1156.34 1065.59 1157.5 1065.62L1157.61 1065.65ZM1039.14 1033.9C1039.11 1034.11 1039.06 1034.3 1038.98 1034.49L1152.63 1068.67C1152.64 1068.54 1152.68 1068.42 1152.73 1068.3L1066.69 1006.41L1038.11 1030.84C1038.73 1031.73 1039.05 1032.79 1039.02 1033.87L1039.14 1033.9ZM1032.71 1028.73C1033.2 1028.61 1033.7 1028.55 1034.21 1028.56C1035.41 1028.61 1036.56 1029.08 1037.46 1029.88L1065.79 1005.69L1008.33 964.403C1007.96 964.884 1007.51 965.296 1007 965.621L1032.71 1028.73ZM1009.52 961.518L1009.39 962.026L1077.82 989.858C1078.16 989.219 1078.65 988.668 1079.25 988.246L1045.86 927.583L1008.41 958.225C1009.11 959.162 1009.47 960.317 1009.41 961.488L1009.52 961.518ZM1005.92 956.44C1006.51 956.632 1007.07 956.924 1007.56 957.304L1045.29 926.432L1022.3 884.677C1021.71 884.867 1021.09 884.957 1020.48 884.943L1019.83 884.769L1005.92 956.44ZM1000.37 958.159C1000.87 957.533 1001.51 957.034 1002.24 956.704C1002.97 956.373 1003.77 956.222 1004.57 956.261L1018.47 884.526C1018.02 884.306 1017.61 884.032 1017.23 883.712L963.776 930.479C964.514 931.319 964.959 932.375 965.043 933.489C965.126 934.603 964.845 935.713 964.241 936.653L1000.37 958.159ZM999.242 960.457L999.274 961.131C999.323 960.495 999.49 959.873 999.765 959.297L963.291 937.487C962.353 938.333 961.135 938.802 959.872 938.804C958.608 938.806 957.388 938.341 956.447 937.498L956.084 937.159L946.141 945.684L927.12 962.333C927.252 962.576 927.367 962.829 927.462 963.09C927.587 963.316 927.685 963.555 927.755 963.803L999.242 960.457ZM834.598 937.874L918.081 962.965C918.305 962.479 918.599 962.028 918.955 961.627C919.383 961.145 919.9 960.749 920.477 960.462L911.74 935.681L834.617 937.577C834.617 937.577 834.48 937.752 834.485 937.844L834.598 937.874ZM834.604 936.273L911.272 934.376L895.534 889.632C894.739 889.806 893.913 889.787 893.127 889.577C892.341 889.366 891.616 888.97 891.015 888.422L834.166 934.855C834.34 935.3 834.449 935.767 834.491 936.243L834.604 936.273ZM831.349 932.377C831.925 932.596 832.454 932.922 832.908 933.339L833.41 933.836L890.025 887.37C889.688 886.853 889.452 886.277 889.33 885.672L840.345 885.248L831.349 932.377ZM761.745 897.062L825.153 934.376C825.301 934.143 825.471 933.925 825.66 933.725C826.207 933.113 826.893 932.643 827.661 932.353C828.429 932.064 829.256 931.965 830.071 932.064L839.094 885.397L742.616 884.406C742.528 884.761 742.386 885.1 742.195 885.412L761.745 897.062ZM742.89 883.27L839.19 883.911L852.455 815.425C851.777 815.21 851.15 814.856 850.614 814.388L850.099 813.826L742.584 881.585C742.738 882.084 742.813 882.604 742.807 883.126L742.89 883.27ZM739.631 878.374C740.203 878.591 740.733 878.907 741.197 879.308C741.582 879.656 741.913 880.061 742.177 880.508L849.54 812.86C849.239 812.203 849.079 811.491 849.071 810.768L752.369 799.314L739.631 878.374ZM737.147 878.041C737.55 877.992 737.956 877.99 738.36 878.033L751.121 799.342L718.829 795.589C718.624 796.369 718.224 797.084 717.667 797.667C717.147 798.265 716.493 798.732 715.758 799.03L737.147 878.041ZM717.192 790.402C717.729 790.887 718.157 791.48 718.449 792.142C718.741 792.804 718.89 793.52 718.887 794.243L751.32 798.034L766.722 702.479L766.271 702.358L749.073 732.651L716.674 789.961L717.192 790.402ZM713.31 788.848C714.082 788.792 714.857 788.917 715.573 789.212L748.16 731.65L765.126 701.658L764.748 701.376C764.136 700.829 763.666 700.143 763.377 699.375L699.965 714.381L713.31 788.848ZM698.664 714.607L602.023 737.495C602.063 738.158 601.967 738.822 601.742 739.446L709.277 791.245C709.434 790.992 709.619 790.758 709.828 790.546C710.412 789.87 711.175 789.372 712.029 789.109L698.664 714.607ZM674.297 826.784L709.347 796.859C708.938 796.228 708.672 795.517 708.568 794.773C708.464 794.029 708.525 793.272 708.745 792.554L601.147 740.648C601.03 740.848 600.889 741.034 600.727 741.2L674.297 826.784ZM601.681 736.284L698.351 713.404L692.978 683.294C691.619 683.35 690.292 682.875 689.277 681.97C689.091 681.797 688.918 681.609 688.762 681.408L601.495 735.962C601.606 736.051 601.7 736.158 601.773 736.279L601.681 736.284ZM600.237 733.992C600.515 734.243 600.764 734.523 600.982 734.827L688.056 680.312C687.711 679.572 687.544 678.76 687.571 677.944L605.2 663.615L598.234 732.881C599.005 733.09 599.721 733.468 600.329 733.987L600.237 733.992ZM595.803 732.804C596.17 732.732 596.544 732.7 596.918 732.71L603.884 663.444L571.835 657.881C571.617 658.581 571.248 659.226 570.754 659.768C570.342 660.228 569.851 660.608 569.303 660.892L595.803 732.804ZM524.84 735.323C525.723 736.132 526.308 737.216 526.498 738.398L591.621 737.339C591.747 736.277 592.194 735.278 592.903 734.477C593.347 733.982 593.887 733.581 594.489 733.299L568.01 661.423C567.021 661.643 565.988 661.566 565.042 661.202L524.469 735.012L524.84 735.323ZM523.281 734.361L563.854 660.551L563.427 660.225C563.13 659.918 562.853 659.591 562.599 659.247L501.147 689.537L520.18 734.074C521.255 733.784 522.395 733.845 523.432 734.25L523.281 734.361ZM409.954 735.811L516.307 738.359C516.465 737.362 516.904 736.431 517.572 735.674C517.928 735.288 518.343 734.96 518.801 734.703L499.96 690.126L409.718 734.659C409.875 734.995 410.004 735.343 410.105 735.7L409.954 735.811ZM408.256 732.543C408.588 732.82 408.879 733.143 409.12 733.501L499.426 688.955L469.462 617.657C468.474 617.928 467.428 617.901 466.456 617.577L407.989 731.958C408.15 732.096 408.291 732.256 408.407 732.433L408.256 732.543ZM405.83 731.319L406.564 731.515L465.003 617.127C464.812 617.01 464.636 616.872 464.478 616.715L463.934 616.146L411.19 648.618L405.83 731.319ZM404.734 727.728L409.837 649.374L402.399 653.974C402.805 654.884 402.938 655.892 402.782 656.875C402.626 657.859 402.187 658.776 401.519 659.515C400.812 660.313 399.869 660.865 398.826 661.092L404.734 727.728ZM399.388 651.202C400.034 651.43 400.629 651.785 401.137 652.245C401.348 652.424 401.537 652.627 401.701 652.85L409.942 647.739L414.515 577.802L399.388 651.202ZM394.091 652.444C394.61 651.92 395.237 651.515 395.928 651.257C396.619 650.998 397.358 650.892 398.094 650.946L414.124 573.16C413.471 572.954 412.872 572.608 412.368 572.145C411.778 571.619 411.319 570.963 411.027 570.228C410.735 569.494 410.618 568.702 410.686 567.914L261.794 547.435C261.655 548.077 261.39 548.684 261.013 549.222L394.091 652.444ZM261.909 546.105L410.942 566.622C410.986 566.402 411.044 566.185 411.116 565.973L335.033 523.207L307.468 507.685C307.375 507.817 307.271 507.941 307.157 508.055C306.258 509.062 304.996 509.673 303.647 509.753C302.299 509.834 300.973 509.378 299.959 508.486L260.697 543.058C261.45 543.869 261.927 544.896 262.059 545.994L261.909 546.105ZM259.931 542.188L299.272 507.546C298.537 506.451 298.245 505.119 298.455 503.818L262.388 492.914L257.67 541.249C258.488 541.334 259.275 541.607 259.969 542.047L259.931 542.188ZM237.044 614.839L254.855 551.08C254.337 550.847 253.859 550.536 253.437 550.156C252.934 549.704 252.524 549.157 252.233 548.547C251.941 547.937 251.772 547.275 251.737 546.599C251.701 545.924 251.799 545.249 252.025 544.611C252.252 543.974 252.601 543.388 253.055 542.886C253.482 542.424 253.985 542.037 254.542 541.742L238.52 489.241L237.151 614.777L237.044 614.839ZM234.622 615.067C234.979 614.952 235.346 614.868 235.718 614.817L237.087 489.28C236.084 489.152 235.143 488.72 234.391 488.044L233.987 487.633L186.844 519.761L234.622 615.067ZM91.4842 588.025L231.477 618.217C231.693 617.579 232.036 616.992 232.485 616.491C232.774 616.183 233.092 615.903 233.435 615.656L185.719 520.458L90.9522 585.039C91.4178 585.911 91.616 586.9 91.522 587.884L91.4842 588.025ZM89.8199 583.617L90.2038 583.992L185.114 519.328L165.369 480.044C164.027 480.483 162.566 480.374 161.303 479.741L89.6862 583.551L89.8199 583.617ZM88.6418 582.817L160.325 478.874C159.967 478.556 159.658 478.188 159.407 477.781L62.7786 522.084L85.0186 582.33C86.2394 581.988 87.5442 582.112 88.6797 582.676L88.6418 582.817ZM58.7719 646.732L83.6028 591.568C83.379 591.423 83.1703 591.256 82.9799 591.069C82.2742 590.444 81.7571 589.635 81.4868 588.733L15.2892 598.547L54.3098 647.23C54.9713 646.825 55.714 646.571 56.4851 646.485C57.2561 646.399 58.0369 646.483 58.7719 646.732ZM-117.189 618.486L52.0469 650.253C52.23 649.459 52.6242 648.729 53.1881 648.14L13.6674 598.838L-117.234 618.202C-117.205 618.303 -117.193 618.409 -117.197 618.514L-117.189 618.486ZM-118.873 614.375C-118.146 615.021 -117.625 615.865 -117.374 616.803L12.7665 597.569L-56.0762 511.74C-56.7646 512.164 -57.5444 512.418 -58.3508 512.481C-59.1574 512.544 -59.9672 512.413 -60.7135 512.101L-119.21 614.164L-118.873 614.375Z" fill="#91AAD6"/>
<circle cx="167" cy="387" r="7" fill="#26C296"/>
<g filter="url(#filter0_d)">
<circle cx="109.5" cy="428.5" r="16.5" fill="#4884FA"/>
</g>
<defs>
<filter id="filter0_d" x="73" y="392" width="73" height="73" filterUnits="userSpaceOnUse" color-interpolation-filters="sRGB">
<feFlood flood-opacity="0" result="BackgroundImageFix"/>
<feColorMatrix in="SourceAlpha" type="matrix" values="0 0 0 0 0 0 0 0 0 0 0 0 0 0 0 0 0 0 127 0"/>
<feOffset/>
<feGaussianBlur stdDeviation="10"/>
<feColorMatrix type="matrix" values="0 0 0 0 0.282353 0 0 0 0 0.517647 0 0 0 0 0.980392 0 0 0 0.5 0"/>
<feBlend mode="normal" in2="BackgroundImageFix" result="effect1_dropShadow"/>
<feBlend mode="normal" in="SourceGraphic" in2="effect1_dropShadow" result="shape"/>
</filter>
</defs>
</svg>
