<svg width="40" height="40" viewBox="0 0 40 40" fill="none" xmlns="http://www.w3.org/2000/svg">
<path d="M25.101 13H15.899C14.3 13 13 14.3 13 15.898V25.101C13 26.7 14.3 28 15.899 28H25.101C26.7 28 28 26.7 28 25.101V15.898C28 14.3 26.7 13 25.101 13ZM20.5 18.6311C22.0474 18.6311 22.368 20.0848 22.368 20.5C22.368 21.5282 21.5282 22.367 20.5 22.367C19.4709 22.367 18.633 21.5291 18.633 20.5C18.633 20.0848 18.9526 18.6311 20.5 18.6311ZM26.1236 25.1863C26.1236 25.9793 25.9793 26.1227 25.1863 26.1227H15.8137C15.0217 26.1227 14.8764 25.9793 14.8764 25.1863V18.6255H16.7509C16.5579 19.1007 16.7509 19.9554 16.7509 20.5009C16.7509 22.7616 18.2384 24.6015 20.5 24.6015C22.7616 24.6015 24.2491 22.7607 24.2491 20.5009C24.2491 19.9554 24.4421 19.1007 24.2491 18.6255H26.1236V25.1863ZM26.1339 16.735L24.2453 16.7406L24.2397 14.8848L25.8865 14.8802L26.1339 14.8792V16.735Z" fill="#26C296"/>
<rect x="0.5" y="0.5" width="39" height="39" rx="19.5" stroke="#26C296"/>
</svg>
