<svg width="40" height="40" viewBox="0 0 40 40" fill="none" xmlns="http://www.w3.org/2000/svg">
<path d="M25.1011 13H15.899C14.3 13 13.0001 14.3 13.0001 15.898V25.101C13.0001 26.7 14.3 28 15.899 28H25.1011C26.7001 28 28.0001 26.7 28.0001 25.101V15.898C28.0001 14.3 26.7001 13 25.1011 13ZM20.5001 18.6311C22.0475 18.6311 22.368 20.0848 22.368 20.5C22.368 21.5282 21.5282 22.367 20.5001 22.367C19.4709 22.367 18.633 21.5291 18.633 20.5C18.633 20.0848 18.9526 18.6311 20.5001 18.6311ZM26.1237 25.1863C26.1237 25.9793 25.9793 26.1227 25.1864 26.1227H15.8137C15.0217 26.1227 14.8765 25.9793 14.8765 25.1863V18.6255H16.751C16.5579 19.1007 16.751 19.9554 16.751 20.5009C16.751 22.7616 18.2384 24.6015 20.5001 24.6015C22.7617 24.6015 24.2491 22.7607 24.2491 20.5009C24.2491 19.9554 24.4422 19.1007 24.2491 18.6255H26.1237V25.1863ZM26.134 16.735L24.2454 16.7406L24.2398 14.8848L25.8865 14.8802L26.134 14.8792V16.735Z" fill="white"/>
<rect x="0.500061" y="0.5" width="39" height="39" rx="19.5" stroke="white"/>
</svg>
