<svg width="40" height="40" viewBox="0 0 40 40" fill="none" xmlns="http://www.w3.org/2000/svg">
<path d="M13.5196 26.6154H15.5996C15.8865 26.6154 16.1191 26.3828 16.1191 26.0958V17.0041C16.1191 16.7171 15.8865 16.4845 15.5996 16.4845H13.5196C13.2326 16.4845 13 16.7171 13 17.0041V26.0958C13 26.3827 13.2326 26.6154 13.5196 26.6154Z" fill="#144069"/>
<path d="M13.5196 14.8862H15.5996C15.8865 14.8862 16.1191 14.6536 16.1191 14.3666V12.5196C16.1191 12.2326 15.8865 12 15.5996 12H13.5196C13.2326 12 13 12.2326 13 12.5196V14.3666C13 14.6536 13.2326 14.8862 13.5196 14.8862Z" fill="#144069"/>
<path d="M28.2174 17.5391C27.9251 17.1544 27.4941 16.838 26.9243 16.59C26.3544 16.3421 25.7254 16.2181 25.0371 16.2181C23.64 16.2181 22.4562 16.7513 21.4856 17.8179C21.2925 18.0302 21.1521 17.9838 21.1521 17.6968V17.0041C21.1521 16.7172 20.9194 16.4846 20.6325 16.4846H18.7744C18.4875 16.4846 18.2549 16.7172 18.2549 17.0041V26.0959C18.2549 26.3828 18.4875 26.6154 18.7744 26.6154H20.8545C21.1415 26.6154 21.374 26.3828 21.374 26.0959V22.934C21.374 21.6168 21.4536 20.7139 21.6126 20.2255C21.7717 19.7371 22.0659 19.3449 22.4951 19.0489C22.9244 18.7529 23.409 18.6048 23.9493 18.6048C24.3711 18.6048 24.7319 18.7084 25.0317 18.9157C25.3314 19.1229 25.5479 19.4133 25.6811 19.7871C25.8143 20.1608 25.8809 20.9841 25.8809 22.2569V26.0958C25.8809 26.3828 26.1135 26.6154 26.4004 26.6154H28.4805C28.7674 26.6154 29 26.3828 29 26.0958V20.947C29 20.0369 28.9426 19.3375 28.828 18.8491C28.7134 18.3607 28.5099 17.924 28.2174 17.5391Z" fill="#144069"/>
<rect x="0.5" y="0.5" width="39" height="39" rx="19.5" stroke="#144069"/>
</svg>
