<svg width="40" height="40" viewBox="0 0 40 40" fill="none" xmlns="http://www.w3.org/2000/svg">
<path d="M13.5196 26.6152H15.5996C15.8865 26.6152 16.1191 26.3826 16.1191 26.0957V17.0039C16.1191 16.7169 15.8865 16.4844 15.5996 16.4844H13.5196C13.2326 16.4844 13 16.7169 13 17.0039V26.0957C13 26.3826 13.2326 26.6152 13.5196 26.6152Z" fill="white"/>
<path d="M13.5196 14.8862H15.5996C15.8865 14.8862 16.1191 14.6536 16.1191 14.3666V12.5196C16.1191 12.2326 15.8865 12 15.5996 12H13.5196C13.2326 12 13 12.2326 13 12.5196V14.3666C13 14.6536 13.2326 14.8862 13.5196 14.8862Z" fill="white"/>
<path d="M28.2174 17.5392C27.9251 17.1545 27.4941 16.8381 26.9243 16.5901C26.3544 16.3423 25.7254 16.2183 25.0371 16.2183C23.64 16.2183 22.4562 16.7515 21.4856 17.8181C21.2925 18.0303 21.1521 17.9839 21.1521 17.6969V17.0043C21.1521 16.7173 20.9194 16.4847 20.6325 16.4847H18.7744C18.4875 16.4847 18.2549 16.7173 18.2549 17.0043V26.096C18.2549 26.3829 18.4875 26.6156 18.7744 26.6156H20.8545C21.1415 26.6156 21.374 26.3829 21.374 26.096V22.9341C21.374 21.6169 21.4536 20.714 21.6126 20.2256C21.7717 19.7372 22.0659 19.345 22.4951 19.049C22.9244 18.753 23.409 18.6049 23.9493 18.6049C24.3711 18.6049 24.7319 18.7085 25.0317 18.9158C25.3314 19.1231 25.5479 19.4134 25.6811 19.7872C25.8143 20.1609 25.8809 20.9842 25.8809 22.2571V26.0959C25.8809 26.3829 26.1135 26.6155 26.4004 26.6155H28.4805C28.7674 26.6155 29 26.3829 29 26.0959V20.9472C29 20.037 28.9426 19.3376 28.828 18.8492C28.7134 18.3608 28.5099 17.9242 28.2174 17.5392Z" fill="white"/>
<rect x="0.5" y="0.5" width="39" height="39" rx="19.5" stroke="white"/>
</svg>
