<svg width="40" height="40" viewBox="0 0 40 40" fill="none" xmlns="http://www.w3.org/2000/svg">
<path d="M13.5196 26.6154H15.5996C15.8865 26.6154 16.1191 26.3828 16.1191 26.0958V17.0041C16.1191 16.7171 15.8865 16.4846 15.5996 16.4846H13.5196C13.2326 16.4846 13 16.7171 13 17.0041V26.0958C13 26.3828 13.2326 26.6154 13.5196 26.6154Z" fill="#26C296"/>
<path d="M13.5196 14.8862H15.5996C15.8865 14.8862 16.1191 14.6536 16.1191 14.3666V12.5196C16.1191 12.2326 15.8865 12 15.5996 12H13.5196C13.2326 12 13 12.2326 13 12.5196V14.3666C13 14.6536 13.2326 14.8862 13.5196 14.8862Z" fill="#26C296"/>
<path d="M28.2184 17.5391C27.9261 17.1544 27.4951 16.838 26.9252 16.59C26.3554 16.3421 25.7263 16.2181 25.0381 16.2181C23.641 16.2181 22.4571 16.7513 21.4866 17.8179C21.2935 18.0302 21.1531 17.9838 21.1531 17.6968V17.0041C21.1531 16.7172 20.9204 16.4846 20.6335 16.4846H18.7754C18.4884 16.4846 18.2559 16.7172 18.2559 17.0041V26.0959C18.2559 26.3828 18.4885 26.6154 18.7754 26.6154H20.8554C21.1424 26.6154 21.375 26.3828 21.375 26.0959V22.934C21.375 21.6168 21.4545 20.7139 21.6136 20.2255C21.7726 19.7371 22.0669 19.3449 22.4961 19.0489C22.9254 18.7529 23.41 18.6048 23.9503 18.6048C24.3721 18.6048 24.7329 18.7084 25.0326 18.9157C25.3324 19.1229 25.5488 19.4133 25.682 19.7871C25.8153 20.1608 25.8819 20.9841 25.8819 22.2569V26.0958C25.8819 26.3828 26.1145 26.6154 26.4014 26.6154H28.4814C28.7684 26.6154 29.001 26.3828 29.001 26.0958V20.947C29.001 20.0369 28.9436 19.3375 28.829 18.8491C28.7144 18.3607 28.5108 17.924 28.2184 17.5391Z" fill="#26C296"/>
<rect x="0.5" y="0.5" width="39" height="39" rx="19.5" stroke="#26C296"/>
</svg>
