<svg width="175" height="32" viewBox="0 0 175 32" fill="none" xmlns="http://www.w3.org/2000/svg">
<path d="M36.2025 13.7648C35.4962 13.7638 34.816 14.0349 34.301 14.5226L32.524 12.8776C32.6298 12.7151 32.6858 12.5249 32.6852 12.3305C32.6853 12.2584 32.678 12.1866 32.6632 12.1161L34.3303 11.3361C34.5443 11.6319 34.8559 11.8409 35.209 11.9255C35.5622 12.0102 35.9336 11.9649 36.2566 11.7979C36.5796 11.6308 36.8329 11.3529 36.971 11.0142C37.109 10.6756 37.1227 10.2983 37.0097 9.95031C36.8966 9.60233 36.6641 9.30649 36.3541 9.11601C36.0441 8.92554 35.6769 8.85293 35.3186 8.91125C34.9603 8.96958 34.6343 9.15501 34.3994 9.43417C34.1645 9.71334 34.0361 10.0679 34.0372 10.4341C34.0377 10.5511 34.0512 10.6677 34.0775 10.7816L32.3591 11.5875C32.2275 11.4656 32.0659 11.3816 31.8911 11.3441C31.7164 11.3066 31.5349 11.317 31.3655 11.3742C31.1961 11.4314 31.045 11.5333 30.9278 11.6694C30.8107 11.8055 30.7318 11.9707 30.6994 12.148C30.6669 12.3252 30.6822 12.508 30.7434 12.6773C30.8047 12.8466 30.9098 12.9962 31.0478 13.1107C31.1858 13.2252 31.3516 13.3002 31.5281 13.3282C31.7046 13.3561 31.8853 13.3358 32.0513 13.2694L33.8833 14.9846C33.6027 15.3964 33.4358 15.8762 33.3997 16.3745L30.5968 16.6037C30.5375 15.8355 30.2158 15.1119 29.6866 14.5564C29.1574 14.0008 28.4535 13.6479 27.695 13.5577L28.0614 10.6005C28.4266 10.5332 28.7551 10.334 28.9854 10.0402C29.2157 9.7464 29.3321 9.37801 29.3128 9.00392C29.2935 8.62983 29.1398 8.27563 28.8805 8.00752C28.6212 7.73941 28.274 7.57574 27.9038 7.54709L27.2956 4.81162C27.5388 4.71714 27.7535 4.56044 27.9185 4.35694L31.5604 6.65991C31.4431 7.0242 31.4641 7.41944 31.6193 7.76899C31.7745 8.11854 32.0529 8.39747 32.4004 8.55168C32.7479 8.70589 33.1397 8.72439 33.5 8.60359C33.8602 8.48279 34.1632 8.2313 34.3501 7.8979C34.5369 7.5645 34.5944 7.17296 34.5114 6.79922C34.4283 6.42548 34.2106 6.09618 33.9006 5.8752C33.5905 5.65422 33.2101 5.55731 32.8332 5.60327C32.4563 5.64922 32.1098 5.83476 31.8608 6.12391L28.1969 3.83942C28.2381 3.69647 28.2591 3.54838 28.2592 3.39952C28.2598 3.09625 28.1718 2.79952 28.0061 2.5465C27.8403 2.29348 27.6043 2.0954 27.3275 1.97707C27.0508 1.85873 26.7456 1.8254 26.4501 1.88124C26.1546 1.93708 25.8821 2.07961 25.6665 2.29099C25.451 2.50237 25.302 2.7732 25.2383 3.06959C25.1746 3.36598 25.1989 3.67474 25.3083 3.95723C25.4177 4.23972 25.6072 4.48339 25.8532 4.65772C26.0991 4.83205 26.3906 4.9293 26.6911 4.9373L27.3103 7.65799C26.9975 7.76724 26.7283 7.97605 26.5432 8.25299C26.3582 8.52993 26.2673 8.86001 26.2842 9.19357C26.3012 9.52712 26.425 9.8461 26.6372 10.1025C26.8493 10.3589 27.1383 10.5388 27.4605 10.6153L27.0941 13.5725C26.3899 13.6216 25.7203 13.8991 25.1852 14.3636L22.6791 11.6799C23.3307 10.9859 23.7024 10.0717 23.7215 9.11596C23.7406 8.16023 23.4058 7.23165 22.7825 6.51173C22.1591 5.7918 21.2921 5.33227 20.3509 5.22296C19.4096 5.11364 18.4618 5.36239 17.6926 5.9206L16.1025 3.57326C16.4342 3.21379 16.6187 2.74101 16.6191 2.24989V2.22401L21.5946 1.63255C21.7079 1.88934 21.9096 2.09595 22.1624 2.21403C22.4152 2.33212 22.7018 2.35366 22.9692 2.27465C23.2365 2.19565 23.4663 2.02147 23.616 1.78444C23.7657 1.54742 23.8251 1.26365 23.7831 0.985809C23.7411 0.70797 23.6006 0.454934 23.3877 0.273671C23.1749 0.0924086 22.904 -0.00476792 22.6255 0.000180056C22.347 0.00512803 22.0797 0.111864 21.8733 0.300576C21.6669 0.489288 21.5353 0.747156 21.503 1.02631L16.5055 1.62886C16.3789 1.24827 16.139 0.916353 15.8185 0.67834C15.4981 0.440327 15.1127 0.3078 14.7149 0.298825C14.317 0.289849 13.9262 0.40486 13.5955 0.628183C13.2648 0.851505 13.0105 1.17227 12.8671 1.54677C12.7237 1.92126 12.6982 2.33125 12.7942 2.72087C12.8902 3.11048 13.1029 3.46076 13.4033 3.72396C13.7038 3.98716 14.0774 4.15048 14.4732 4.19164C14.869 4.23281 15.2678 4.14983 15.6152 3.95401L17.2383 6.32722C16.6022 6.93418 16.1945 7.74505 16.085 8.62145C15.9754 9.49784 16.1706 10.3855 16.6374 11.1328L14.2559 12.5486C13.96 12.2866 13.5797 12.1421 13.186 12.142C13.0625 12.1443 12.9396 12.1604 12.8196 12.19L11.6509 10.0275C12.1995 9.71734 12.6488 9.25536 12.9457 8.69604C13.2427 8.13673 13.3749 7.5034 13.3268 6.87076C13.2787 6.23812 13.0523 5.63254 12.6743 5.12545C12.2963 4.61836 11.7825 4.2309 11.1934 4.00877C10.6043 3.78664 9.96451 3.7391 9.34953 3.87176C8.73454 4.00442 8.16998 4.31175 7.72242 4.7575C7.27486 5.20324 6.96297 5.76882 6.82354 6.38753C6.68411 7.00624 6.72294 7.65227 6.93546 8.24945L4.85804 9.22165C4.62261 8.94076 4.29655 8.75262 3.93722 8.6903C3.57788 8.62797 3.20827 8.69547 2.89338 8.88091C2.5785 9.06635 2.33849 9.35786 2.21557 9.70418C2.09264 10.0505 2.09468 10.4295 2.22131 10.7744C2.34794 11.1194 2.59107 11.4083 2.90793 11.5903C3.22479 11.7722 3.5951 11.8357 3.95375 11.7694C4.31239 11.7032 4.6364 11.5115 4.86881 11.2281C5.10122 10.9446 5.22714 10.5876 5.22443 10.2197C5.22128 10.0627 5.19536 9.90706 5.14749 9.75765L7.1956 8.80024C7.48636 9.29648 7.89993 9.70799 8.39578 9.99442C8.89163 10.2808 9.45274 10.4324 10.0241 10.4341C10.3753 10.4329 10.724 10.3755 11.0573 10.2641L12.2334 12.4377C12.0099 12.6013 11.8317 12.8201 11.7158 13.073C11.5999 13.3259 11.5502 13.6046 11.5714 13.8824C11.5926 14.1602 11.6841 14.4279 11.837 14.6599C11.99 14.8919 12.1993 15.0805 12.445 15.2076C12.6908 15.3348 12.9647 15.3963 13.2407 15.3862C13.5167 15.3762 13.7856 15.2949 14.0216 15.1502C14.2576 15.0055 14.4529 14.8021 14.5888 14.5596C14.7248 14.317 14.7968 14.0434 14.7981 13.7648C14.7987 13.5081 14.7397 13.255 14.6259 13.0254L16.9965 11.617C17.6436 12.3689 18.5554 12.8372 19.5388 12.9228C20.5222 13.0083 21.4999 12.7044 22.2651 12.0754L24.7712 14.7924C24.2992 15.3817 24.0407 16.1159 24.0384 16.8736C24.0384 16.9253 24.0384 16.9771 24.0384 17.0288L21.6349 17.1397C21.5217 16.7337 21.2985 16.3677 20.9903 16.0827C20.6821 15.7978 20.3012 15.6053 19.8904 15.5269C19.4797 15.4485 19.0554 15.4873 18.6653 15.6389C18.2753 15.7906 17.9349 16.049 17.6825 16.3853C17.4301 16.7215 17.2757 17.1221 17.2367 17.542C17.1977 17.9619 17.2757 18.3845 17.4618 18.7621C17.6479 19.1398 17.9347 19.4576 18.2901 19.6797C18.6455 19.9018 19.0552 20.0194 19.4733 20.0194C19.9944 20.0256 20.5009 19.8448 20.9022 19.5093L23.3313 22.4665C23.2549 22.6097 23.2147 22.7697 23.2141 22.9323C23.2141 22.9323 23.2141 22.9582 23.2141 22.9693L19.8763 23.7086C19.7645 23.4325 19.5872 23.1883 19.36 22.9975C19.1328 22.8066 18.8627 22.675 18.5733 22.614C18.284 22.5531 17.9842 22.5647 17.7003 22.6479C17.4164 22.7311 17.1571 22.8834 16.9452 23.0912L15.4357 21.8307C15.814 21.2994 15.9817 20.6445 15.9059 19.9948C15.83 19.3451 15.516 18.7475 15.0256 18.3194C14.5353 17.8914 13.9039 17.6639 13.2557 17.6816C12.6076 17.6992 11.9894 17.9609 11.5226 18.4151L9.32431 17.0178C9.52173 16.6433 9.6249 16.2257 9.62475 15.8016C9.62685 15.1867 9.4146 14.5906 9.02512 14.1177C8.63564 13.6447 8.09374 13.325 7.49422 13.2144C6.8947 13.1038 6.27572 13.2094 5.74559 13.5128C5.21545 13.8161 4.8079 14.2979 4.59424 14.8737L3.10671 14.5226C3.10671 14.4782 3.10671 14.4375 3.10671 14.3932C3.09971 14.0096 2.9535 13.6419 2.69578 13.3598C2.43806 13.0777 2.08674 12.9007 1.70836 12.8625C1.32999 12.8242 0.950848 12.9273 0.642777 13.1522C0.334706 13.3772 0.119102 13.7083 0.0368125 14.0828C-0.0454769 14.4574 0.0112647 14.8494 0.196287 15.1846C0.38131 15.5198 0.681761 15.7749 1.04072 15.9015C1.39967 16.0282 1.7922 16.0176 2.14393 15.8717C2.49567 15.7259 2.78217 15.455 2.94916 15.1103L4.45502 15.48C4.44015 15.5902 4.43281 15.7014 4.43303 15.8127C4.43081 16.3284 4.58136 16.833 4.86537 17.2617L2.86856 18.8587C2.68261 18.7459 2.46996 18.6859 2.25303 18.6849C1.93139 18.6849 1.62292 18.8138 1.39549 19.0433C1.16805 19.2728 1.04028 19.584 1.04028 19.9085C1.04028 20.233 1.16805 20.5442 1.39549 20.7737C1.62292 21.0031 1.93139 21.1321 2.25303 21.1321C2.5648 21.133 2.8646 21.011 3.08839 20.792L5.51388 22.0155C5.41939 22.2645 5.37096 22.5289 5.37099 22.7955C5.36733 23.2207 5.48489 23.638 5.70967 23.9977C5.93445 24.3574 6.25697 24.6443 6.63882 24.8243C7.02066 25.0042 7.44573 25.0697 7.86339 25.0128C8.28105 24.9559 8.6737 24.779 8.99456 24.5033L10.4161 25.579C10.1576 26.0464 10.0752 26.5923 10.1843 27.1161C10.2934 27.6399 10.5866 28.1063 11.0097 28.4291L10.4015 29.5381C10.3564 29.5343 10.311 29.5343 10.2659 29.5381C9.97497 29.5364 9.69299 29.6397 9.47086 29.8293C9.24874 30.0189 9.10108 30.2824 9.05455 30.5721C9.00801 30.8619 9.06565 31.159 9.21706 31.4096C9.36848 31.6603 9.60371 31.8481 9.88031 31.9392C10.1569 32.0303 10.4567 32.0187 10.7255 31.9064C10.9944 31.7942 11.2146 31.5886 11.3465 31.327C11.4783 31.0653 11.5132 30.7647 11.4447 30.4794C11.3762 30.194 11.209 29.9428 10.9731 29.771L11.5373 28.7544C11.7913 28.857 12.0624 28.9097 12.336 28.9097C12.6961 28.9063 13.0498 28.8138 13.3661 28.6403C13.6824 28.4667 13.9516 28.2174 14.1501 27.9143C14.3485 27.6112 14.4701 27.2636 14.5042 26.9019C14.5384 26.5403 14.4839 26.1757 14.3457 25.8403C14.2074 25.5049 13.9897 25.2088 13.7115 24.9782C13.4333 24.7476 13.1032 24.5894 12.7503 24.5176C12.3973 24.4458 12.0323 24.4626 11.6873 24.5664C11.3423 24.6703 11.0278 24.8581 10.7715 25.1133L9.38293 24.0339C9.72012 23.552 9.85377 22.9547 9.75448 22.3735C9.6552 21.7922 9.3311 21.2745 8.8535 20.9343C8.3759 20.5941 7.78391 20.4592 7.20777 20.5594C6.63163 20.6596 6.11853 20.9866 5.78134 21.4684L3.40715 20.2523C3.4445 20.1326 3.46425 20.0081 3.46577 19.8826C3.46945 19.6719 3.41761 19.464 3.31555 19.2801L5.28305 17.7164C5.53751 17.9571 5.83751 18.1434 6.16507 18.2642C6.49263 18.3851 6.84101 18.4379 7.18931 18.4196C7.53761 18.4014 7.87866 18.3123 8.19202 18.1578C8.50537 18.0033 8.78457 17.7865 9.01288 17.5205L11.1892 18.9104C10.8999 19.4358 10.7986 20.0457 10.9024 20.6375C11.0062 21.2294 11.3088 21.7671 11.7592 22.1605C12.2097 22.5538 12.7806 22.7787 13.376 22.7974C13.9715 22.8161 14.5551 22.6275 15.029 22.2632L16.6154 23.5903C16.4911 23.836 16.4236 24.107 16.418 24.3828C16.4123 24.6587 16.4687 24.9322 16.5829 25.1829C16.6971 25.4336 16.8661 25.6549 17.0772 25.8303C17.2883 26.0056 17.5361 26.1305 17.8019 26.1953C18.0677 26.2602 18.3446 26.2635 18.6118 26.2049C18.879 26.1464 19.1296 26.0275 19.3448 25.8572C19.5599 25.6869 19.734 25.4696 19.854 25.2217C19.974 24.9737 20.0367 24.7016 20.0375 24.4257C20.0375 24.3887 20.0375 24.3518 20.0375 24.3148L23.4486 23.5755C23.5382 23.6912 23.6519 23.7856 23.7817 23.852C23.9115 23.9185 24.0542 23.9553 24.1997 23.9599C24.3363 23.9683 24.4733 23.9483 24.602 23.9013C24.7308 23.8543 24.8487 23.7811 24.9484 23.6864C25.0481 23.5917 25.1275 23.4775 25.1819 23.3506C25.2362 23.2238 25.2642 23.0871 25.2642 22.9489C25.2642 22.8108 25.2362 22.6741 25.1819 22.5472C25.1275 22.4204 25.0481 22.3061 24.9484 22.2114C24.8487 22.1167 24.7308 22.0436 24.602 21.9966C24.4733 21.9495 24.3363 21.9296 24.1997 21.9379C24.0442 21.94 23.8913 21.9779 23.7527 22.0488L21.3052 19.0583C21.5762 18.6765 21.7234 18.2193 21.7265 17.7497L24.1374 17.6203C24.3248 18.3731 24.7671 19.0362 25.388 19.4946C26.0088 19.9531 26.7689 20.1781 27.5368 20.1307C28.3047 20.0833 29.0321 19.7665 29.5929 19.2352C30.1537 18.7038 30.5127 17.9913 30.6078 17.2211L33.44 16.9919C33.5263 17.6034 33.811 18.1689 34.2497 18.5999L32.9417 20.4778C32.6586 20.2968 32.3327 20.1957 31.9979 20.1849C31.663 20.1741 31.3313 20.2539 31.0374 20.4161C30.7435 20.5784 30.498 20.8171 30.3264 21.1075C30.1549 21.3978 30.0635 21.7293 30.0619 22.0673C30.0617 22.1914 30.074 22.3153 30.0985 22.4369L28.7429 22.8066C28.5965 22.5235 28.3523 22.3043 28.0565 22.1906C27.7607 22.0769 27.4339 22.0766 27.1379 22.1897C26.8419 22.3029 26.5973 22.5216 26.4504 22.8044C26.3036 23.0873 26.2646 23.4147 26.3409 23.7246C26.4172 24.0346 26.6035 24.3055 26.8646 24.4861C27.1256 24.6667 27.4432 24.7445 27.7572 24.7047C28.0713 24.6649 28.36 24.5103 28.5686 24.2702C28.7773 24.0301 28.8914 23.7211 28.8894 23.4018L30.322 23.0321C30.4528 23.2548 30.6275 23.448 30.8354 23.5997C31.0432 23.7514 31.2798 23.8584 31.5304 23.9141C31.7809 23.9697 32.0401 23.9728 32.2919 23.9231C32.5437 23.8735 32.7827 23.7722 32.9941 23.6254C33.2054 23.4787 33.3846 23.2897 33.5206 23.0702C33.6565 22.8507 33.7463 22.6053 33.7843 22.3493C33.8224 22.0933 33.8078 21.8322 33.7417 21.5821C33.6755 21.332 33.5591 21.0983 33.3997 20.8955L34.7333 18.9806C35.1005 19.2112 35.5159 19.3524 35.9465 19.3933C36.3771 19.4342 36.8112 19.3736 37.2146 19.2163C37.6181 19.059 37.9798 18.8093 38.2712 18.4868C38.5626 18.1643 38.7758 17.778 38.8939 17.3582C39.012 16.9384 39.0318 16.4967 38.9518 16.0678C38.8718 15.639 38.6941 15.2348 38.4328 14.887C38.1715 14.5393 37.8337 14.2576 37.446 14.0641C37.0583 13.8707 36.6314 13.7707 36.1989 13.7721L36.2025 13.7648Z" fill="#2BB476"/>
<path d="M50 21.5727C50.1575 19.2865 50.297 16.9463 50.4185 14.5521C50.54 12.158 50.5895 10.3218 50.567 9.04371V7.96362H52.2277H53.76C53.4585 11.4559 53.2718 15.9923 53.1998 21.5727H51.7349H50Z" fill="white"/>
<path d="M66.1068 21.5725H64.8242H63.4741L63.5618 19.8377C63.3288 20.146 63.0763 20.4391 62.8058 20.7152C62.5724 20.9387 62.3116 21.1315 62.0294 21.289C61.7161 21.465 61.3799 21.5968 61.0304 21.6805C60.0612 21.9073 59.0459 21.8319 58.1209 21.4645C57.5806 21.2426 57.0947 20.9063 56.6965 20.479C56.2963 20.0482 55.9966 19.5341 55.819 18.9736C55.6352 18.3858 55.5419 17.7735 55.5422 17.1577C55.5407 16.2827 55.7104 15.4159 56.0417 14.606C56.3254 13.8337 56.7881 13.1397 57.3918 12.5808C57.9532 12.0743 58.6227 11.7026 59.3495 11.494C60.1156 11.276 60.909 11.1691 61.7054 11.1767C62.3837 11.1839 63.0605 11.2403 63.7306 11.3455C63.7778 10.4814 63.8048 9.57009 63.8048 8.64527V7.97021H65.236H66.6941C66.5523 9.65785 66.4105 11.9598 66.2823 14.8625C66.154 17.7652 66.0865 20.0132 66.0865 21.613L66.1068 21.5725ZM63.6226 13.2964C63.1558 13.1707 62.6749 13.1049 62.1915 13.1006C61.6819 13.0995 61.1748 13.1723 60.6861 13.3166C60.2085 13.4642 59.7717 13.7207 59.4102 14.0659C59.0274 14.4452 58.7364 14.907 58.5597 15.4161C58.3697 15.926 58.2692 16.465 58.2627 17.0092C58.2535 17.4916 58.3479 17.9704 58.5394 18.4133C58.7121 18.8285 59.0093 19.1799 59.39 19.4191C59.7781 19.6689 60.2314 19.7981 60.6928 19.7904C61.0357 19.794 61.3758 19.7274 61.6919 19.5946C62.0031 19.4565 62.2815 19.2541 62.5087 19.0006C62.7759 18.6912 62.9861 18.337 63.1298 17.9543C63.326 17.4082 63.4486 16.8383 63.4943 16.2599C63.5416 15.7401 63.5821 14.7545 63.6226 13.2896" fill="white"/>
<path d="M77.6232 19.311C77.5354 19.7025 77.4139 20.4046 77.2519 21.4239C76.6522 21.5565 76.0461 21.6579 75.436 21.7277C74.9428 21.7818 74.447 21.8088 73.9509 21.8087C73.1648 21.817 72.3807 21.7309 71.6152 21.5522C70.9467 21.3933 70.3263 21.0762 69.806 20.6274C69.2868 20.1657 68.8921 19.5806 68.6585 18.9262C68.4121 18.2514 68.2864 17.5385 68.2872 16.8201C68.2881 16.0085 68.4344 15.2038 68.7192 14.4439C68.9636 13.7193 69.3752 13.0625 69.9208 12.5267C70.4191 12.0493 71.0226 11.6955 71.6827 11.4939C72.339 11.293 73.0215 11.1907 73.7079 11.1901C74.362 11.1857 75.0137 11.2697 75.6453 11.4399C76.2174 11.5894 76.7452 11.8742 77.1844 12.2702C77.6004 12.6592 77.9275 13.1336 78.143 13.6608C78.3708 14.234 78.4832 14.8465 78.4737 15.4632C78.4728 15.7876 78.4389 16.111 78.3725 16.4285H71.0684C71.0684 16.6715 71.0684 16.8673 71.0684 17.0158C71.0753 17.4465 71.1694 17.8714 71.3452 18.2647C71.4966 18.6262 71.7273 18.9492 72.0202 19.2097C72.3248 19.4724 72.6813 19.6679 73.0666 19.7835C73.4538 19.9024 73.8563 19.9638 74.2614 19.9658C74.7622 19.963 75.2617 19.9132 75.7533 19.8173C76.3994 19.6861 77.0373 19.5171 77.6637 19.311H77.6232ZM71.2237 15.2607H75.8883C75.9016 15.0359 75.9016 14.8104 75.8883 14.5856C75.8639 14.4077 75.8186 14.2332 75.7533 14.0658C75.6903 13.8772 75.5943 13.7012 75.4697 13.546C75.3534 13.3984 75.2117 13.2726 75.0512 13.1748C74.8788 13.0718 74.6924 12.9944 74.4977 12.9452C74.2761 12.8952 74.0497 12.8703 73.8226 12.871C73.5452 12.8691 73.2693 12.9124 73.0058 12.9993C72.7446 13.0815 72.5 13.2095 72.2835 13.3773C72.0775 13.5323 71.8975 13.7192 71.7502 13.9308C71.6252 14.1158 71.5232 14.3153 71.4464 14.5249C71.3646 14.7723 71.2992 15.0249 71.2507 15.2809" fill="white"/>
<path d="M83.3545 11.4333L83.152 15.8752L83.017 20.3306C82.9697 22.1802 82.9225 23.294 82.8752 23.6653C82.84 24.0478 82.7491 24.423 82.6052 24.7792C82.5116 25.0042 82.3841 25.2137 82.2272 25.4002C82.0523 25.5913 81.8498 25.7552 81.6264 25.8862C81.3663 26.0504 81.0813 26.1712 80.7825 26.244C80.2847 26.3593 79.7747 26.4137 79.2637 26.406C78.9059 26.406 78.4806 26.406 77.9811 26.3385C77.4144 26.2858 76.8511 26.2024 76.2934 26.0888L76.1989 24.7994L76.0707 23.9421C76.6746 24.1631 77.3111 24.2817 77.9541 24.2931C78.2339 24.2972 78.5123 24.2538 78.7776 24.1649C79.0063 24.0962 79.2195 23.9838 79.4054 23.8341C79.5283 23.7253 79.6331 23.5977 79.716 23.4561C79.8692 23.1734 79.9764 22.868 80.0332 22.5515C80.1007 22.1937 80.175 21.3026 80.2493 19.8918C80.2965 18.8117 80.3438 17.5561 80.3775 16.1182C80.4248 14.2348 80.4518 12.9792 80.4518 12.3379V11.4333H81.9099H83.3275" fill="white"/>
<path d="M85.4201 21.5727C85.5686 20.0606 85.6946 18.3662 85.7981 16.4896C85.9016 14.6129 85.9601 12.9275 85.9736 11.4334H87.4385H88.7886L88.6806 13.1278C88.8462 12.8917 89.0266 12.6662 89.2206 12.4527C89.4001 12.2588 89.6018 12.0866 89.8214 11.9397C90.0634 11.7765 90.324 11.6428 90.5977 11.5414C90.8987 11.4365 91.2081 11.3574 91.5226 11.3051C91.8771 11.2447 92.2362 11.2153 92.5959 11.2174C93.1704 11.2148 93.7426 11.2897 94.297 11.4402C94.7993 11.5482 95.2647 11.7855 95.6471 12.1287C95.9624 12.4211 96.1952 12.7912 96.3222 13.202C96.4265 13.6032 96.4787 14.0161 96.4774 14.4306C96.4774 14.6129 96.4774 14.8964 96.4774 15.288L96.2682 19.6421C96.2682 20.2496 96.2277 20.8909 96.2209 21.5795H94.8708H93.3452C93.3992 20.9989 93.4667 19.9931 93.5477 18.5552C93.6287 17.1174 93.6692 16.1588 93.6692 15.693C93.6853 15.2585 93.5998 14.8263 93.4195 14.4306C93.2473 14.1093 92.9747 13.8532 92.6431 13.7016C92.2905 13.5357 91.9055 13.4504 91.5158 13.4518C91.1327 13.451 90.7535 13.5291 90.402 13.6813C90.0554 13.8355 89.7484 14.0663 89.5041 14.3564C89.2228 14.6785 89.0113 15.0555 88.8831 15.4635C88.6885 16.2165 88.5754 16.9882 88.5456 17.7654C88.4781 18.7172 88.4241 19.9863 88.3836 21.5862H87.0335H85.5078" fill="white"/>
<path d="M99.3261 13.6544C99.4138 13.1751 99.4746 12.8443 99.4949 12.6485C99.5151 12.4528 99.5624 12.1625 99.6231 11.771C100.411 11.5798 101.209 11.4311 102.013 11.3254C102.684 11.2399 103.361 11.197 104.038 11.1972C104.721 11.1882 105.403 11.2722 106.063 11.447C106.609 11.5764 107.107 11.8572 107.501 12.257C107.872 12.7074 108.057 13.2816 108.021 13.8636C108.021 14.2417 107.967 15.207 107.859 16.7596C107.758 18.3122 107.69 19.9189 107.677 21.5728H106.279H104.848C104.936 20.7694 105.01 19.8379 105.064 18.778L105.192 16.3006C105.005 16.4253 104.811 16.5402 104.612 16.6449C104.468 16.718 104.319 16.7811 104.166 16.8339C103.997 16.8879 103.707 16.9756 103.289 17.0904C102.87 17.2052 102.533 17.3064 102.283 17.3942C102.049 17.4724 101.823 17.5719 101.608 17.6912C101.421 17.7888 101.248 17.9114 101.095 18.0557C100.968 18.1712 100.867 18.312 100.799 18.469C100.73 18.626 100.695 18.7957 100.696 18.967C100.69 19.2289 100.776 19.4846 100.939 19.6894C101.098 19.888 101.312 20.0359 101.554 20.1146C101.834 20.2008 102.125 20.2418 102.418 20.2361C102.644 20.2342 102.869 20.2161 103.093 20.1821C103.417 20.13 103.735 20.0486 104.045 19.9391C103.854 20.4952 103.692 21.0608 103.559 21.6335C103.086 21.7078 102.708 21.7618 102.431 21.782C102.155 21.8023 101.891 21.782 101.655 21.782C100.951 21.8037 100.25 21.6891 99.5894 21.4445C99.0752 21.2408 98.6529 20.8569 98.4013 20.3644C98.1529 19.9085 98.0208 19.3984 98.0165 18.8793C98.0159 18.5915 98.0662 18.3058 98.165 18.0355C98.2658 17.7556 98.4142 17.4952 98.6038 17.2659C98.8249 17.0109 99.0765 16.7842 99.3531 16.5909C99.7738 16.3219 100.228 16.1086 100.703 15.9563C101.455 15.7075 102.222 15.5047 102.998 15.3488C103.255 15.2948 103.518 15.2273 103.788 15.153C104.018 15.0932 104.243 15.0188 104.463 14.9302C104.618 14.8613 104.76 14.7653 104.882 14.6467C104.991 14.5406 105.082 14.4175 105.152 14.2822C105.205 14.1585 105.233 14.0253 105.233 13.8906C105.239 13.7671 105.22 13.6435 105.177 13.5274C105.134 13.4114 105.068 13.3053 104.983 13.2156C104.798 13.0289 104.564 12.8979 104.308 12.8376C104.016 12.7675 103.717 12.7335 103.417 12.7363C102.038 12.7716 100.678 13.0646 99.4071 13.6004" fill="white"/>
<path d="M83.6377 8.65226C83.6377 8.98232 83.5398 9.30496 83.3563 9.5793C83.1727 9.85365 82.9119 10.0674 82.6069 10.1934C82.3018 10.3194 81.9662 10.352 81.6426 10.2871C81.319 10.2222 81.0219 10.0627 80.789 9.82887C80.556 9.595 80.3978 9.29727 80.3342 8.97339C80.2706 8.64951 80.3046 8.31404 80.4318 8.00949C80.5591 7.70493 80.7738 7.44499 81.0489 7.26259C81.324 7.08019 81.647 6.98354 81.9771 6.98488C82.1958 6.98488 82.4122 7.02805 82.6142 7.11193C82.8161 7.1958 82.9995 7.31873 83.1537 7.47365C83.308 7.62857 83.4302 7.81243 83.5133 8.01469C83.5963 8.21695 83.6386 8.43361 83.6377 8.65226Z" fill="white"/>
<path d="M118.094 21.4353C118.189 20.3057 118.285 18.618 118.384 16.3724C118.492 14.1244 118.54 12.4368 118.54 11.296H119.89H121.206L121.132 12.9026C121.308 12.6356 121.502 12.3807 121.712 12.1398C121.91 11.926 122.137 11.7418 122.387 11.593C122.695 11.4204 123.024 11.2888 123.366 11.2015C123.746 11.1063 124.136 11.0587 124.527 11.0597C124.82 11.0586 125.111 11.0858 125.398 11.1407C125.66 11.1963 125.915 11.2777 126.161 11.3837C126.371 11.4753 126.568 11.5933 126.748 11.7347C126.904 11.8646 127.043 12.0144 127.16 12.1803C127.308 12.4081 127.432 12.6501 127.531 12.9026C127.653 12.7002 127.789 12.5063 127.936 12.322C128.082 12.1419 128.247 11.9789 128.429 11.836C128.634 11.6665 128.861 11.5257 129.104 11.4175C129.376 11.2958 129.662 11.2074 129.955 11.1542C130.827 10.9811 131.729 11.0464 132.567 11.3432C133.053 11.5103 133.475 11.824 133.776 12.241C134.079 12.6879 134.233 13.2199 134.214 13.7599C134.214 14.0772 134.214 14.5497 134.147 15.164C134.079 15.7783 134.046 16.7909 133.978 18.1883C133.911 19.5856 133.877 20.6724 133.87 21.4353H132.581H131.035C131.096 20.5779 131.15 19.6801 131.204 18.735L131.325 16.4534C131.325 15.8728 131.372 15.3868 131.372 14.9885C131.394 14.6152 131.317 14.2427 131.15 13.9084C131.017 13.6823 130.819 13.5012 130.583 13.3886C130.338 13.2828 130.073 13.2299 129.806 13.2334C129.519 13.225 129.234 13.2863 128.975 13.4121C128.716 13.5379 128.492 13.7244 128.321 13.9557C128.107 14.2187 127.942 14.5183 127.835 14.84C127.699 15.3016 127.615 15.7772 127.585 16.2576C127.531 16.8651 127.491 17.6685 127.457 18.6608L127.39 21.4285H126.04H124.575C124.615 20.9155 124.683 19.8691 124.77 18.2895C124.858 16.7099 124.899 15.6433 124.899 15.0898C124.904 14.8405 124.881 14.5915 124.831 14.3472C124.78 14.1354 124.683 13.9373 124.548 13.7667C124.414 13.5925 124.241 13.4535 124.041 13.3616C123.828 13.273 123.598 13.2294 123.366 13.2334C122.916 13.229 122.48 13.3927 122.144 13.6924C121.778 14.0233 121.51 14.4482 121.368 14.921C121.146 15.9004 121.029 16.9006 121.017 17.9047C120.943 19.3831 120.909 20.5577 120.909 21.4285H119.525H118.067" fill="white"/>
<path d="M136.307 21.4353L136.591 16.7099L136.672 13.9557C136.672 13.3887 136.672 12.8216 136.672 12.2546C136.672 12.1511 136.672 11.8338 136.672 11.3027H138.022H139.372L139.338 12.6596C139.537 12.3734 139.763 12.1066 140.013 11.863C140.191 11.6826 140.393 11.5281 140.614 11.404C140.847 11.2756 141.097 11.1802 141.356 11.1205C141.9 10.9856 142.467 10.9856 143.01 11.1205C143.01 11.7348 143.01 12.5178 143.098 13.4697C142.741 13.3751 142.373 13.3296 142.005 13.3347C141.657 13.3294 141.311 13.3889 140.985 13.5102C140.685 13.6299 140.414 13.8116 140.189 14.0435C139.942 14.2956 139.743 14.5907 139.601 14.9143C139.46 15.2624 139.367 15.628 139.325 16.0011C139.271 16.3454 139.23 16.9327 139.196 17.7765C139.163 18.6203 139.142 19.4371 139.142 20.2472C139.142 20.5577 139.142 20.9223 139.142 21.4218H137.792H136.314" fill="white"/>
<path d="M153.278 19.1467C153.19 19.5382 153.069 20.2402 152.907 21.2596C152.191 21.4081 151.557 21.5161 151.097 21.5701C150.638 21.6241 150.105 21.6444 149.612 21.6444C148.824 21.656 148.037 21.5698 147.27 21.3878C146.598 21.2239 145.977 20.897 145.461 20.436C144.943 19.9756 144.549 19.3932 144.313 18.7416C144.07 18.0639 143.946 17.3489 143.949 16.6287C143.948 15.8176 144.092 15.0129 144.374 14.2525C144.626 13.5413 145.037 12.8971 145.576 12.3691C146.076 11.8815 146.684 11.5184 147.351 11.3093C148.02 11.1046 148.717 11.0022 149.417 11.0055C150.068 11.0015 150.718 11.0855 151.347 11.2553C151.921 11.4018 152.449 11.6869 152.886 12.0856C153.305 12.4727 153.632 12.9476 153.845 13.4762C154.073 14.0518 154.185 14.6665 154.176 15.2853C154.173 15.6093 154.142 15.9324 154.081 16.2507H146.77C146.77 16.4937 146.77 16.6895 146.77 16.838C146.768 17.2584 146.846 17.6755 147 18.0666C147.15 18.4291 147.381 18.7524 147.675 19.0116C147.979 19.2755 148.336 19.4711 148.721 19.5854C149.109 19.7042 149.511 19.7657 149.916 19.7677C150.417 19.7649 150.916 19.7151 151.408 19.6192C152.054 19.4889 152.692 19.3198 153.318 19.1129L153.278 19.1467ZM146.878 15.0626H151.543C151.555 14.8377 151.555 14.6124 151.543 14.3875C151.515 14.2104 151.469 14.0363 151.408 13.8677C151.34 13.6835 151.244 13.5106 151.124 13.3547C151.007 13.2063 150.866 13.0785 150.706 12.9767C150.534 12.8743 150.347 12.7991 150.152 12.7539C149.932 12.6986 149.705 12.6713 149.477 12.6729C149.202 12.6716 148.929 12.7149 148.667 12.8011C148.407 12.8847 148.162 13.0126 147.945 13.1792C147.736 13.3306 147.555 13.518 147.412 13.7327C147.283 13.9154 147.181 14.1154 147.108 14.3268C147.024 14.5742 146.957 14.8267 146.905 15.0828" fill="white"/>
<path d="M155.168 21.4353C155.168 20.7602 155.215 20.0514 155.222 19.2346C155.485 18.9713 155.654 18.7958 155.735 18.6945L160.602 13.1929H160.082C159.205 13.1929 158.429 13.1929 157.76 13.1929C157.092 13.1929 156.444 13.2469 155.803 13.2874C155.85 12.6123 155.87 11.9778 155.87 11.2622H159.124C160.955 11.2622 162.508 11.2622 163.782 11.2622C163.782 11.5457 163.714 12.3153 163.667 13.5844L158.678 19.1266L158.341 19.4776C159.016 19.4776 159.563 19.4776 160.015 19.4776C160.987 19.4776 161.662 19.4776 162.04 19.4776C162.418 19.4776 162.857 19.4776 163.39 19.4236C163.336 19.9231 163.289 20.5779 163.248 21.388C162.078 21.388 160.755 21.388 159.279 21.388C157.708 21.388 156.331 21.388 155.148 21.388" fill="white"/>
<path d="M166.3 13.4965C166.394 13.0172 166.455 12.6797 166.475 12.4839C166.495 12.2882 166.543 11.9979 166.597 11.6064C167.388 11.4179 168.187 11.2692 168.993 11.1608C169.665 11.0749 170.341 11.032 171.018 11.0326C171.701 11.024 172.383 11.108 173.043 11.2823C173.589 11.4157 174.087 11.6986 174.481 12.0992C174.852 12.5492 175.035 13.1243 174.994 13.7058C174.994 14.0838 174.947 15.0559 174.839 16.6018C174.731 18.1476 174.67 19.7543 174.65 21.4081H173.253H171.828C171.916 20.6048 171.984 19.6733 172.038 18.6202L172.173 16.136C171.916 16.298 171.727 16.4195 171.592 16.487C171.445 16.5565 171.294 16.6173 171.14 16.6693C170.978 16.7233 170.681 16.811 170.262 16.9258C169.844 17.0405 169.506 17.1418 169.256 17.2296C169.024 17.3116 168.799 17.4109 168.581 17.5266C168.393 17.6225 168.221 17.7453 168.068 17.8911C167.94 18.0137 167.836 18.1605 167.765 18.3232C167.698 18.4764 167.666 18.6422 167.67 18.8092C167.665 19.0709 167.751 19.3262 167.913 19.5315C168.069 19.7318 168.284 19.8781 168.527 19.95C168.807 20.0362 169.099 20.0772 169.391 20.0715C169.617 20.0719 169.843 20.0561 170.066 20.0243C170.39 19.9692 170.709 19.8856 171.018 19.7745C170.825 20.3306 170.661 20.8961 170.525 21.4689C170.053 21.5499 169.682 21.5972 169.405 21.6174C169.128 21.6377 168.865 21.6174 168.622 21.6174C167.931 21.6369 167.243 21.5199 166.597 21.2731C166.081 21.0725 165.656 20.6909 165.402 20.1998C165.154 19.7436 165.022 19.2337 165.017 18.7147C165.02 18.425 165.07 18.1376 165.166 17.8641C165.269 17.5854 165.417 17.3255 165.604 17.0946C165.825 16.8396 166.077 16.6129 166.354 16.4195C166.774 16.151 167.228 15.9399 167.704 15.7917C168.456 15.5433 169.223 15.3382 169.999 15.1774C170.249 15.1234 170.512 15.0559 170.782 14.9816C171.013 14.9263 171.239 14.8518 171.457 14.7589C171.613 14.6884 171.757 14.5926 171.882 14.4753C171.995 14.3735 172.084 14.2494 172.146 14.1108C172.204 13.9886 172.234 13.8547 172.233 13.7193C172.238 13.5954 172.217 13.4718 172.173 13.3559C172.129 13.24 172.062 13.134 171.977 13.0442C171.793 12.8575 171.558 12.7285 171.302 12.673C171.009 12.5972 170.707 12.5609 170.404 12.5649C169.025 12.6009 167.664 12.8963 166.394 13.4358" fill="white"/>
<path d="M162.641 7.67773C162.236 8.42704 161.844 9.18311 161.473 9.95267H159.866H158.368L158.24 9.63539C158.177 9.48688 158.069 9.25061 157.916 8.92658L157.328 7.67773H159.016L159.92 8.96709L160.913 7.67773H162.654" fill="white"/>
</svg>
