<svg width="255" height="74" viewBox="0 0 255 74" fill="none" xmlns="http://www.w3.org/2000/svg">
<path d="M84.1711 32.0079C82.5288 32.0058 80.9476 32.6265 79.75 33.7434L75.6185 29.9761C75.8644 29.6041 75.9948 29.1683 75.9933 28.7232C75.9937 28.5582 75.9765 28.3936 75.9422 28.2322L79.8182 26.4459C80.3157 27.1232 81.0402 27.6019 81.8612 27.7958C82.6823 27.9897 83.546 27.886 84.297 27.5034C85.0479 27.1208 85.6369 26.4844 85.9578 25.7088C86.2787 24.9331 86.3106 24.0691 86.0477 23.2722C85.7848 22.4752 85.2443 21.7977 84.5236 21.3615C83.8028 20.9253 82.9491 20.759 82.116 20.8926C81.2829 21.0261 80.525 21.4508 79.9789 22.0901C79.4327 22.7295 79.1341 23.5415 79.1367 24.3802C79.1379 24.6481 79.1694 24.915 79.2304 25.176L75.2352 27.0215C74.9291 26.7425 74.5534 26.5501 74.1472 26.4642C73.7409 26.3783 73.3189 26.4021 72.9251 26.5331C72.5312 26.6641 72.1798 26.8976 71.9075 27.2092C71.6351 27.5208 71.4517 27.8992 71.3763 28.3052C71.3009 28.7111 71.3363 29.1296 71.4787 29.5174C71.6211 29.9051 71.8655 30.2479 72.1863 30.51C72.5071 30.7721 72.8927 30.9441 73.3031 31.008C73.7134 31.072 74.1335 31.0255 74.5196 30.8735L78.7789 34.8016C78.1266 35.7448 77.7385 36.8434 77.6544 37.9848L71.1378 38.5097C71 36.7503 70.2521 35.0931 69.0216 33.8209C67.7912 32.5486 66.1545 31.7403 64.3911 31.5338L65.2429 24.7612C66.0921 24.6071 66.8558 24.151 67.3913 23.4781C67.9268 22.8052 68.1973 21.9615 68.1524 21.1048C68.1076 20.248 67.7503 19.4369 67.1474 18.8228C66.5446 18.2088 65.7373 17.834 64.8766 17.7684L63.4626 11.5037C64.028 11.2873 64.527 10.9285 64.9107 10.4624L73.3781 15.7366C73.1055 16.5709 73.1543 17.4761 73.5151 18.2766C73.876 19.0771 74.5231 19.7159 75.3311 20.0691C76.139 20.4222 77.0501 20.4646 77.8877 20.1879C78.7253 19.9113 79.4297 19.3353 79.8642 18.5718C80.2987 17.8083 80.4323 16.9116 80.2392 16.0556C80.0461 15.1997 79.54 14.4456 78.819 13.9395C78.0981 13.4334 77.2138 13.2115 76.3375 13.3167C75.4612 13.4219 74.6555 13.8469 74.0767 14.5091L65.5581 9.27718C65.6538 8.94981 65.7026 8.61066 65.7029 8.26975C65.7044 7.57519 65.4996 6.89564 65.1143 6.31618C64.729 5.73672 64.1802 5.28309 63.5367 5.01208C62.8932 4.74108 62.1836 4.66473 61.4967 4.79261C60.8097 4.9205 60.176 5.24692 59.6749 5.73101C59.1737 6.21511 58.8274 6.83537 58.6792 7.51414C58.5311 8.19291 58.5877 8.90004 58.842 9.54699C59.0962 10.1939 59.5369 10.752 60.1088 11.1512C60.6807 11.5505 61.3584 11.7732 62.057 11.7915L63.4966 18.0224C62.7693 18.2726 62.1434 18.7508 61.7132 19.385C61.2829 20.0192 61.0716 20.7752 61.111 21.5391C61.1504 22.303 61.4384 23.0335 61.9316 23.6207C62.4248 24.2079 63.0966 24.62 63.8459 24.795L62.994 31.5677C61.3567 31.68 59.7999 32.3155 58.5559 33.3794L52.7292 27.2332C54.2441 25.6438 55.1083 23.5502 55.1527 21.3614C55.1971 19.1726 54.4186 17.046 52.9694 15.3972C51.5201 13.7485 49.5043 12.6961 47.3159 12.4457C45.1275 12.1954 42.9237 12.7651 41.1354 14.0434L37.4384 8.66764C38.2095 7.84439 38.6387 6.76163 38.6395 5.63688V5.57762L50.2077 4.22308C50.471 4.81116 50.94 5.28433 51.5277 5.55477C52.1154 5.8252 52.7819 5.87453 53.4035 5.6936C54.025 5.51267 54.5594 5.11377 54.9074 4.57094C55.2554 4.02811 55.3934 3.37823 55.2958 2.74193C55.1982 2.10563 54.8716 1.52613 54.3767 1.11101C53.8817 0.695884 53.252 0.473334 52.6045 0.484665C51.9569 0.495997 51.3355 0.740442 50.8555 1.17262C50.3756 1.60481 50.0697 2.19537 49.9947 2.83469L38.3754 4.21462C38.081 3.34301 37.5232 2.58286 36.7781 2.03777C36.0331 1.49268 35.1371 1.18917 34.2122 1.16861C33.2872 1.14806 32.3784 1.41145 31.6096 1.9229C30.8408 2.43435 30.2494 3.16896 29.916 4.02661C29.5826 4.88426 29.5234 5.82322 29.7466 6.71551C29.9697 7.6078 30.4643 8.41 31.1629 9.01277C31.8615 9.61554 32.7301 9.98956 33.6504 10.0838C34.5706 10.1781 35.4978 9.98808 36.3054 9.53962L40.0791 14.9747C38.6002 16.3647 37.6524 18.2217 37.3976 20.2288C37.1429 22.236 37.5968 24.2687 38.6821 25.9802L33.1451 29.2227C32.457 28.6227 31.573 28.2918 30.6576 28.2914C30.3705 28.2968 30.0848 28.3337 29.8058 28.4015L27.0884 23.449C28.3639 22.7386 29.4085 21.6806 30.0989 20.3997C30.7893 19.1188 31.0967 17.6683 30.9849 16.2195C30.8731 14.7706 30.3467 13.3837 29.4679 12.2224C28.589 11.0611 27.3943 10.1737 26.0247 9.66503C24.655 9.15631 23.1676 9.04744 21.7377 9.35126C20.3079 9.65507 18.9953 10.3589 17.9547 11.3797C16.9141 12.4006 16.189 13.6958 15.8648 15.1128C15.5406 16.5297 15.6309 18.0093 16.125 19.3769L11.295 21.6034C10.7476 20.9601 9.98952 20.5293 9.15406 20.3865C8.3186 20.2438 7.45926 20.3984 6.72714 20.8231C5.99502 21.2477 5.437 21.9154 5.15121 22.7085C4.86541 23.5016 4.87014 24.3695 5.16456 25.1595C5.45899 25.9496 6.02425 26.6111 6.76095 27.0279C7.49766 27.4447 8.35864 27.59 9.19249 27.4383C10.0263 27.2866 10.7797 26.8476 11.32 26.1984C11.8604 25.5493 12.1531 24.7316 12.1468 23.8892C12.1395 23.5297 12.0792 23.1731 11.968 22.831L16.7298 20.6383C17.4058 21.7748 18.3674 22.7172 19.5203 23.3732C20.6731 24.0292 21.9777 24.3762 23.3061 24.3802C24.1226 24.3775 24.9334 24.246 25.7084 23.9908L28.4428 28.9687C27.9231 29.3435 27.5088 29.8444 27.2393 30.4236C26.9698 31.0028 26.8542 31.641 26.9036 32.2773C26.9529 32.9135 27.1656 33.5266 27.5212 34.0579C27.8768 34.5893 28.3635 35.0212 28.9348 35.3124C29.5062 35.6036 30.1431 35.7444 30.7848 35.7214C31.4265 35.6983 32.0515 35.5122 32.6003 35.1808C33.149 34.8493 33.603 34.3837 33.9191 33.8282C34.2352 33.2728 34.4028 32.646 34.4058 32.0079C34.4071 31.4202 34.2699 30.8404 34.0054 30.3147L39.5169 27.0893C41.0216 28.8112 43.1415 29.8837 45.4278 30.0796C47.7142 30.2756 49.9875 29.5796 51.7666 28.139L57.5933 34.3614C56.4958 35.711 55.8948 37.3925 55.8896 39.1277C55.8896 39.2462 55.8896 39.3647 55.8896 39.4832L50.3014 39.7372C50.0382 38.8074 49.5191 37.969 48.8026 37.3165C48.086 36.6639 47.2004 36.223 46.2454 36.0434C45.2904 35.8639 44.304 35.9528 43.3971 36.3001C42.4901 36.6474 41.6987 37.2393 41.1119 38.0093C40.5251 38.7793 40.1662 39.6967 40.0755 40.6584C39.9849 41.6201 40.1661 42.5879 40.5988 43.4528C41.0314 44.3177 41.6984 45.0455 42.5246 45.5541C43.3509 46.0628 44.3035 46.3322 45.2755 46.3321C46.4872 46.3464 47.6647 45.9323 48.5977 45.1638L54.2455 51.9365C54.0679 52.2644 53.9743 52.6307 53.9729 53.0031C53.9729 53.0031 53.9729 53.0624 53.9729 53.0878L46.2125 54.781C45.9525 54.1487 45.5403 53.5895 45.0121 53.1524C44.484 52.7154 43.8559 52.4138 43.1831 52.2743C42.5103 52.1347 41.8134 52.1613 41.1534 52.3519C40.4933 52.5424 39.8905 52.8911 39.3977 53.3672L35.888 50.4803C36.7677 49.2635 37.1576 47.7638 36.9812 46.2758C36.8048 44.7878 36.0748 43.4192 34.9347 42.4389C33.7946 41.4586 32.3268 40.9375 30.8197 40.978C29.3127 41.0186 27.8753 41.6178 26.7902 42.6579L21.6791 39.4578C22.1381 38.6003 22.378 37.6439 22.3776 36.6726C22.3825 35.2644 21.889 33.8993 20.9835 32.8161C20.0779 31.733 18.818 31.0007 17.4241 30.7475C16.0302 30.4942 14.5911 30.7361 13.3585 31.4308C12.126 32.1255 11.1784 33.2288 10.6817 34.5477L7.22312 33.7434C7.22312 33.6418 7.22312 33.5487 7.22312 33.4471C7.20685 32.5686 6.86692 31.7265 6.26772 31.0804C5.66852 30.4343 4.85168 30.0291 3.97195 29.9415C3.09223 29.8539 2.21073 30.09 1.49446 30.6051C0.778194 31.1203 0.276913 31.8786 0.0855892 32.7364C-0.105734 33.5942 0.0261906 34.492 0.456369 35.2596C0.886548 36.0273 1.5851 36.6115 2.41968 36.9015C3.25425 37.1915 4.16688 37.1672 4.98466 36.8333C5.80244 36.4993 6.46856 35.8789 6.85682 35.0895L10.3579 35.9361C10.3234 36.1886 10.3063 36.4431 10.3068 36.698C10.3017 37.879 10.6517 39.0346 11.312 40.0166L6.66942 43.6738C6.2371 43.4156 5.74268 43.2782 5.2383 43.2759C4.49049 43.2759 3.7733 43.5711 3.24452 44.0967C2.71573 44.6222 2.41866 45.3349 2.41866 46.0781C2.41866 46.8213 2.71573 47.534 3.24452 48.0596C3.7733 48.5851 4.49049 48.8803 5.2383 48.8803C5.96318 48.8825 6.66022 48.603 7.18053 48.1014L12.8198 50.9036C12.6001 51.4739 12.4875 52.0793 12.4876 52.6899C12.4791 53.6637 12.7524 54.6194 13.275 55.4431C13.7976 56.2669 14.5475 56.9239 15.4353 57.3361C16.3231 57.7482 17.3114 57.8981 18.2824 57.7678C19.2535 57.6375 20.1664 57.2325 20.9124 56.6011L24.2176 59.0647C23.6165 60.135 23.425 61.3853 23.6787 62.5849C23.9323 63.7845 24.6138 64.8524 25.5976 65.5918L24.1835 68.1316C24.0787 68.1228 23.9732 68.1228 23.8684 68.1316C23.1919 68.1277 22.5363 68.3642 22.0198 68.7985C21.5034 69.2327 21.1601 69.8361 21.0519 70.4997C20.9437 71.1634 21.0777 71.8436 21.4297 72.4177C21.7818 72.9918 22.3287 73.422 22.9718 73.6306C23.6149 73.8392 24.3118 73.8126 24.9369 73.5554C25.562 73.2983 26.074 72.8277 26.3806 72.2284C26.6872 71.6291 26.7682 70.9407 26.6091 70.2872C26.4499 69.6338 26.0609 69.0584 25.5124 68.6649L26.8243 66.3368C27.4149 66.5716 28.0452 66.6923 28.6813 66.6924C29.5184 66.6847 30.3408 66.4729 31.0762 66.0754C31.8116 65.6779 32.4376 65.107 32.899 64.4128C33.3604 63.7187 33.6432 62.9225 33.7225 62.0943C33.8018 61.2661 33.6752 60.4312 33.3538 59.663C33.0324 58.8948 32.5261 58.2168 31.8793 57.6886C31.2325 57.1604 30.4651 56.7982 29.6445 56.6338C28.8239 56.4694 27.9752 56.5078 27.173 56.7456C26.3708 56.9835 25.6397 57.4136 25.0439 57.998L21.8154 55.526C22.5994 54.4224 22.9101 53.0546 22.6792 51.7233C22.4484 50.3921 21.6949 49.2065 20.5845 48.4274C19.474 47.6483 18.0977 47.3394 16.7581 47.5689C15.4186 47.7983 14.2256 48.5471 13.4417 49.6507L7.92164 46.8654C8.00849 46.5914 8.05441 46.3061 8.05794 46.0188C8.0665 45.5363 7.94597 45.0601 7.70868 44.6389L12.2831 41.0579C12.8747 41.609 13.5722 42.0358 14.3338 42.3125C15.0954 42.5893 15.9054 42.7103 16.7152 42.6684C17.525 42.6265 18.318 42.4225 19.0465 42.0687C19.7751 41.7148 20.4242 41.2184 20.955 40.6092L26.015 43.7923C25.3423 44.9956 25.1069 46.3923 25.3482 47.7477C25.5895 49.1031 26.2929 50.3347 27.3403 51.2355C28.3876 52.1363 29.7149 52.6514 31.0993 52.6943C32.4837 52.7371 33.8408 52.3051 34.9425 51.4708L38.631 54.5101C38.342 55.0728 38.185 55.6934 38.1719 56.3251C38.1588 56.9569 38.2899 57.5833 38.5554 58.1575C38.8208 58.7316 39.2138 59.2385 39.7046 59.6401C40.1955 60.0417 40.7715 60.3275 41.3895 60.4761C42.0074 60.6247 42.6512 60.6322 43.2725 60.4981C43.8938 60.3639 44.4765 60.0916 44.9767 59.7016C45.4769 59.3116 45.8817 58.814 46.1607 58.2462C46.4396 57.6784 46.5855 57.0552 46.5873 56.4233C46.5873 56.3387 46.5873 56.254 46.5873 56.1694L54.5181 54.4762C54.7264 54.7412 54.9909 54.9574 55.2926 55.1095C55.5944 55.2617 55.9262 55.3461 56.2644 55.3566C56.5822 55.3758 56.9006 55.33 57.1999 55.2223C57.4993 55.1146 57.7733 54.9471 58.0052 54.7303C58.237 54.5134 58.4217 54.2517 58.548 53.9612C58.6743 53.6707 58.7394 53.3577 58.7394 53.0412C58.7394 52.7248 58.6743 52.4118 58.548 52.1213C58.4217 51.8308 58.237 51.5691 58.0052 51.3522C57.7733 51.1353 57.4993 50.9679 57.1999 50.8602C56.9006 50.7524 56.5822 50.7067 56.2644 50.7258C55.903 50.7306 55.5475 50.8175 55.2251 50.9798L49.5347 44.131C50.1649 43.2565 50.5071 42.2096 50.5144 41.1341L56.1196 40.8378C56.5552 42.5619 57.5838 44.0803 59.0272 45.1303C60.4706 46.1802 62.238 46.6955 64.0234 46.587C65.8088 46.4785 67.4998 45.753 68.8037 44.5361C70.1076 43.3192 70.9423 41.6875 71.1633 39.9235L77.7482 39.3986C77.9489 40.7992 78.6109 42.0942 79.6308 43.0812L76.5896 47.3818C75.9316 46.9675 75.1739 46.7359 74.3953 46.7111C73.6167 46.6863 72.8456 46.8692 72.1622 47.2407C71.4788 47.6123 70.908 48.159 70.5091 48.824C70.1103 49.489 69.8979 50.248 69.8941 51.0221C69.8938 51.3065 69.9223 51.5901 69.9792 51.8687L66.8274 52.7153C66.4871 52.0668 65.9193 51.5649 65.2316 51.3045C64.5439 51.0442 63.7841 51.0435 63.0959 51.3026C62.4077 51.5616 61.839 52.0625 61.4975 52.7104C61.156 53.3582 61.0654 54.108 61.2428 54.8178C61.4202 55.5275 61.8534 56.148 62.4603 56.5617C63.0672 56.9753 63.8056 57.1535 64.5358 57.0623C65.266 56.9712 65.9372 56.6172 66.4223 56.0672C66.9074 55.5173 67.1728 54.8096 67.1681 54.0783L70.4989 53.2317C70.8029 53.7417 71.2092 54.1842 71.6925 54.5317C72.1758 54.8792 72.7258 55.1242 73.3083 55.2516C73.8909 55.379 74.4936 55.3861 75.079 55.2724C75.6644 55.1587 76.2201 54.9266 76.7115 54.5905C77.2029 54.2545 77.6195 53.8217 77.9356 53.3189C78.2517 52.8162 78.4604 52.2542 78.5488 51.668C78.6372 51.0817 78.6035 50.4837 78.4496 49.9109C78.2958 49.3382 78.0251 48.8029 77.6544 48.3385L80.7552 43.9532C81.609 44.4811 82.5746 44.8047 83.5758 44.8983C84.577 44.992 85.5863 44.8532 86.5243 44.4929C87.4623 44.1326 88.3032 43.5607 88.9808 42.8222C89.6583 42.0837 90.1539 41.1989 90.4285 40.2375C90.7032 39.2761 90.7493 38.2645 90.5632 37.2823C90.3772 36.3002 89.9641 35.3745 89.3565 34.5781C88.749 33.7818 87.9635 33.1366 87.0622 32.6935C86.1608 32.2504 85.1682 32.0215 84.1626 32.0248L84.1711 32.0079Z" fill="url(#paint0_linear)"/>
<path d="M103.358 35.6452C103.613 31.9396 103.84 28.1464 104.037 24.2658C104.234 20.3851 104.314 17.4089 104.277 15.3373V13.5866H106.969H109.453C108.964 19.2471 108.661 26.6 108.545 35.6452H106.17H103.358Z" fill="#1474B5"/>
<path d="M129.465 35.6452H127.386H125.198L125.34 32.8332C124.962 33.333 124.553 33.8081 124.115 34.2556C123.736 34.6179 123.314 34.9304 122.856 35.1857C122.348 35.4709 121.803 35.6845 121.237 35.8203C119.666 36.1878 118.02 36.0657 116.521 35.4702C115.645 35.1104 114.858 34.5654 114.212 33.8727C113.564 33.1745 113.078 32.3411 112.79 31.4326C112.492 30.4799 112.341 29.4875 112.341 28.4893C112.339 27.071 112.614 25.666 113.151 24.3533C113.611 23.1015 114.361 21.9766 115.339 21.0708C116.249 20.2498 117.335 19.6473 118.513 19.3091C119.754 18.9557 121.04 18.7825 122.331 18.7949C123.431 18.8065 124.528 18.8979 125.614 19.0684C125.69 17.6679 125.734 16.1907 125.734 14.6917V13.5975H128.054H130.417C130.187 16.333 129.958 20.0641 129.75 24.7691C129.542 29.4741 129.432 33.1177 129.432 35.7109L129.465 35.6452ZM125.439 22.2306C124.682 22.0268 123.903 21.9202 123.119 21.9133C122.293 21.9115 121.471 22.0294 120.679 22.2634C119.905 22.5026 119.197 22.9184 118.611 23.478C117.99 24.0926 117.519 24.8412 117.232 25.6663C116.924 26.4929 116.761 27.3665 116.751 28.2486C116.736 29.0306 116.889 29.8066 117.199 30.5245C117.479 31.1974 117.961 31.767 118.578 32.1548C119.207 32.5596 119.942 32.769 120.69 32.7566C121.246 32.7625 121.797 32.6545 122.309 32.4393C122.814 32.2154 123.265 31.8873 123.633 31.4764C124.066 30.9749 124.407 30.4007 124.64 29.7804C124.958 28.8953 125.157 27.9717 125.231 27.034C125.307 26.1915 125.373 24.594 125.439 22.2197" fill="#1474B5"/>
<path d="M148.132 31.9797C147.99 32.6144 147.793 33.7523 147.53 35.4045C146.558 35.6195 145.576 35.7838 144.587 35.8969C143.787 35.9846 142.984 36.0284 142.18 36.0282C140.906 36.0417 139.634 35.9021 138.394 35.6124C137.31 35.355 136.305 34.8408 135.461 34.1134C134.62 33.365 133.98 32.4168 133.601 31.356C133.202 30.2622 132.998 29.1066 132.999 27.9422C133.001 26.6268 133.238 25.3224 133.7 24.0907C134.096 22.9163 134.763 21.8517 135.647 20.9832C136.455 20.2093 137.433 19.6359 138.503 19.3091C139.567 18.9836 140.673 18.8176 141.786 18.8168C142.846 18.8096 143.902 18.9457 144.926 19.2216C145.853 19.464 146.709 19.9255 147.421 20.5674C148.095 21.1979 148.625 21.9669 148.974 22.8214C149.344 23.7505 149.526 24.7433 149.511 25.7429C149.509 26.2687 149.454 26.7929 149.346 27.3076H137.507C137.507 27.7015 137.507 28.0188 137.507 28.2595C137.519 28.9577 137.671 29.6463 137.956 30.2838C138.202 30.8698 138.575 31.3933 139.05 31.8156C139.544 32.2413 140.122 32.5582 140.746 32.7457C141.374 32.9382 142.026 33.0378 142.683 33.0411C143.495 33.0365 144.304 32.9559 145.101 32.8004C146.148 32.5878 147.182 32.3138 148.198 31.9797H148.132ZM137.759 25.4147H145.32C145.341 25.0502 145.341 24.6849 145.32 24.3205C145.28 24.032 145.207 23.7492 145.101 23.478C144.999 23.1721 144.843 22.8869 144.641 22.6354C144.453 22.3961 144.223 22.1923 143.963 22.0336C143.684 21.8667 143.381 21.7414 143.066 21.6616C142.707 21.5805 142.34 21.5402 141.972 21.5413C141.522 21.5381 141.075 21.6083 140.648 21.7492C140.224 21.8825 139.828 22.09 139.477 22.3619C139.143 22.6132 138.851 22.9161 138.613 23.2591C138.41 23.5589 138.245 23.8823 138.12 24.222C137.988 24.6231 137.882 25.0324 137.803 25.4475" fill="#1474B5"/>
<path d="M157.422 19.2107L157.093 26.4104L156.874 33.632C156.798 36.63 156.721 38.4354 156.645 39.0372C156.588 39.6571 156.44 40.2654 156.207 40.8426C156.055 41.2074 155.849 41.5469 155.594 41.8492C155.311 42.159 154.983 42.4246 154.62 42.6371C154.199 42.9031 153.737 43.0989 153.253 43.217C152.446 43.4038 151.619 43.492 150.791 43.4796C150.211 43.4796 149.522 43.4796 148.712 43.3702C147.793 43.2847 146.88 43.1495 145.976 42.9653L145.823 40.8754L145.615 39.4858C146.594 39.844 147.626 40.0363 148.668 40.0548C149.122 40.0614 149.573 39.9911 150.003 39.8469C150.374 39.7355 150.719 39.5535 151.021 39.3108C151.22 39.1344 151.39 38.9276 151.524 38.698C151.772 38.2398 151.946 37.7448 152.038 37.2318C152.148 36.6519 152.268 35.2076 152.388 32.9207C152.465 31.1701 152.542 29.1349 152.596 26.8043C152.673 23.7515 152.717 21.7163 152.717 20.6769V19.2107H155.08H157.378" fill="#1474B5"/>
<path d="M160.77 35.6452C161.01 33.1943 161.215 30.4479 161.382 27.4061C161.55 24.3642 161.645 21.6324 161.667 19.2107H164.041H166.23L166.055 21.957C166.323 21.5743 166.615 21.2089 166.93 20.8629C167.221 20.5485 167.548 20.2694 167.904 20.0313C168.296 19.7668 168.718 19.5501 169.162 19.3857C169.65 19.2156 170.151 19.0875 170.661 19.0028C171.236 18.9047 171.818 18.8571 172.401 18.8605C173.332 18.8563 174.259 18.9778 175.158 19.2216C175.972 19.3967 176.727 19.7814 177.346 20.3377C177.858 20.8115 178.235 21.4115 178.441 22.0774C178.61 22.7276 178.694 23.397 178.692 24.0688C178.692 24.3642 178.692 24.8238 178.692 25.4584L178.353 32.5159C178.353 33.5006 178.287 34.5401 178.277 35.6562H176.088H173.615C173.703 34.7152 173.812 33.0849 173.944 30.7542C174.075 28.4236 174.141 26.8699 174.141 26.1149C174.167 25.4107 174.028 24.7101 173.736 24.0688C173.457 23.5479 173.015 23.1329 172.477 22.8871C171.906 22.6182 171.282 22.48 170.65 22.4823C170.029 22.4809 169.415 22.6075 168.845 22.8543C168.283 23.1041 167.785 23.4782 167.389 23.9485C166.933 24.4705 166.591 25.0816 166.383 25.7429C166.067 26.9635 165.884 28.2143 165.836 29.4741C165.726 31.0169 165.639 33.0739 165.573 35.6671H163.385H160.912" fill="#1474B5"/>
<path d="M183.31 22.8105C183.452 22.0337 183.55 21.4975 183.583 21.1802C183.616 20.8629 183.693 20.3924 183.791 19.7578C185.068 19.4479 186.361 19.2069 187.665 19.0356C188.753 18.8969 189.85 18.8275 190.947 18.8277C192.055 18.8132 193.159 18.9494 194.23 19.2326C195.115 19.4424 195.922 19.8975 196.56 20.5456C197.161 21.2756 197.462 22.2063 197.403 23.1497C197.403 23.7625 197.315 25.3271 197.14 27.8438C196.976 30.3604 196.867 32.9645 196.845 35.6452H194.58H192.26C192.402 34.3432 192.523 32.8332 192.61 31.1153L192.818 27.0997C192.514 27.3019 192.2 27.4881 191.877 27.6577C191.644 27.7762 191.402 27.8786 191.155 27.9641C190.881 28.0516 190.411 28.1939 189.733 28.3799C189.054 28.5659 188.507 28.73 188.102 28.8723C187.724 28.9991 187.357 29.1603 187.008 29.3537C186.705 29.5119 186.425 29.7107 186.176 29.9446C185.971 30.1318 185.808 30.36 185.697 30.6145C185.585 30.869 185.529 31.144 185.531 31.4217C185.52 31.8462 185.66 32.2607 185.925 32.5925C186.182 32.9145 186.528 33.1542 186.921 33.2818C187.374 33.4215 187.847 33.488 188.321 33.4788C188.687 33.4755 189.053 33.4463 189.415 33.3912C189.94 33.3067 190.457 33.1748 190.958 32.9973C190.649 33.8987 190.386 34.8154 190.17 35.7437C189.404 35.8641 188.792 35.9516 188.343 35.9844C187.894 36.0173 187.468 35.9844 187.085 35.9844C185.944 36.0197 184.807 35.8339 183.736 35.4374C182.903 35.1073 182.219 34.4849 181.811 33.6867C181.408 32.9477 181.194 32.1209 181.187 31.2795C181.186 30.8129 181.268 30.3499 181.428 29.9117C181.591 29.458 181.832 29.036 182.139 28.6644C182.497 28.2511 182.905 27.8836 183.354 27.5702C184.035 27.1342 184.771 26.7885 185.542 26.5417C186.761 26.1385 188.003 25.8096 189.262 25.5569C189.678 25.4694 190.105 25.36 190.542 25.2396C190.914 25.1428 191.28 25.0221 191.636 24.8785C191.888 24.7668 192.118 24.6112 192.315 24.419C192.492 24.2469 192.639 24.0474 192.753 23.8281C192.839 23.6277 192.884 23.4117 192.884 23.1935C192.894 22.9932 192.864 22.7929 192.794 22.6047C192.724 22.4166 192.617 22.2446 192.479 22.0993C192.179 21.7966 191.8 21.5843 191.385 21.4866C190.912 21.3731 190.427 21.3179 189.94 21.3224C187.706 21.3796 185.501 21.8546 183.441 22.723" fill="#1474B5"/>
<path d="M157.881 14.7026C157.881 15.2376 157.722 15.7606 157.425 16.2053C157.127 16.65 156.705 16.9963 156.21 17.2006C155.716 17.4048 155.172 17.4577 154.647 17.3525C154.123 17.2473 153.641 16.9888 153.264 16.6098C152.886 16.2307 152.629 15.7481 152.526 15.2232C152.423 14.6982 152.478 14.1544 152.685 13.6608C152.891 13.1671 153.239 12.7458 153.685 12.4502C154.131 12.1545 154.654 11.9979 155.189 12C155.544 12 155.895 12.07 156.222 12.206C156.549 12.3419 156.846 12.5412 157.097 12.7923C157.347 13.0434 157.545 13.3414 157.679 13.6692C157.814 13.9971 157.883 14.3482 157.881 14.7026Z" fill="#1474B5"/>
<path d="M162.762 61.6262C162.916 59.7952 163.072 57.0598 163.233 53.4198C163.408 49.7762 163.485 47.0408 163.485 45.1916H165.673H167.807L167.686 47.7957C167.972 47.363 168.286 46.9499 168.627 46.5593C168.947 46.2128 169.316 45.9143 169.721 45.673C170.22 45.3933 170.754 45.1799 171.308 45.0384C171.923 44.8842 172.556 44.807 173.19 44.8086C173.664 44.8069 174.136 44.8509 174.601 44.9399C175.026 45.0301 175.44 45.162 175.838 45.3338C176.178 45.4824 176.498 45.6736 176.79 45.9028C177.043 46.1133 177.267 46.3561 177.457 46.625C177.696 46.9943 177.898 47.3865 178.059 47.7957C178.257 47.4678 178.476 47.1534 178.716 46.8547C178.951 46.5628 179.219 46.2985 179.514 46.0669C179.847 45.7922 180.215 45.564 180.608 45.3885C181.049 45.1913 181.512 45.048 181.987 44.9618C183.4 44.6812 184.863 44.787 186.222 45.2682C187.009 45.539 187.694 46.0475 188.18 46.7234C188.673 47.4478 188.922 48.31 188.891 49.1853C188.891 49.6996 188.891 50.4655 188.782 51.4612C188.673 52.4569 188.618 54.0982 188.508 56.3632C188.399 58.6281 188.344 60.3897 188.333 61.6262H186.243H183.738C183.836 60.2366 183.924 58.7813 184.011 57.2494L184.208 53.5511C184.208 52.6101 184.285 51.8223 184.285 51.1767C184.32 50.5716 184.196 49.9679 183.924 49.4261C183.709 49.0595 183.389 48.766 183.005 48.5835C182.608 48.4121 182.179 48.3263 181.746 48.3319C181.28 48.3183 180.818 48.4177 180.399 48.6216C179.98 48.8255 179.616 49.1278 179.339 49.5027C178.992 49.929 178.725 50.4146 178.551 50.936C178.33 51.6842 178.194 52.4551 178.147 53.2338C178.059 54.2186 177.993 55.5206 177.939 57.1291L177.829 61.6152H175.641H173.267C173.332 60.7836 173.442 59.0877 173.584 56.5273C173.726 53.9669 173.792 52.2381 173.792 51.3409C173.8 50.9369 173.763 50.5332 173.682 50.1373C173.599 49.7939 173.443 49.4728 173.223 49.1963C173.007 48.914 172.725 48.6887 172.402 48.5398C172.056 48.3962 171.683 48.3254 171.308 48.3319C170.578 48.3248 169.872 48.5901 169.327 49.0759C168.734 49.6123 168.299 50.301 168.069 51.0673C167.71 52.6549 167.519 54.276 167.5 55.9036C167.38 58.2999 167.325 60.2037 167.325 61.6152H165.082H162.719" fill="#1474B5"/>
<path d="M192.283 61.6262L192.743 53.9669L192.874 49.5027C192.874 48.5836 192.874 47.6644 192.874 46.7453C192.874 46.5776 192.874 46.0633 192.874 45.2025H195.063H197.251L197.196 47.4018C197.519 46.9379 197.886 46.5056 198.29 46.1107C198.578 45.8183 198.906 45.5678 199.264 45.3667C199.642 45.1585 200.047 45.0038 200.468 44.9071C201.348 44.6884 202.268 44.6884 203.149 44.9071C203.149 45.9028 203.149 47.1721 203.291 48.7149C202.713 48.5615 202.116 48.4879 201.518 48.496C200.955 48.4875 200.394 48.5839 199.866 48.7805C199.38 48.9746 198.94 49.2691 198.575 49.6449C198.174 50.0536 197.852 50.5319 197.623 51.0564C197.394 51.6206 197.243 52.2132 197.174 52.818C197.087 53.3761 197.021 54.328 196.966 55.6957C196.912 57.0634 196.879 58.3874 196.879 59.7004C196.879 60.2037 196.879 60.7946 196.879 61.6043H194.691H192.294" fill="#1474B5"/>
<path d="M219.791 57.9169C219.649 58.5515 219.452 59.6895 219.189 61.3417C218.029 61.5824 217.001 61.7575 216.257 61.845C215.513 61.9325 214.648 61.9654 213.85 61.9654C212.572 61.9842 211.296 61.8446 210.053 61.5496C208.964 61.2839 207.956 60.754 207.12 60.0068C206.281 59.2606 205.642 58.3165 205.26 57.2604C204.865 56.1619 204.666 55.0029 204.669 53.8356C204.668 52.521 204.902 51.2167 205.359 49.9841C205.767 48.8313 206.433 47.7871 207.306 46.9313C208.118 46.141 209.103 45.5525 210.184 45.2135C211.269 44.8818 212.398 44.7158 213.532 44.7211C214.589 44.7146 215.642 44.8508 216.662 45.1259C217.591 45.3634 218.448 45.8256 219.156 46.4718C219.834 47.0993 220.365 47.869 220.71 48.7258C221.079 49.6587 221.261 50.655 221.246 51.6582C221.242 52.1833 221.191 52.707 221.093 53.2229H209.243C209.243 53.6168 209.243 53.9341 209.243 54.1748C209.239 54.8563 209.365 55.5323 209.615 56.1662C209.858 56.7538 210.232 57.2778 210.709 57.6981C211.202 58.1257 211.78 58.4429 212.405 58.6281C213.033 58.8207 213.686 58.9202 214.342 58.9235C215.154 58.9189 215.963 58.8383 216.76 58.6828C217.808 58.4716 218.842 58.1976 219.857 57.8622L219.791 57.9169ZM209.418 51.2971H216.979C216.999 50.9327 216.999 50.5674 216.979 50.2029C216.933 49.9158 216.86 49.6337 216.76 49.3604C216.649 49.0619 216.494 48.7816 216.301 48.5288C216.11 48.2883 215.881 48.0812 215.622 47.9161C215.344 47.7501 215.041 47.6283 214.725 47.555C214.367 47.4653 214 47.4212 213.631 47.4237C213.185 47.4216 212.741 47.4918 212.318 47.6316C211.895 47.7671 211.499 47.9744 211.147 48.2444C210.808 48.4897 210.515 48.7935 210.283 49.1416C210.074 49.4376 209.908 49.7618 209.79 50.1045C209.655 50.5055 209.545 50.9148 209.462 51.3299" fill="#1474B5"/>
<path d="M222.855 61.6262C222.855 60.532 222.931 59.3831 222.942 58.0591C223.369 57.6324 223.643 57.3479 223.774 57.1838L231.663 48.2662H230.82C229.398 48.2662 228.14 48.2662 227.056 48.2662C225.973 48.2662 224.923 48.3538 223.883 48.4194C223.96 47.3252 223.993 46.2967 223.993 45.1369H229.267C232.235 45.1369 234.752 45.1369 236.816 45.1369C236.816 45.5964 236.707 46.8438 236.63 48.9009L228.544 57.8841L227.997 58.453C229.092 58.453 229.978 58.453 230.711 58.453C232.287 58.453 233.381 58.453 233.993 58.453C234.606 58.453 235.317 58.453 236.182 58.3655C236.094 59.1752 236.018 60.2366 235.952 61.5496C234.055 61.5496 231.911 61.5496 229.518 61.5496C226.972 61.5496 224.74 61.5496 222.822 61.5496" fill="#1474B5"/>
<path d="M240.898 48.7586C241.051 47.9817 241.149 47.4347 241.182 47.1173C241.215 46.8 241.292 46.3295 241.379 45.6949C242.661 45.3894 243.958 45.1483 245.264 44.9727C246.352 44.8334 247.449 44.7639 248.546 44.7649C249.654 44.751 250.758 44.8872 251.829 45.1697C252.713 45.3859 253.52 45.8444 254.159 46.4937C254.76 47.2231 255.058 48.1553 254.991 49.0978C254.991 49.7105 254.914 51.2862 254.739 53.7918C254.564 56.2975 254.466 58.9016 254.433 61.5824H252.168H249.859C250.001 60.2803 250.111 58.7704 250.198 57.0634L250.417 53.0369C250.001 53.2995 249.695 53.4964 249.476 53.6058C249.238 53.7184 248.993 53.8171 248.743 53.9012C248.48 53.9888 247.999 54.131 247.321 54.317C246.642 54.503 246.095 54.6672 245.69 54.8094C245.314 54.9423 244.948 55.1033 244.596 55.2909C244.292 55.4463 244.012 55.6453 243.765 55.8817C243.556 56.0804 243.389 56.3184 243.272 56.582C243.165 56.8304 243.112 57.0992 243.119 57.3698C243.11 57.794 243.25 58.2079 243.513 58.5406C243.766 58.8652 244.114 59.1024 244.509 59.219C244.962 59.3586 245.435 59.4251 245.909 59.4159C246.275 59.4166 246.641 59.391 247.003 59.3393C247.528 59.25 248.045 59.1146 248.546 58.9345C248.233 59.8358 247.967 60.7525 247.747 61.6809C246.981 61.8122 246.38 61.8888 245.931 61.9216C245.482 61.9544 245.056 61.9216 244.662 61.9216C243.542 61.9532 242.426 61.7635 241.379 61.3636C240.544 61.0384 239.855 60.4199 239.443 59.6238C239.041 58.8843 238.827 58.0579 238.819 57.2166C238.823 56.747 238.905 56.2813 239.06 55.8379C239.227 55.3863 239.467 54.9649 239.771 54.5906C240.129 54.1773 240.537 53.8098 240.985 53.4964C241.666 53.0613 242.402 52.719 243.174 52.4788C244.394 52.0762 245.636 51.7438 246.894 51.4831C247.299 51.3956 247.725 51.2862 248.163 51.1658C248.537 51.0761 248.903 50.9554 249.257 50.8047C249.511 50.6905 249.744 50.5352 249.947 50.3452C250.129 50.1801 250.274 49.9789 250.373 49.7543C250.468 49.5562 250.517 49.3393 250.516 49.1197C250.523 48.9188 250.489 48.7186 250.418 48.5307C250.347 48.3428 250.238 48.171 250.1 48.0255C249.801 47.7229 249.421 47.5138 249.006 47.4237C248.53 47.301 248.041 47.2421 247.55 47.2486C245.315 47.3069 243.11 47.7858 241.051 48.6601" fill="#1474B5"/>
<path d="M234.967 39.3268C234.311 40.5413 233.676 41.7668 233.074 43.0142H230.47H228.041L227.833 42.4999C227.731 42.2592 227.556 41.8762 227.308 41.351L226.356 39.3268H229.092L230.558 41.4167L232.166 39.3268H234.989" fill="#1474B5"/>
<defs>
<linearGradient id="paint0_linear" x1="0.0419885" y1="37.0874" x2="90.6623" y2="37.0874" gradientUnits="userSpaceOnUse">
<stop stop-color="#2072B5"/>
<stop offset="1" stop-color="#2BB673"/>
</linearGradient>
</defs>
</svg>
