<svg width="187" height="54" viewBox="0 0 187 54" fill="none" xmlns="http://www.w3.org/2000/svg">
<path d="M61.7256 23.1174C60.5212 23.1158 59.3616 23.571 58.4834 24.3901L55.4537 21.6274C55.634 21.3545 55.7296 21.035 55.7285 20.7085C55.7288 20.5875 55.7162 20.4669 55.691 20.3485L58.5334 19.0385C58.8983 19.5353 59.4296 19.8863 60.0317 20.0285C60.6337 20.1706 61.2671 20.0946 61.8178 19.814C62.3686 19.5335 62.8004 19.0668 63.0358 18.498C63.2712 17.9292 63.2945 17.2956 63.1017 16.7111C62.9089 16.1267 62.5126 15.6299 61.984 15.31C61.4555 14.9901 60.8294 14.8681 60.2185 14.9661C59.6075 15.064 59.0518 15.3755 58.6513 15.8443C58.2507 16.3132 58.0317 16.9087 58.0336 17.5237C58.0346 17.7202 58.0576 17.9159 58.1024 18.1073L55.1725 19.4607C54.9481 19.2561 54.6726 19.1149 54.3747 19.0519C54.0767 18.989 53.7673 19.0064 53.4785 19.1025C53.1896 19.1986 52.932 19.3698 52.7322 19.5983C52.5325 19.8268 52.398 20.1043 52.3427 20.402C52.2874 20.6997 52.3133 21.0066 52.4178 21.291C52.5222 21.5753 52.7014 21.8267 52.9367 22.0189C53.172 22.2111 53.4548 22.3372 53.7557 22.3841C54.0566 22.431 54.3646 22.3969 54.6478 22.2854L57.7713 25.1661C57.2929 25.8577 57.0083 26.6634 56.9467 27.5004L52.1678 27.8853C52.0667 26.5951 51.5183 25.3798 50.6159 24.4468C49.7136 23.5139 48.5134 22.9211 47.2202 22.7697L47.8449 17.8031C48.4676 17.6901 49.0277 17.3556 49.4204 16.8622C49.813 16.3687 50.0114 15.75 49.9785 15.1217C49.9456 14.4935 49.6836 13.8986 49.2415 13.4483C48.7994 12.998 48.2075 12.7231 47.5763 12.675L46.5393 8.08092C46.9539 7.92224 47.3199 7.65908 47.6013 7.31731L53.8107 11.1851C53.6107 11.7969 53.6465 12.4607 53.9112 13.0477C54.1758 13.6348 54.6504 14.1032 55.2429 14.3622C55.8354 14.6212 56.5035 14.6523 57.1178 14.4494C57.732 14.2465 58.2485 13.8241 58.5671 13.2642C58.8858 12.7043 58.9838 12.0467 58.8421 11.419C58.7005 10.7913 58.3294 10.2383 57.8007 9.86717C57.272 9.49604 56.6235 9.33328 55.9809 9.41046C55.3383 9.48764 54.7475 9.79925 54.323 10.2849L48.076 6.44815C48.1462 6.20808 48.182 5.95936 48.1822 5.70936C48.1833 5.20002 48.0331 4.70169 47.7505 4.27675C47.468 3.85181 47.0656 3.51915 46.5937 3.32041C46.1218 3.12167 45.6014 3.06569 45.0976 3.15947C44.5939 3.25325 44.1292 3.49262 43.7616 3.84762C43.3941 4.20263 43.1401 4.65749 43.0315 5.15525C42.9228 5.65302 42.9644 6.17158 43.1508 6.64601C43.3373 7.12044 43.6605 7.52967 44.0798 7.82245C44.4992 8.11523 44.9962 8.27857 45.5085 8.292L46.5643 12.8613C46.0309 13.0448 45.5719 13.3955 45.2564 13.8606C44.9409 14.3257 44.7859 14.88 44.8148 15.4402C44.8437 16.0004 45.0549 16.5361 45.4166 16.9668C45.7783 17.3974 46.2709 17.6996 46.8204 17.8279L46.1957 22.7945C44.995 22.8769 43.8533 23.3429 42.941 24.1231L38.6681 19.6159C39.7791 18.4504 40.4128 16.915 40.4454 15.3099C40.478 13.7048 39.9071 12.1453 38.8443 10.9362C37.7815 9.7271 36.3032 8.95534 34.6984 8.77175C33.0935 8.58815 31.4775 9.00593 30.1661 9.94341L27.4549 6.00115C28.0204 5.39744 28.3351 4.60341 28.3357 3.77859V3.73513L36.819 2.74181C37.0121 3.17307 37.3561 3.52006 37.7871 3.71838C38.218 3.9167 38.7068 3.95287 39.1626 3.82019C39.6184 3.68751 40.0103 3.39498 40.2655 2.9969C40.5207 2.59883 40.6219 2.12225 40.5504 1.65563C40.4788 1.18901 40.2393 0.764043 39.8763 0.45962C39.5133 0.155197 39.0516 -0.00800753 38.5767 0.000302397C38.1018 0.00861233 37.6461 0.187872 37.2941 0.504806C36.9422 0.821739 36.7179 1.25482 36.6629 1.72365L28.1421 2.7356C27.9261 2.09642 27.5171 1.53898 26.9707 1.13924C26.4244 0.739511 25.7673 0.516938 25.089 0.501864C24.4107 0.486789 23.7442 0.679947 23.1805 1.05501C22.6167 1.43007 22.183 1.96879 21.9385 2.59773C21.694 3.22667 21.6506 3.91525 21.8142 4.56959C21.9778 5.22393 22.3405 5.81221 22.8528 6.25425C23.3651 6.69628 24.0021 6.97056 24.677 7.0397C25.3519 7.10884 26.0318 6.96948 26.6241 6.6406L29.3914 10.6263C28.3069 11.6457 27.6118 13.0075 27.425 14.4794C27.2382 15.9513 27.5711 17.4419 28.3669 18.6971L24.3064 21.0748C23.8019 20.6349 23.1536 20.3922 22.4823 20.3919C22.2717 20.3958 22.0622 20.4229 21.8576 20.4726L19.8649 16.8408C20.8003 16.3199 21.5663 15.544 22.0726 14.6047C22.5789 13.6653 22.8043 12.6017 22.7223 11.5392C22.6403 10.4767 22.2543 9.45963 21.6098 8.60799C20.9653 7.75635 20.0892 7.10563 19.0848 6.73257C18.0804 6.35951 16.9896 6.27967 15.9411 6.50247C14.8925 6.72527 13.9299 7.24141 13.1668 7.99002C12.4037 8.73864 11.872 9.6885 11.6342 10.7276C11.3965 11.7667 11.4627 12.8517 11.8251 13.8546L8.28305 15.4874C7.88163 15.0157 7.32571 14.6997 6.71304 14.595C6.10037 14.4903 5.47019 14.6037 4.9333 14.9151C4.39641 15.2266 3.9872 15.7161 3.77761 16.2978C3.56803 16.8794 3.5715 17.5159 3.78741 18.0952C4.00332 18.6746 4.41784 19.1597 4.9581 19.4654C5.49835 19.771 6.12973 19.8776 6.74122 19.7663C7.35271 19.6551 7.90516 19.3331 8.30142 18.8571C8.69767 18.381 8.91237 17.7814 8.90775 17.1636C8.90238 16.9 8.85818 16.6385 8.77656 16.3876L12.2686 14.7796C12.7643 15.6131 13.4695 16.3042 14.3149 16.7852C15.1604 17.2663 16.117 17.5207 17.0912 17.5237C17.6899 17.5217 18.2845 17.4253 18.8529 17.2381L20.8581 20.8886C20.477 21.1634 20.1732 21.5308 19.9755 21.9555C19.7779 22.3803 19.6932 22.8483 19.7294 23.3149C19.7656 23.7815 19.9215 24.2311 20.1823 24.6207C20.443 25.0104 20.7999 25.3271 21.2189 25.5406C21.6379 25.7542 22.105 25.8575 22.5756 25.8406C23.0462 25.8237 23.5045 25.6872 23.9069 25.4441C24.3093 25.2011 24.6423 24.8596 24.8741 24.4522C25.1059 24.0449 25.2288 23.5853 25.231 23.1174C25.2319 22.6864 25.1314 22.2612 24.9374 21.8757L28.9791 19.5103C30.0826 20.7731 31.6372 21.5596 33.3138 21.7033C34.9905 21.847 36.6576 21.3366 37.9622 20.2802L42.2351 24.8433C41.4303 25.833 40.9896 27.066 40.9858 28.3385C40.9858 28.4254 40.9858 28.5123 40.9858 28.5993L36.8878 28.7855C36.6948 28.1036 36.3141 27.4888 35.7886 27.0103C35.2631 26.5317 34.6137 26.2084 33.9134 26.0767C33.2131 25.9451 32.4897 26.0102 31.8246 26.2649C31.1595 26.5196 30.5792 26.9537 30.1488 27.5184C29.7185 28.083 29.4553 28.7558 29.3888 29.4611C29.3223 30.1663 29.4552 30.876 29.7725 31.5103C30.0898 32.1445 30.5789 32.6782 31.1848 33.0513C31.7907 33.4243 32.4893 33.6219 33.2021 33.6217C34.0907 33.6322 34.9542 33.3286 35.6384 32.765L39.7801 37.7316C39.6499 37.9721 39.5812 38.2408 39.5802 38.5139C39.5802 38.5139 39.5802 38.5573 39.5802 38.576L33.8892 39.8176C33.6986 39.3539 33.3963 38.9439 33.009 38.6233C32.6216 38.3028 32.1611 38.0817 31.6677 37.9794C31.1743 37.877 30.6632 37.8965 30.1792 38.0363C29.6952 38.176 29.2531 38.4317 28.8917 38.7808L26.318 36.6638C26.963 35.7715 27.249 34.6717 27.1196 33.5805C26.9903 32.4893 26.4549 31.4856 25.6189 30.7668C24.7828 30.0479 23.7064 29.6657 22.6012 29.6955C21.496 29.7252 20.442 30.1646 19.6462 30.9274L15.8981 28.5806C16.2347 27.9518 16.4106 27.2504 16.4103 26.5381C16.4139 25.5054 16.052 24.5043 15.3879 23.71C14.7239 22.9157 13.7999 22.3787 12.7778 22.193C11.7556 22.0073 10.7002 22.1847 9.79632 22.6941C8.89243 23.2036 8.19756 24.0127 7.83327 24.9798L5.29702 24.3901C5.29702 24.3156 5.29702 24.2473 5.29702 24.1728C5.28509 23.5285 5.0358 22.911 4.59639 22.4372C4.15698 21.9634 3.55796 21.6662 2.91283 21.602C2.2677 21.5378 1.62126 21.7109 1.096 22.0887C0.570737 22.4664 0.20313 23.0225 0.0628265 23.6516C-0.0774774 24.2807 0.0192675 24.939 0.334732 25.502C0.650196 26.0649 1.16247 26.4933 1.77449 26.706C2.38651 26.9187 3.05578 26.9009 3.65548 26.656C4.25519 26.4111 4.74367 25.9561 5.0284 25.3772L7.59589 25.998C7.57055 26.1832 7.55803 26.3699 7.55841 26.5567C7.55461 27.4228 7.81131 28.2703 8.29555 28.9904L4.89097 31.6724C4.57393 31.483 4.21136 31.3822 3.84148 31.3806C3.29308 31.3806 2.76715 31.5971 2.37937 31.9824C1.9916 32.3678 1.77375 32.8905 1.77375 33.4355C1.77375 33.9805 1.9916 34.5032 2.37937 34.8886C2.76715 35.2739 3.29308 35.4904 3.84148 35.4904C4.37306 35.4921 4.88422 35.2871 5.26578 34.9193L9.40125 36.9742C9.24016 37.3924 9.15758 37.8364 9.15762 38.2842C9.15139 38.9983 9.35184 39.6991 9.73509 40.3032C10.1183 40.9073 10.6682 41.3891 11.3193 41.6914C11.9703 41.9936 12.6951 42.1035 13.4072 42.0079C14.1193 41.9124 14.7888 41.6154 15.3358 41.1524L17.7597 42.959C17.3188 43.7439 17.1784 44.6608 17.3644 45.5405C17.5504 46.4202 18.0502 47.2034 18.7717 47.7456L17.7347 49.608C17.6578 49.6016 17.5804 49.6016 17.5035 49.608C17.0074 49.6052 16.5267 49.7787 16.1479 50.0971C15.7692 50.4156 15.5175 50.858 15.4381 51.3447C15.3588 51.8314 15.457 52.3302 15.7152 52.7512C15.9734 53.1722 16.3744 53.4877 16.846 53.6407C17.3176 53.7937 17.8287 53.7741 18.2871 53.5856C18.7455 53.397 19.121 53.0519 19.3458 52.6124C19.5707 52.1729 19.6301 51.668 19.5134 51.1889C19.3966 50.7097 19.1114 50.2877 18.7092 49.9992L19.6712 48.2919C20.1043 48.4641 20.5665 48.5526 21.033 48.5526C21.6469 48.547 22.25 48.3917 22.7893 48.1002C23.3286 47.8087 23.7876 47.39 24.126 46.881C24.4644 46.3719 24.6717 45.7881 24.7299 45.1807C24.788 44.5734 24.6952 43.9611 24.4595 43.3978C24.2238 42.8344 23.8525 42.3372 23.3782 41.9499C22.9039 41.5626 22.3412 41.2969 21.7394 41.1763C21.1376 41.0558 20.5152 41.0839 19.9269 41.2584C19.3387 41.4328 18.8025 41.7482 18.3656 42.1767L15.998 40.3639C16.5729 39.5547 16.8008 38.5516 16.6315 37.5753C16.4622 36.5991 15.9096 35.7296 15.0953 35.1583C14.281 34.5869 13.2717 34.3605 12.2894 34.5287C11.307 34.697 10.4322 35.2461 9.85728 36.0554L5.80927 34.0129C5.87295 33.8119 5.90663 33.6027 5.90922 33.392C5.91549 33.0381 5.82711 32.6889 5.65309 32.3801L9.0077 29.754C9.44154 30.1582 9.95305 30.4711 10.5115 30.6741C11.07 30.877 11.664 30.9658 12.2579 30.9351C12.8517 30.9043 13.4332 30.7547 13.9675 30.4953C14.5018 30.2358 14.9778 29.8717 15.3671 29.425L19.0778 31.7593C18.5844 32.6417 18.4118 33.6659 18.5887 34.6599C18.7657 35.6539 19.2816 36.557 20.0496 37.2176C20.8176 37.8782 21.791 38.2559 22.8062 38.2874C23.8215 38.3188 24.8166 38.002 25.6245 37.3902L28.3295 39.6189C28.1175 40.0317 28.0024 40.4867 27.9928 40.95C27.9832 41.4133 28.0793 41.8727 28.274 42.2937C28.4687 42.7147 28.7568 43.0865 29.1168 43.381C29.4768 43.6754 29.8992 43.885 30.3524 43.994C30.8055 44.103 31.2776 44.1085 31.7333 44.0101C32.1889 43.9118 32.6161 43.7121 32.983 43.4261C33.3498 43.1401 33.6466 42.7752 33.8512 42.3588C34.0558 41.9424 34.1628 41.4854 34.1641 41.022C34.1641 40.9599 34.1641 40.8978 34.1641 40.8358L39.98 39.5941C40.1328 39.7884 40.3267 39.947 40.548 40.0586C40.7693 40.1701 41.0126 40.232 41.2606 40.2398C41.4937 40.2538 41.7271 40.2203 41.9467 40.1413C42.1662 40.0623 42.3672 39.9395 42.5372 39.7804C42.7072 39.6214 42.8427 39.4294 42.9353 39.2164C43.0279 39.0034 43.0756 38.7738 43.0756 38.5418C43.0756 38.3098 43.0279 38.0802 42.9353 37.8672C42.8427 37.6542 42.7072 37.4622 42.5372 37.3032C42.3672 37.1441 42.1662 37.0213 41.9467 36.9423C41.7271 36.8634 41.4937 36.8298 41.2606 36.8438C40.9956 36.8473 40.7349 36.911 40.4985 37.0301L36.3255 32.0076C36.7877 31.3664 37.0386 30.5986 37.0439 29.8099L41.1544 29.5926C41.4739 30.8569 42.2282 31.9705 43.2867 32.7404C44.3452 33.5104 45.6413 33.8883 46.9505 33.8087C48.2598 33.7291 49.4999 33.1971 50.4561 32.3047C51.4123 31.4123 52.0244 30.2157 52.1865 28.9221L57.0154 28.5372C57.1626 29.5643 57.6481 30.514 58.396 31.2378L56.1658 34.3916C55.6832 34.0877 55.1276 33.9179 54.5566 33.8997C53.9856 33.8815 53.4202 34.0156 52.919 34.2881C52.4179 34.5606 51.9993 34.9615 51.7068 35.4491C51.4143 35.9368 51.2585 36.4934 51.2557 37.0611C51.2555 37.2696 51.2764 37.4776 51.3182 37.682L49.0068 38.3028C48.7573 37.8272 48.3409 37.4592 47.8366 37.2682C47.3323 37.0773 46.7751 37.0768 46.2704 37.2668C45.7657 37.4568 45.3487 37.8241 45.0982 38.2992C44.8478 38.7742 44.7813 39.3241 44.9115 39.8446C45.0416 40.3651 45.3592 40.8201 45.8043 41.1234C46.2493 41.4268 46.7909 41.5574 47.3263 41.4906C47.8618 41.4238 48.354 41.1641 48.7098 40.7609C49.0655 40.3576 49.2601 39.8386 49.2567 39.3023L51.6992 38.6815C51.9222 39.0555 52.2201 39.38 52.5746 39.6348C52.929 39.8896 53.3323 40.0693 53.7595 40.1627C54.1867 40.2562 54.6287 40.2614 55.058 40.178C55.4873 40.0946 55.8948 39.9244 56.2552 39.678C56.6155 39.4315 56.9211 39.1141 57.1529 38.7454C57.3846 38.3768 57.5377 37.9647 57.6025 37.5347C57.6674 37.1048 57.6426 36.6662 57.5298 36.2462C57.417 35.8262 57.2185 35.4337 56.9467 35.0931L59.2206 31.8772C59.8467 32.2644 60.5548 32.5016 61.289 32.5703C62.0232 32.639 62.7634 32.5372 63.4512 32.273C64.1391 32.0088 64.7558 31.5894 65.2526 31.0478C65.7495 30.5063 66.1129 29.8574 66.3143 29.1524C66.5157 28.4474 66.5496 27.7055 66.4131 26.9853C66.2767 26.2651 65.9738 25.5862 65.5282 25.0022C65.0826 24.4182 64.5067 23.9451 63.8457 23.6202C63.1847 23.2952 62.4568 23.1273 61.7193 23.1298L61.7256 23.1174Z" fill="url(#paint0_linear)"/>
<path d="M75.796 25.7845C75.9832 23.067 76.1491 20.2854 76.2935 17.4396C76.4379 14.5937 76.4968 12.4112 76.47 10.892V9.60815H78.4439H80.2654C79.907 13.7592 79.685 19.1513 79.5994 25.7845H77.8582H75.796Z" fill="white"/>
<path d="M94.9412 25.7843H93.4167H91.8119L91.9162 23.7221C91.6392 24.0887 91.339 24.4371 91.0175 24.7652C90.7401 25.0309 90.4301 25.2601 90.0947 25.4473C89.7222 25.6565 89.3226 25.8131 88.9072 25.9127C87.7552 26.1822 86.5484 26.0926 85.4488 25.6559C84.8066 25.3921 84.2291 24.9924 83.7558 24.4844C83.2801 23.9724 82.9238 23.3613 82.7127 22.6951C82.4942 21.9964 82.3833 21.2686 82.3837 20.5366C82.382 19.4965 82.5837 18.4662 82.9775 17.5035C83.3146 16.5856 83.8646 15.7606 84.5823 15.0963C85.2495 14.4943 86.0454 14.0524 86.9092 13.8045C87.8198 13.5453 88.7629 13.4183 89.7096 13.4274C90.5158 13.4359 91.3203 13.5029 92.1168 13.628C92.1729 12.6009 92.205 11.5177 92.205 10.4184V9.61597H93.9061H95.6393C95.4708 11.622 95.3023 14.3581 95.1498 17.8085C94.9974 21.2588 94.9171 23.9308 94.9171 25.8324L94.9412 25.7843ZM91.9884 15.9469C91.4335 15.7975 90.8619 15.7193 90.2873 15.7142C89.6816 15.7129 89.0789 15.7993 88.498 15.971C87.9303 16.1464 87.4111 16.4513 86.9814 16.8616C86.5264 17.3124 86.1805 17.8613 85.9704 18.4664C85.7445 19.0726 85.6251 19.7132 85.6173 20.3601C85.6065 20.9335 85.7186 21.5027 85.9463 22.0291C86.1516 22.5226 86.5048 22.9403 86.9574 23.2246C87.4186 23.5215 87.9575 23.6751 88.506 23.666C88.9136 23.6703 89.3177 23.5911 89.6935 23.4333C90.0634 23.2691 90.3943 23.0285 90.6644 22.7272C90.982 22.3594 91.2319 21.9383 91.4026 21.4834C91.6359 20.8343 91.7816 20.157 91.8359 19.4694C91.8921 18.8516 91.9402 17.6801 91.9884 15.9389" fill="white"/>
<path d="M108.63 23.0964C108.526 23.5618 108.381 24.3963 108.189 25.6079C107.476 25.7655 106.756 25.8861 106.03 25.969C105.444 26.0333 104.855 26.0654 104.265 26.0653C103.331 26.0752 102.399 25.9728 101.489 25.7604C100.694 25.5716 99.9567 25.1946 99.3384 24.6611C98.7211 24.1123 98.252 23.4169 97.9743 22.639C97.6814 21.8369 97.5321 20.9895 97.533 20.1356C97.534 19.171 97.7079 18.2144 98.0465 17.3111C98.337 16.4499 98.8263 15.6692 99.4748 15.0323C100.067 14.4648 100.784 14.0443 101.569 13.8046C102.349 13.5659 103.16 13.4442 103.976 13.4436C104.754 13.4383 105.528 13.5381 106.279 13.7404C106.959 13.9182 107.587 14.2567 108.109 14.7274C108.603 15.1898 108.992 15.7536 109.248 16.3803C109.519 17.0616 109.652 17.7897 109.641 18.5227C109.64 18.9083 109.6 19.2928 109.521 19.6702H100.839C100.839 19.959 100.839 20.1917 100.839 20.3683C100.847 20.8802 100.959 21.3852 101.168 21.8527C101.348 22.2825 101.622 22.6664 101.97 22.9761C102.332 23.2883 102.756 23.5207 103.214 23.6581C103.674 23.7993 104.153 23.8723 104.634 23.8747C105.23 23.8714 105.823 23.8122 106.407 23.6982C107.176 23.5423 107.934 23.3414 108.678 23.0964H108.63ZM101.023 18.282H106.568C106.584 18.0148 106.584 17.7469 106.568 17.4796C106.539 17.2681 106.485 17.0607 106.407 16.8618C106.333 16.6375 106.218 16.4283 106.07 16.2439C105.932 16.0684 105.764 15.9189 105.573 15.8026C105.368 15.6802 105.146 15.5883 104.915 15.5298C104.652 15.4703 104.383 15.4407 104.113 15.4415C103.783 15.4392 103.455 15.4907 103.142 15.594C102.831 15.6918 102.541 15.8439 102.283 16.0433C102.038 16.2276 101.824 16.4497 101.649 16.7013C101.501 16.9212 101.379 17.1583 101.288 17.4074C101.191 17.7015 101.113 18.0017 101.055 18.3061" fill="white"/>
<path d="M115.443 13.7324L115.202 19.0122L115.041 24.308C114.985 26.5066 114.929 27.8306 114.873 28.2719C114.831 28.7265 114.723 29.1725 114.552 29.5958C114.441 29.8634 114.289 30.1123 114.103 30.334C113.895 30.5612 113.654 30.756 113.388 30.9118C113.079 31.1069 112.741 31.2505 112.385 31.337C111.794 31.4741 111.187 31.5388 110.58 31.5296C110.155 31.5296 109.649 31.5296 109.055 31.4494C108.382 31.3867 107.712 31.2876 107.049 31.1525L106.937 29.6199L106.785 28.6009C107.502 28.8635 108.259 29.0046 109.023 29.0181C109.356 29.0229 109.687 28.9714 110.002 28.8657C110.274 28.784 110.527 28.6505 110.749 28.4725C110.895 28.3431 111.019 28.1915 111.118 28.0231C111.3 27.6871 111.427 27.3241 111.495 26.9479C111.575 26.5227 111.663 25.4635 111.752 23.7865C111.808 22.5026 111.864 21.0102 111.904 19.3011C111.96 17.0624 111.992 15.5699 111.992 14.8076V13.7324H113.725H115.41" fill="white"/>
<path d="M117.898 25.7845C118.074 23.9871 118.224 21.9731 118.347 19.7424C118.47 17.5118 118.54 15.5085 118.556 13.7325H120.297H121.902L121.773 15.7465C121.97 15.4658 122.185 15.1978 122.415 14.9441C122.629 14.7136 122.868 14.5089 123.129 14.3343C123.417 14.1403 123.727 13.9814 124.052 13.8609C124.41 13.7361 124.778 13.6422 125.152 13.58C125.573 13.5081 126 13.4732 126.427 13.4757C127.11 13.4726 127.79 13.5617 128.449 13.7405C129.046 13.8689 129.6 14.151 130.054 14.5589C130.429 14.9065 130.706 15.3465 130.857 15.8348C130.981 16.3116 131.043 16.8024 131.041 17.2951C131.041 17.5118 131.041 17.8488 131.041 18.3142L130.792 23.4896C130.792 24.2118 130.744 24.9741 130.736 25.7925H129.131H127.318C127.382 25.1025 127.462 23.9069 127.559 22.1978C127.655 20.4887 127.703 19.3493 127.703 18.7956C127.722 18.2792 127.621 17.7654 127.406 17.2951C127.202 16.9132 126.878 16.6088 126.483 16.4285C126.064 16.2314 125.607 16.13 125.143 16.1316C124.688 16.1307 124.237 16.2235 123.82 16.4045C123.408 16.5877 123.043 16.862 122.752 17.2069C122.418 17.5897 122.167 18.0378 122.014 18.5228C121.783 19.4179 121.648 20.3352 121.613 21.259C121.533 22.3904 121.468 23.8989 121.42 25.8005H119.816H118.002" fill="white"/>
<path d="M134.427 16.3722C134.532 15.8025 134.604 15.4093 134.628 15.1766C134.652 14.9439 134.708 14.5989 134.78 14.1335C135.717 13.9063 136.665 13.7295 137.621 13.6039C138.419 13.5022 139.223 13.4513 140.028 13.4515C140.84 13.4408 141.65 13.5407 142.435 13.7483C143.084 13.9022 143.676 14.236 144.144 14.7112C144.585 15.2465 144.806 15.9291 144.762 16.6209C144.762 17.0703 144.698 18.2177 144.57 20.0632C144.449 21.9087 144.369 23.8184 144.353 25.7843H142.692H140.991C141.095 24.8295 141.183 23.7222 141.248 22.4624L141.4 19.5176C141.177 19.6659 140.947 19.8024 140.71 19.9268C140.539 20.0137 140.362 20.0888 140.18 20.1515C139.98 20.2157 139.635 20.32 139.137 20.4564C138.64 20.5928 138.239 20.7132 137.942 20.8175C137.664 20.9105 137.395 21.0287 137.139 21.1705C136.917 21.2865 136.712 21.4323 136.529 21.6038C136.379 21.7411 136.259 21.9085 136.178 22.0951C136.096 22.2817 136.055 22.4834 136.056 22.6871C136.048 22.9983 136.151 23.3023 136.345 23.5456C136.534 23.7818 136.788 23.9575 137.075 24.0511C137.408 24.1536 137.754 24.2023 138.102 24.1956C138.371 24.1932 138.639 24.1717 138.905 24.1314C139.29 24.0694 139.668 23.9727 140.036 23.8425C139.809 24.5035 139.616 25.1757 139.458 25.8565C138.897 25.9448 138.447 26.009 138.118 26.0331C137.789 26.0571 137.476 26.0331 137.195 26.0331C136.359 26.0589 135.525 25.9227 134.74 25.6319C134.129 25.3898 133.627 24.9334 133.328 24.348C133.033 23.8061 132.876 23.1998 132.871 22.5827C132.87 22.2406 132.93 21.9011 133.047 21.5798C133.167 21.247 133.343 20.9376 133.569 20.665C133.831 20.362 134.131 20.0925 134.459 19.8626C134.959 19.5429 135.499 19.2894 136.064 19.1084C136.958 18.8127 137.869 18.5715 138.792 18.3862C139.097 18.322 139.41 18.2418 139.731 18.1535C140.004 18.0825 140.272 17.994 140.533 17.8887C140.718 17.8068 140.886 17.6927 141.031 17.5517C141.161 17.4255 141.269 17.2792 141.352 17.1184C141.415 16.9714 141.448 16.8131 141.448 16.653C141.456 16.5061 141.433 16.3592 141.382 16.2213C141.331 16.0833 141.253 15.9572 141.151 15.8506C140.931 15.6287 140.653 15.473 140.349 15.4013C140.002 15.318 139.646 15.2776 139.29 15.2809C137.651 15.3228 136.034 15.6712 134.524 16.308" fill="white"/>
<path d="M115.78 10.4265C115.78 10.8188 115.663 11.2024 115.445 11.5284C115.227 11.8545 114.917 12.1086 114.554 12.2583C114.192 12.4081 113.793 12.4469 113.408 12.3698C113.023 12.2926 112.67 12.1031 112.393 11.8251C112.116 11.5471 111.928 11.1932 111.853 10.8082C111.777 10.4232 111.818 10.0245 111.969 9.66249C112.12 9.30049 112.375 8.99151 112.702 8.7747C113.029 8.55789 113.413 8.44301 113.806 8.4446C114.066 8.44459 114.323 8.49592 114.563 8.59561C114.803 8.69531 115.021 8.84143 115.204 9.02557C115.388 9.20972 115.533 9.42827 115.632 9.66868C115.73 9.90909 115.781 10.1666 115.78 10.4265Z" fill="white"/>
<path d="M119.359 44.8376C119.472 43.495 119.587 41.489 119.704 38.8197C119.833 36.1477 119.889 34.1417 119.889 32.7856H121.494H123.058L122.97 34.6953C123.179 34.378 123.41 34.075 123.66 33.7886C123.895 33.5345 124.165 33.3156 124.462 33.1387C124.828 32.9335 125.219 32.7771 125.626 32.6733C126.077 32.5602 126.541 32.5036 127.006 32.5048C127.353 32.5035 127.7 32.5358 128.041 32.6011C128.352 32.6672 128.656 32.7639 128.948 32.8899C129.197 32.9989 129.432 33.1391 129.646 33.3072C129.832 33.4615 129.996 33.6396 130.135 33.8368C130.311 34.1076 130.459 34.3952 130.577 34.6953C130.722 34.4548 130.882 34.2243 131.058 34.0053C131.231 33.7912 131.427 33.5974 131.644 33.4275C131.888 33.2261 132.157 33.0587 132.446 32.9301C132.769 32.7854 133.109 32.6803 133.457 32.6171C134.494 32.4113 135.567 32.4889 136.563 32.8418C137.14 33.0404 137.642 33.4133 137.999 33.909C138.36 34.4401 138.543 35.0725 138.52 35.7144C138.52 36.0915 138.52 36.6532 138.44 37.3834C138.36 38.1135 138.32 39.3171 138.24 40.9781C138.159 42.6391 138.119 43.9309 138.111 44.8376H136.579H134.741C134.813 43.8186 134.878 42.7514 134.942 41.628L135.086 38.9159C135.086 38.2259 135.142 37.6482 135.142 37.1747C135.168 36.731 135.077 36.2882 134.878 35.8909C134.72 35.6221 134.485 35.4069 134.204 35.2731C133.912 35.1473 133.598 35.0844 133.281 35.0885C132.939 35.0786 132.6 35.1515 132.293 35.301C131.985 35.4505 131.719 35.6721 131.516 35.9471C131.261 36.2597 131.065 36.6158 130.938 36.9982C130.776 37.5469 130.676 38.1122 130.641 38.6832C130.577 39.4054 130.529 40.3603 130.488 41.5398L130.408 44.8296H128.803H127.062C127.11 44.2198 127.191 42.9761 127.295 41.0985C127.399 39.2209 127.447 37.9531 127.447 37.2951C127.453 36.9988 127.426 36.7028 127.367 36.4125C127.306 36.1607 127.191 35.9252 127.03 35.7224C126.872 35.5154 126.665 35.3502 126.428 35.241C126.174 35.1357 125.901 35.0838 125.626 35.0885C125.091 35.0833 124.573 35.2779 124.174 35.6341C123.738 36.0274 123.419 36.5325 123.251 37.0945C122.987 38.2587 122.847 39.4475 122.834 40.6411C122.745 42.3984 122.705 43.7945 122.705 44.8296H121.06H119.327" fill="white"/>
<path d="M141.008 44.8375L141.345 39.2207L141.441 35.9469C141.441 35.2729 141.441 34.5989 141.441 33.9249C141.441 33.8018 141.441 33.4247 141.441 32.7935H143.046H144.651L144.611 34.4063C144.848 34.0661 145.116 33.749 145.413 33.4595C145.624 33.245 145.865 33.0613 146.127 32.9138C146.404 32.7612 146.701 32.6478 147.01 32.5768C147.655 32.4164 148.33 32.4164 148.976 32.5768C148.976 33.307 148.976 34.2378 149.08 35.3692C148.656 35.2567 148.219 35.2027 147.78 35.2087C147.367 35.2024 146.956 35.2732 146.568 35.4173C146.212 35.5596 145.889 35.7756 145.622 36.0512C145.328 36.3509 145.091 36.7017 144.924 37.0863C144.756 37.5001 144.645 37.9347 144.595 38.3782C144.53 38.7874 144.482 39.4855 144.442 40.4885C144.402 41.4915 144.378 42.4624 144.378 43.4253C144.378 43.7944 144.378 44.2277 144.378 44.8214H142.773H141.016" fill="white"/>
<path d="M161.18 42.1175C161.076 42.5829 160.931 43.4174 160.739 44.629C159.888 44.8056 159.134 44.9339 158.588 44.9981C158.043 45.0623 157.409 45.0864 156.823 45.0864C155.886 45.1002 154.951 44.9978 154.039 44.7815C153.24 44.5866 152.501 44.1981 151.888 43.6501C151.273 43.1029 150.804 42.4106 150.524 41.6361C150.235 40.8305 150.088 39.9806 150.091 39.1246C150.09 38.1605 150.261 37.204 150.597 36.3001C150.896 35.4548 151.384 34.689 152.025 34.0614C152.62 33.4818 153.343 33.0503 154.135 32.8017C154.931 32.5584 155.759 32.4367 156.59 32.4406C157.365 32.4358 158.137 32.5357 158.885 32.7375C159.567 32.9116 160.195 33.2505 160.715 33.7244C161.212 34.1846 161.601 34.7491 161.854 35.3774C162.125 36.0615 162.258 36.7922 162.247 37.5278C162.244 37.9129 162.207 38.2969 162.135 38.6752H153.445C153.445 38.9641 153.445 39.1968 153.445 39.3733C153.442 39.8731 153.534 40.3688 153.718 40.8337C153.896 41.2646 154.17 41.6489 154.52 41.957C154.881 42.2707 155.305 42.5032 155.764 42.6391C156.224 42.7803 156.703 42.8533 157.184 42.8557C157.78 42.8523 158.373 42.7932 158.958 42.6792C159.726 42.5243 160.484 42.3233 161.228 42.0774L161.18 42.1175ZM153.573 37.263H159.118C159.133 36.9957 159.133 36.7279 159.118 36.4606C159.084 36.25 159.031 36.0432 158.958 35.8428C158.876 35.6238 158.763 35.4183 158.621 35.2329C158.481 35.0565 158.313 34.9047 158.123 34.7836C157.919 34.6619 157.697 34.5726 157.465 34.5188C157.203 34.453 156.933 34.4207 156.663 34.4225C156.336 34.4209 156.01 34.4724 155.7 34.575C155.39 34.6743 155.1 34.8263 154.841 35.0243C154.593 35.2042 154.378 35.427 154.207 35.6823C154.054 35.8994 153.933 36.1371 153.846 36.3884C153.747 36.6825 153.666 36.9827 153.606 37.2871" fill="white"/>
<path d="M163.427 44.8375C163.427 44.0351 163.483 43.1926 163.491 42.2217C163.804 41.9088 164.005 41.7001 164.101 41.5798L169.886 35.0402H169.268C168.225 35.0402 167.302 35.0402 166.508 35.0402C165.714 35.0402 164.943 35.1044 164.181 35.1526C164.237 34.3502 164.261 33.5959 164.261 32.7454H168.129C170.306 32.7454 172.152 32.7454 173.666 32.7454C173.666 33.0824 173.585 33.9971 173.529 35.5056L167.599 42.0933L167.198 42.5105C168.001 42.5105 168.651 42.5105 169.188 42.5105C170.344 42.5105 171.146 42.5105 171.595 42.5105C172.045 42.5105 172.566 42.5106 173.2 42.4464C173.136 43.0401 173.08 43.8185 173.032 44.7813C171.641 44.7813 170.068 44.7813 168.314 44.7813C166.447 44.7813 164.81 44.7813 163.403 44.7813" fill="white"/>
<path d="M176.658 35.4014C176.771 34.8317 176.843 34.4305 176.867 34.1978C176.891 33.9651 176.947 33.6201 177.012 33.1547C177.952 32.9306 178.902 32.7539 179.86 32.6251C180.658 32.5229 181.462 32.472 182.267 32.4726C183.079 32.4625 183.889 32.5623 184.674 32.7695C185.323 32.9281 185.915 33.2643 186.384 33.7404C186.824 34.2753 187.042 34.9589 186.993 35.6501C186.993 36.0995 186.937 37.2549 186.809 39.0924C186.68 40.9299 186.608 42.8396 186.584 44.8055H184.923H183.23C183.334 43.8506 183.415 42.7433 183.479 41.4916L183.639 38.5388C183.334 38.7313 183.11 38.8758 182.949 38.956C182.774 39.0386 182.595 39.1109 182.412 39.1727C182.219 39.2368 181.866 39.3412 181.369 39.4776C180.871 39.614 180.47 39.7343 180.173 39.8386C179.897 39.9361 179.629 40.0541 179.371 40.1917C179.147 40.3057 178.942 40.4517 178.761 40.625C178.608 40.7707 178.485 40.9453 178.4 41.1385C178.321 41.3207 178.283 41.5178 178.287 41.7163C178.281 42.0273 178.383 42.3308 178.576 42.5748C178.762 42.8129 179.017 42.9868 179.306 43.0723C179.639 43.1747 179.986 43.2235 180.333 43.2167C180.602 43.2172 180.87 43.1984 181.136 43.1606C181.521 43.0951 181.9 42.9958 182.267 42.8637C182.038 43.5247 181.842 44.1969 181.681 44.8777C181.12 44.974 180.678 45.0302 180.35 45.0542C180.021 45.0783 179.708 45.0542 179.419 45.0542C178.597 45.0774 177.779 44.9383 177.012 44.645C176.399 44.4066 175.894 43.953 175.591 43.3692C175.297 42.8269 175.14 42.2209 175.134 41.6039C175.137 41.2595 175.197 40.918 175.31 40.5929C175.433 40.2617 175.61 39.9527 175.832 39.6782C176.095 39.3751 176.394 39.1056 176.723 38.8758C177.222 38.5567 177.762 38.3057 178.327 38.1295C179.222 37.8343 180.133 37.5905 181.056 37.3994C181.353 37.3352 181.665 37.2549 181.986 37.1667C182.261 37.1009 182.529 37.0123 182.789 36.9019C182.975 36.8181 183.145 36.7042 183.294 36.5649C183.428 36.4438 183.534 36.2962 183.607 36.1316C183.677 35.9863 183.712 35.8272 183.712 35.6662C183.717 35.5189 183.692 35.372 183.64 35.2342C183.588 35.0964 183.508 34.9705 183.407 34.8638C183.188 34.6419 182.909 34.4885 182.604 34.4225C182.256 34.3325 181.897 34.2893 181.537 34.2941C179.897 34.3368 178.28 34.688 176.771 35.3292" fill="white"/>
<path d="M172.31 28.4846C171.828 29.3753 171.363 30.274 170.921 31.1887H169.012H167.23L167.078 30.8116C167.003 30.635 166.875 30.3542 166.693 29.9691L165.995 28.4846H168.001L169.076 30.0172L170.255 28.4846H172.326" fill="white"/>
<defs>
<linearGradient id="paint0_linear" x1="0.0308526" y1="26.8423" x2="66.4857" y2="26.8423" gradientUnits="userSpaceOnUse">
<stop stop-color="#2072B5"/>
<stop offset="1" stop-color="#2BB673"/>
</linearGradient>
</defs>
</svg>
