<svg width="11" height="15" viewBox="0 0 11 15" fill="none" xmlns="http://www.w3.org/2000/svg">
<path d="M4.51289 14.1602C4.51303 14.1602 4.51318 14.1603 4.51347 14.1605C4.54879 14.197 4.58322 14.2328 4.61708 14.2674C4.62277 14.2731 4.62802 14.2784 4.63371 14.284C4.661 14.312 4.68756 14.3391 4.71412 14.366C4.72214 14.3743 4.73017 14.3822 4.73819 14.3903C4.76286 14.4152 4.78708 14.4397 4.81086 14.4635C4.81743 14.4698 4.82371 14.4764 4.83013 14.4826C4.88966 14.5422 4.94614 14.5981 4.99925 14.6499C5.00626 14.6569 5.01326 14.6634 5.02012 14.6701C5.03836 14.6882 5.05631 14.7053 5.07367 14.7222C5.08228 14.7309 5.09104 14.7391 5.09965 14.7471C5.11584 14.763 5.1316 14.7779 5.14693 14.7929C5.15422 14.7999 5.16152 14.807 5.16867 14.8137C5.18997 14.8341 5.21055 14.8539 5.23025 14.8724C5.25214 14.8931 5.27446 14.9113 5.29694 14.9267C5.30394 14.9322 5.31167 14.9355 5.31912 14.9403C5.33415 14.9495 5.34918 14.9592 5.36421 14.9663C5.3734 14.9705 5.38245 14.9727 5.39179 14.9762C5.40506 14.9814 5.41878 14.9869 5.4325 14.9902C5.44213 14.993 5.45161 14.9933 5.46139 14.9946C5.47438 14.9966 5.48737 14.999 5.50021 14.9991C5.5024 14.9991 5.50458 15 5.50648 15C5.5167 15 5.52662 14.9977 5.53669 14.9969C5.54573 14.996 5.55478 14.9956 5.56368 14.994C5.57638 14.9913 5.58922 14.9869 5.60177 14.983C5.6098 14.9801 5.61826 14.9784 5.62658 14.9748C5.64044 14.9689 5.65416 14.9607 5.66758 14.9528C5.67415 14.9488 5.68101 14.946 5.68757 14.9419C5.70727 14.9281 5.72697 14.9127 5.74609 14.8948C5.76622 14.8759 5.78768 14.8554 5.81 14.8341C5.81467 14.83 5.81934 14.825 5.82401 14.8209C5.84371 14.8021 5.86399 14.7828 5.88501 14.7625C5.8888 14.7587 5.89259 14.7551 5.89683 14.751C5.97533 14.6753 6.06405 14.5889 6.16139 14.4915C6.16255 14.4905 6.16357 14.4893 6.1646 14.4884C6.2612 14.3921 6.36582 14.2857 6.47775 14.1702C6.48081 14.1669 6.48388 14.1636 6.48723 14.1605H6.48709C8.06992 12.5204 11.0001 9.03766 11.0001 5.72649C11.0001 2.56375 8.41517 0 5.50021 0C2.58524 0 6.10352e-05 2.56375 6.10352e-05 5.72649C6.10352e-05 9.03752 2.92991 12.5203 4.51289 14.1602ZM2.54044 5.60256C2.54044 3.95959 3.86543 2.6277 5.50021 2.6277C7.13455 2.6277 8.45968 3.95959 8.45968 5.60256C8.45968 7.24538 7.13455 8.57727 5.50021 8.57727C3.86543 8.57727 2.54044 7.24538 2.54044 5.60256Z" fill="#26C296"/>
</svg>
