<svg width="11" height="16" viewBox="0 0 11 16" fill="none" xmlns="http://www.w3.org/2000/svg">
<path fill-rule="evenodd" clip-rule="evenodd" d="M10.983 2.0858C10.9592 0.638403 10.3364 0.0346249 8.86903 0.0187431C6.60846 -0.00575257 4.34677 -0.00682933 2.08564 0.0190123C0.581454 0.03624 0.0135386 0.606909 0.00910397 2.07584C-0.00309139 6.01965 -0.00253713 9.96373 0.00827239 13.9075C0.0127071 15.388 0.545422 15.9393 2.07455 15.9665C4.28912 16.0061 6.5048 16.009 8.71964 15.9835C10.4048 15.9638 10.9658 15.4093 10.986 13.7829C11.0101 11.8561 10.9919 9.92873 10.9916 8.00138C10.9913 6.02988 11.0157 4.0573 10.983 2.0858ZM6.40779 13.4871C6.35041 14.0637 5.95157 14.3474 5.35954 14.289C4.83348 14.237 4.5067 13.9145 4.52943 13.4012C4.55492 12.8346 4.9255 12.5328 5.5142 12.501C6.07602 12.606 6.46627 12.8959 6.40779 13.4871ZM9.42891 6.56071C9.42863 7.90124 9.39787 9.24312 9.44138 10.582C9.46383 11.272 9.24376 11.5269 8.50594 11.5118C6.48207 11.4712 4.45681 11.4752 2.43265 11.5105C1.75692 11.522 1.5557 11.2744 1.56041 10.6539C1.58009 7.92789 1.58009 5.20187 1.56069 2.47612C1.55625 1.86023 1.74916 1.6037 2.42905 1.61581C4.4532 1.65134 6.47847 1.65457 8.50234 1.61446C9.23434 1.59966 9.46577 1.84273 9.44221 2.53911C9.39704 3.8783 9.42891 5.22017 9.42891 6.56071Z" fill="#26C296"/>
</svg>
