<svg width="40" height="32" viewBox="0 0 40 32" fill="none" xmlns="http://www.w3.org/2000/svg">
<path d="M0 20.4C0 27.36 4.32 31.32 9.24 31.32C13.8 31.32 17.4 27.6 17.4 23.16C17.4 18.72 14.28 15.6 10.32 15.6C9.48 15.6 8.52 15.72 8.28 15.84C9 11.76 13.08 6.84 16.92 4.56L11.16 0C4.56 4.68 0 12.12 0 20.4ZM22.2 20.4C22.2 27.36 26.52 31.32 31.44 31.32C36 31.32 39.6 27.6 39.6 23.16C39.6 18.72 36.48 15.6 32.52 15.6C31.68 15.6 30.72 15.72 30.48 15.84C31.2 11.76 35.28 6.84 39.12 4.56L33.36 0C26.76 4.68 22.2 12.12 22.2 20.4Z" fill="#26C296"/>
</svg>
